<svg id="Buddy" xmlns="http://www.w3.org/2000/svg" viewBox="0 0 42 42"><defs><style>.cls-1{fill:#93d500;}.cls-2{fill:#004c45;}.cls-3{fill:#ea1d76;}.cls-4{fill:#c2e76b;}.cls-5{fill:#fff;}</style></defs><title>Alien-Buddy</title><path class="cls-1" d="M34.114,18.54a13.1,13.1,0,1,1-26.193,0,2.686,2.686,0,0,1,.38-1.284c.389-.734,1.3-1.1,1.109-2.456a1.647,1.647,0,0,0-1.2-1.532s2.249-8.993.343-8.969c-.884.011-1.815,7.773-2.869,7.553S4.586,3.737,2.81,3.737c-1.248,0,.562,8.431.562,8.431A1.537,1.537,0,0,0,.935,11.6c-.609.393-.5,1.8-.153,2.819a13.457,13.457,0,0,1,.5,2.179L1.3,18.189a21.354,21.354,0,0,0,1.551,8.029A19.723,19.723,0,0,0,40.74,18.54l.012-1.944a13.457,13.457,0,0,1,.5-2.179c.347-1.015.378-2.426-.231-2.819a1.454,1.454,0,0,0-2.358.57s1.822-8.187.574-8.187c-1.776,0-1.831,7.652-2.885,7.871s-2.33-7.651-3.076-7.5c-2.158.424.55,8.92.55,8.92a1.645,1.645,0,0,0-1.2,1.532c-.192,1.356.719,1.722,1.109,2.456A2.95,2.95,0,0,1,34.114,18.54Z"/><path class="cls-2" d="M3.725,16.568c-.564,0-.925-.646-1.276-1.274-.112-.2-.228-.409-.351-.6a2.947,2.947,0,0,0-.693-.792.512.512,0,0,1-.138-.7.507.507,0,0,1,.7-.146,3.747,3.747,0,0,1,.986,1.091c.136.209.264.437.387.656a5.709,5.709,0,0,0,.436.707.149.149,0,0,0,.041-.063,3.343,3.343,0,0,0-.544-1.959.509.509,0,0,1,.885-.5c.171.3,1,1.859.6,2.846a1.193,1.193,0,0,1-.806.708A.815.815,0,0,1,3.725,16.568Z"/><circle class="cls-1" cx="21.018" cy="18.443" r="11.086"/><path class="cls-2" d="M21.018,8.222A10.221,10.221,0,1,1,10.8,18.443,10.232,10.232,0,0,1,21.018,8.222m0-1.016A11.237,11.237,0,1,0,32.255,18.443,11.237,11.237,0,0,0,21.018,7.206Z"/><path class="cls-3" d="M12.676,18.443a8.343,8.343,0,0,0,16.685,0Z"/><path class="cls-2" d="M21.018,38.771A20.249,20.249,0,0,1,2.378,26.417,21.915,21.915,0,0,1,.786,18.189L.774,16.6h0A13.7,13.7,0,0,0,.3,14.582c-.308-.9-.629-2.774.357-3.412a2.241,2.241,0,0,1,1.9-.38l.018.005C2.073,8.2,1.5,4.4,2.2,3.527a.772.772,0,0,1,.608-.3c1.438,0,1.883,2.538,2.355,5.225a19.69,19.69,0,0,0,.586,2.692A23.5,23.5,0,0,0,6.768,7.713c.688-2.783,1-3.912,1.777-3.922A.994.994,0,0,1,9.38,4.2c1.073,1.356-.12,6.865-.574,8.766a2.26,2.26,0,0,1,1.108,1.765,2.578,2.578,0,0,1-.783,2.266,2.781,2.781,0,0,0-.381.5,2.23,2.23,0,0,0-.32,1.046,12.588,12.588,0,1,0,25.175,0,2.424,2.424,0,0,0-.309-1.028,2.815,2.815,0,0,0-.392-.52,2.573,2.573,0,0,1-.782-2.265,2.263,2.263,0,0,1,1.083-1.751C32.71,11.334,31.289,6.2,32.3,4.5a1.307,1.307,0,0,1,.885-.65c.755-.159,1.056.754,1.868,3.64a23.782,23.782,0,0,0,1.231,3.686,18.063,18.063,0,0,0,.6-2.624c.477-2.612.927-5.078,2.363-5.078a.777.777,0,0,1,.614.3c.69.861.124,4.489-.375,7a2.223,2.223,0,0,1,1.821.4c.956.618.775,2.42.436,3.412a13.076,13.076,0,0,0-.478,2.082l-.007,1.879A20.213,20.213,0,0,1,21.018,38.771ZM2.03,11.73a1.571,1.571,0,0,0-.82.295c-.231.149-.327,1.114.054,2.228a13.977,13.977,0,0,1,.523,2.274L1.8,18.185a20.869,20.869,0,0,0,1.511,7.836,19.214,19.214,0,0,0,36.916-7.48l.012-1.948a13.466,13.466,0,0,1,.528-2.34c.328-.959.259-2.045-.025-2.228a1.24,1.24,0,0,0-1.027-.262,1.123,1.123,0,0,0-.581.589.509.509,0,0,1-.971-.294c.681-3.063,1.19-6.657.942-7.522-.537.381-1.018,3.021-1.233,4.2-.426,2.332-.664,3.46-1.419,3.618-1,.209-1.478-1.345-2.388-4.586a25.982,25.982,0,0,0-.879-2.78l-.02.032c-.681,1.15.339,5.577,1.142,8.1a.51.51,0,0,1-.4.656c-.059.012-.653.166-.784,1.1a1.565,1.565,0,0,0,.54,1.453,3.652,3.652,0,0,1,.514.7,3.37,3.37,0,0,1,.439,1.523,13.606,13.606,0,0,1-27.211,0,3.162,3.162,0,0,1,.46-1.559,3.594,3.594,0,0,1,.493-.659,1.563,1.563,0,0,0,.541-1.453c-.132-.934-.726-1.088-.794-1.1a.526.526,0,0,1-.331-.23.514.514,0,0,1-.066-.393C8.66,9.361,9.073,5.611,8.647,4.9a22.119,22.119,0,0,0-.892,3.057c-.77,3.113-1.187,4.6-2.176,4.393-.759-.159-.994-1.32-1.416-3.721C3.95,7.416,3.473,4.7,2.939,4.3c-.253.889.25,4.6.93,7.767a.509.509,0,0,1-.964.309,1.217,1.217,0,0,0-.651-.61A.787.787,0,0,0,2.03,11.73Z"/><path class="cls-4" d="M25.4,11.845a2.786,2.786,0,0,0-1.718.591,2.078,2.078,0,0,0,.387-1.212,2.1,2.1,0,1,0-.881,1.707A2.8,2.8,0,1,0,25.4,11.845Z"/><path class="cls-4" d="M20.478,13.438a1.877,1.877,0,0,0-1.226.454,2.819,2.819,0,0,0,.05-.523,2.775,2.775,0,1,0-.71,1.85c0,.036,0,.072,0,.109a1.89,1.89,0,1,0,1.89-1.89Z"/><path class="cls-1" d="M4.592,12.684a6.711,6.711,0,0,0-1.22.231l.1.769a6.031,6.031,0,0,1,1,.372,7.943,7.943,0,0,0,1.264.22,5.207,5.207,0,0,0,.569-.482C6.254,13.787,4.592,12.684,4.592,12.684Z"/><path class="cls-2" d="M6.3,15.756a.513.513,0,0,1-.4-.2,3.251,3.251,0,0,0-.833-.7,5.327,5.327,0,0,0-.691-.3c-.647-.254-1.315-.515-1.531-1.034a.891.891,0,0,1,.008-.707,1.467,1.467,0,0,1,.851-.794c1.6-.614,4.818.831,5.18,1a.508.508,0,0,1-.427.923c-1.216-.561-3.483-1.319-4.388-.972a.44.44,0,0,0-.28.245c.081.05.651.274.958.394a6.093,6.093,0,0,1,.835.373,4.244,4.244,0,0,1,1.122.959.508.508,0,0,1-.4.818Z"/><path class="cls-2" d="M38.533,16.58a.839.839,0,0,1-.241-.036,1.252,1.252,0,0,1-.825-.708c-.442-.98.252-2.524.4-2.824a.509.509,0,0,1,.918.439A3.263,3.263,0,0,0,38.4,15.42a.225.225,0,0,0,.109.12,4.755,4.755,0,0,0,.564-.8l.233-.368A6.294,6.294,0,0,0,39.87,13.3a.509.509,0,0,1,.955.35,7,7,0,0,1-.671,1.274l-.221.353C39.534,15.92,39.124,16.58,38.533,16.58Z"/><path class="cls-1" d="M37.443,12.684a6.724,6.724,0,0,1,1.221.231l-.1.769a6.064,6.064,0,0,0-1,.372,7.912,7.912,0,0,1-1.263.22,5.114,5.114,0,0,1-.569-.482C35.782,13.787,37.443,12.684,37.443,12.684Z"/><path class="cls-2" d="M35.623,15.928a.508.508,0,0,1-.41-.809,4.712,4.712,0,0,1,1.239-1.14,7.072,7.072,0,0,1,.81-.375,3.73,3.73,0,0,0,1.122-.6c-.03.027-.091-.066-.269-.133-.919-.35-3.268.469-4.535,1.067a.509.509,0,0,1-.434-.92c.375-.178,3.713-1.711,5.33-1.1a1.435,1.435,0,0,1,.839.78.879.879,0,0,1,.009.693c-.223.55-.96.857-1.673,1.152a6.2,6.2,0,0,0-.684.312,3.756,3.756,0,0,0-.935.866A.51.51,0,0,1,35.623,15.928Z"/><circle class="cls-2" cx="16.531" cy="13.369" r="2.244"/><path class="cls-5" d="M15.73,12.506c-.279.287-.438.879-.725.6s-.074-.817.205-1.105.765-.5,1.052-.22S16.008,12.219,15.73,12.506Z"/><circle class="cls-2" cx="21.975" cy="11.224" r="1.699"/><path class="cls-5" d="M21.368,10.571c-.211.217-.331.665-.548.454s-.056-.618.154-.836.58-.377.8-.166S21.579,10.354,21.368,10.571Z"/><circle class="cls-2" cx="25.403" cy="14.642" r="2.266"/><path class="cls-5" d="M24.594,13.771c-.282.29-.442.887-.732.606s-.075-.826.207-1.115.772-.5,1.062-.223S24.875,13.481,24.594,13.771Z"/><circle class="cls-2" cx="20.478" cy="15.328" r="1.531"/><path class="cls-5" d="M19.932,14.739c-.19.2-.3.6-.494.41s-.051-.558.139-.754.522-.34.718-.15S20.122,14.543,19.932,14.739Z"/><path class="cls-5" d="M19.561,20.477h0A1.07,1.07,0,0,1,18.5,19.56l-.163-1.127h2.443L20.62,19.56A1.071,1.071,0,0,1,19.561,20.477Z"/><path class="cls-5" d="M22.492,20.477h0a1.07,1.07,0,0,1-1.059-.917l-.163-1.127h2.443L23.55,19.56A1.07,1.07,0,0,1,22.492,20.477Z"/><path class="cls-5" d="M25.178,20.071h0a.856.856,0,0,1-.847-.733l-.131-.9h1.955l-.131.9A.855.855,0,0,1,25.178,20.071Z"/><path class="cls-5" d="M16.875,20.071h0a.856.856,0,0,1-.847-.733l-.13-.9h1.954l-.13.9A.856.856,0,0,1,16.875,20.071Z"/><path class="cls-5" d="M14.678,19.659h0a.641.641,0,0,1-.635-.549l-.1-.677h1.466l-.1.677A.642.642,0,0,1,14.678,19.659Z"/><path class="cls-5" d="M27.375,19.659h0a.642.642,0,0,1-.635-.549l-.1-.677h1.466l-.1.677A.641.641,0,0,1,27.375,19.659Z"/><path class="cls-4" d="M31.317,30.06c0-.258.42-.939.938-.939a.951.951,0,0,1,.842,1.037.781.781,0,0,1-.842.841A.938.938,0,0,1,31.317,30.06Z"/><path class="cls-4" d="M28.47,33.363c0-.258.225-.939.744-.939a1.115,1.115,0,0,1,1.037,1.037c0,.519-.421.548-.939.548S28.47,33.882,28.47,33.363Z"/><path class="cls-4" d="M17.342,33.519a1.172,1.172,0,0,1,1.287.333.915.915,0,0,1-.433,1.232c-.441.273-.785.028-1.058-.412A.761.761,0,0,1,17.342,33.519Z"/><path class="cls-4" d="M12.794,31.641a.645.645,0,0,1,.709.183.5.5,0,0,1-.239.678c-.242.15-.432.016-.582-.227A.418.418,0,0,1,12.794,31.641Z"/><path class="cls-4" d="M39.427,18.644a.043.043,0,0,0,.042-.045l-.009-.294a.032.032,0,0,0-.03-.03.031.031,0,0,0-.033.03h0l-.015.293h0v0A.044.044,0,0,0,39.427,18.644Z"/><path class="cls-4" d="M39.423,18.839a.056.056,0,0,0-.059.051h0l-.022.292h0v0a.066.066,0,0,0,.131,0v-.3A.055.055,0,0,0,39.423,18.839Z"/><path class="cls-4" d="M39.4,19.405a.076.076,0,0,0-.083.068h0l-.031.291h0v.006a.087.087,0,1,0,.173.006l.01-.294A.077.077,0,0,0,39.4,19.405Z"/><path class="cls-4" d="M39.358,19.97a.1.1,0,0,0-.109.083v0l-.04.289v.009a.106.106,0,1,0,.212.015l.021-.295A.1.1,0,0,0,39.358,19.97Z"/><path class="cls-4" d="M39.3,20.536a.116.116,0,0,0-.133.095v0l-.048.288v.009a.125.125,0,0,0,.248.026l.03-.294A.115.115,0,0,0,39.3,20.536Z"/><path class="cls-4" d="M39.223,21.1a.133.133,0,0,0-.157.105v0l-.057.286v.01a.143.143,0,0,0,.1.156.149.149,0,0,0-.158.116v0l-.066.284v0l0,.009a.163.163,0,0,0,.054.148.169.169,0,0,0-.121.12v0l-.074.282v0l0,.009a.176.176,0,0,0,.035.146.184.184,0,0,0-.11.119v0l-.082.278v0l0,.009a.189.189,0,0,0,.022.144.2.2,0,0,0-.1.117v0l-.091.275,0,0,0,.009a.2.2,0,0,0,.012.142.211.211,0,0,0-.1.116v0l-.1.273v0l0,.01a.216.216,0,0,0,0,.14.228.228,0,0,0-.1.114v0l-.109.269,0,0,0,.011a.246.246,0,0,0,0,.137.236.236,0,0,0-.1.111l0,0-.117.265,0,0,0,.011a.247.247,0,0,0-.012.134.263.263,0,0,0-.1.11v0l-.125.261,0,0,0,.009a.251.251,0,0,0-.019.134.264.264,0,0,0-.1.108l0,0-.133.257,0,0,0,.01a.267.267,0,0,0-.025.131.278.278,0,0,0-.1.105l0,0-.14.252,0,.005,0,.01a.294.294,0,0,0-.031.128.29.29,0,0,0-.1.1l0,0-.147.248,0,0,0,.009a.3.3,0,0,0-.037.128.292.292,0,0,0-.1.1l0,0-.156.243,0,0,0,.009a.309.309,0,0,0-.042.125.316.316,0,0,0-.106.1l0,0-.163.237,0,.006-.006.009a.33.33,0,0,0-.046.122.345.345,0,0,0-.108.094l0,0-.17.232,0,.005-.007.009a.337.337,0,0,0-.05.12.345.345,0,0,0-.11.092l0,0-.177.227,0,.006-.006.007a.33.33,0,0,0-.055.119.35.35,0,0,0-.112.088l0,0L35,29.739l0,.006-.006.007a.345.345,0,0,0-.059.116.358.358,0,0,0-.114.085l0,0-.191.215,0,.005-.006.008a.351.351,0,0,0-.063.113.356.356,0,0,0-.116.082l0,0-.2.21-.005.005-.006.007a.362.362,0,0,0-.067.11.385.385,0,0,0-.118.08l0,0-.2.2-.005,0-.006.006a.382.382,0,0,0-.072.109.371.371,0,0,0-.119.076l0,0-.209.2-.006,0-.006.006a.372.372,0,0,0-.075.106.4.4,0,0,0-.121.072l-.005,0-.215.19-.006.005-.006.006a.384.384,0,0,0-.079.1.417.417,0,0,0-.123.069l-.005,0-.221.183-.006.005-.007,0a.433.433,0,0,0-.082.1.4.4,0,0,0-.124.065l-.005,0-.227.176-.006,0-.005,0a.408.408,0,0,0-.087.1.414.414,0,0,0-.125.061l-.006,0-.231.169-.007,0-.005,0a.41.41,0,0,0-.091.095.4.4,0,0,0-.126.057l-.006,0-.237.162-.007.005,0,0a.356.356,0,0,1-.221.146l-.006,0-.242.154-.007.005-.006,0a.449.449,0,0,0-.1.088.454.454,0,0,0-.129.05l-.006,0-.247.146-.007.005-.006,0a.424.424,0,0,0-.1.084.433.433,0,0,0-.13.047l-.007,0-.25.139-.008,0,0,0a.427.427,0,0,0-.1.083.445.445,0,0,0-.131.042l-.007,0-.255.13-.008.005h0a.444.444,0,0,0-.106.079.431.431,0,0,0-.133.039l-.006,0-.259.122-.009,0,0,0a.44.44,0,0,0-.109.075.43.43,0,0,0-.133.035l-.007,0-.262.114-.009,0,0,0a.461.461,0,0,0-.11.071.434.434,0,0,0-.135.031l-.007,0-.266.106-.008,0,0,0a.432.432,0,0,0-.112.067.438.438,0,0,0-.136.027l-.007,0-.269.1-.007,0,0,0a.455.455,0,0,0-.117.064.462.462,0,0,0-.136.023l-.007,0-.272.089-.007,0h0a.462.462,0,0,0-.119.061.455.455,0,0,0-.136.018l-.007,0-.275.08-.007,0h0a.44.44,0,0,0-.12.056.5.5,0,0,0-.137.014l-.008,0-.277.072-.007,0h0a.451.451,0,0,0-.123.052.49.49,0,0,0-.137.01l-.008,0-.279.062-.007,0h0a.477.477,0,0,0-.124.048.487.487,0,0,0-.137.006H24.6l-.281.054h-.011a.484.484,0,0,0-.126.045.451.451,0,0,0-.137,0h-.007l-.283.045h-.008a.439.439,0,0,0-.13.041.482.482,0,0,0-.137,0h-.008l-.284.037h-.008a.481.481,0,0,0-.131.037.446.446,0,0,0-.137-.007H22.9l-.285.028h-.008a.441.441,0,0,0-.132.033.446.446,0,0,0-.137-.012h-.008l-.285.018h-.009a.492.492,0,0,0-.133.028.472.472,0,0,0-.137-.015H21.76l-.286.009h-.008a.5.5,0,0,0-.135.025.473.473,0,0,0-.137-.02H20.9a.461.461,0,0,0-.14.021.474.474,0,0,0-.137-.024h-.007l-.287-.008h0a.457.457,0,0,0-.139.016.492.492,0,0,0-.134-.028h-.007l-.286-.017h-.006a.459.459,0,0,0-.139.012.48.48,0,0,0-.133-.033h-.007l-.285-.026h-.006a.458.458,0,0,0-.139.007.484.484,0,0,0-.133-.036H18.9l-.284-.035h-.006a.461.461,0,0,0-.139,0,.436.436,0,0,0-.131-.041h-.007l-.283-.044h-.006a.5.5,0,0,0-.139,0,.465.465,0,0,0-.13-.045h-.007l-.281-.052-.008,0a.494.494,0,0,0-.138-.005.491.491,0,0,0-.128-.048l-.007,0-.279-.061h-.008a.454.454,0,0,0-.137-.009.432.432,0,0,0-.127-.053l-.007,0-.278-.07-.007,0a.459.459,0,0,0-.137-.013A.432.432,0,0,0,16.1,35.6l-.007,0-.275-.079-.007,0a.465.465,0,0,0-.137-.018.442.442,0,0,0-.123-.061l-.007,0-.272-.088-.008,0a.43.43,0,0,0-.136-.022.453.453,0,0,0-.121-.065l-.007,0-.269-.1-.007,0a.465.465,0,0,0-.136-.025.426.426,0,0,0-.119-.069l-.006,0-.267-.1-.007,0a.436.436,0,0,0-.135-.029.439.439,0,0,0-.117-.074l-.006,0-.264-.113-.007,0a.434.434,0,0,0-.134-.034.457.457,0,0,0-.114-.077l-.006,0-.26-.121-.007,0a.458.458,0,0,0-.133-.038.417.417,0,0,0-.112-.081l-.006,0-.256-.129-.006,0A.43.43,0,0,0,12.5,34.2a.419.419,0,0,0-.109-.086l-.006,0-.252-.137-.006,0a.425.425,0,0,0-.131-.045.4.4,0,0,0-.107-.089l-.005,0-.248-.145-.006,0a.439.439,0,0,0-.13-.049.419.419,0,0,0-.1-.092l-.005,0-.243-.152-.006,0a.4.4,0,0,0-.129-.053.416.416,0,0,0-.1-.1l-.006,0-.238-.16-.006,0a.424.424,0,0,0-.127-.057.414.414,0,0,0-.1-.1l0,0L10.2,32.74l-.006,0a.389.389,0,0,0-.125-.06.421.421,0,0,0-.094-.1l-.005,0-.228-.175,0,0a.423.423,0,0,0-.125-.064.41.41,0,0,0-.09-.106l-.005,0-.222-.181-.006,0a.4.4,0,0,0-.123-.067.378.378,0,0,0-.087-.11l0,0-.217-.188,0,0a.393.393,0,0,0-.121-.071.388.388,0,0,0-.083-.112l0,0-.211-.2,0,0a.382.382,0,0,0-.119-.074.377.377,0,0,0-.08-.116l0,0-.2-.2-.005,0a.355.355,0,0,0-.117-.077.375.375,0,0,0-.076-.12l0,0-.2-.209-.005,0a.339.339,0,0,0-.116-.081.352.352,0,0,0-.071-.122l0,0-.192-.214,0,0a.355.355,0,0,0-.114-.084.346.346,0,0,0-.067-.125l0,0-.186-.22,0-.005a.333.333,0,0,0-.112-.087.346.346,0,0,0-.062-.128l0,0L6.5,29.144l0,0a.314.314,0,0,0-.11-.089.32.32,0,0,0-.058-.131l0,0-.171-.232,0,0a.315.315,0,0,0-.11-.093.3.3,0,0,0-.052-.133l0,0-.164-.237,0,0a.306.306,0,0,0-.108-.1.316.316,0,0,0-.047-.136l0,0L5.5,27.73l0,0a.287.287,0,0,0-.106-.1.294.294,0,0,0-.041-.138l0,0L5.2,27.238l0,0a.275.275,0,0,0-.105-.1.267.267,0,0,0-.036-.141l0,0-.142-.252,0,0a.271.271,0,0,0-.1-.1.268.268,0,0,0-.03-.143l0,0-.134-.256,0,0a.263.263,0,0,0-.1-.106.251.251,0,0,0-.023-.144l0,0-.126-.26,0,0a.246.246,0,0,0-.1-.107.239.239,0,0,0-.016-.148v0l-.119-.264,0,0a.237.237,0,0,0-.1-.11.225.225,0,0,0-.007-.149v0l-.111-.268v0a.213.213,0,0,0-.106-.111.209.209,0,0,0,0-.152l0,0-.1-.271v0a.205.205,0,0,0-.108-.114.2.2,0,0,0,.013-.153v0l-.093-.275v0a.188.188,0,0,0-.113-.114.179.179,0,0,0,.026-.156v0L3.349,23v0a.173.173,0,0,0-.12-.116.165.165,0,0,0,.042-.158v0l-.075-.281v0a.157.157,0,0,0-.14-.115.147.147,0,0,0,.069-.162v0l-.068-.283v0a.139.139,0,0,0-.272.057l.051.291,0,.009a.147.147,0,0,0,.13.113.158.158,0,0,0-.077.169l.062.29,0,.008a.163.163,0,0,0,.112.115.175.175,0,0,0-.048.165l.071.288,0,.009a.183.183,0,0,0,.1.114.186.186,0,0,0-.031.164l.08.285,0,.01a.192.192,0,0,0,.1.113.2.2,0,0,0-.017.162l.089.283,0,.01a.208.208,0,0,0,.1.111.215.215,0,0,0-.007.16l.1.281,0,.011a.223.223,0,0,0,.1.109.226.226,0,0,0,0,.158l.107.277,0,.012a.241.241,0,0,0,.1.108.244.244,0,0,0,.012.155l.118.274,0,.01a.256.256,0,0,0,.1.106.254.254,0,0,0,.021.155l.126.27,0,.01a.259.259,0,0,0,.1.1.266.266,0,0,0,.027.153l.135.266.006.01a.277.277,0,0,0,.1.1.273.273,0,0,0,.035.151l.144.261,0,.009a.29.29,0,0,0,.1.1A.285.285,0,0,0,5,28.039l.153.257.006.009a.3.3,0,0,0,.1.1.3.3,0,0,0,.048.146l.161.252.006.01a.3.3,0,0,0,.1.094.316.316,0,0,0,.053.145L5.8,29.3l.007.01a.313.313,0,0,0,.107.092.318.318,0,0,0,.059.141l.177.241.007.009a.36.36,0,0,0,.109.09.353.353,0,0,0,.065.139l.185.234.007.009a.34.34,0,0,0,.111.087.346.346,0,0,0,.07.136l.193.229.007.009a.347.347,0,0,0,.113.084.372.372,0,0,0,.075.134l.2.222.008.009a.345.345,0,0,0,.115.081.385.385,0,0,0,.08.13L7.7,31.6l.007.007a.369.369,0,0,0,.119.079.388.388,0,0,0,.085.127l.214.209.007.007a.372.372,0,0,0,.12.075.387.387,0,0,0,.09.124l.221.2.007.007a.378.378,0,0,0,.122.071.4.4,0,0,0,.094.121l.227.2.008.007a.4.4,0,0,0,.124.068.4.4,0,0,0,.1.117l.234.188.007.005a.406.406,0,0,0,.127.066.407.407,0,0,0,.1.113l.239.18.007.006a.387.387,0,0,0,.13.061.382.382,0,0,0,.106.11l.245.173.007.005a.424.424,0,0,0,.131.058.428.428,0,0,0,.11.106l.251.165.007,0a.426.426,0,0,0,.133.055.427.427,0,0,0,.113.1l.256.157.008,0a.4.4,0,0,0,.134.05.413.413,0,0,0,.117.1l.261.148.006,0a.4.4,0,0,0,.138.047.414.414,0,0,0,.12.094l.266.14.006,0a.42.42,0,0,0,.139.042.444.444,0,0,0,.123.09l.271.131.006,0a.452.452,0,0,0,.14.039.444.444,0,0,0,.126.085l.275.122.006,0a.421.421,0,0,0,.142.034.43.43,0,0,0,.129.082l.278.113.006,0a.481.481,0,0,0,.142.03.479.479,0,0,0,.132.076l.283.1h0a.435.435,0,0,0,.145.026.438.438,0,0,0,.135.072l.285.095h0a.468.468,0,0,0,.147.022.454.454,0,0,0,.136.067l.289.085,0,0A.465.465,0,0,0,16,36.5a.461.461,0,0,0,.139.062l.291.077h0a.462.462,0,0,0,.147.012.487.487,0,0,0,.141.058l.294.067h0a.458.458,0,0,0,.147.008.463.463,0,0,0,.143.053l.3.057h0a.467.467,0,0,0,.149,0,.461.461,0,0,0,.144.048l.3.047h0a.509.509,0,0,0,.151,0,.462.462,0,0,0,.145.044l.3.037h0a.442.442,0,0,0,.15-.006.484.484,0,0,0,.147.039l.3.028h0a.442.442,0,0,0,.15-.011.485.485,0,0,0,.148.035l.3.018h0a.5.5,0,0,0,.15-.015.487.487,0,0,0,.149.029l.3.009h0a.449.449,0,0,0,.151-.021.479.479,0,0,0,.148.026h.3a.442.442,0,0,0,.15-.026.445.445,0,0,0,.151.02l.3-.011a.44.44,0,0,0,.15-.03.447.447,0,0,0,.151.015l.3-.02a.458.458,0,0,0,.149-.035.422.422,0,0,0,.151.01L23,37.1a.451.451,0,0,0,.147-.04.482.482,0,0,0,.152.006l.3-.039a.476.476,0,0,0,.146-.044.484.484,0,0,0,.152,0l.3-.049a.461.461,0,0,0,.144-.048.459.459,0,0,0,.152-.005l.3-.059a.465.465,0,0,0,.143-.054.456.456,0,0,0,.151-.009l.293-.068a.467.467,0,0,0,.141-.059.484.484,0,0,0,.151-.014l.291-.078a.434.434,0,0,0,.138-.063.461.461,0,0,0,.151-.019l.288-.087a.439.439,0,0,0,.137-.068.438.438,0,0,0,.15-.023l.285-.1a.458.458,0,0,0,.134-.073.432.432,0,0,0,.149-.028l.282-.105A.432.432,0,0,0,27.8,35.9a.459.459,0,0,0,.148-.033l.278-.115a.438.438,0,0,0,.128-.082.448.448,0,0,0,.147-.037l.274-.124a.446.446,0,0,0,.126-.086.428.428,0,0,0,.146-.042l.27-.132a.481.481,0,0,1,.268-.137l.265-.141a.443.443,0,0,0,.12-.094.41.41,0,0,0,.143-.051l.261-.149a.441.441,0,0,0,.116-.1.417.417,0,0,0,.141-.056l.256-.158a.405.405,0,0,0,.112-.1.421.421,0,0,0,.14-.06l.25-.166a.408.408,0,0,0,.109-.106.394.394,0,0,0,.138-.064l.245-.174a.455.455,0,0,1,.242-.177l.238-.182a.445.445,0,0,1,.236-.185l.233-.189a.39.39,0,0,0,.1-.117.412.412,0,0,0,.131-.076l.226-.2a.413.413,0,0,0,.094-.12.4.4,0,0,0,.129-.08l.22-.2a.425.425,0,0,1,.216-.207l.213-.21a.388.388,0,0,0,.085-.127.381.381,0,0,0,.125-.087l.206-.217a.4.4,0,0,1,.2-.221l.2-.224a.391.391,0,0,1,.2-.227l.191-.23a.353.353,0,0,0,.07-.136.341.341,0,0,0,.118-.1l.184-.236a.343.343,0,0,0,.065-.138.353.353,0,0,0,.115-.1l.176-.242a.33.33,0,0,0,.059-.141.326.326,0,0,0,.113-.1l.168-.247a.343.343,0,0,0,.054-.144.315.315,0,0,0,.109-.106l.16-.252a.32.32,0,0,0,.048-.147.31.31,0,0,0,.108-.108l.151-.258a.3.3,0,0,0,.042-.148A.288.288,0,0,0,37.2,27.7l.143-.262a.287.287,0,0,0,.036-.15.307.307,0,0,0,.1-.114l.134-.266a.285.285,0,0,0,.028-.153.273.273,0,0,0,.1-.116l.125-.27a.267.267,0,0,0,.022-.154.258.258,0,0,0,.1-.119l.117-.274a.259.259,0,0,0,.013-.155.251.251,0,0,0,.1-.121l.107-.278a.245.245,0,0,0,0-.158.236.236,0,0,0,.1-.121l.1-.281a.237.237,0,0,0,0-.16.223.223,0,0,0,.1-.123l.088-.283a.218.218,0,0,0-.014-.161.2.2,0,0,0,.1-.124l.079-.287a.193.193,0,0,0-.026-.161.193.193,0,0,0,.1-.126L39.016,23a.183.183,0,0,0-.038-.163.18.18,0,0,0,.1-.127l.059-.29a.17.17,0,0,0-.058-.165.158.158,0,0,0,.112-.126l.05-.292a.154.154,0,0,0-.107-.171.143.143,0,0,0,.152-.122l.04-.293A.134.134,0,0,0,39.223,21.1Z"/><path class="cls-4" d="M2.89,21.746a.13.13,0,0,0,.1-.154v0l-.059-.285v0a.121.121,0,0,0-.238.042l.041.293v.008A.131.131,0,0,0,2.89,21.746Z"/><path class="cls-4" d="M2.787,21.149a.112.112,0,0,0,.091-.129v0l-.05-.288v0a.1.1,0,0,0-.112-.084.1.1,0,0,0-.091.113l.032.294v.007A.113.113,0,0,0,2.787,21.149Z"/><path class="cls-4" d="M2.7,20.548a.092.092,0,0,0,.079-.1h0l-.041-.29h0a.084.084,0,0,0-.166.018l.022.294v.006A.092.092,0,0,0,2.7,20.548Z"/><path class="cls-4" d="M2.641,19.944a.072.072,0,0,0,.064-.081h0l-.033-.291h0a.063.063,0,0,0-.064-.055.061.061,0,0,0-.06.065l.011.294v.006A.072.072,0,0,0,2.641,19.944Z"/><path class="cls-4" d="M2.6,19.336a.051.051,0,0,0,.047-.055h0l-.024-.292h0a.041.041,0,0,0-.041-.038.042.042,0,0,0-.041.042l0,.294v0A.05.05,0,0,0,2.6,19.336Z"/><path class="cls-4" d="M2.573,18.727A.03.03,0,0,0,2.6,18.7h0L2.585,18.4h0a.019.019,0,0,0-.017-.017.019.019,0,0,0-.019.018l-.008.294v0A.03.03,0,0,0,2.573,18.727Z"/><path class="cls-4" d="M7.668,14.4a.164.164,0,0,0,.065.039.159.159,0,0,0,.081,0,.231.231,0,0,0,.067.171l.125.126a.284.284,0,0,0,.112.068.277.277,0,0,0,.169-.528l-.169-.053a.234.234,0,0,0-.183.017.159.159,0,0,0-.1-.109l-.288-.092a.088.088,0,0,0-.087.021.085.085,0,0,0,0,.121Z"/><path class="cls-4" d="M34.3,14.076a1.083,1.083,0,0,0-.291.117l0,0a.075.075,0,0,0-.025.022.087.087,0,1,0,.139.106.975.975,0,0,1,.2-.2h0a.03.03,0,0,0,.011-.03A.028.028,0,0,0,34.3,14.076Z"/><path class="cls-4" d="M33.751,14.4a1.218,1.218,0,0,0-.2.28l-.008.014a.209.209,0,0,0-.011.163.26.26,0,0,0-.1.162l-.011.059,0,.016a.27.27,0,0,0,0,.113.277.277,0,0,0,.538-.129l-.008-.036L33.94,15a.255.255,0,0,0-.046-.1.2.2,0,0,0,.039-.1.9.9,0,0,1,.056-.246l0-.007a.145.145,0,0,0-.035-.158A.146.146,0,0,0,33.751,14.4Z"/></svg>