<svg xmlns="http://www.w3.org/2000/svg" viewBox="0 0 42 42">
    <defs>
        <style>.cls-1 {
            isolation: isolate;
        }

        .cls-2 {
            fill: #75391c;
        }

        .cls-3 {
            fill: #bb6125;
        }

        .cls-4 {
            fill: #212721;
        }

        .cls-5 {
            fill: #dae1e9;
        }

        .cls-6 {
            fill: #fff;
        }

        .cls-7 {
            mix-blend-mode: multiply;
        }

        .cls-8 {
            fill: #243746;
        }

        .cls-9 {
            fill: #fcd199;
        }

        .cls-10 {
            fill: #a5e5d9;
        }

        .cls-11 {
            fill: none;
        }

        .cls-12 {
            fill: #008996;
        }

        .cls-13 {
            fill: #60d8de;
        }

        .cls-14 {
            fill: #dfe0e1;
        }

        .cls-15 {
            fill: #d7a461;
        }

        .cls-16 {
            fill: #e6427a;
        }</style>
    </defs>
    <title>Breakfast-Buddy</title>
    <g class="cls-1">
        <g id="Buddy">
            <path class="cls-2"
                  d="M14.809,10.9c-.638-2.97-.146-4.459.2-4.925C17.872,2.1,27.563,3.688,27.338,7.369A8.055,8.055,0,0,1,25.884,11.4C23.047,13.655,19.006,13.517,14.809,10.9Z"/>
            <path class="cls-3"
                  d="M23.97,7.381c-.436-.677.389-1.382.012-2.262-.452-1.055-2.119-1.167-2.063-1.43.038-.178.826-.208,1.516-.074a3.468,3.468,0,0,1,2.225,1.23c.646.867.987,2.392.3,2.922A1.556,1.556,0,0,1,23.97,7.381Z"/>
            <path class="cls-4"
                  d="M21.228,13.18a12.841,12.841,0,0,1-6.7-2.172.526.526,0,0,1-.235-.335c-.608-2.83-.248-4.617.29-5.346,1.965-2.659,6.76-3,10.077-1.8,2.122.771,3.288,2.061,3.2,3.538a8.231,8.231,0,0,1-1.651,4.406A7.847,7.847,0,0,1,21.228,13.18Zm-5.953-2.945c3.9,2.364,7.639,2.52,10.283.415A7.944,7.944,0,0,0,26.814,7c.085-1.392-1.726-2.2-2.509-2.489C21.328,3.43,17.052,3.751,15.43,5.95,15.4,6,14.639,7.066,15.275,10.235Z"/>
            <circle class="cls-5" cx="23.477" cy="6.669" r="0.321"/>
            <circle class="cls-6" cx="23.54" cy="6.583" r="0.126"/>
            <circle class="cls-5" cx="20.744" cy="7.352" r="0.321"/>
            <circle class="cls-6" cx="20.807" cy="7.266" r="0.126"/>
            <circle class="cls-5" cx="19.089" cy="7.071" r="0.321"/>
            <circle class="cls-6" cx="19.152" cy="6.985" r="0.126"/>
            <circle class="cls-5" cx="21.66" cy="4.608" r="0.321"/>
            <circle class="cls-6" cx="21.724" cy="4.522" r="0.126"/>
            <circle class="cls-5" cx="19.554" cy="6.709" r="0.321"/>
            <circle class="cls-6" cx="19.617" cy="6.623" r="0.126"/>
            <circle class="cls-5" cx="21.342" cy="7.352" r="0.321"/>
            <circle class="cls-6" cx="21.405" cy="7.266" r="0.126"/>
            <circle class="cls-5" cx="21.021" cy="6.835" r="0.321"/>
            <circle class="cls-6" cx="21.084" cy="6.749" r="0.126"/>
            <circle class="cls-5" cx="21.66" cy="6.921" r="0.321"/>
            <circle class="cls-6" cx="21.724" cy="6.835" r="0.126"/>
            <circle class="cls-5" cx="22.793" cy="7.405" r="0.321"/>
            <circle class="cls-6" cx="22.856" cy="7.319" r="0.126"/>
            <circle class="cls-5" cx="23.413" cy="7.264" r="0.321"/>
            <circle class="cls-6" cx="23.477" cy="7.178" r="0.126"/>
            <circle class="cls-5" cx="22.925" cy="6.904" r="0.321"/>
            <circle class="cls-6" cx="22.988" cy="6.818" r="0.126"/>
            <circle class="cls-5" cx="20.883" cy="6.061" r="0.321"/>
            <circle class="cls-6" cx="20.946" cy="5.975" r="0.126"/>
            <circle class="cls-5" cx="20.482" cy="6.582" r="0.321"/>
            <circle class="cls-6" cx="20.545" cy="6.495" r="0.126"/>
            <circle class="cls-5" cx="19.969" cy="6.348" r="0.321"/>
            <circle class="cls-6" cx="20.032" cy="6.261" r="0.126"/>
            <circle class="cls-5" cx="19.026" cy="6.474" r="0.321"/>
            <circle class="cls-6" cx="19.089" cy="6.388" r="0.126"/>
            <circle class="cls-5" cx="19.554" cy="5.849" r="0.321"/>
            <circle class="cls-6" cx="19.617" cy="5.762" r="0.126"/>
            <circle class="cls-5" cx="20.29" cy="5.792" r="0.321"/>
            <circle class="cls-6" cx="20.353" cy="5.706" r="0.126"/>
            <circle class="cls-5" cx="20.758" cy="5.471" r="0.321"/>
            <circle class="cls-6" cx="20.821" cy="5.385" r="0.126"/>
            <circle class="cls-5" cx="20.101" cy="5.221" r="0.321"/>
            <circle class="cls-6" cx="20.164" cy="5.135" r="0.126"/>
            <circle class="cls-5" cx="20.422" cy="4.608" r="0.321"/>
            <circle class="cls-6" cx="20.485" cy="4.522" r="0.126"/>
            <circle class="cls-5" cx="20.867" cy="4.969" r="0.321"/>
            <circle class="cls-6" cx="20.93" cy="4.883" r="0.126"/>
            <circle class="cls-5" cx="21.462" cy="5.095" r="0.321"/>
            <circle class="cls-6" cx="21.525" cy="5.009" r="0.126"/>
            <circle class="cls-5" cx="21.339" cy="5.706" r="0.321"/>
            <circle class="cls-6" cx="21.402" cy="5.62" r="0.126"/>
            <circle class="cls-5" cx="21.986" cy="5.262" r="0.321"/>
            <circle class="cls-6" cx="22.049" cy="5.175" r="0.126"/>
            <circle class="cls-5" cx="22.556" cy="5.416" r="0.321"/>
            <circle class="cls-6" cx="22.619" cy="5.33" r="0.126"/>
            <circle class="cls-5" cx="21.205" cy="4.465" r="0.321"/>
            <circle class="cls-6" cx="21.268" cy="4.379" r="0.126"/>
            <circle class="cls-5" cx="23.029" cy="6.348" r="0.321"/>
            <circle class="cls-6" cx="23.092" cy="6.261" r="0.126"/>
            <polygon class="cls-5"
                     points="19.91 7.488 19.72 7.157 19.91 6.827 20.292 6.827 20.482 7.157 20.292 7.488 19.91 7.488"/>
            <g class="cls-7">
                <polygon class="cls-5" points="20.101 7.157 20.292 7.488 19.91 7.488 20.101 7.157"/>
            </g>
            <g class="cls-7">
                <polygon class="cls-5" points="20.292 6.827 20.482 7.157 20.101 7.157 20.292 6.827"/>
            </g>
            <g class="cls-7">
                <polygon class="cls-5" points="19.91 6.827 20.101 7.157 19.72 7.157 19.91 6.827"/>
            </g>
            <polygon class="cls-5"
                     points="22.001 7.599 21.811 7.269 22.001 6.939 22.383 6.939 22.574 7.269 22.383 7.599 22.001 7.599"/>
            <g class="cls-7">
                <polygon class="cls-5" points="22.192 7.269 22.383 7.599 22.001 7.599 22.192 7.269"/>
            </g>
            <g class="cls-7">
                <polygon class="cls-5" points="22.383 6.939 22.574 7.269 22.192 7.269 22.383 6.939"/>
            </g>
            <g class="cls-7">
                <polygon class="cls-5" points="22.001 6.939 22.192 7.269 21.811 7.269 22.001 6.939"/>
            </g>
            <polygon class="cls-5"
                     points="21.209 6.594 21.019 6.264 21.209 5.933 21.591 5.933 21.781 6.264 21.591 6.594 21.209 6.594"/>
            <g class="cls-7">
                <polygon class="cls-5" points="21.4 6.264 21.591 6.594 21.209 6.594 21.4 6.264"/>
            </g>
            <g class="cls-7">
                <polygon class="cls-5" points="21.591 5.933 21.781 6.264 21.4 6.264 21.591 5.933"/>
            </g>
            <g class="cls-7">
                <polygon class="cls-5" points="21.209 5.933 21.4 6.264 21.019 6.264 21.209 5.933"/>
            </g>
            <polygon class="cls-5"
                     points="22.113 6.93 21.922 6.6 22.113 6.27 22.494 6.27 22.685 6.6 22.494 6.93 22.113 6.93"/>
            <g class="cls-7">
                <polygon class="cls-5" points="22.303 6.6 22.494 6.93 22.113 6.93 22.303 6.6"/>
            </g>
            <g class="cls-7">
                <polygon class="cls-5" points="22.494 6.27 22.685 6.6 22.303 6.6 22.494 6.27"/>
            </g>
            <g class="cls-7">
                <polygon class="cls-5" points="22.113 6.27 22.303 6.6 21.922 6.6 22.113 6.27"/>
            </g>
            <polygon class="cls-5"
                     points="22.982 5.634 22.793 5.302 22.986 4.973 23.367 4.976 23.556 5.307 23.363 5.636 22.982 5.634"/>
            <g class="cls-7">
                <polygon class="cls-5" points="23.175 5.305 23.363 5.636 22.982 5.634 23.175 5.305"/>
            </g>
            <g class="cls-7">
                <polygon class="cls-5" points="23.367 4.976 23.556 5.307 23.175 5.305 23.367 4.976"/>
            </g>
            <g class="cls-7">
                <polygon class="cls-5" points="22.986 4.973 23.175 5.305 22.793 5.302 22.986 4.973"/>
            </g>
            <polygon class="cls-5"
                     points="19.587 5.063 19.398 4.732 19.591 4.403 19.972 4.405 20.161 4.737 19.968 5.066 19.587 5.063"/>
            <g class="cls-7">
                <polygon class="cls-5" points="19.78 4.734 19.968 5.066 19.587 5.063 19.78 4.734"/>
            </g>
            <g class="cls-7">
                <polygon class="cls-5" points="19.972 4.405 20.161 4.737 19.78 4.734 19.972 4.405"/>
            </g>
            <g class="cls-7">
                <polygon class="cls-5" points="19.591 4.403 19.78 4.734 19.398 4.732 19.591 4.403"/>
            </g>
            <polygon class="cls-5"
                     points="21.209 4.097 21.021 3.766 21.214 3.437 21.595 3.439 21.784 3.771 21.591 4.1 21.209 4.097"/>
            <g class="cls-7">
                <polygon class="cls-5" points="21.402 3.768 21.591 4.1 21.209 4.097 21.402 3.768"/>
            </g>
            <g class="cls-7">
                <polygon class="cls-5" points="21.595 3.439 21.784 3.771 21.402 3.768 21.595 3.439"/>
            </g>
            <g class="cls-7">
                <polygon class="cls-5" points="21.214 3.437 21.402 3.768 21.021 3.766 21.214 3.437"/>
            </g>
            <circle class="cls-5" cx="21.922" cy="5.816" r="0.321"/>
            <circle class="cls-6" cx="21.985" cy="5.73" r="0.126"/>
            <circle class="cls-5" cx="22.431" cy="6.069" r="0.321"/>
            <circle class="cls-6" cx="22.494" cy="5.982" r="0.126"/>
            <circle class="cls-5" cx="22.243" cy="4.764" r="0.321"/>
            <circle class="cls-6" cx="22.306" cy="4.677" r="0.126"/>
            <circle class="cls-5" cx="22.966" cy="5.816" r="0.321"/>
            <circle class="cls-6" cx="23.029" cy="5.73" r="0.126"/>
            <circle class="cls-5" cx="22.793" cy="4.82" r="0.321"/>
            <circle class="cls-6" cx="22.856" cy="4.734" r="0.126"/>
            <circle class="cls-5" cx="22.049" cy="4.144" r="0.321"/>
            <circle class="cls-6" cx="22.113" cy="4.058" r="0.126"/>
            <circle class="cls-5" cx="20.82" cy="3.931" r="0.321"/>
            <circle class="cls-6" cx="20.867" cy="3.836" r="0.126"/>
            <path class="cls-3"
                  d="M27.873,16.41c2.088.7,2.688-4.579,1.852-6.563a5.353,5.353,0,0,0-3.493-2.884c-2.547-.639-3.043.189-6.2-.356A9.257,9.257,0,0,0,16.186,6.5c-2.042.35-3.412,2.558-3.925,4.141a6.839,6.839,0,0,0,.546,5.618C14.827,19.24,21.111,19.79,27.873,16.41Z"/>
            <path class="cls-2"
                  d="M20.966,7.729c.4.548.175,1,.647,1.691,1.075,1.585,4.157,2.087,5.021.994.6-.754.35-2.33-.5-3.517-2.31-.512-3.047.235-6.086-.29a9.4,9.4,0,0,0-3.573-.151q-.81.408-1.625.925C19,6.4,20.429,6.991,20.966,7.729Z"/>
            <path class="cls-2"
                  d="M20.116,9.01c.3-.013.131-.9-.087-1.268A2.9,2.9,0,0,0,17.7,6.71c-.437-.037-.837-.006-.845.062-.017.138,1.6.068,2.15.982.336.555.107,1.183.5,1.367C19.7,9.215,19.914,9.018,20.116,9.01Z"/>
            <path class="cls-2"
                  d="M18.728,9.486a2.153,2.153,0,0,0-.58-1.773c-.863-.624-2.522.186-3.4,1.011-.481.453-.525.722-1.16,1.259-.656.555-1.418.434-1.658.995-.017.039-.159.381-.016.53.265.277-.644,2.815.17,2.038.615-.586,1.067-.914,1.686-1.491.7-.654.259-.757.634-.451.336.274,2.9-2.317,3.277-2.019C17.93,9.781,18.369,9.648,18.728,9.486Z"/>
            <path class="cls-4"
                  d="M24.562,6.809a13.61,13.61,0,0,1-4.625.24,12.34,12.34,0,0,0-2.13-.138,6.659,6.659,0,0,0-2.066.36,4.7,4.7,0,0,0-2.8,2.8,10.6,10.6,0,0,0-.333,2.11,9.06,9.06,0,0,0,.007,2.141,3.978,3.978,0,0,0,2.362,3.065,9.265,9.265,0,0,0,4.181.806,20.2,20.2,0,0,0,8.484-2.253l.062-.031a.385.385,0,0,1,.338,0c.513.26,1.068-.66,1.271-1.592a9.069,9.069,0,0,0,.219-2.918,5.024,5.024,0,0,0-.29-1.36A4,4,0,0,0,28.487,8.9,5.9,5.9,0,0,0,27.409,8c-.4-.254-.825-.487-1.242-.777l-.02-.014a.278.278,0,0,1-.069-.387A.282.282,0,0,1,26.3,6.7a3.121,3.121,0,0,1,1.617.439A4.979,4.979,0,0,1,30.2,9.635a6,6,0,0,1,.368,1.675,10.075,10.075,0,0,1-.247,3.27,4.626,4.626,0,0,1-.689,1.6,2.058,2.058,0,0,1-.794.677,2.132,2.132,0,0,1-.576.132,4.221,4.221,0,0,1-.559-.088l.4-.028a21.205,21.205,0,0,1-8.941,2.362,10.272,10.272,0,0,1-4.655-.915,5.042,5.042,0,0,1-2.931-3.844,10.034,10.034,0,0,1-.014-2.392c.034-.387.08-.769.129-1.149a5.123,5.123,0,0,1,.26-1.216,5.974,5.974,0,0,1,3.392-3.469,7.139,7.139,0,0,1,2.38-.465,10.258,10.258,0,0,1,2.388.228,43.923,43.923,0,0,0,4.439.567.113.113,0,0,1,.1.125A.118.118,0,0,1,24.562,6.809Z"/>
            <path class="cls-3"
                  d="M21.591,8.923c-.682.346-.61,1.472-.6,1.69a2.872,2.872,0,0,0,.845,1.79h.946a2.336,2.336,0,0,1-.747-1.79c.11-.774.875-1.273.7-1.628C22.6,8.712,21.972,8.729,21.591,8.923Z"/>
            <path class="cls-8"
                  d="M38.684,27.038a18.826,18.826,0,0,0,1.49-7.375V17.308a2.264,2.264,0,0,0,.706-3.632c-.757-.475-1.109.007-1.109.007s-.242-1.3-1.435-1.3-1.16,1-1.16,1a1.734,1.734,0,0,0-1.5-1.184c-1.1,0-1.912,1.863-1.912,1.863A1.81,1.81,0,0,0,32.4,15.59c-.183,1.3.688,1.647,1.06,2.349a3.354,3.354,0,0,1,.347,1.724,12.5,12.5,0,0,1-1.677,6.285l5.272,3.582A18.817,18.817,0,0,0,38.684,27.038Z"/>
            <path class="cls-8"
                  d="M8.651,19.663a3.2,3.2,0,0,1,.332-1.724,3.521,3.521,0,0,0,.564-1.888L9.7,14.863l-1.111-.387-.778-2.058L6.2,10.93l-1.98-.171-1.086.883-.9.415.447,1.626a.922.922,0,0,0-1.209-.3c-1.08.464-.677,2.149-.224,3.085a1.842,1.842,0,0,0,1.044.962v2.238a18.843,18.843,0,0,0,1.49,7.375A19.06,19.06,0,0,0,5.056,29.53l5.273-3.582A12.5,12.5,0,0,1,8.651,19.663Z"/>
            <path class="cls-9"
                  d="M13.856,37.117A18.965,18.965,0,0,0,37.405,29.53l-5.272-3.582a12.684,12.684,0,0,1-2.007,2.61,12.58,12.58,0,0,1-17.79,0,12.649,12.649,0,0,1-2.007-2.61L5.056,29.53a19.033,19.033,0,0,0,8.8,7.587Z"/>
            <path class="cls-4"
                  d="M9.453,13.67H5.127a.994.994,0,0,1-.994-.995V10.64a.992.992,0,0,1-.5-.861v-1.7A.994.994,0,0,1,4.63,7.09H9.95a.994.994,0,0,1,.994.994v1.7a.992.992,0,0,1-.5.861v2.035A.994.994,0,0,1,9.453,13.67ZM6.121,11.681H8.459v-1.9a.988.988,0,0,1,.288-.7H5.833a.988.988,0,0,1,.288.7Z"/>
            <circle class="cls-9" cx="21.231" cy="19.663" r="10.089"/>
            <path class="cls-4"
                  d="M3.9,16.242a1.623,1.623,0,0,1-1.181-.509,5.3,5.3,0,0,1-.978-3.459,2.005,2.005,0,0,1,.924-1.266,1.829,1.829,0,0,1,1.595-.064c.822.306,1.317.527,1.259,1.014a.491.491,0,0,1-.091.217,3,3,0,0,0,.425,2.058,1.09,1.09,0,0,1,.058,1.019,2.1,2.1,0,0,1-1.688.961A1.891,1.891,0,0,1,3.9,16.242Zm-.408-4.453a.682.682,0,0,0-.34.086,1.037,1.037,0,0,0-.434.585,4.319,4.319,0,0,0,.735,2.6.637.637,0,0,0,.6.172c.606-.106.894-.281.958-.4a4.5,4.5,0,0,1-.571-2.747c-.113-.051-.28-.121-.525-.213A1.224,1.224,0,0,0,3.492,11.789Z"/>
            <path class="cls-4"
                  d="M35.088,16.759a.5.5,0,0,1-.117-.981c.317-.077,1.025-.35,1.188-.7a.368.368,0,0,0-.027-.342c-.388-.8-2.182-.221-2.2-.214a.5.5,0,0,1-.327-.94c.979-.339,2.8-.567,3.42.721a1.344,1.344,0,0,1,.032,1.2A2.993,2.993,0,0,1,35.2,16.745.583.583,0,0,1,35.088,16.759Z"/>
            <path class="cls-4"
                  d="M38.08,17.3a1.77,1.77,0,0,1-.3-.027,2.1,2.1,0,0,1-1.687-.961,1.082,1.082,0,0,1,.024-.968.531.531,0,0,1,.1-.122,2.15,2.15,0,0,0,.418-1.9.5.5,0,1,1,.98-.165,3.214,3.214,0,0,1-.625,2.691c.085.172.375.34.965.444a.557.557,0,0,0,.5-.121,4.539,4.539,0,0,0,.829-2.757.515.515,0,0,1,.51-.485.5.5,0,0,1,.485.51c-.007.264-.1,2.6-1.194,3.5A1.545,1.545,0,0,1,38.08,17.3Z"/>
            <path class="cls-4"
                  d="M39.942,17.755a2.724,2.724,0,0,1-.859-.152c-.435-.227-.811-.465-.777-.87a.583.583,0,0,1,.364-.469.5.5,0,0,1,.632.307l.009.026c.039.026.093.058.166.1.679.22.919-.082.928-.1a.492.492,0,0,1,.678-.157.506.506,0,0,1,.16.692A1.5,1.5,0,0,1,39.942,17.755Z"/>
            <path class="cls-4"
                  d="M2.337,17.42a1.3,1.3,0,0,1-.7-.187.5.5,0,0,1,.548-.83c.035.017.373.165.944-.357.021-.032.04-.06.055-.085,0-.011,0-.023,0-.035a.5.5,0,0,1,.452-.538.552.552,0,0,1,.523.28c.2.356-.05.727-.3,1.047A2.249,2.249,0,0,1,2.337,17.42Z"/>
            <path class="cls-10"
                  d="M27.681,30.468c0,.064,0,.128,0,.193,0,3.112-2.89,5.636-6.455,5.636s-6.455-2.524-6.455-5.636c0-.065,0-.129,0-.193a12.489,12.489,0,0,1-1.3-.895v7.379q.186.084.375.165a19,19,0,0,0,14.75,0c.125-.054.251-.109.375-.165V29.573A12.4,12.4,0,0,1,27.681,30.468Z"/>
            <path class="cls-8"
                  d="M27.681,30.468c0,.064,0,.128,0,.193,0,3.112-2.89,5.636-6.455,5.636s-6.455-2.524-6.455-5.636c0-.065,0-.129,0-.193a12.489,12.489,0,0,1-1.3-.895v7.379q.186.084.375.165a19,19,0,0,0,14.75,0c.125-.054.251-.109.375-.165V29.573A12.4,12.4,0,0,1,27.681,30.468Z"/>
            <path class="cls-4"
                  d="M21.23,39.1A19.428,19.428,0,0,1,1.79,19.663V17.425a.5.5,0,0,1,.994,0v2.238a18.467,18.467,0,0,0,11.266,17,18.572,18.572,0,0,0,14.362,0A18.431,18.431,0,0,0,39.678,19.663V17.308A.5.5,0,0,1,40,16.844a1.763,1.763,0,0,0,.824-.8,1.813,1.813,0,0,0-.206-1.947c-.253-.158-.408-.153-.461-.1a.478.478,0,0,1-.5.18.5.5,0,0,1-.37-.406c-.017-.088-.2-.9-.945-.9a.722.722,0,0,0-.532.163.532.532,0,0,0-.131.322.5.5,0,0,1-.969.175c-.011-.032-.3-.845-1.022-.845-.579,0-1.232,1.055-1.457,1.566a.5.5,0,0,1-.359.288A1.294,1.294,0,0,0,32.9,15.66a1.488,1.488,0,0,0,.514,1.38,3.464,3.464,0,0,1,.493.667,3.869,3.869,0,0,1,.406,1.977,13.077,13.077,0,0,1-26.154-.021,3.571,3.571,0,0,1,.424-2.012,4.442,4.442,0,0,1,.341-.532,2.979,2.979,0,0,0,.632-1.59.5.5,0,1,1,.986.121,3.92,3.92,0,0,1-.806,2.042,4.449,4.449,0,0,0-.308.48,2.908,2.908,0,0,0-.275,1.491,12.083,12.083,0,0,0,24.165,0,2.965,2.965,0,0,0-.28-1.474,2.722,2.722,0,0,0-.372-.494,2.465,2.465,0,0,1-.751-2.174,2.276,2.276,0,0,1,1.5-1.875c.282-.561,1.1-1.949,2.268-1.949a1.89,1.89,0,0,1,1.422.634,1.671,1.671,0,0,1,1.232-.449,1.881,1.881,0,0,1,1.713,1.105,1.541,1.541,0,0,1,1.095.267,2.7,2.7,0,0,1,.572,3.224,2.733,2.733,0,0,1-1.044,1.131v2.054A19.431,19.431,0,0,1,21.23,39.1Z"/>
            <path class="cls-4"
                  d="M1.824,17.281a.486.486,0,0,1-.177-.033,2.738,2.738,0,0,1-1.363-1.3A2.7,2.7,0,0,1,.855,12.73a1.267,1.267,0,0,1,1.776.136.5.5,0,1,1-.8.587c-.036-.033-.188-.04-.444.12a1.817,1.817,0,0,0-.2,1.948,1.752,1.752,0,0,0,.828.8.5.5,0,0,1-.183.96Z"/>
            <path class="cls-11" d="M15.369,31.359l-.052-.026a.449.449,0,0,1-.071.031A.425.425,0,0,1,15.369,31.359Z"/>
            <path class="cls-11"
                  d="M27.152,31.592a.425.425,0,0,1-.147-.1L27,31.5l-.024.041a.357.357,0,0,1-.025.038A.434.434,0,0,1,27.152,31.592Z"/>
            <path class="cls-11"
                  d="M25.255,32.2l.032-.022a.394.394,0,1,1,.444.652l-.037.025-.042.024a.422.422,0,0,1,.389.742l-.04.026a.415.415,0,0,1-.234.072.422.422,0,0,1-.235-.772l.034-.023a.417.417,0,0,1,.054-.031.387.387,0,0,1-.145.029.394.394,0,0,1-.22-.722Zm-2.043,1.688.041-.009a.422.422,0,1,1,.184.823l-.046.01a.458.458,0,0,1-.09.009.421.421,0,0,1-.089-.833Zm-.693.972-.047.006-.05,0a.421.421,0,0,1-.049-.84l.041-.005a.421.421,0,1,1,.1.836Zm1.243-.662a.421.421,0,0,1,.266-.533l.041-.014a.422.422,0,0,1,.27.8l-.044.015a.412.412,0,0,1-.133.022A.422.422,0,0,1,23.762,34.2Zm.847-.283a.422.422,0,0,1,.2-.562l.037-.017a.421.421,0,1,1,.366.759l-.043.021a.428.428,0,0,1-.18.04A.421.421,0,0,1,24.609,33.913Zm-.03-1.335.035-.017a.395.395,0,0,1,.343.711l-.04.019a.395.395,0,1,1-.338-.713Zm-.73.291.037-.012a.395.395,0,0,1,.254.747l-.043.014a.383.383,0,0,1-.124.02.395.395,0,0,1-.124-.769Zm-.764.209.039-.009a.394.394,0,0,1,.171.77l-.043.01a.4.4,0,0,1-.084.009.394.394,0,0,1-.083-.78Zm-.786.132.04-.005a.394.394,0,1,1,.1.783l-.043.005a.371.371,0,0,1-.047,0,.394.394,0,0,1-.046-.786ZM22,34.5a.423.423,0,0,1-.408.436h-.058a.422.422,0,0,1-.013-.843h.044A.421.421,0,0,1,22,34.5Zm-.5-1.227h.053a.394.394,0,0,1,.014.788l-.045,0h-.011a.395.395,0,0,1-.011-.789Zm-1.217.359a.394.394,0,0,1,.418-.37l.038,0a.394.394,0,0,1-.02.788H20.7l-.044,0A.394.394,0,0,1,20.285,33.628Zm.822.9a.422.422,0,0,1-.421.4h-.022l-.048,0a.422.422,0,0,1,.05-.842l.042,0A.422.422,0,0,1,21.107,34.523Zm-1.2-1.347.039,0a.395.395,0,0,1-.056.785.364.364,0,0,1-.057,0l-.044-.006a.394.394,0,1,1,.118-.78Zm-1.437.953a.422.422,0,0,1,.512-.306l.042.01a.422.422,0,0,1-.1.831.457.457,0,0,1-.1-.012l-.044-.011A.422.422,0,0,1,18.471,34.129Zm-.4.275a.411.411,0,0,1-.145-.026l-.044-.016a.422.422,0,0,1,.295-.79l.04.015a.421.421,0,0,1-.146.817Zm1.267-.06a.422.422,0,0,1,.481-.354l.041.006a.422.422,0,0,1-.06.839.417.417,0,0,1-.061,0l-.047-.007A.422.422,0,0,1,19.337,34.344Zm-.209-1.325.038.01a.394.394,0,0,1-.094.777.391.391,0,0,1-.095-.011l-.042-.011a.394.394,0,1,1,.193-.765Zm-.756-.235.038.014a.395.395,0,0,1-.272.741l-.041-.015a.395.395,0,0,1,.275-.74Zm-1.248-.155a.4.4,0,0,1,.534-.164l.033.018a.395.395,0,0,1-.363.7l-.04-.021A.4.4,0,0,1,17.124,32.629Zm-.282.778a.421.421,0,0,1,.569-.176l.037.019A.422.422,0,0,1,17.06,34l-.043-.022A.422.422,0,0,1,16.842,33.407Zm-2.092.005-.035-.044a.47.47,0,0,1,.735-.585l.028.034a.47.47,0,0,1-.067.661.463.463,0,0,1-.3.106A.468.468,0,0,1,14.75,33.412Zm.79.766-.044-.034a.47.47,0,0,1,.588-.733l.035.027a.47.47,0,0,1-.29.84A.464.464,0,0,1,15.54,34.178Zm1.124.647a.46.46,0,0,1-.225-.058l-.046-.025a.47.47,0,1,1,.456-.822l.041.023a.47.47,0,0,1-.226.882Zm.907.419a.456.456,0,0,1-.169-.032l-.049-.019a.47.47,0,0,1,.343-.875l.045.017a.47.47,0,0,1-.17.909Zm.951.306a.491.491,0,0,1-.119-.015l-.051-.014a.47.47,0,1,1,.244-.907l.045.012a.47.47,0,0,1-.119.924Zm1.442-.191a.469.469,0,0,1-.538.39l-.051-.008a.47.47,0,1,1,.151-.928l.048.008A.47.47,0,0,1,19.964,35.359Zm1,.067a.47.47,0,0,1-.469.44h-.031l-.052,0a.47.47,0,0,1,.066-.938l.047,0A.47.47,0,0,1,20.962,35.426Zm.54.461h-.061a.47.47,0,0,1-.008-.94h.047a.47.47,0,1,1,.022.94Zm1.039-.07-.052.005-.051,0a.47.47,0,0,1-.05-.937l.047,0a.47.47,0,1,1,.106.934Zm1.031-.167-.051.011a.447.447,0,0,1-.1.01.47.47,0,0,1-.1-.93l.047-.01a.47.47,0,1,1,.2.919Zm1.013-.269-.051.016a.47.47,0,0,1-.284-.9l.044-.014a.47.47,0,1,1,.291.894ZM25.568,35l-.048.022a.466.466,0,0,1-.2.042.47.47,0,0,1-.2-.9l.043-.02a.47.47,0,0,1,.4.853Zm.934-.517-.044.029a.47.47,0,1,1-.512-.789l.04-.026a.47.47,0,1,1,.516.786Zm.851-.677-.04.038a.47.47,0,1,1-.649-.681l.032-.03a.47.47,0,1,1,.657.673Zm.7-.873-.03.049a.467.467,0,0,1-.4.223.469.469,0,0,1-.4-.717l.022-.037a.47.47,0,1,1,.807.482Z"/>
            <path class="cls-11"
                  d="M15.669,31.535a.438.438,0,0,1,.04.07l.016.035a.406.406,0,0,1,.038.142.4.4,0,0,1,.069-.2l-.092-.042h-.018A.455.455,0,0,1,15.669,31.535Z"/>
            <path class="cls-5"
                  d="M19.574,34.821l-.048-.008a.47.47,0,1,0-.151.928l.051.008a.47.47,0,0,0,.148-.928Zm.269.519a.348.348,0,0,1-.343.293.339.339,0,0,1-.055,0l-.05-.008a.348.348,0,1,1,.111-.687l.048.007A.348.348,0,0,1,19.843,35.34Z"/>
            <path class="cls-5"
                  d="M18.641,34.626l-.045-.012a.47.47,0,1,0-.244.907l.051.014a.491.491,0,0,0,.119.015.47.47,0,0,0,.119-.924Zm.218.543a.348.348,0,0,1-.337.259.332.332,0,0,1-.088-.011l-.051-.013a.348.348,0,0,1,.181-.673l.046.013A.349.349,0,0,1,18.859,35.169Z"/>
            <path class="cls-5"
                  d="M20.523,34.927l-.047,0a.47.47,0,0,0-.066.938l.052,0h.031a.47.47,0,0,0,.03-.939Zm.317.491a.349.349,0,0,1-.347.326H20.47l-.052,0a.348.348,0,0,1,.049-.7l.048,0A.349.349,0,0,1,20.84,35.418Z"/>
            <path class="cls-5"
                  d="M15.478,32.817l-.028-.034a.47.47,0,0,0-.735.585l.035.044a.468.468,0,0,0,.364.172.463.463,0,0,0,.3-.106A.47.47,0,0,0,15.478,32.817Zm-.144.567a.35.35,0,0,1-.49-.049l-.034-.043a.348.348,0,1,1,.545-.433l.028.035A.348.348,0,0,1,15.334,33.384Z"/>
            <path class="cls-5"
                  d="M17.741,34.335l-.045-.017a.47.47,0,0,0-.343.875l.049.019a.456.456,0,0,0,.169.032.47.47,0,0,0,.17-.909Zm.155.564a.349.349,0,0,1-.325.223.343.343,0,0,1-.125-.024L17.4,35.08a.348.348,0,1,1,.254-.648l.045.017A.349.349,0,0,1,17.9,34.9Z"/>
            <path class="cls-5"
                  d="M16.2,34.1a.469.469,0,0,0-.08-.66l-.035-.027a.47.47,0,0,0-.588.733l.044.034a.469.469,0,0,0,.659-.08Zm-.37.058a.343.343,0,0,1-.214-.074l-.042-.033a.348.348,0,0,1,.435-.543l.036.028a.348.348,0,0,1,.059.489A.344.344,0,0,1,15.829,34.156Z"/>
            <path class="cls-5"
                  d="M21.48,34.947h-.047a.47.47,0,0,0,.008.94H21.5a.47.47,0,1,0-.022-.94Zm.019.818h-.058a.348.348,0,0,1-.006-.7h.048a.348.348,0,0,1,.016.7Z"/>
            <path class="cls-5"
                  d="M16.89,33.943l-.041-.023a.47.47,0,1,0-.456.822l.046.025a.46.46,0,0,0,.225.058.47.47,0,0,0,.226-.882Zm.08.579a.348.348,0,0,1-.306.181.334.334,0,0,1-.166-.043l-.046-.025a.348.348,0,1,1,.338-.608l.042.023A.348.348,0,0,1,16.97,34.522Z"/>
            <path class="cls-5"
                  d="M26.7,33.13l-.032.03a.47.47,0,1,0,.649.681l.04-.038a.47.47,0,1,0-.657-.673Zm.572.585-.04.038a.345.345,0,0,1-.239.1.348.348,0,0,1-.24-.6l.032-.032a.348.348,0,1,1,.487.5Z"/>
            <path class="cls-5"
                  d="M27.888,32.285a.47.47,0,0,0-.644.163l-.022.037a.47.47,0,1,0,.8.494l.03-.049A.471.471,0,0,0,27.888,32.285Zm.058.583-.028.047a.348.348,0,1,1-.592-.366l.023-.038a.348.348,0,1,1,.6.357Z"/>
            <path class="cls-5"
                  d="M25.986,33.694l-.04.026a.47.47,0,1,0,.512.789l.044-.029a.47.47,0,1,0-.516-.786Zm.449.684-.044.029a.348.348,0,0,1-.378-.584l.04-.027a.348.348,0,0,1,.382.582Z"/>
            <path class="cls-5"
                  d="M28.347,30.705l.01.055a.348.348,0,0,1-.281.4.326.326,0,0,1-.062.006.347.347,0,0,1-.286-.153l-.117.066a.286.286,0,0,1,.007.124l-.008.049a.3.3,0,0,1-.294.246.235.235,0,0,1-.052,0,.3.3,0,0,1-.2-.126l-.187.091-.011.021a.275.275,0,0,1-.237.136.28.28,0,0,1-.07-.009l-.147.064.019.012a.384.384,0,0,0,.2.054.448.448,0,0,0,.063-.006.362.362,0,0,0-.037.056l-.019.032a.422.422,0,1,0,.729.424L27.4,32.2a.422.422,0,0,0-.163-.574.411.411,0,0,0-.042-.021.3.3,0,0,0,.052.013.418.418,0,0,0,.391-.14.487.487,0,0,0-.088.2l-.008.04a.471.471,0,0,0,.363.558.459.459,0,0,0,.1.01.471.471,0,0,0,.459-.373l.012-.057a.47.47,0,0,0-.817-.4.414.414,0,0,0,.078-.179l.009-.051,0-.022a.465.465,0,0,0,.272.088.478.478,0,0,0,.084-.008.47.47,0,0,0,.379-.546l-.011-.057a.486.486,0,0,0-.032-.1l-.1.068A.331.331,0,0,1,28.347,30.705Zm-1.372.838L27,31.5l.006-.013a.425.425,0,0,0,.147.1.434.434,0,0,0-.2-.011A.357.357,0,0,0,26.975,31.543Zm.313.6-.024.043a.3.3,0,1,1-.516-.3l.019-.034a.3.3,0,0,1,.521.291Zm.37-.4.008-.043a.348.348,0,1,1,.684.132l-.011.055a.349.349,0,0,1-.341.276.353.353,0,0,1-.072-.008A.347.347,0,0,1,27.658,31.741Z"/>
            <path class="cls-5"
                  d="M13.937,31.216v.076a.469.469,0,0,0,.47.467h0a.47.47,0,0,0,.467-.45.419.419,0,0,0,.27.074.386.386,0,0,0,.049-.006.383.383,0,0,0-.043.017.421.421,0,0,0-.235.491.47.47,0,0,0-.773.5l.021.054a.47.47,0,0,0,.884-.318.42.42,0,0,0,.715-.276.4.4,0,0,0,.094.218l.031.036.017.017a.422.422,0,0,0-.417.686l.032.037a.422.422,0,0,0,.632-.559l-.027-.03a.345.345,0,0,0-.026-.028.4.4,0,0,0,.084.01.394.394,0,0,0,.39-.341l-.117-.045a.275.275,0,0,1-.092.2.27.27,0,0,1-.181.068.274.274,0,0,1-.205-.092l-.029-.034a.272.272,0,0,1,0-.351l-.113-.051a.4.4,0,0,0-.069.2.406.406,0,0,0-.038-.142l-.016-.035a.438.438,0,0,0-.04-.07.455.455,0,0,0,.053,0h.018c-.124-.058-.248-.117-.371-.179a.425.425,0,0,0-.123,0,.449.449,0,0,0,.071-.031l-.147-.077a.186.186,0,0,1-.033,0h-.022a.3.3,0,0,1-.273-.182l-.22-.127a.347.347,0,0,1,.133.28v.056a.347.347,0,0,1-.346.349h0a.347.347,0,0,1-.348-.346v-.072a.349.349,0,0,1,.355-.342.339.339,0,0,1,.124.026q-.113-.067-.225-.138A.471.471,0,0,0,13.937,31.216Zm2.1,1.113.027.031a.3.3,0,1,1-.446.4l-.032-.036a.3.3,0,1,1,.451-.39Zm-1.3.256a.349.349,0,0,1-.453-.193l-.02-.053a.348.348,0,1,1,.65-.248l.016.041A.348.348,0,0,1,14.731,32.585Zm.866-.929.017.036a.3.3,0,0,1-.541.253l-.02-.044a.3.3,0,1,1,.544-.245Z"/>
            <path class="cls-5"
                  d="M23.377,34.731l-.047.01a.47.47,0,0,0,.1.93.447.447,0,0,0,.1-.01l.051-.011a.47.47,0,1,0-.2-.919Zm.169.8-.05.01a.343.343,0,0,1-.071.008.348.348,0,0,1-.071-.689l.048-.01a.348.348,0,1,1,.144.681Z"/>
            <path class="cls-5"
                  d="M24.294,34.487l-.044.014a.47.47,0,1,0,.284.9l.051-.016a.47.47,0,1,0-.291-.894Zm.253.778-.05.016a.348.348,0,0,1-.21-.664l.045-.014a.348.348,0,1,1,.215.662Z"/>
            <path class="cls-5"
                  d="M25.172,34.144l-.043.02a.47.47,0,0,0,.391.855L25.568,35a.47.47,0,0,0-.4-.853Zm.344.742-.047.022a.352.352,0,0,1-.144.031.348.348,0,0,1-.145-.664l.044-.02a.348.348,0,1,1,.292.631Z"/>
            <path class="cls-5"
                  d="M22.435,34.883l-.047,0a.47.47,0,0,0,.05.937l.051,0,.052-.005a.47.47,0,1,0-.106-.934Zm.093.812-.052.006-.038,0a.348.348,0,0,1-.037-.694L22.448,35a.348.348,0,1,1,.08.691Z"/>
            <path class="cls-5"
                  d="M24.162,34.485a.412.412,0,0,0,.133-.022l.044-.015a.422.422,0,0,0-.27-.8l-.041.014a.422.422,0,0,0,.134.822Zm-.095-.7.041-.014a.3.3,0,1,1,.192.565l-.044.015a.308.308,0,0,1-.094.015.3.3,0,0,1-.095-.581Z"/>
            <path class="cls-5"
                  d="M20.708,34.08l-.042,0a.422.422,0,0,0-.05.842l.048,0h.022a.422.422,0,0,0,.022-.843Zm.276.437a.3.3,0,0,1-.3.283H20.67l-.046,0a.3.3,0,1,1,.035-.6l.042,0A.3.3,0,0,1,20.984,34.517Z"/>
            <path class="cls-5"
                  d="M22.414,34.022l-.041.005a.421.421,0,0,0,.049.84l.05,0,.047-.006a.421.421,0,1,0-.1-.836Zm.09.714-.047.006-.035,0a.3.3,0,0,1-.035-.595l.042-.005a.3.3,0,0,1,.075.592Z"/>
            <path class="cls-5"
                  d="M21.564,34.089H21.52a.422.422,0,0,0,.013.843h.058a.422.422,0,1,0-.027-.843Zm.023.719-.045,0h-.009a.3.3,0,0,1-.009-.6h.044a.3.3,0,1,1,.019.6Z"/>
            <path class="cls-5"
                  d="M24.99,34.154a.428.428,0,0,0,.18-.04l.043-.021a.421.421,0,1,0-.366-.759l-.037.017a.422.422,0,0,0,.18.8Zm-.128-.691.038-.018a.3.3,0,1,1,.26.537l-.043.02a.287.287,0,0,1-.127.029.3.3,0,0,1-.128-.568Z"/>
            <path class="cls-5"
                  d="M19.691,34.824l.047.007a.417.417,0,0,0,.061,0,.422.422,0,0,0,.06-.839l-.041-.006a.422.422,0,1,0-.127.834Zm-.232-.462a.3.3,0,0,1,.34-.25l.042.006a.3.3,0,0,1-.085.591l-.047-.007A.3.3,0,0,1,19.459,34.362Z"/>
            <path class="cls-5"
                  d="M23.3,34.719a.458.458,0,0,0,.09-.009l.046-.01a.422.422,0,1,0-.184-.823l-.041.009a.421.421,0,0,0,.089.833Zm-.063-.713L23.28,34a.3.3,0,0,1,.13.582l-.045.01a.279.279,0,0,1-.064.007.3.3,0,0,1-.063-.59Z"/>
            <path class="cls-5"
                  d="M16.453,32.132a.394.394,0,0,0,.077.552l.037.027a.268.268,0,0,0,.028.018.421.421,0,0,0-.388.736l.038.029a.422.422,0,0,0,.5-.678l-.033-.024a.22.22,0,0,0-.032-.021.395.395,0,0,0,.353-.694l-.031-.023a.313.313,0,0,0-.03-.02l-.163-.056A.392.392,0,0,0,16.453,32.132Zm.283,1.2a.3.3,0,0,1-.24.12.3.3,0,0,1-.177-.058l-.038-.028a.3.3,0,0,1,.359-.477l.034.025A.3.3,0,0,1,16.736,33.333Zm.285-.776a.275.275,0,0,1-.22.111.27.27,0,0,1-.162-.054l-.036-.026a.274.274,0,1,1,.33-.437l.031.023A.274.274,0,0,1,17.021,32.557Z"/>
            <path class="cls-5"
                  d="M17.017,33.977,17.06,34a.422.422,0,0,0,.388-.749l-.037-.019a.422.422,0,0,0-.394.746Zm-.066-.513a.3.3,0,0,1,.4-.124l.037.02a.3.3,0,0,1-.137.563.292.292,0,0,1-.137-.034l-.042-.021A.3.3,0,0,1,16.951,33.464Z"/>
            <path class="cls-5"
                  d="M18.777,34.641l.044.011a.457.457,0,0,0,.1.012.422.422,0,0,0,.1-.831l-.042-.01a.422.422,0,0,0-.206.818Zm-.186-.482a.3.3,0,0,1,.362-.216l.042.01a.3.3,0,1,1-.144.579l-.044-.011A.3.3,0,0,1,18.591,34.159Z"/>
            <path class="cls-5"
                  d="M18.216,33.587l-.04-.015a.422.422,0,0,0-.295.79l.044.016a.411.411,0,0,0,.145.026.421.421,0,0,0,.146-.817Zm.134.5a.3.3,0,0,1-.28.2.31.31,0,0,1-.1-.018l-.043-.016a.3.3,0,1,1,.209-.559l.04.015A.3.3,0,0,1,18.35,34.086Z"/>
            <path class="cls-5"
                  d="M25.475,32.92a.387.387,0,0,0,.145-.029.417.417,0,0,0-.054.031l-.034.023a.422.422,0,0,0,.235.772A.415.415,0,0,0,26,33.645l.04-.026a.422.422,0,0,0-.389-.742l.042-.024.037-.025a.394.394,0,1,0-.444-.652l-.032.022a.394.394,0,0,0,.22.722Zm.575.182a.3.3,0,0,1-.079.415l-.039.026a.3.3,0,1,1-.332-.5l.035-.024A.3.3,0,0,1,26.05,33.1Zm-.728-.8.033-.022a.273.273,0,1,1,.308.452l-.036.024a.269.269,0,0,1-.152.047.274.274,0,0,1-.153-.5Z"/>
            <path class="cls-5"
                  d="M26.343,31.776a.273.273,0,0,1,0,.386l-.032.032a.273.273,0,0,1-.387,0,.277.277,0,0,1-.059-.3c-.045.018-.091.035-.137.051a.394.394,0,0,0,.39.448.359.359,0,0,0,.093-.012l-.026.024-.027.028a.421.421,0,1,0,.594.6L26.79,33a.421.421,0,0,0-.407-.7l.016-.015.033-.033a.394.394,0,0,0,0-.558l-.015-.013-.13.056A.277.277,0,0,1,26.343,31.776Zm.355.714a.3.3,0,0,1,0,.421l-.034.035a.3.3,0,0,1-.21.086.3.3,0,0,1-.21-.51l.028-.029A.3.3,0,0,1,26.7,32.49Z"/>
            <path class="cls-5"
                  d="M21.513,34.058h.011l.045,0a.394.394,0,0,0-.014-.788H21.5a.395.395,0,0,0,.011.789Zm-.007-.668h.04a.273.273,0,0,1,.019.546l-.044,0h-.008a.274.274,0,0,1-.007-.547Z"/>
            <path class="cls-5"
                  d="M23.168,33.858a.4.4,0,0,0,.084-.009l.043-.01a.394.394,0,0,0-.171-.77l-.039.009a.394.394,0,0,0,.083.78ZM23.11,33.2l.04-.009a.273.273,0,1,1,.118.534l-.042.01a.286.286,0,0,1-.058.006.274.274,0,0,1-.058-.541Z"/>
            <path class="cls-5"
                  d="M18.1,33.524l.041.015a.395.395,0,0,0,.272-.741l-.038-.014a.395.395,0,0,0-.275.74Zm-.119-.466a.274.274,0,0,1,.352-.16l.038.014a.273.273,0,0,1-.094.53.261.261,0,0,1-.1-.017l-.04-.015A.273.273,0,0,1,17.978,33.058Z"/>
            <path class="cls-5"
                  d="M18.935,33.784l.042.011a.391.391,0,0,0,.095.011.394.394,0,0,0,.094-.777l-.038-.01a.394.394,0,1,0-.193.765Zm-.169-.449a.272.272,0,0,1,.332-.2l.039.009a.273.273,0,0,1-.065.539.248.248,0,0,1-.066-.008l-.042-.01A.274.274,0,0,1,18.766,33.335Z"/>
            <path class="cls-5"
                  d="M24.748,33.329a.392.392,0,0,0,.169-.038l.04-.019a.395.395,0,0,0-.343-.711l-.035.017a.394.394,0,0,0,.169.751Zm-.117-.642.036-.017a.274.274,0,0,1,.237.493l-.039.019a.274.274,0,0,1-.234-.5Z"/>
            <path class="cls-5"
                  d="M19.79,33.956l.044.006a.364.364,0,0,0,.057,0,.395.395,0,0,0,.056-.785l-.039,0a.394.394,0,1,0-.118.78Zm-.211-.431a.273.273,0,0,1,.311-.23l.04.006a.273.273,0,0,1-.039.544l-.04,0-.043-.006A.273.273,0,0,1,19.579,33.525Z"/>
            <path class="cls-5"
                  d="M17.288,33.163l.04.021a.395.395,0,1,0,.363-.7l-.033-.018a.4.4,0,1,0-.37.7Zm-.057-.477a.275.275,0,0,1,.37-.114l.035.019a.273.273,0,0,1-.126.516.27.27,0,0,1-.126-.031l-.039-.02A.273.273,0,0,1,17.231,32.686Z"/>
            <path class="cls-5"
                  d="M23.973,33.638a.383.383,0,0,0,.124-.02l.043-.014a.395.395,0,0,0-.254-.747l-.037.012a.395.395,0,0,0,.124.769Zm-.086-.654.038-.013a.274.274,0,0,1,.176.518l-.042.014a.258.258,0,0,1-.086.014.274.274,0,0,1-.086-.533Z"/>
            <path class="cls-5"
                  d="M22.345,34a.371.371,0,0,0,.047,0l.043-.005a.394.394,0,1,0-.1-.783l-.04.005a.394.394,0,0,0,.046.786Zm-.032-.666.041,0a.273.273,0,0,1,.066.543l-.042,0a.183.183,0,0,1-.033,0,.273.273,0,0,1-.032-.545Z"/>
            <path class="cls-5"
                  d="M20.656,34.045l.044,0h.021a.394.394,0,0,0,.02-.788l-.038,0a.394.394,0,1,0-.047.787Zm-.25-.41a.272.272,0,0,1,.289-.256l.04,0a.273.273,0,0,1-.014.546h-.014l-.044,0A.274.274,0,0,1,20.406,33.635Z"/>
            <path class="cls-6"
                  d="M19.554,34.941l-.048-.007a.348.348,0,1,0-.111.687l.05.008a.339.339,0,0,0,.055,0,.348.348,0,0,0,.054-.692Z"/>
            <path class="cls-6"
                  d="M18.61,34.744l-.046-.013a.348.348,0,0,0-.181.673l.051.013a.332.332,0,0,0,.088.011.348.348,0,0,0,.088-.684Z"/>
            <path class="cls-6" d="M20.515,35.048l-.048,0a.348.348,0,0,0-.049.7l.052,0h.023a.348.348,0,0,0,.022-.7Z"/>
            <path class="cls-6"
                  d="M15.383,32.894l-.028-.035a.348.348,0,1,0-.545.433l.034.043a.348.348,0,0,0,.539-.441Z"/>
            <path class="cls-6"
                  d="M17.7,34.449l-.045-.017a.348.348,0,1,0-.254.648l.048.018a.343.343,0,0,0,.125.024.348.348,0,0,0,.126-.673Z"/>
            <path class="cls-6"
                  d="M16.044,33.534l-.036-.028a.348.348,0,0,0-.435.543l.042.033a.348.348,0,0,0,.488-.059A.348.348,0,0,0,16.044,33.534Z"/>
            <path class="cls-6" d="M21.483,35.069h-.048a.348.348,0,0,0,.006.7H21.5a.348.348,0,0,0-.016-.7Z"/>
            <path class="cls-6"
                  d="M16.832,34.05l-.042-.023a.348.348,0,1,0-.338.608l.046.025a.334.334,0,0,0,.166.043.348.348,0,0,0,.168-.653Z"/>
            <path class="cls-6" d="M26.781,33.217l-.032.032a.348.348,0,1,0,.479.5l.04-.038a.348.348,0,1,0-.487-.5Z"/>
            <path class="cls-6"
                  d="M27.826,32.39a.348.348,0,0,0-.477.121l-.023.038a.348.348,0,1,0,.592.366l.028-.047A.348.348,0,0,0,27.826,32.39Z"/>
            <path class="cls-6" d="M26.053,33.8l-.04.027a.348.348,0,1,0,.378.584l.044-.029a.348.348,0,0,0-.382-.582Z"/>
            <path class="cls-6"
                  d="M27.926,32.153a.353.353,0,0,0,.072.008.349.349,0,0,0,.341-.276l.011-.055a.348.348,0,1,0-.684-.132l-.008.043A.347.347,0,0,0,27.926,32.153Z"/>
            <path class="cls-6" d="M14.908,32.091a.348.348,0,1,0-.65.248l.02.053a.348.348,0,1,0,.646-.26Z"/>
            <path class="cls-6"
                  d="M28.014,31.17a.326.326,0,0,0,.062-.006.348.348,0,0,0,.281-.4l-.01-.055a.331.331,0,0,0-.017-.056c-.2.128-.4.251-.6.368A.347.347,0,0,0,28.014,31.17Z"/>
            <path class="cls-6"
                  d="M14.059,31.219v.072a.347.347,0,0,0,.348.346h0a.347.347,0,0,0,.346-.349v-.056a.347.347,0,0,0-.133-.28l-.084-.049a.339.339,0,0,0-.124-.026A.349.349,0,0,0,14.059,31.219Z"/>
            <path class="cls-6"
                  d="M23.4,34.85l-.048.01a.348.348,0,0,0,.071.689.343.343,0,0,0,.071-.008l.05-.01a.348.348,0,1,0-.144-.681Z"/>
            <path class="cls-6" d="M24.332,34.6l-.045.014a.348.348,0,0,0,.21.664l.05-.016a.348.348,0,1,0-.215-.662Z"/>
            <path class="cls-6"
                  d="M25.224,34.255l-.044.02a.348.348,0,0,0,.145.664.352.352,0,0,0,.144-.031l.047-.022a.348.348,0,1,0-.292-.631Z"/>
            <path class="cls-6"
                  d="M22.448,35l-.047.005a.348.348,0,0,0,.037.694l.038,0,.052-.006a.348.348,0,1,0-.08-.691Z"/>
            <path class="cls-6"
                  d="M27.264,31.5a.235.235,0,0,0,.052,0,.3.3,0,0,0,.294-.246l.008-.049a.286.286,0,0,0-.007-.124q-.267.15-.542.288A.3.3,0,0,0,27.264,31.5Z"/>
            <path class="cls-6"
                  d="M15.053,31.9l.02.044a.3.3,0,0,0,.27.172.3.3,0,0,0,.271-.425l-.017-.036a.3.3,0,1,0-.544.245Z"/>
            <path class="cls-6"
                  d="M15.115,31.261h.022a.186.186,0,0,0,.033,0c-.11-.057-.22-.116-.328-.177A.3.3,0,0,0,15.115,31.261Z"/>
            <path class="cls-6"
                  d="M15.612,32.3a.3.3,0,0,0-.03.421l.032.036a.3.3,0,0,0,.223.1.3.3,0,0,0,.223-.5l-.027-.031A.3.3,0,0,0,15.612,32.3Z"/>
            <path class="cls-6" d="M26.767,31.85l-.019.034a.3.3,0,0,0,.516.3l.024-.043a.3.3,0,0,0-.521-.291Z"/>
            <path class="cls-6"
                  d="M24.162,34.361a.308.308,0,0,0,.094-.015l.044-.015a.3.3,0,1,0-.192-.565l-.041.014a.3.3,0,0,0,.095.581Z"/>
            <path class="cls-6" d="M20.7,34.2l-.042,0a.3.3,0,1,0-.035.6l.046,0h.016a.3.3,0,0,0,.015-.6Z"/>
            <path class="cls-6"
                  d="M22.429,34.144l-.042.005a.3.3,0,0,0,.035.595l.035,0,.047-.006a.3.3,0,0,0-.075-.592Z"/>
            <path class="cls-6" d="M21.568,34.212h-.044a.3.3,0,0,0,.009.6h.009l.045,0a.3.3,0,1,0-.019-.6Z"/>
            <path class="cls-6"
                  d="M24.99,34.031A.287.287,0,0,0,25.117,34l.043-.02a.3.3,0,1,0-.26-.537l-.038.018a.3.3,0,0,0,.128.568Z"/>
            <path class="cls-6" d="M19.709,34.7l.047.007a.3.3,0,1,0,.085-.591l-.042-.006a.3.3,0,0,0-.09.59Z"/>
            <path class="cls-6"
                  d="M23.3,34.6a.279.279,0,0,0,.064-.007l.045-.01A.3.3,0,0,0,23.28,34l-.042.009a.3.3,0,0,0,.063.59Z"/>
            <path class="cls-6"
                  d="M16.64,32.89a.3.3,0,0,0-.359.477l.038.028a.3.3,0,0,0,.177.058.3.3,0,0,0,.24-.12.3.3,0,0,0-.062-.418Z"/>
            <path class="cls-6"
                  d="M17.075,33.868l.042.021a.292.292,0,0,0,.137.034.3.3,0,0,0,.137-.563l-.037-.02a.3.3,0,0,0-.279.528Z"/>
            <path class="cls-6" d="M18.807,34.521l.044.011A.3.3,0,1,0,19,33.953l-.042-.01a.3.3,0,0,0-.146.578Z"/>
            <path class="cls-6"
                  d="M18.173,33.7l-.04-.015a.3.3,0,1,0-.209.559l.043.016a.31.31,0,0,0,.1.018.3.3,0,0,0,.1-.578Z"/>
            <path class="cls-6" d="M25.6,33.047a.3.3,0,0,0,.332.5l.039-.026a.3.3,0,0,0-.336-.494Z"/>
            <path class="cls-6" d="M26.248,32.522a.3.3,0,0,0,.42.424l.034-.035a.3.3,0,0,0-.426-.418Z"/>
            <path class="cls-6"
                  d="M26.871,31.483l.011-.021c-.105.051-.211.1-.318.148a.28.28,0,0,0,.07.009A.275.275,0,0,0,26.871,31.483Z"/>
            <path class="cls-6"
                  d="M15.95,31.982l.029.034a.274.274,0,0,0,.205.092.27.27,0,0,0,.181-.068.275.275,0,0,0,.092-.2c-.172-.068-.343-.138-.512-.213A.272.272,0,0,0,15.95,31.982Z"/>
            <path class="cls-6"
                  d="M16.549,32.205a.275.275,0,0,0,.054.383l.036.026a.27.27,0,0,0,.162.054.274.274,0,0,0,.163-.494l-.031-.023A.274.274,0,0,0,16.549,32.205Z"/>
            <path class="cls-6"
                  d="M25.475,32.8a.269.269,0,0,0,.152-.047l.036-.024a.273.273,0,1,0-.308-.452l-.033.022a.274.274,0,0,0,.153.5Z"/>
            <path class="cls-6"
                  d="M25.927,32.193a.273.273,0,0,0,.387,0l.032-.032a.273.273,0,0,0,0-.386.277.277,0,0,0-.061-.044c-.137.057-.275.112-.414.164A.277.277,0,0,0,25.927,32.193Z"/>
            <path class="cls-6" d="M21.513,33.937h.008l.044,0a.273.273,0,0,0-.019-.546h-.04a.274.274,0,0,0,.007.547Z"/>
            <path class="cls-6"
                  d="M23.168,33.737a.286.286,0,0,0,.058-.006l.042-.01a.273.273,0,1,0-.118-.534l-.04.009a.274.274,0,0,0,.058.541Z"/>
            <path class="cls-6"
                  d="M18.139,33.41l.04.015a.261.261,0,0,0,.1.017.273.273,0,0,0,.094-.53L18.33,32.9a.273.273,0,1,0-.191.512Z"/>
            <path class="cls-6"
                  d="M18.964,33.667l.042.01a.248.248,0,0,0,.066.008.273.273,0,0,0,.065-.539l-.039-.009a.273.273,0,1,0-.134.53Z"/>
            <path class="cls-6"
                  d="M24.748,33.208a.272.272,0,0,0,.117-.026l.039-.019a.274.274,0,0,0-.237-.493l-.036.017a.274.274,0,0,0,.117.521Z"/>
            <path class="cls-6"
                  d="M19.808,33.836l.043.006.04,0a.273.273,0,0,0,.039-.544l-.04-.006a.274.274,0,0,0-.082.541Z"/>
            <path class="cls-6"
                  d="M17.345,33.056l.039.02a.27.27,0,0,0,.126.031.273.273,0,0,0,.126-.516l-.035-.019a.274.274,0,0,0-.256.484Z"/>
            <path class="cls-6"
                  d="M23.973,33.517a.258.258,0,0,0,.086-.014l.042-.014a.274.274,0,0,0-.176-.518l-.038.013a.274.274,0,0,0,.086.533Z"/>
            <path class="cls-6"
                  d="M22.345,33.875a.183.183,0,0,0,.033,0l.042,0a.273.273,0,0,0-.066-.543l-.041,0a.273.273,0,0,0,.032.545Z"/>
            <path class="cls-6"
                  d="M20.663,33.925l.044,0h.014a.273.273,0,0,0,.014-.546l-.04,0a.273.273,0,1,0-.032.546Z"/>
            <path class="cls-12" d="M16.975,32.034a.378.378,0,0,0-.163-.056Z"/>
            <path class="cls-12" d="M14.538,30.9l.084.049A.349.349,0,0,0,14.538,30.9Z"/>
            <path class="cls-8"
                  d="M7.353,12.1S7,10.506,5.629,10.515c-.789-.01-2.088-.065-1.816,1.679s2.221.941,2.221.162"/>
            <path class="cls-4"
                  d="M4.84,13.732a1.52,1.52,0,0,1-1.519-1.461,2,2,0,0,1,.34-1.677,2.4,2.4,0,0,1,1.924-.577H5.6a2.413,2.413,0,0,1,2.237,1.972.5.5,0,0,1-.376.594.494.494,0,0,1-.594-.375h0c-.012-.048-.291-1.2-1.227-1.2-.116.007-.155,0-.233,0a1.407,1.407,0,0,0-1,.236,1.177,1.177,0,0,0-.108.871c.1.626.421.622.545.621a.8.8,0,0,0,.687-.384.5.5,0,0,1,.994,0c0,.737-.823,1.314-1.562,1.372C4.926,13.731,4.883,13.732,4.84,13.732Z"/>
            <rect class="cls-13" x="5.127" y="8.35" width="4.325" height="4.325"/>
            <rect class="cls-13" x="4.63" y="8.084" width="5.32" height="1.694"/>
            <g class="cls-7">
                <rect class="cls-13" x="5.127" y="9.779" width="4.325" height="0.396"/>
            </g>
            <rect class="cls-6" x="6.808" y="8.062" width="0.965" height="1.717"/>
            <rect class="cls-6" x="6.882" y="9.779" width="0.816" height="2.897"/>
            <rect class="cls-14" x="6.882" y="9.779" width="0.816" height="0.396"/>
            <rect class="cls-4" x="5.127" y="9.779" width="4.325" height="0.396"/>
            <path class="cls-4"
                  d="M9.95,8.084v1.7h-.5v2.9H5.127v-2.9h-.5v-1.7H9.95m0-.5H4.63a.5.5,0,0,0-.5.5v1.7a.5.5,0,0,0,.5.5h0v2.4a.5.5,0,0,0,.5.5H9.453a.5.5,0,0,0,.5-.5v-2.4a.5.5,0,0,0,.5-.5v-1.7a.5.5,0,0,0-.5-.5Z"/>
            <path class="cls-8"
                  d="M10.044,15.59a6.417,6.417,0,0,1,.189-1.04c.344-1.176.848-2.992-.358-2.946-2.175.085-2.243,2.665-2.243,2.665"/>
            <path class="cls-4"
                  d="M10.045,16.087l-.047,0a.5.5,0,0,1-.449-.541,6.852,6.852,0,0,1,.207-1.134c.14-.479.567-1.938.306-2.271-.027-.035-.1-.041-.167-.037-1.691.065-1.764,2.093-1.766,2.18a.484.484,0,0,1-.51.484.5.5,0,0,1-.484-.511c.028-1.053.633-3.066,2.72-3.148a1.1,1.1,0,0,1,.992.42c.529.679.238,1.883-.136,3.162a5.976,5.976,0,0,0-.172.947A.5.5,0,0,1,10.045,16.087Z"/>
            <path class="cls-6"
                  d="M22.722,17.086c0,.6.9,1.028,2.006,1.028s2-.528,2-1.177c0-.735-.8-1.176-2-1.176C23.62,15.761,22.722,16.556,22.722,17.086Z"/>
            <path class="cls-4"
                  d="M22.893,17.086c-.03.314.339.607.7.753a2.934,2.934,0,0,0,1.217.2,2.793,2.793,0,0,0,1.178-.313c.345-.2.633-.529.558-.862a.935.935,0,0,0-.712-.688,3.292,3.292,0,0,0-1.156-.14,2.5,2.5,0,0,0-1.086.286A1.28,1.28,0,0,0,22.893,17.086Zm-.342,0a1.6,1.6,0,0,1,.8-1.174,2.443,2.443,0,0,1,1.324-.422,3.572,3.572,0,0,1,1.341.239,1.317,1.317,0,0,1,.891,1.1,1.181,1.181,0,0,1-.81,1.09,2.964,2.964,0,0,1-1.275.263,4.494,4.494,0,0,1-1.285-.16C23.143,17.9,22.614,17.678,22.551,17.086Z"/>
            <circle class="cls-4" cx="24.766" cy="16.748" r="0.994"/>
            <path class="cls-4"
                  d="M27.75,15.833a.118.118,0,0,0-.16.052l-.006.011a1.194,1.194,0,0,1-.073.126,1.291,1.291,0,0,1-.088.118.934.934,0,0,1-.208.183.583.583,0,0,1-.229.085.643.643,0,0,1-.231-.013l-.02,0a.279.279,0,0,0-.065,0,.272.272,0,0,0-.117.036.96.96,0,0,1,.223.51l.041,0a.492.492,0,0,0,.106-.015l.1-.024c.034-.011.068-.025.1-.038a1,1,0,0,0,.34-.232,1.275,1.275,0,0,0,.22-.312,1.369,1.369,0,0,0,.072-.168,1.28,1.28,0,0,0,.053-.178A.119.119,0,0,0,27.75,15.833Z"/>
            <path class="cls-4"
                  d="M27.482,15.492a.118.118,0,0,0-.168.014l-.006.007c-.031.036-.068.077-.105.113s-.077.074-.117.107a1.555,1.555,0,0,1-.25.173.99.99,0,0,1-.259.1.66.66,0,0,1-.239,0,.264.264,0,0,0-.063,0,.272.272,0,0,0-.176.077,1.376,1.376,0,0,1,.507.418,1.087,1.087,0,0,0,.128-.048,1.487,1.487,0,0,0,.333-.222,1.916,1.916,0,0,0,.251-.277,1.729,1.729,0,0,0,.1-.15c.032-.051.061-.1.091-.16A.12.12,0,0,0,27.482,15.492Z"/>
            <path class="cls-4"
                  d="M23.266,14.241c.682-.066,1.364-.11,2.049-.113l.525-.008a1.638,1.638,0,0,1,.617.108,5.3,5.3,0,0,1,.939.474.2.2,0,0,1,.064.271.2.2,0,0,1-.183.092,5.768,5.768,0,0,1-1.015-.165,2.077,2.077,0,0,0-.4-.021l-.5.038c-.685.058-1.373.074-2.061.069a.373.373,0,0,1-.033-.745Z"/>
            <path class="cls-15"
                  d="M21.562,19.028H21.1a.788.788,0,0,1-.788-.787.249.249,0,0,1,.5,0,.29.29,0,0,0,.29.29h.463a.291.291,0,0,0,.291-.29.249.249,0,0,1,.5,0A.789.789,0,0,1,21.562,19.028Z"/>
            <path class="cls-16"
                  d="M13.524,19.663h0a7.716,7.716,0,1,0,15.414,0H13.524ZM21.231,27a7.344,7.344,0,0,1-7.325-6.961H28.555A7.343,7.343,0,0,1,21.231,27Z"/>
            <path class="cls-4"
                  d="M37.405,29.9a.372.372,0,0,1-.21-.064l-5.272-3.582a.373.373,0,1,1,.42-.617l5.272,3.582a.373.373,0,0,1-.21.681Z"/>
            <path class="cls-4"
                  d="M5.057,29.9a.373.373,0,0,1-.21-.681l5.272-3.582a.373.373,0,1,1,.42.617L5.267,29.839A.38.38,0,0,1,5.057,29.9Z"/>
            <path class="cls-4"
                  d="M38.314,27.887a.379.379,0,0,1-.2-.056l-3.682-2.282a.373.373,0,1,1,.392-.635L38.511,27.2a.373.373,0,0,1-.2.691Z"/>
            <path class="cls-4"
                  d="M35.824,24.146a.379.379,0,0,1-.174-.043L33.308,22.87a.373.373,0,1,1,.347-.66L36,23.442a.374.374,0,0,1-.174.7Z"/>
            <path class="cls-4"
                  d="M5.517,27.361a.373.373,0,0,1-.2-.689L9.4,24.139a.373.373,0,1,1,.395.632L5.714,27.305A.376.376,0,0,1,5.517,27.361Z"/>
            <path class="cls-4"
                  d="M3.4,26.458a.373.373,0,0,1-.185-.7L5.578,24.41a.373.373,0,1,1,.371.647L3.59,26.408A.369.369,0,0,1,3.4,26.458Z"/>
            <path class="cls-4" d="M13.524,19.663a7.707,7.707,0,0,0,15.414,0Z"/>
            <path class="cls-6"
                  d="M20.038,19.663h1.193a0,0,0,0,1,0,0v.944a.249.249,0,0,1-.249.249h-.7a.249.249,0,0,1-.249-.249v-.944A0,0,0,0,1,20.038,19.663Z"/>
            <path class="cls-6"
                  d="M18.845,19.663h1.193a0,0,0,0,1,0,0v.944a.249.249,0,0,1-.249.249h-.7a.249.249,0,0,1-.249-.249v-.944A0,0,0,0,1,18.845,19.663Z"/>
            <path class="cls-6"
                  d="M17.653,19.663h1.193a0,0,0,0,1,0,0v.944a.249.249,0,0,1-.249.249h-.7a.249.249,0,0,1-.249-.249v-.944A0,0,0,0,1,17.653,19.663Z"/>
            <path class="cls-6"
                  d="M16.46,19.663h1.193a0,0,0,0,1,0,0V20.3a.209.209,0,0,1-.209.209h-.774a.209.209,0,0,1-.209-.209v-.637A0,0,0,0,1,16.46,19.663Z"/>
            <path class="cls-6"
                  d="M21.231,19.663h1.193a0,0,0,0,1,0,0v.944a.249.249,0,0,1-.249.249h-.7a.249.249,0,0,1-.249-.249v-.944A0,0,0,0,1,21.231,19.663Z"/>
            <path class="cls-6"
                  d="M22.424,19.663h1.193a0,0,0,0,1,0,0v.944a.249.249,0,0,1-.249.249h-.7a.249.249,0,0,1-.249-.249v-.944A0,0,0,0,1,22.424,19.663Z"/>
            <path class="cls-6"
                  d="M23.616,19.663h1.193a0,0,0,0,1,0,0v.944a.249.249,0,0,1-.249.249h-.7a.249.249,0,0,1-.249-.249v-.944A0,0,0,0,1,23.616,19.663Z"/>
            <path class="cls-6"
                  d="M24.809,19.663H26a0,0,0,0,1,0,0V20.3a.209.209,0,0,1-.209.209h-.774a.209.209,0,0,1-.209-.209v-.637A0,0,0,0,1,24.809,19.663Z"/>
            <path class="cls-3"
                  d="M22.043,9.682c-.138.243.681.765.895,1.939l0,.007a.594.594,0,0,0,.617.491,8.626,8.626,0,0,1,2.414.2c1.932.441,3.093,1.43,3.282,1.193.168-.21-.569-1.217-1.492-1.939a11.734,11.734,0,0,0-3.58-1.491C22.777,9.628,22.153,9.489,22.043,9.682Z"/>
            <path class="cls-3"
                  d="M21.806,10.215a2.393,2.393,0,0,1,.27-.721h-.793a3.05,3.05,0,0,0-.173.97,2.808,2.808,0,0,0,.447,1.591h.6A2.556,2.556,0,0,1,21.806,10.215Z"/>
            <path class="cls-3"
                  d="M20.845,10.215a2.42,2.42,0,0,1,.271-.721h-.793a3.089,3.089,0,0,0-.174.97,2.816,2.816,0,0,0,.448,1.591h.6A2.554,2.554,0,0,1,20.845,10.215Z"/>
            <path class="cls-3"
                  d="M24.789,10.276l-.608-.2c-1.4-.452-2.028-.591-2.138-.4-.138.243.681.765.895,1.939l0,.007a.594.594,0,0,0,.617.491,8.661,8.661,0,0,1,2.155.144,2.329,2.329,0,0,0-.114-.68A3.166,3.166,0,0,0,24.789,10.276Z"/>
            <path class="cls-2"
                  d="M29.253,13.51c.168-.21-.569-1.217-1.492-1.939a9.555,9.555,0,0,0-2.972-1.295,3.166,3.166,0,0,1,.809,1.307,2.329,2.329,0,0,1,.114.68c.086.016.172.034.259.054C27.9,12.758,29.064,13.747,29.253,13.51Z"/>
            <path class="cls-4"
                  d="M21.231,9.714A9.951,9.951,0,1,1,14.2,12.628a9.881,9.881,0,0,1,7.035-2.914m0-1.049a11,11,0,1,0,7.776,3.221,10.926,10.926,0,0,0-7.776-3.221Z"/>
            <path class="cls-6"
                  d="M19.739,17.086c0,.6-.9,1.028-2,1.028s-2.006-.528-2.006-1.177c0-.735.8-1.176,2.006-1.176C18.841,15.761,19.739,16.556,19.739,17.086Z"/>
            <path class="cls-4"
                  d="M19.91,17.086c-.062.592-.591.814-.981.938a4.505,4.505,0,0,1-1.286.16,2.967,2.967,0,0,1-1.275-.263,1.184,1.184,0,0,1-.81-1.09,1.32,1.32,0,0,1,.891-1.1,3.577,3.577,0,0,1,1.342-.239,2.446,2.446,0,0,1,1.324.422A1.6,1.6,0,0,1,19.91,17.086Zm-.342,0a1.278,1.278,0,0,0-.7-.764,2.5,2.5,0,0,0-1.086-.286,3.3,3.3,0,0,0-1.157.14.935.935,0,0,0-.711.688c-.075.333.213.667.557.862a2.8,2.8,0,0,0,1.179.313,2.932,2.932,0,0,0,1.216-.2C19.229,17.693,19.6,17.4,19.568,17.086Z"/>
            <circle class="cls-4" cx="17.695" cy="16.748" r="0.994"/>
            <path class="cls-4"
                  d="M14.712,15.833a.119.119,0,0,1,.16.052l.006.011a1.042,1.042,0,0,0,.073.126,1.291,1.291,0,0,0,.088.118.934.934,0,0,0,.208.183.578.578,0,0,0,.229.085.638.638,0,0,0,.23-.013l.02,0a.281.281,0,0,1,.065,0,.276.276,0,0,1,.118.036.96.96,0,0,0-.223.51l-.041,0a.484.484,0,0,1-.106-.015l-.105-.024c-.034-.011-.067-.025-.1-.038a1.016,1.016,0,0,1-.341-.232,1.27,1.27,0,0,1-.219-.312,1.551,1.551,0,0,1-.073-.168,1.433,1.433,0,0,1-.052-.178A.118.118,0,0,1,14.712,15.833Z"/>
            <path class="cls-4"
                  d="M14.98,15.492a.118.118,0,0,1,.168.014l.006.007c.03.036.068.077.105.113a1.455,1.455,0,0,0,.116.107,1.555,1.555,0,0,0,.25.173,1.009,1.009,0,0,0,.26.1.66.66,0,0,0,.239,0,.264.264,0,0,1,.063,0,.269.269,0,0,1,.175.077,1.382,1.382,0,0,0-.506.418,1.087,1.087,0,0,1-.128-.048,1.443,1.443,0,0,1-.333-.222,1.86,1.86,0,0,1-.251-.277,2.164,2.164,0,0,1-.194-.31A.119.119,0,0,1,14.98,15.492Z"/>
            <path class="cls-4"
                  d="M19.163,14.986c-.689,0-1.377-.011-2.062-.069l-.5-.038a2.067,2.067,0,0,0-.4.021,5.764,5.764,0,0,1-1.016.165.2.2,0,0,1-.211-.181.2.2,0,0,1,.092-.182,5.306,5.306,0,0,1,.94-.474,1.635,1.635,0,0,1,.617-.108l.525.008c.685,0,1.367.047,2.048.113a.373.373,0,0,1-.032.745Z"/>
        </g>
    </g>
</svg>