<svg id="Buddy" xmlns="http://www.w3.org/2000/svg" viewBox="0 0 42 42">
    <defs>
        <style>.cls-1 {
            fill: #4b45da;
        }</style>
    </defs>
    <title>Buddy</title>
    <path class="cls-1"
          d="M21,29.008A12.172,12.172,0,1,1,33.172,16.836,12.185,12.185,0,0,1,21,29.008ZM21,6.36A10.476,10.476,0,1,0,31.476,16.836,10.488,10.488,0,0,0,21,6.36Z"/>
    <path class="cls-1"
          d="M21,37.336A20.523,20.523,0,0,1,.5,16.836a3.15,3.15,0,0,1,6.3,0,14.2,14.2,0,0,0,28.4,0,3.15,3.15,0,0,1,6.3,0A20.523,20.523,0,0,1,21,37.336Z"/>
    <path class="cls-1" d="M12.808,16.836a8.192,8.192,0,0,0,16.384,0Z"/>
</svg>