<svg id="Buddy" xmlns="http://www.w3.org/2000/svg" viewBox="0 0 42 42"><defs><style>.cls-1{fill:#e54360;}.cls-2{fill:#f89aba;}.cls-3{fill:#fff;}.cls-4{fill:#ff6c37;}.cls-5{fill:#4b45d3;}.cls-6{fill:#feb0c0;}.cls-7{fill:#fca0c9;}.cls-8{fill:#ff595a;}.cls-9{fill:#ff9015;}.cls-10{fill:#3dae2b;}</style></defs><title>Bunny-Buddy</title><path class="cls-1" d="M25.309,14.648a.948.948,0,0,1-.6-.217l-1.3-1.078a.944.944,0,0,1-.332-.6c-.1-.749-.913-7.384,2.282-9.821a3.725,3.725,0,0,1,3.859-.5,3.635,3.635,0,0,1,2.194,2.918A3.1,3.1,0,0,1,29.893,8.2c-2.584,1.706-3.659,5.7-3.669,5.741a.947.947,0,0,1-.625.66A.964.964,0,0,1,25.309,14.648ZM27.705,4a1.954,1.954,0,0,0-1.2.438c-1.815,1.384-1.811,5.557-1.613,7.573a11.651,11.651,0,0,1,3.962-5.384,1.225,1.225,0,0,0,.673-1.12,1.775,1.775,0,0,0-1.078-1.347A1.831,1.831,0,0,0,27.705,4Z"/><path class="cls-1" d="M14.523,14.648a.964.964,0,0,1-.29-.045.947.947,0,0,1-.625-.661c-.01-.04-1.084-4.034-3.669-5.74A3.1,3.1,0,0,1,8.423,5.349a3.635,3.635,0,0,1,2.194-2.918,3.722,3.722,0,0,1,3.859.5c3.195,2.437,2.385,9.072,2.282,9.821a.944.944,0,0,1-.332.6l-1.3,1.078A.948.948,0,0,1,14.523,14.648Zm1.3-2.023h0ZM12.127,4a1.831,1.831,0,0,0-.742.16,1.775,1.775,0,0,0-1.078,1.347,1.225,1.225,0,0,0,.673,1.12,11.654,11.654,0,0,1,3.962,5.382c.2-2.018.2-6.192-1.613-7.571A1.954,1.954,0,0,0,12.127,4Z"/><circle class="cls-2" cx="19.916" cy="19.532" r="10.558"/><path class="cls-3" d="M11.64,18.366a1.032,1.032,0,0,0-1.048,1.012v.01a9.21,9.21,0,0,0,9.324,9.092,9.209,9.209,0,0,0,9.324-9.092v-.01a1.032,1.032,0,0,0-1.048-1.012Z"/><path class="cls-4" d="M19.916,38.452A18.941,18.941,0,0,1,1,19.532a2.907,2.907,0,0,1,5.813,0,13.106,13.106,0,1,0,26.212,0,2.907,2.907,0,0,1,5.814,0A18.942,18.942,0,0,1,19.916,38.452Z"/><path class="cls-2" d="M19.916,38.452A18.941,18.941,0,0,1,1,19.532a2.907,2.907,0,0,1,5.813,0,13.106,13.106,0,1,0,26.212,0,2.907,2.907,0,0,1,5.814,0A18.942,18.942,0,0,1,19.916,38.452Z"/><path class="cls-1" d="M35.929,17.122a2.413,2.413,0,0,1,2.41,2.41,18.423,18.423,0,0,1-36.846,0,2.41,2.41,0,1,1,4.82,0,13.6,13.6,0,0,0,27.206,0,2.413,2.413,0,0,1,2.41-2.41m0-.993a3.407,3.407,0,0,0-3.4,3.4,12.61,12.61,0,0,1-25.22,0,3.4,3.4,0,0,0-6.806,0,19.416,19.416,0,0,0,38.832,0,3.407,3.407,0,0,0-3.4-3.4Z"/><path class="cls-1" d="M19.916,9.292a10.241,10.241,0,1,1-10.24,10.24,10.252,10.252,0,0,1,10.24-10.24m0-.994A11.234,11.234,0,1,0,31.15,19.532,11.247,11.247,0,0,0,19.916,8.3Z"/><path class="cls-2" d="M15.822,12.625s.93-6.768-1.92-8.941S7.531,5.48,10.46,7.413s4.063,6.29,4.063,6.29Z"/><path class="cls-5" d="M10.152,5.272c.482-1.008,2.305-1.764,3.47,1.228a28.263,28.263,0,0,1,1.421,5.87.155.155,0,0,1-.292.09c-.685-1.4-2.094-4.085-3.151-4.889C10.152,6.469,9.9,5.79,10.152,5.272Z"/><path class="cls-2" d="M24.01,12.625s-.93-6.768,1.92-8.941,6.371,1.8,3.442,3.729-4.063,6.29-4.063,6.29Z"/><path class="cls-5" d="M29.681,5.272C29.2,4.264,27.375,3.508,26.21,6.5a28.187,28.187,0,0,0-1.42,5.87.154.154,0,0,0,.291.09c.685-1.4,2.094-4.085,3.151-4.889C29.681,6.469,29.928,5.79,29.681,5.272Z"/><path class="cls-5" d="M12.356,19.532a7.56,7.56,0,0,0,15.12,0Z"/><path class="cls-3" d="M16.7,19.521h3.221v2.342a.88.88,0,0,1-.88.88H18.1a.88.88,0,0,1-.86-.7Z"/><path class="cls-3" d="M23.132,19.521H19.911v2.342a.88.88,0,0,0,.88.88h.936a.88.88,0,0,0,.86-.7Z"/><circle class="cls-3" cx="23.481" cy="16.359" r="1.614"/><circle class="cls-5" cx="23.481" cy="16.359" r="1.117"/><circle class="cls-3" cx="24.212" cy="15.629" r="0.38"/><circle class="cls-3" cx="16.351" cy="16.359" r="1.614"/><circle class="cls-5" cx="16.351" cy="16.359" r="1.117"/><circle class="cls-3" cx="17.081" cy="15.629" r="0.38"/><path class="cls-3" d="M19.916,17.81l6.737-1.161a2.156,2.156,0,0,1,2.587,2.113v.759H19.916Z"/><path class="cls-3" d="M19.916,19.521V17.81l-6.737-1.161a2.156,2.156,0,0,0-2.587,2.113v.759"/><circle class="cls-6" cx="15.912" cy="18.117" r="0.24"/><circle class="cls-6" cx="16.791" cy="18.711" r="0.24"/><circle class="cls-6" cx="15.135" cy="18.806" r="0.24"/><circle class="cls-6" cx="23.92" cy="18.117" r="0.24"/><circle class="cls-6" cx="23.042" cy="18.711" r="0.24"/><circle class="cls-6" cx="24.697" cy="18.806" r="0.24"/><rect class="cls-7" x="19.668" y="17.81" width="0.496" height="1.711"/><path class="cls-5" d="M18.945,17.865l.668.669a.429.429,0,0,0,.606,0l.669-.669a.322.322,0,0,0-.228-.549H19.172A.321.321,0,0,0,18.945,17.865Z"/><path class="cls-2" d="M1,20V17.067a.87.87,0,0,1,.87-.871h0a.871.871,0,0,1,.871.871v.479"/><path class="cls-1" d="M1,20.5A.5.5,0,0,1,.5,20V17.067a1.367,1.367,0,1,1,2.733,0v.479a.5.5,0,1,1-.992,0v-.479a.375.375,0,0,0-.749,0V20A.5.5,0,0,1,1,20.5Z"/><path class="cls-2" d="M2.738,17.546V16.42a1.068,1.068,0,0,1,1.067-1.068h0A1.068,1.068,0,0,1,4.873,16.42v1.126"/><path class="cls-1" d="M4.873,18.042a.5.5,0,0,1-.5-.5V16.419a.572.572,0,0,0-1.143,0v1.127a.5.5,0,1,1-.992,0V16.419a1.564,1.564,0,1,1,3.127,0v1.127A.5.5,0,0,1,4.873,18.042Z"/><path class="cls-2" d="M4.873,17.546v-.878a.968.968,0,0,1,.968-.968h0a.968.968,0,0,1,.969.968v2.864"/><path class="cls-1" d="M6.81,20.029a.5.5,0,0,1-.5-.5V16.668a.472.472,0,1,0-.944,0v.878a.5.5,0,0,1-.992,0v-.878a1.465,1.465,0,1,1,2.929,0v2.864A.5.5,0,0,1,6.81,20.029Z"/><path class="cls-2" d="M6.81,19.532V17.416h-1.1A1.1,1.1,0,0,0,4.6,18.521v1.011"/><path class="cls-1" d="M6.81,20.029a.5.5,0,0,1-.5-.5v-1.62H5.705a.609.609,0,0,0-.609.609v1.011a.5.5,0,1,1-.992,0V18.521a1.6,1.6,0,0,1,1.6-1.6h1.1a.5.5,0,0,1,.5.5v2.116A.5.5,0,0,1,6.81,20.029Z"/><path class="cls-8" d="M39.994,27.69a2.654,2.654,0,0,1-1.864-1.008c-1.177-1.434-.623-3.9-.257-5.527.059-.261.126-.559.168-.793a1.5,1.5,0,0,1-.236.006,2.178,2.178,0,0,1-.688-.139l-5.808-2.17L30.972,16.9l.477-.682-.064-.5.282-.926,6.615,1.175a2.219,2.219,0,0,1,1.8,2.575c.775,1.05,2.556,3.753,1.677,5.355a1.877,1.877,0,0,1-.467.557,2.858,2.858,0,0,1,.17,1.665,1.949,1.949,0,0,1-.964,1.475A1.294,1.294,0,0,1,39.994,27.69ZM38.656,19.3c.6.217.455.876.186,2.072-.324,1.441-.814,3.62.055,4.678.351.426.95.731,1.213.627.089-.038.258-.187.375-.759a1.985,1.985,0,0,0-.263-1.386l-.267-.452.466-.242a1.054,1.054,0,0,0,.463-.418c.48-.876-.559-2.922-1.728-4.452l-.125-.164.018-.219a1.3,1.3,0,0,0-.11-1.075,1.229,1.229,0,0,0-.831-.567l-5.695-1.01.069.539-.424.607.065.223,5.343,2a1.155,1.155,0,0,0,.372.077.853.853,0,0,0,.319-.052.71.71,0,0,1,.5-.023Z"/><path class="cls-9" d="M39,18.737l.609-.406A1.721,1.721,0,0,0,38.2,16.456l-6.181-1.1-.123.4.074.584-.45.645.2.691,5.576,2.083.019.007a1.707,1.707,0,0,1,.663-.382C38.837,19.2,39,18.737,39,18.737Z"/><path class="cls-10" d="M38.487,19.768c.545.2-1.55,4.678.027,6.6.419.51,1.232,1,1.788.769.482-.2.623-.887.67-1.117a2.489,2.489,0,0,0-.323-1.738,1.569,1.569,0,0,0,.671-.621c.886-1.617-1.781-5-1.779-5h0a1.748,1.748,0,0,0,.066-.323L39,18.737s-.161.459-1.024.652a1.707,1.707,0,0,0-.663.382,1.644,1.644,0,0,0,.51.1C38.233,19.886,38.378,19.728,38.487,19.768Z"/><path class="cls-1" d="M39.994,27.69a2.654,2.654,0,0,1-1.864-1.008c-1.177-1.434-.623-3.9-.257-5.527.059-.261.126-.559.168-.793a1.5,1.5,0,0,1-.236.006,2.178,2.178,0,0,1-.688-.139l-5.808-2.17L30.972,16.9l.477-.682-.064-.5.282-.926,6.615,1.175a2.219,2.219,0,0,1,1.8,2.575c.775,1.05,2.556,3.753,1.677,5.355a1.877,1.877,0,0,1-.467.557,2.858,2.858,0,0,1,.17,1.665,1.949,1.949,0,0,1-.964,1.475A1.294,1.294,0,0,1,39.994,27.69ZM38.656,19.3c.6.217.455.876.186,2.072-.324,1.441-.814,3.62.055,4.678.351.426.95.731,1.213.627.089-.038.258-.187.375-.759a1.985,1.985,0,0,0-.263-1.386l-.267-.452.466-.242a1.054,1.054,0,0,0,.463-.418c.48-.876-.559-2.922-1.728-4.452l-.125-.164.018-.219a1.3,1.3,0,0,0-.11-1.075,1.229,1.229,0,0,0-.831-.567l-5.695-1.01.069.539-.424.607.065.223,5.343,2a1.155,1.155,0,0,0,.372.077.853.853,0,0,0,.319-.052.71.71,0,0,1,.5-.023Z"/><path class="cls-2" d="M33.023,19.532V17.416h1.1a1.1,1.1,0,0,1,1.1,1.105v1.011"/><path class="cls-1" d="M35.232,20.029a.5.5,0,0,1-.5-.5V18.521a.609.609,0,0,0-.608-.609h-.609v1.62a.5.5,0,1,1-.993,0V17.416a.5.5,0,0,1,.5-.5h1.106a1.6,1.6,0,0,1,1.6,1.6v1.011A.5.5,0,0,1,35.232,20.029Z"/><rect class="cls-1" x="35.487" y="17.444" width="3.319" height="0.992" transform="translate(8.76 47.872) rotate(-72.296)"/><rect class="cls-1" x="33.609" y="16.155" width="1.694" height="0.993" transform="translate(10.44 46.445) rotate(-76.921)"/></svg>