<svg id="Buddy" xmlns="http://www.w3.org/2000/svg" viewBox="0 0 42 42"><defs><style>.cls-1{fill:#3dae2b;}.cls-2{fill:#00783f;}.cls-3{fill:#295135;}.cls-4{fill:#cfddbb;}.cls-5{fill:#d4c201;}.cls-6{fill:#f4436c;}.cls-7{fill:#c40d3c;}</style></defs><title>Cactus-Buddy</title><path class="cls-1" d="M9.651,17.187a11.408,11.408,0,0,1,22.815,0c0,6.3,2.781,17.276-11.408,17.276C7.528,34.463,9.651,23.487,9.651,17.187Z"/><path class="cls-2" d="M21.108,29.218A12.161,12.161,0,0,1,9.549,20.786c-.159,6.142.378,13.57,11.509,13.57,11.591,0,11.857-7.324,11.566-13.441A12.159,12.159,0,0,1,21.108,29.218Z"/><path class="cls-3" d="M30.549,33.088h-.5V13.7a7.579,7.579,0,0,0-7.571-7.571H21.059v-.5h1.423A8.076,8.076,0,0,1,30.549,13.7Z"/><path class="cls-3" d="M27.871,33.088h-.5V10.352a4.233,4.233,0,0,0-4.228-4.228H21.059v-.5h2.088a4.73,4.73,0,0,1,4.724,4.724Z"/><path class="cls-3" d="M25.162,33.088h-.5V8.456a2.334,2.334,0,0,0-2.332-2.332H21.059v-.5h1.275a2.831,2.831,0,0,1,2.828,2.828Z"/><path class="cls-3" d="M22.515,33.088h-.5V6.592a.469.469,0,0,0-.468-.468h-.492v-.5h.492a.966.966,0,0,1,.964.964Z"/><path class="cls-3" d="M12.063,33.088h-.5V13.7a8.077,8.077,0,0,1,8.067-8.067h1.425v.5H19.634A7.579,7.579,0,0,0,12.063,13.7Z"/><path class="cls-3" d="M14.741,33.088h-.5V10.352a4.73,4.73,0,0,1,4.724-4.724h2.09v.5h-2.09a4.233,4.233,0,0,0-4.228,4.228Z"/><path class="cls-3" d="M17.45,33.088h-.5V8.456a2.832,2.832,0,0,1,2.828-2.828h1.277v.5H19.782A2.334,2.334,0,0,0,17.45,8.456Z"/><path class="cls-3" d="M20.1,33.088h-.5V6.592a.965.965,0,0,1,.963-.964h.494v.5h-.494a.468.468,0,0,0-.467.468Z"/><path class="cls-3" d="M21.058,6.123A11.077,11.077,0,0,1,32.123,17.187V31.3H9.994V17.187A11.076,11.076,0,0,1,21.058,6.123m0-1.074A12.151,12.151,0,0,0,8.921,17.187V32.371H33.2V17.187A12.152,12.152,0,0,0,21.058,5.049Z"/><path class="cls-1" d="M21.058,37.629A20.465,20.465,0,0,1,.616,17.187a3.141,3.141,0,0,1,6.281,0,14.161,14.161,0,0,0,28.322,0,3.141,3.141,0,0,1,6.281,0A20.465,20.465,0,0,1,21.058,37.629Z"/><path class="cls-3" d="M21.059,36.267a19.1,19.1,0,0,1-19.08-19.08A19.32,19.32,0,0,1,2.2,14.3l.489.075a18.587,18.587,0,1,0,36.959,2.814,18.984,18.984,0,0,0-.214-2.831l.488-.074a19.432,19.432,0,0,1,.22,2.905A19.1,19.1,0,0,1,21.059,36.267Z"/><path class="cls-3" d="M21.059,33.184a16.015,16.015,0,0,1-16-16,16.22,16.22,0,0,1,.218-2.648l.446.074A15.546,15.546,0,1,0,36.6,17.187a15.833,15.833,0,0,0-.213-2.574l.445-.074a16.183,16.183,0,0,1,.219,2.648A16.015,16.015,0,0,1,21.059,33.184Z"/><path class="cls-3" d="M21.059,34.712A17.545,17.545,0,0,1,3.534,17.187a17.772,17.772,0,0,1,.286-3.17l.487.089a17.239,17.239,0,0,0-.277,3.081,17.028,17.028,0,1,0,34.056,0,17.331,17.331,0,0,0-.276-3.081l.486-.089a17.772,17.772,0,0,1,.286,3.17A17.544,17.544,0,0,1,21.059,34.712Z"/><path class="cls-3" d="M21.059,38.165A21,21,0,0,1,.08,17.187a3.677,3.677,0,0,1,7.354,0,13.625,13.625,0,1,0,27.249,0,3.677,3.677,0,1,1,7.353,0A21,21,0,0,1,21.059,38.165ZM3.757,14.583a2.608,2.608,0,0,0-2.605,2.6,19.906,19.906,0,1,0,39.812,0,2.6,2.6,0,0,0-5.209,0,14.7,14.7,0,1,1-29.394,0A2.607,2.607,0,0,0,3.757,14.583Z"/><path class="cls-3" d="M28.27,17.187H12.89a8.169,8.169,0,1,0,16.337,0Z"/><path class="cls-3" d="M26.414,13.725a.789.789,0,1,1-1.288-.879,1.556,1.556,0,0,0-.181-.01,1.658,1.658,0,1,0,1.469.889Z"/><path class="cls-4" d="M25.7,14.171a.79.79,0,0,0,.711-.446,1.658,1.658,0,0,0-1.288-.879.787.787,0,0,0,.577,1.325Z"/><path class="cls-4" d="M24.945,12.836a1.658,1.658,0,1,1-1.658,1.657,1.657,1.657,0,0,1,1.658-1.657m0-.5A2.153,2.153,0,1,0,27.1,14.493a2.156,2.156,0,0,0-2.153-2.153Z"/><path class="cls-3" d="M18.38,13.725a.789.789,0,1,1-1.288-.879,1.556,1.556,0,0,0-.181-.01,1.658,1.658,0,1,0,1.469.889Z"/><path class="cls-4" d="M17.67,14.171a.788.788,0,0,0,.71-.446,1.656,1.656,0,0,0-1.288-.879.787.787,0,0,0,.578,1.325Z"/><path class="cls-4" d="M16.911,12.836a1.658,1.658,0,1,1-1.658,1.657,1.657,1.657,0,0,1,1.658-1.657m0-.5a2.153,2.153,0,1,0,2.153,2.153,2.156,2.156,0,0,0-2.153-2.153Z"/><path class="cls-5" d="M39.144,24.683l.737.8a.067.067,0,0,1-.005.095.068.068,0,0,1-.086,0l-.864-.667a.162.162,0,0,1,.2-.256A.1.1,0,0,1,39.144,24.683Z"/><path class="cls-5" d="M36.551,28.766l.989.459a.094.094,0,0,1,.045.123.092.092,0,0,1-.112.049l-1.038-.331a.161.161,0,1,1,.1-.307Z"/><path class="cls-5" d="M33.3,32.263l.69.842a.109.109,0,0,1-.162.146l-.767-.772a.162.162,0,0,1,.229-.228Z"/><path class="cls-5" d="M28.735,34.985l.277,1.054a.09.09,0,0,1-.064.11.091.091,0,0,1-.106-.053l-.412-1.009a.161.161,0,1,1,.3-.122Z"/><path class="cls-5" d="M22.293,36.582l-.122,1.082a.114.114,0,0,1-.228-.016l.029-1.088a.161.161,0,1,1,.322.008Z"/><path class="cls-5" d="M15.457,35.96l-.677.853a.1.1,0,0,1-.169-.12l.583-.92a.161.161,0,0,1,.272.173Z"/><path class="cls-5" d="M11.107,34.138l-.977.485a.092.092,0,0,1-.092-.16l.908-.6a.161.161,0,1,1,.178.268Z"/><path class="cls-5" d="M2.026,21.567l-.871.653a.1.1,0,0,1-.145-.02.1.1,0,0,1,.012-.138l.8-.742a.161.161,0,1,1,.219.236Z"/><path class="cls-5" d="M1.536,17.8.481,17.527a.1.1,0,0,1,.038-.194l1.079.151a.161.161,0,1,1-.044.319Z"/><path class="cls-5" d="M4.542,15.158l.307-1.045a.113.113,0,0,1,.22.055l-.214,1.067a.161.161,0,0,1-.316-.063Z"/><path class="cls-5" d="M6.168,20.445l.562-.935a.084.084,0,0,1,.15.076l-.425,1a.161.161,0,1,1-.3-.125Z"/><path class="cls-5" d="M8.313,25.339l.941-.549a.092.092,0,0,1,.1.152l-.865.664a.161.161,0,1,1-.2-.256Z"/><path class="cls-5" d="M6.038,24.1l.482-.789a.092.092,0,0,1,.127-.03.091.091,0,0,1,.036.114l-.358.852a.162.162,0,0,1-.3-.125Z"/><path class="cls-5" d="M3.048,20.622l-.509-.772a.091.091,0,0,1,.026-.127.093.093,0,0,1,.119.015l.619.687a.161.161,0,1,1-.24.216Z"/><path class="cls-5" d="M6.871,28.955l-.922.066a.092.092,0,0,1-.027-.181l.9-.2a.161.161,0,1,1,.071.315Z"/><path class="cls-5" d="M9.8,31.132l-.4.832a.092.092,0,0,1-.171-.068l.275-.882a.161.161,0,1,1,.308.1Z"/><path class="cls-5" d="M19.919,33.607l.555-.739a.091.091,0,0,1,.129-.018.09.09,0,0,1,.025.117l-.438.814a.161.161,0,0,1-.284-.153Z"/><path class="cls-5" d="M29.9,32.743l.907.178a.092.092,0,0,1-.022.182l-.923-.04a.162.162,0,1,1,.014-.323Z"/><path class="cls-5" d="M34.258,26.815l.026-.925a.092.092,0,0,1,.183-.008l.113.918a.162.162,0,0,1-.321.039A.2.2,0,0,1,34.258,26.815Z"/><path class="cls-5" d="M38.861,20.251l.922.07a.092.092,0,0,1,0,.183l-.922.069a.161.161,0,1,1-.024-.322Z"/><path class="cls-5" d="M12.579,29.837l.145-1.08a.092.092,0,0,1,.1-.079.091.091,0,0,1,.079.092L12.9,29.86a.161.161,0,1,1-.322,0Z"/><path class="cls-5" d="M17.505,31.558l.819-.72a.091.091,0,0,1,.129.129l-.72.818a.161.161,0,1,1-.242-.213Z"/><path class="cls-5" d="M25.02,31.852l-.147-1.08a.092.092,0,0,1,.18-.036l.282,1.052a.161.161,0,1,1-.311.084Z"/><path class="cls-5" d="M31.27,28.352l-.865-.664a.092.092,0,0,1,.1-.152l.941.548a.161.161,0,1,1-.162.279Z"/><path class="cls-5" d="M35.007,19.954l.684.849a.161.161,0,0,1-.251.2l-.013-.018-.563-.933a.088.088,0,0,1,.03-.12A.087.087,0,0,1,35.007,19.954Z"/><path class="cls-5" d="M39.35,14.241l-.1,1.087a.161.161,0,1,1-.321-.03l0-.024.262-1.059a.078.078,0,0,1,.154.026Z"/><path class="cls-5" d="M41.379,17.9l-1.023.382a.162.162,0,1,1-.113-.3l.026-.007,1.071-.208a.071.071,0,0,1,.083.057A.069.069,0,0,1,41.379,17.9Z"/><path class="cls-5" d="M35.443,15.994l.947.541a.162.162,0,0,1,.06.22.16.16,0,0,1-.22.06l-.019-.012-.86-.672a.083.083,0,0,1,.092-.137Z"/><path class="cls-5" d="M31.772,18.911l.736.806a.068.068,0,0,1,0,.1.067.067,0,0,1-.086,0l-.864-.667a.162.162,0,1,1,.2-.256Z"/><path class="cls-5" d="M12.778,23.01l-1.087.063a.1.1,0,0,1-.023-.207l1.075-.176a.161.161,0,0,1,.052.318Z"/><path class="cls-5" d="M28.837,10.239l.561-.934a.084.084,0,0,1,.15.076l-.424,1a.162.162,0,0,1-.3-.125Z"/><path class="cls-5" d="M26.3,26.23l.922.07a.092.092,0,0,1,0,.183l-.922.069a.161.161,0,0,1-.025-.322Z"/><path class="cls-5" d="M10.213,19.01l-.864-.664a.092.092,0,0,1,.1-.152l.942.548a.162.162,0,0,1-.163.279Z"/><path class="cls-5" d="M12.118,10.165l.684.849a.161.161,0,1,1-.251.2l-.013-.018-.563-.933a.088.088,0,0,1,.03-.12A.087.087,0,0,1,12.118,10.165Z"/><path class="cls-5" d="M32.1,24.344l-1.023.382a.162.162,0,1,1-.113-.3l.026-.007,1.071-.208a.071.071,0,0,1,.083.056A.07.07,0,0,1,32.1,24.344Z"/><path class="cls-5" d="M32.579,15.017l-.926.578a.161.161,0,1,1-.171-.274l.024-.012,1.008-.418a.071.071,0,0,1,.065.126Z"/><path class="cls-5" d="M9.626,14.964l1.061.258a.162.162,0,0,1-.077.314l-.025-.008-1-.43a.071.071,0,0,1,.045-.134Z"/><path class="cls-4" d="M14.6,17.187s.258,1.548,1.238,1.266a1.4,1.4,0,0,0,1.2-1.266Z"/><path class="cls-4" d="M17.46,17.187s-.07,1.908,1.271,1.936c1.576,0,1.341-1.936,1.341-1.936Z"/><path class="cls-4" d="M23.994,18.749a2.2,2.2,0,0,1-2.613-.228,3.231,3.231,0,0,1-.408-1.334h3.779S24.735,18.37,23.994,18.749Z"/><path class="cls-4" d="M27.345,18.247a2.026,2.026,0,0,1-1.861-.212c-.161-.18.029-.848.029-.848H27.6S27.737,18.046,27.345,18.247Z"/><path class="cls-3" d="M24.626,4.8c.278-.274.833-.068,1.186-.159s.75-.54,1.112-.441.457.67.731.948.846.39.938.743-.356.744-.455,1.106.1.909-.175,1.183-.833.068-1.186.16-.75.539-1.112.44-.456-.669-.731-.947-.846-.391-.938-.743.356-.745.456-1.107S24.349,5.071,24.626,4.8Z"/><path class="cls-3" d="M25.776,9.866a1.474,1.474,0,0,1-.394-.054,1.859,1.859,0,0,1-1.126-1.063,1.412,1.412,0,0,0-.106-.188h0a.688.688,0,0,1-.143-.065,1.862,1.862,0,0,1-1.049-1.139,1.877,1.877,0,0,1,.366-1.524,1.712,1.712,0,0,0,.1-.174c-.021.03-.024-.039-.026-.1a1.91,1.91,0,0,1,.47-1.523h0A1.915,1.915,0,0,1,25.4,3.584a1.562,1.562,0,0,0,.191,0c-.03,0,.026-.043.086-.08a1.872,1.872,0,0,1,1.53-.346,1.858,1.858,0,0,1,1.125,1.062,1.408,1.408,0,0,0,.105.188h0a.7.7,0,0,1,.146.066,1.86,1.86,0,0,1,1.047,1.138,1.875,1.875,0,0,1-.366,1.527,1.464,1.464,0,0,0-.106.173c.022-.035.025.038.027.1a1.912,1.912,0,0,1-.468,1.521,1.9,1.9,0,0,1-1.53.451A1.242,1.242,0,0,0,27,9.385c.03,0-.026.044-.086.08A2.14,2.14,0,0,1,25.776,9.866Zm.48-1.936Zm-.978-1.18a2.03,2.03,0,0,1,.741.75,1.906,1.906,0,0,1,1.005-.262h.011a2.052,2.052,0,0,1,.069-.529,1.991,1.991,0,0,1,.208-.485,2.114,2.114,0,0,1-.421-.327,2.142,2.142,0,0,1-.32-.423,1.909,1.909,0,0,1-1.017.262,1.944,1.944,0,0,1-.276,1.014Zm-.426-.243Z"/><circle class="cls-3" cx="26.295" cy="6.487" r="0.611"/><path class="cls-3" d="M26.3,8.17a1.683,1.683,0,0,1-1.184-2.881h0A1.684,1.684,0,1,1,26.3,8.17ZM25.97,6.158h0a.459.459,0,0,0-.137.325.461.461,0,0,0,.785.332Zm0,0,.649.657a.46.46,0,0,0,0-.651.466.466,0,0,0-.327-.139h0A.468.468,0,0,0,25.97,6.158Z"/><path class="cls-6" d="M24.626,4.8c.278-.274.833-.068,1.186-.159s.75-.54,1.112-.441.457.67.731.948.846.39.938.743-.356.744-.455,1.106.1.909-.175,1.183-.833.068-1.186.16-.75.539-1.112.44-.456-.669-.731-.947-.846-.391-.938-.743.356-.745.456-1.107S24.349,5.071,24.626,4.8Z"/><path class="cls-7" d="M25.773,9.146a.809.809,0,0,1-.2-.027,1.206,1.206,0,0,1-.678-.7,1.576,1.576,0,0,0-.21-.337,1.6,1.6,0,0,0-.333-.214,1.21,1.21,0,0,1-.7-.688,1.228,1.228,0,0,1,.278-.957,1.445,1.445,0,0,0,.178-.332,1.38,1.38,0,0,0,.013-.359,1.225,1.225,0,0,1,.257-.983,1.216,1.216,0,0,1,.986-.243,1.46,1.46,0,0,0,.358-.007,1.487,1.487,0,0,0,.334-.175,1.216,1.216,0,0,1,.961-.264,1.206,1.206,0,0,1,.678.7,1.632,1.632,0,0,0,.211.336,1.561,1.561,0,0,0,.333.215,1.209,1.209,0,0,1,.7.687,1.226,1.226,0,0,1-.278.958,1.494,1.494,0,0,0-.179.332,1.424,1.424,0,0,0-.012.358,1.226,1.226,0,0,1-.255.983,1.233,1.233,0,0,1-.987.243,1.468,1.468,0,0,0-.359.007,1.575,1.575,0,0,0-.334.175A1.487,1.487,0,0,1,25.773,9.146ZM25.125,5a.431.431,0,0,0-.249.046h0c-.061.06-.052.287-.046.452a1.872,1.872,0,0,1-.037.573,1.941,1.941,0,0,1-.265.526c-.083.129-.208.325-.188.4s.223.176.348.244a2.093,2.093,0,0,1,.5.339,2.106,2.106,0,0,1,.333.5c.065.125.174.333.239.351s.269-.1.4-.184A1.936,1.936,0,0,1,26.688,8a1.864,1.864,0,0,1,.573-.03c.168.01.393.022.454-.04s.052-.286.045-.451A1.878,1.878,0,0,1,27.8,6.9a1.964,1.964,0,0,1,.265-.525c.083-.129.208-.325.188-.4s-.224-.177-.348-.245a2.04,2.04,0,0,1-.5-.339,2.111,2.111,0,0,1-.333-.5c-.065-.125-.174-.334-.24-.351s-.269.1-.4.183a1.959,1.959,0,0,1-.53.258,1.9,1.9,0,0,1-.572.029C25.266,5.005,25.193,5,25.125,5Z"/><circle class="cls-5" cx="26.295" cy="6.487" r="0.611"/></svg>