<svg id="Buddy" xmlns="http://www.w3.org/2000/svg" viewBox="0 0 42 42"><defs><style>.cls-1{fill:#ffb548;}.cls-2{fill:#f79b2d;}.cls-3{fill:#ed40a9;}.cls-4{fill:#e50695;}.cls-5{fill:#f095cd;}.cls-6{fill:#ae1857;}.cls-7{fill:#00b189;}.cls-8{fill:#009877;}.cls-9{fill:#f44c7f;}.cls-10{fill:#ca003d;}.cls-11{fill:#6aaae4;}.cls-12{fill:#0071ce;}.cls-13{fill:#fff;}.cls-14{fill:#dfe0e1;}.cls-15{fill:#f0e77b;}.cls-16{fill:#f3c300;}</style></defs><title>Donut-Buddy</title><path class="cls-1" d="M21,37.336A20.523,20.523,0,0,1,.5,16.836a3.15,3.15,0,0,1,6.3,0,14.2,14.2,0,0,0,28.4,0,3.15,3.15,0,0,1,6.3,0A20.523,20.523,0,0,1,21,37.336Z"/><path class="cls-2" d="M21,37.874A21.061,21.061,0,0,1-.038,16.836a3.688,3.688,0,0,1,7.375,0,13.663,13.663,0,0,0,27.326,0,3.688,3.688,0,0,1,7.375,0A21.061,21.061,0,0,1,21,37.874ZM3.649,14.225a2.614,2.614,0,0,0-2.611,2.611,19.962,19.962,0,0,0,39.924,0,2.612,2.612,0,0,0-5.223,0,14.739,14.739,0,1,1-29.478,0A2.614,2.614,0,0,0,3.649,14.225Z"/><path class="cls-1" d="M21,28.471A11.635,11.635,0,1,1,32.634,16.836,11.648,11.648,0,0,1,21,28.471Z"/><path class="cls-2" d="M21,5.74a11.1,11.1,0,1,1-11.1,11.1A11.109,11.109,0,0,1,21,5.74m0-1.076A12.172,12.172,0,1,0,33.172,16.836,12.185,12.185,0,0,0,21,4.664Z"/><path class="cls-3" d="M21,27.2a10.123,10.123,0,0,1-3.839-1.09,10.333,10.333,0,0,1-3.483-1.948,10.351,10.351,0,0,1-1.948-3.483,10.118,10.118,0,0,1-1.09-3.839A10.123,10.123,0,0,1,11.73,13a10.351,10.351,0,0,1,1.948-3.483,10.351,10.351,0,0,1,3.483-1.948A10.123,10.123,0,0,1,21,6.476a10.118,10.118,0,0,1,3.839,1.09,10.351,10.351,0,0,1,3.483,1.948A10.333,10.333,0,0,1,30.27,13a10.123,10.123,0,0,1,1.09,3.839,10.118,10.118,0,0,1-1.09,3.839,10.351,10.351,0,0,1-1.948,3.483,10.333,10.333,0,0,1-3.483,1.948A10.123,10.123,0,0,1,21,27.2Z"/><path class="cls-4" d="M21,27.492a9.278,9.278,0,0,1-3.61-.969l-.623-.259a9.727,9.727,0,0,1-3.3-1.9,9.727,9.727,0,0,1-1.9-3.3l-.263-.632a9.265,9.265,0,0,1-.965-3.6,9.265,9.265,0,0,1,.965-3.6l.264-.635a9.722,9.722,0,0,1,1.9-3.3,9.741,9.741,0,0,1,3.3-1.9l.623-.26A9.3,9.3,0,0,1,21,6.18a9.3,9.3,0,0,1,3.61.969l.623.26a9.741,9.741,0,0,1,3.3,1.9,9.722,9.722,0,0,1,1.9,3.3l.261.626a9.294,9.294,0,0,1,.968,3.609,9.289,9.289,0,0,1-.968,3.609l-.261.626a9.741,9.741,0,0,1-1.9,3.3,9.727,9.727,0,0,1-3.3,1.9l-.623.259A9.278,9.278,0,0,1,21,27.492Zm0-20.72a8.841,8.841,0,0,0-3.381.923l-.627.261a9.275,9.275,0,0,0-3.105,1.768,9.3,9.3,0,0,0-1.767,3.1l-.266.639a8.822,8.822,0,0,0-.918,3.371,8.827,8.827,0,0,0,.918,3.372l.265.636a9.31,9.31,0,0,0,1.768,3.105,9.31,9.31,0,0,0,3.105,1.768l.627.261A8.84,8.84,0,0,0,21,26.9a8.84,8.84,0,0,0,3.381-.922l.627-.261a9.31,9.31,0,0,0,3.105-1.768,9.3,9.3,0,0,0,1.767-3.1l.263-.63a8.842,8.842,0,0,0,.921-3.379,8.842,8.842,0,0,0-.921-3.379l-.263-.631a9.3,9.3,0,0,0-1.767-3.1,9.275,9.275,0,0,0-3.105-1.768L24.381,7.7A8.841,8.841,0,0,0,21,6.772Z"/><path class="cls-5" d="M21,7.229a4.689,4.689,0,0,1,1.878.17,17.746,17.746,0,0,1,1.764.641,18.176,18.176,0,0,1,1.7.8,4.734,4.734,0,0,1,1.45,1.206,14.034,14.034,0,0,0-3.314-1.608A13.382,13.382,0,0,0,21,7.229Z"/><path class="cls-5" d="M12.4,20.4a10.53,10.53,0,0,1-1.082-2.6,5.3,5.3,0,0,1,.194-2.85c.323-.9.711-1.736,1.094-2.592a6.487,6.487,0,0,1,1.6-2.305,8.6,8.6,0,0,0-1.3,2.436c-.315.871-.716,1.729-.99,2.6a5.279,5.279,0,0,0-.278,2.655A18.4,18.4,0,0,0,12.4,20.4Z"/><path class="cls-5" d="M24.56,25.433A7.3,7.3,0,0,1,21,26.659a7.278,7.278,0,0,1-3.56-1.226,13.4,13.4,0,0,0,3.56.8A13.362,13.362,0,0,0,24.56,25.433Z"/><path class="cls-5" d="M30.608,16.836a3.46,3.46,0,0,1-.123,1.894A5.864,5.864,0,0,1,29.6,20.4a11.234,11.234,0,0,1,.48-1.8C30.29,18.023,30.429,17.452,30.608,16.836Z"/><path class="cls-3" d="M40.559,16.518a2.152,2.152,0,0,0-2.179-1.642,2.117,2.117,0,0,0-1.991,1.964c0,1.567.161,3.014-.592,4.412a41.927,41.927,0,0,1-2.448,4.332,22.477,22.477,0,0,1-3.04,3.282,9.135,9.135,0,0,1-3.659,1.99,19.541,19.541,0,0,1-5.676,1.158,17.127,17.127,0,0,1-5.246-.888,13.3,13.3,0,0,1-3.417-1.883,13.074,13.074,0,0,1-2.852-2.314A20.721,20.721,0,0,1,7.5,23.593a13.55,13.55,0,0,1-1.318-3.874,13.423,13.423,0,0,1-.269-3.04,2.526,2.526,0,0,0-2.314-2.045,2.571,2.571,0,0,0-2.179,2.233A18.969,18.969,0,0,0,2.034,21.6a18.2,18.2,0,0,0,1.211,3.82A21.811,21.811,0,0,0,6.2,29.35a18.873,18.873,0,0,0,2.314,2.314,18.228,18.228,0,0,0,3.12,2.583,23.263,23.263,0,0,0,4.224,1.129,18.74,18.74,0,0,0,4.9,1.157,16.16,16.16,0,0,0,4.789-.834c2.191-.834,3.541-.75,5.435-1.964a14.623,14.623,0,0,0,2.851-2.313c1.084-1.395,2.155-1.815,3.175-3a16.783,16.783,0,0,0,1.856-3.776,25.869,25.869,0,0,0,1.534-4.9A9.5,9.5,0,0,0,40.559,16.518Z"/><path class="cls-4" d="M20.759,36.694a11.725,11.725,0,0,1-3.611-.755c-.435-.141-.885-.287-1.328-.406-.424-.115-.892-.21-1.387-.31a11.546,11.546,0,0,1-2.869-.833A9.247,9.247,0,0,1,9.42,32.707c-.32-.308-.651-.626-1.005-.919a18.987,18.987,0,0,1-2.334-2.332L5.7,29.01A18.77,18.77,0,0,1,3.1,25.5a14.743,14.743,0,0,1-1.062-3.212c-.053-.212-.105-.425-.161-.641a18.979,18.979,0,0,1-.624-4.775A2.725,2.725,0,0,1,3.6,14.473a2.672,2.672,0,0,1,2.474,2.206,13.3,13.3,0,0,0,.266,3.006,13.352,13.352,0,0,0,1.3,3.831c.119.219.245.462.377.717a14.471,14.471,0,0,0,1.567,2.59,11.355,11.355,0,0,0,2.481,2.055l.408.277a12.849,12.849,0,0,0,3.309,1.818,16.861,16.861,0,0,0,5.2.88,15.678,15.678,0,0,0,4.684-.875c.31-.092.624-.186.947-.278a8.994,8.994,0,0,0,3.59-1.949c.2-.2.395-.382.581-.563a17.824,17.824,0,0,0,2.441-2.7,28.39,28.39,0,0,0,1.865-3.227c.189-.363.379-.727.572-1.088a7.014,7.014,0,0,0,.58-3.627c0-.234-.006-.47-.006-.709a2.284,2.284,0,0,1,2.152-2.125,2.31,2.31,0,0,1,2.339,1.78h0a9.633,9.633,0,0,1-.163,3.285,26.162,26.162,0,0,1-1.544,4.928c-.114.259-.233.552-.358.86a11.447,11.447,0,0,1-1.524,2.956,10.155,10.155,0,0,1-1.446,1.334,9.65,9.65,0,0,0-1.724,1.664,14.642,14.642,0,0,1-2.892,2.35,10.113,10.113,0,0,1-3.286,1.313,19.634,19.634,0,0,0-2.178.666A16.294,16.294,0,0,1,20.759,36.694ZM3.6,14.8a2.434,2.434,0,0,0-2.019,2.071,18.666,18.666,0,0,0,.614,4.7c.056.216.109.431.162.643A14.547,14.547,0,0,0,3.39,25.351,18.522,18.522,0,0,0,5.941,28.8l.386.447A18.85,18.85,0,0,0,8.62,31.54c.363.3.7.623,1.024.935A8.853,8.853,0,0,0,11.712,34.1a11.333,11.333,0,0,0,2.784.8c.5.1.975.2,1.408.315.45.122.905.268,1.344.411a11.508,11.508,0,0,0,3.511.74,15.924,15.924,0,0,0,4.73-.823,19.65,19.65,0,0,1,2.212-.677A9.9,9.9,0,0,0,30.9,33.6a14.391,14.391,0,0,0,2.81-2.277,9.889,9.889,0,0,1,1.776-1.717,9.71,9.71,0,0,0,1.405-1.294,11.261,11.261,0,0,0,1.469-2.866c.126-.311.247-.607.362-.869a25.749,25.749,0,0,0,1.522-4.864,9.256,9.256,0,0,0,.159-3.172h0a2.006,2.006,0,0,0-2.018-1.5,1.968,1.968,0,0,0-1.83,1.8c0,.238,0,.472.008.7a7.275,7.275,0,0,1-.619,3.785c-.194.359-.382.722-.571,1.084a28.314,28.314,0,0,1-1.888,3.264A18.121,18.121,0,0,1,31,28.422c-.187.179-.38.364-.579.559a9.359,9.359,0,0,1-3.729,2.03c-.321.092-.634.184-.943.276a15.921,15.921,0,0,1-4.776.888,17.181,17.181,0,0,1-5.3-.9,13.149,13.149,0,0,1-3.389-1.857l-.406-.277a11.6,11.6,0,0,1-2.544-2.111,14.591,14.591,0,0,1-1.609-2.652c-.132-.254-.257-.5-.374-.712a13.641,13.641,0,0,1-1.335-3.917,13.582,13.582,0,0,1-.272-3.074C5.747,15.77,4.483,14.8,3.6,14.8Z"/><path class="cls-5" d="M39.924,19.647a10.532,10.532,0,0,1-.007-1.537c.055-.5.057-.993.163-1.523a3.225,3.225,0,0,1,.266,1.549A3.655,3.655,0,0,1,39.924,19.647Z"/><path class="cls-5" d="M30.72,33.328c.721-.577,1.44-1.154,2.095-1.783a12.862,12.862,0,0,0,.893-1.03,9.747,9.747,0,0,1,1.01-.982,11.129,11.129,0,0,0,2.007-1.815,19.688,19.688,0,0,0,1.33-2.392A10.749,10.749,0,0,1,37,27.906a9.844,9.844,0,0,1-2,1.958,9.183,9.183,0,0,0-1,.914,8.045,8.045,0,0,1-.962,1.012A13.44,13.44,0,0,1,30.72,33.328Z"/><path class="cls-5" d="M20.758,36.049c.779-.184,1.54-.287,2.3-.441.77-.111,1.521-.261,2.314-.361a6.445,6.445,0,0,1-2.242.785A6.815,6.815,0,0,1,20.758,36.049Z"/><path class="cls-5" d="M11.86,33.816c.711.156,1.382.3,2.083.426a9.2,9.2,0,0,1,2.046.667,11.141,11.141,0,0,1-2.137-.247A4.787,4.787,0,0,1,11.86,33.816Z"/><path class="cls-5" d="M3.677,25.2a34.251,34.251,0,0,0,2.529,3.077c.848,1.04,1.7,2.025,2.62,3.01A13.6,13.6,0,0,1,5.88,28.562,11.744,11.744,0,0,1,3.677,25.2Z"/><path class="cls-5" d="M3.594,15.119a2.2,2.2,0,0,0-1.3,1.1,1.359,1.359,0,0,0-.2.767c.008.3.024.6.049.9.045,1.2.23,2.384.358,3.6a11.484,11.484,0,0,1-.787-3.575c-.013-.307-.016-.614-.011-.921a1.513,1.513,0,0,1,.311-.947A1.969,1.969,0,0,1,3.594,15.119Z"/><path class="cls-5" d="M7.07,23.824a5.426,5.426,0,0,1-1.039-1.882A6.776,6.776,0,0,1,5.7,19.821a18.5,18.5,0,0,1,.735,1.988C6.63,22.481,6.889,23.119,7.07,23.824Z"/><path class="cls-5" d="M36.873,16.84c.048,1.563.218,3.238-.565,4.707a46.151,46.151,0,0,1-2.281,4.2,20.772,20.772,0,0,1-3.2,3.564A9.911,9.911,0,0,1,26.6,31.6a22.923,22.923,0,0,1-4.676,1.055,15.637,15.637,0,0,1-4.78-.454,14.811,14.811,0,0,1-2.286-.745,12.425,12.425,0,0,1-2.085-1.191,18.262,18.262,0,0,1-3.676-3.019,18.2,18.2,0,0,0,3.792,2.843,12.353,12.353,0,0,0,2.074,1.116,14.462,14.462,0,0,0,2.256.673,16.294,16.294,0,0,0,4.673.386,22.7,22.7,0,0,0,4.589-1.077,9.522,9.522,0,0,0,4.08-2.159,22.414,22.414,0,0,0,3.2-3.469,46.688,46.688,0,0,0,2.369-4.111C36.939,20.08,36.856,18.409,36.873,16.84Z"/><path class="cls-6" d="M12.808,16.836a8.192,8.192,0,0,0,16.384,0H12.808Z"/><path class="cls-7" d="M37.875,26.983a.325.325,0,0,1-.207-.075L36.341,25.8a.324.324,0,0,1-.04-.455.317.317,0,0,1,.247-.116.322.322,0,0,1,.207.076l1.327,1.111a.323.323,0,0,1,.04.455A.319.319,0,0,1,37.875,26.983Z"/><path class="cls-8" d="M36.548,25.333a.21.21,0,0,1,.138.05L38.013,26.5a.215.215,0,0,1-.276.33l-1.328-1.112a.215.215,0,0,1,.139-.38m0-.216a.431.431,0,0,0-.277.761L37.6,26.99a.43.43,0,0,0,.552-.66l-1.327-1.112a.424.424,0,0,0-.276-.1Z"/><path class="cls-9" d="M36.515,19.973a.323.323,0,0,1-.288-.176.316.316,0,0,1-.01-.272.312.312,0,0,1,.148-.162l1.54-.794a.316.316,0,0,1,.147-.036.323.323,0,0,1,.148.61l-1.539.794A.328.328,0,0,1,36.515,19.973Z"/><path class="cls-10" d="M38.052,18.641a.215.215,0,0,1,.192.116.215.215,0,0,1-.093.29l-1.539.794a.212.212,0,0,1-.1.024.216.216,0,0,1-.2-.3.213.213,0,0,1,.1-.108l1.539-.793a.212.212,0,0,1,.1-.024m0-.216a.437.437,0,0,0-.2.048l-1.539.794a.43.43,0,0,0,.2.813.424.424,0,0,0,.2-.048l1.539-.794a.431.431,0,0,0-.2-.813Z"/><path class="cls-11" d="M30.646,33.477a.325.325,0,0,1-.32-.371.33.33,0,0,1,.105-.194l1.295-1.15a.321.321,0,0,1,.213-.081.327.327,0,0,1,.243.108.323.323,0,0,1,.08.233.32.32,0,0,1-.108.223L30.86,33.4A.329.329,0,0,1,30.646,33.477Z"/><path class="cls-12" d="M31.94,31.788a.215.215,0,0,1,.143.376l-1.294,1.151a.218.218,0,0,1-.143.054.215.215,0,0,1-.213-.247.209.209,0,0,1,.07-.129l1.294-1.15a.215.215,0,0,1,.143-.055m0-.215a.428.428,0,0,0-.286.109l-1.294,1.15a.426.426,0,0,0-.14.258.43.43,0,0,0,.711.385l1.295-1.15a.43.43,0,0,0-.286-.752Z"/><path class="cls-9" d="M25,33.684a.322.322,0,0,1-.314-.4.317.317,0,0,1,.122-.184L26.2,32.074a.328.328,0,0,1,.193-.063.316.316,0,0,1,.258.131.322.322,0,0,1-.068.452l-1.394,1.027A.316.316,0,0,1,25,33.684Z"/><path class="cls-10" d="M26.393,32.119a.215.215,0,0,1,.174.087.218.218,0,0,1,.04.16.213.213,0,0,1-.086.141l-1.393,1.027a.215.215,0,0,1-.337-.224.21.21,0,0,1,.081-.122l1.394-1.027a.208.208,0,0,1,.127-.042m0-.216a.435.435,0,0,0-.255.084l-1.393,1.028a.43.43,0,1,0,.51.693l1.394-1.028a.431.431,0,0,0-.256-.777Z"/><path class="cls-11" d="M19.763,34.892a.323.323,0,0,1-.321-.288l-.184-1.722a.322.322,0,0,1,.286-.355h.011a.335.335,0,0,1,.247.089.316.316,0,0,1,.1.2l.186,1.723a.322.322,0,0,1-.286.355Z"/><path class="cls-12" d="M19.579,32.417a.371.371,0,0,0-.047,0,.43.43,0,0,0-.382.474l.185,1.721a.432.432,0,0,0,.428.385.355.355,0,0,0,.046,0,.429.429,0,0,0,.382-.474L20.006,32.8a.426.426,0,0,0-.129-.264.431.431,0,0,0-.3-.121Z"/><path class="cls-7" d="M23.372,34.984l-1.7-.3a.323.323,0,0,1,.056-.641l1.762.307a.323.323,0,0,1,.105.6.325.325,0,0,1-.16.043Z"/><path class="cls-8" d="M21.723,33.934l.038.219,1.705.3a.215.215,0,0,1,.07.4.218.218,0,0,1-.117.026h-.028l-1.7-.3a.217.217,0,0,1-.139-.089.215.215,0,0,1,.176-.338v-.216m0,0a.431.431,0,0,0-.074.855l1.7.3a.381.381,0,0,0,.075.007.434.434,0,0,0,.424-.356.431.431,0,0,0-.349-.5l-1.705-.3a.5.5,0,0,0-.076-.007Z"/><path class="cls-7" d="M15.66,33.177a.324.324,0,0,1-.306-.219l-.562-1.638a.323.323,0,0,1,.016-.246.317.317,0,0,1,.184-.164.308.308,0,0,1,.1-.017.32.32,0,0,1,.3.218l.564,1.638a.323.323,0,0,1-.016.246.318.318,0,0,1-.185.164A.313.313,0,0,1,15.66,33.177Z"/><path class="cls-8" d="M15.1,31a.207.207,0,0,1,.111.031.209.209,0,0,1,.093.114l.563,1.637a.217.217,0,0,1-.134.274.21.21,0,0,1-.07.012.214.214,0,0,1-.2-.146l-.563-1.637a.215.215,0,0,1,.133-.274A.243.243,0,0,1,15.1,31m0-.216a.432.432,0,0,0-.407.571l.563,1.637a.43.43,0,0,0,.814-.28L15.5,31.076a.429.429,0,0,0-.407-.291Z"/><path class="cls-9" d="M8.992,31.34a.32.32,0,0,1-.183-.057l-1.43-.976a.323.323,0,0,1,.365-.534l1.43.977a.323.323,0,0,1,.084.449.328.328,0,0,1-.236.139Z"/><path class="cls-10" d="M7.562,29.824a.211.211,0,0,1,.121.038l1.429.977a.212.212,0,0,1,.091.138.219.219,0,0,1-.034.161.226.226,0,0,1-.178.094.209.209,0,0,1-.121-.038l-1.43-.977a.215.215,0,0,1-.09-.138.21.21,0,0,1,.034-.161.214.214,0,0,1,.178-.094m0-.215a.43.43,0,0,0-.243.786l1.429.977a.429.429,0,0,0,.243.075l.042,0a.431.431,0,0,0,.2-.784L7.8,29.684a.424.424,0,0,0-.242-.075Z"/><path class="cls-7" d="M6.073,24.877a.315.315,0,0,1-.223-.106.319.319,0,0,1-.084-.232.323.323,0,0,1,.323-.308l1.744.081a.321.321,0,0,1,.308.336.319.319,0,0,1-.322.308Z"/><path class="cls-8" d="M6.088,24.124l.01.215,1.73.08a.215.215,0,0,1,.2.225.216.216,0,0,1-.085.161.213.213,0,0,1-.138.044h0l-1.729-.08a.207.207,0,0,1-.149-.07.21.21,0,0,1-.056-.155.214.214,0,0,1,.214-.205v-.215m0,0a.43.43,0,0,0-.019.86l1.729.08h.021a.43.43,0,0,0,.429-.41.43.43,0,0,0-.41-.45l-1.73-.08Z"/><path class="cls-13" d="M38.524,22.623a.326.326,0,0,1-.234-.141.314.314,0,0,1-.053-.213l.177-1.722a.32.32,0,0,1,.319-.29.335.335,0,0,1,.252.119.321.321,0,0,1,.071.236l-.177,1.723a.322.322,0,0,1-.32.29Z"/><path class="cls-14" d="M38.734,20.149l.023.216a.218.218,0,0,1,.192.237l-.177,1.722a.219.219,0,0,1-.233.192h0a.214.214,0,0,1-.157-.094.209.209,0,0,1-.035-.142l.176-1.722a.216.216,0,0,1,.214-.194v-.215m0,0a.431.431,0,0,0-.428.387l-.176,1.722a.429.429,0,0,0,.384.472.331.331,0,0,0,.044,0,.431.431,0,0,0,.428-.386l.177-1.723a.431.431,0,0,0-.384-.472l-.045,0Z"/><path class="cls-13" d="M32.531,30.673a.322.322,0,0,1-.253-.122L31.2,29.2a.323.323,0,0,1,.052-.453.314.314,0,0,1,.2-.07.352.352,0,0,1,.253.122l1.079,1.354a.323.323,0,0,1-.253.524Z"/><path class="cls-14" d="M31.453,28.565l.043.22a.209.209,0,0,1,.125.077L32.7,30.216a.217.217,0,0,1-.034.3.219.219,0,0,1-.134.047.215.215,0,0,1-.169-.082L31.284,29.13a.215.215,0,0,1,.169-.349v-.216m0,0a.431.431,0,0,0-.337.7L32.2,30.618a.43.43,0,1,0,.673-.536L31.79,28.728a.429.429,0,0,0-.251-.154.419.419,0,0,0-.086-.009Z"/><path class="cls-13" d="M27.639,35.334l-1.714-.244A.323.323,0,0,1,25.8,34.5a.318.318,0,0,1,.17-.049l1.759.248a.323.323,0,0,1-.043.642Z"/><path class="cls-14" d="M25.969,34.555l.031,0,1.714.245a.214.214,0,0,1,.183.243.222.222,0,0,1-.238.183h-.006l-1.714-.245A.21.21,0,0,1,25.8,34.9a.215.215,0,0,1,.171-.344m0-.216a.431.431,0,0,0-.06.857l1.714.245a.426.426,0,0,0,.061,0,.431.431,0,0,0,.061-.857l-1.714-.244a.444.444,0,0,0-.062-.005Z"/><path class="cls-13" d="M15.761,35.215a.322.322,0,0,1-.162-.6l1.5-.873a.324.324,0,0,1,.441.117.315.315,0,0,1,.025.271.322.322,0,0,1-.141.171l-1.5.872A.327.327,0,0,1,15.761,35.215Z"/><path class="cls-14" d="M17.256,33.8a.216.216,0,0,1,.186.107.219.219,0,0,1,.017.182.21.21,0,0,1-.094.112l-1.5.873A.213.213,0,0,1,15.575,35a.217.217,0,0,1,.077-.295l1.5-.872a.207.207,0,0,1,.108-.03m0-.215a.43.43,0,0,0-.217.059l-1.5.872a.431.431,0,1,0,.434.744l1.495-.873a.43.43,0,0,0-.217-.8Z"/><path class="cls-13" d="M11.026,31.072a.318.318,0,0,1-.3-.2.309.309,0,0,1,0-.246.32.32,0,0,1,.175-.175l1.6-.658a.3.3,0,0,1,.122-.024.322.322,0,0,1,.286.471.326.326,0,0,1-.163.15l-1.6.658A.328.328,0,0,1,11.026,31.072Z"/><path class="cls-14" d="M12.628,29.876a.213.213,0,0,1,.2.133.218.218,0,0,1-.008.182.21.21,0,0,1-.109.1l-1.6.659a.215.215,0,1,1-.164-.4l1.6-.659a.214.214,0,0,1,.082-.016m0-.215a.431.431,0,0,0-.164.032l-1.6.659a.43.43,0,0,0,.327.8l1.6-.659a.431.431,0,0,0,.234-.562.43.43,0,0,0-.4-.266Z"/><path class="cls-11" d="M9.076,29.371a.317.317,0,0,1-.2-.072.321.321,0,0,1-.047-.454L9.916,27.5a.321.321,0,0,1,.25-.12.317.317,0,0,1,.2.072.324.324,0,0,1,.048.455l-1.09,1.345A.323.323,0,0,1,9.076,29.371Z"/><path class="cls-12" d="M10.167,27.488h0a.212.212,0,0,1,.135.048.208.208,0,0,1,.078.145.215.215,0,0,1-.046.158l-1.09,1.345a.215.215,0,1,1-.335-.271L10,27.568a.214.214,0,0,1,.168-.08m0-.215a.429.429,0,0,0-.335.159l-1.09,1.345a.431.431,0,1,0,.669.542l1.09-1.345a.429.429,0,0,0-.064-.605.423.423,0,0,0-.27-.1Z"/><path class="cls-9" d="M3.424,23.236a.323.323,0,0,1-.3-.433.322.322,0,0,1,.168-.183l1.571-.727a.323.323,0,0,1,.429.157.323.323,0,0,1-.157.429l-1.571.727A.321.321,0,0,1,3.424,23.236Z"/><path class="cls-10" d="M5,21.97a.215.215,0,0,1,.09.411l-1.571.727A.215.215,0,0,1,3.228,23a.214.214,0,0,1,.1-.285l1.572-.728A.215.215,0,0,1,5,21.97m0-.215a.432.432,0,0,0-.181.04l-1.571.727A.431.431,0,0,0,3.6,23.3l1.572-.728a.423.423,0,0,0,.208-.207A.43.43,0,0,0,5,21.755Z"/><path class="cls-11" d="M6.039,20.927a.321.321,0,0,1-.194-.1L4.68,19.543a.313.313,0,0,1-.084-.232A.324.324,0,0,1,4.918,19a.324.324,0,0,1,.239.106L6.321,20.39a.323.323,0,0,1-.02.456.327.327,0,0,1-.218.084Z"/><path class="cls-12" d="M4.918,19.111a.214.214,0,0,1,.159.07l1.165,1.281a.215.215,0,0,1-.014.3.224.224,0,0,1-.163.054H6.054a.206.206,0,0,1-.13-.068L4.759,19.471a.213.213,0,0,1-.056-.155.218.218,0,0,1,.07-.149.216.216,0,0,1,.145-.056m0-.215a.43.43,0,0,0-.318.72L5.765,20.9a.429.429,0,0,0,.26.137.565.565,0,0,0,.058,0,.43.43,0,0,0,.318-.72L5.236,19.037a.425.425,0,0,0-.318-.141Z"/><path class="cls-7" d="M2.318,17.359a.323.323,0,0,1-.212-.566l1.307-1.135a.324.324,0,0,1,.456.032.319.319,0,0,1,.075.263.305.305,0,0,1-.107.192L2.53,17.281A.321.321,0,0,1,2.318,17.359Z"/><path class="cls-8" d="M3.625,15.686a.215.215,0,0,1,.141.378L2.459,17.2a.216.216,0,0,1-.356-.177.212.212,0,0,1,.074-.148l1.307-1.135a.217.217,0,0,1,.141-.053m0-.215a.429.429,0,0,0-.282.106L2.036,16.712a.43.43,0,0,0,.564.65l1.308-1.135a.431.431,0,0,0-.283-.756Z"/><path class="cls-11" d="M35.639,24.46a.325.325,0,0,1-.313-.24.321.321,0,0,1,.034-.244.317.317,0,0,1,.2-.15l1.672-.443h.036a.329.329,0,0,1,.359.229.318.318,0,0,1-.048.269.332.332,0,0,1-.181.127l-1.673.442Z"/><path class="cls-12" d="M37.313,23.479a.215.215,0,0,1,.208.16.215.215,0,0,1-.153.263l-1.674.444a.208.208,0,0,1-.055.007.216.216,0,0,1-.208-.16.215.215,0,0,1,.153-.263l1.674-.444a.208.208,0,0,1,.055-.007m0-.216a.422.422,0,0,0-.11.015l-1.674.444a.43.43,0,0,0,.11.846.42.42,0,0,0,.11-.014l1.674-.444a.432.432,0,0,0,.306-.526.431.431,0,0,0-.416-.321Z"/><path class="cls-15" d="M40.114,17.644l-1.71-.27a.322.322,0,0,1-.268-.37.323.323,0,0,1,.318-.272l1.762.274a.323.323,0,0,1-.051.642Z"/><path class="cls-16" d="M38.454,16.84l.034,0,1.71.271a.213.213,0,0,1,.141.086.216.216,0,0,1,.039.16.224.224,0,0,1-.24.179h-.007l-1.71-.27a.212.212,0,0,1-.14-.086.215.215,0,0,1,.063-.312.212.212,0,0,1,.11-.03m0-.215a.43.43,0,0,0-.067.855l1.711.27a.379.379,0,0,0,.067.006.431.431,0,0,0,.067-.856l-1.71-.27a.4.4,0,0,0-.068,0Z"/><path class="cls-15" d="M34.365,29.381a.323.323,0,0,1-.052-.642l1.722-.275a.33.33,0,0,1,.359.266.324.324,0,0,1-.268.371l-1.709.275Z"/><path class="cls-16" d="M36.076,28.567a.215.215,0,0,1,.174.341.218.218,0,0,1-.141.087l-1.744.278a.214.214,0,0,1-.212-.181.217.217,0,0,1,.05-.176.214.214,0,0,1,.129-.071l1.709-.275a.207.207,0,0,1,.035,0m0-.215a.4.4,0,0,0-.069,0l-1.71.275a.431.431,0,0,0,.068.856.4.4,0,0,0,.069-.006l1.71-.275a.43.43,0,0,0-.068-.855Z"/><path class="cls-15" d="M28.833,33.084a.324.324,0,0,1-.249-.117l-1.105-1.333a.32.32,0,0,1,.042-.454.321.321,0,0,1,.208-.076.353.353,0,0,1,.247.118l1.1,1.333a.315.315,0,0,1,.073.235.321.321,0,0,1-.32.294Z"/><path class="cls-16" d="M27.727,31.212l.039,0a.214.214,0,0,1,.127.074L29,32.624a.215.215,0,0,1-.332.274l-1.105-1.333a.217.217,0,0,1-.048-.157.216.216,0,0,1,.214-.2m0-.215a.431.431,0,0,0-.331.705L28.5,33.036a.43.43,0,0,0,.662-.55l-1.1-1.333A.432.432,0,0,0,27.805,31,.514.514,0,0,0,27.727,31Z"/><path class="cls-15" d="M11.723,33.953a.319.319,0,0,1-.2-.07.323.323,0,0,1-.053-.453l1.071-1.361a.321.321,0,0,1,.254-.123.316.316,0,0,1,.2.07.322.322,0,0,1,.054.453l-1.071,1.36A.323.323,0,0,1,11.723,33.953Z"/><path class="cls-16" d="M12.794,32.054a.212.212,0,0,1,.132.046.215.215,0,0,1,.082.163.213.213,0,0,1-.046.139l-1.07,1.361a.215.215,0,0,1-.339-.266l1.071-1.361a.215.215,0,0,1,.17-.082m0-.216a.43.43,0,0,0-.339.165l-1.071,1.361a.431.431,0,0,0,.677.532l1.07-1.361a.431.431,0,0,0-.337-.7Z"/><path class="cls-15" d="M6.553,28.429a.322.322,0,0,1-.219-.115.316.316,0,0,1-.073-.236l.16-1.724a.323.323,0,0,1,.321-.293.336.336,0,0,1,.265.139.312.312,0,0,1,.055.214L6.9,28.138a.319.319,0,0,1-.319.293Z"/><path class="cls-16" d="M6.741,25.953l.021.217a.215.215,0,0,1,.194.234L6.8,28.128a.22.22,0,0,1-.232.194h0a.209.209,0,0,1-.146-.077.213.213,0,0,1-.049-.157l.159-1.724a.215.215,0,0,1,.214-.2v-.216m0,0a.431.431,0,0,0-.428.391l-.159,1.724a.431.431,0,0,0,.389.469h.04a.43.43,0,0,0,.428-.39l.159-1.725a.43.43,0,0,0-.389-.468l-.04,0Z"/><path class="cls-15" d="M4.2,17.794a.323.323,0,0,1,.008-.646l1.738.041a.324.324,0,0,1,.316.331.33.33,0,0,1-.122.245.325.325,0,0,1-.2.07Z"/><path class="cls-16" d="M4.2,17.041l.006.215,1.731.041a.209.209,0,0,1,.15.067.213.213,0,0,1,.06.153.218.218,0,0,1-.081.164.221.221,0,0,1-.139.046h0L4.2,17.686a.217.217,0,0,1-.21-.22.217.217,0,0,1,.215-.21v-.215m0,0a.43.43,0,0,0-.01.86l1.731.042h.011a.431.431,0,0,0,.01-.861l-1.731-.041Z"/><path class="cls-7" d="M13.457,15.984a.319.319,0,0,1-.206-.075L11.923,14.8a.323.323,0,0,1-.04-.455.325.325,0,0,1,.248-.116.321.321,0,0,1,.208.076l1.326,1.112a.321.321,0,0,1,.114.219.317.317,0,0,1-.074.236A.323.323,0,0,1,13.457,15.984Z"/><path class="cls-8" d="M12.131,14.334a.217.217,0,0,1,.138.05L13.6,15.5a.214.214,0,0,1,.076.146.215.215,0,0,1-.215.235.213.213,0,0,1-.138-.051l-1.327-1.112a.212.212,0,0,1-.076-.146.215.215,0,0,1,.215-.234m0-.215a.43.43,0,0,0-.277.76l1.327,1.112a.428.428,0,0,0,.276.1.431.431,0,0,0,.277-.761l-1.327-1.112a.432.432,0,0,0-.276-.1Z"/><path class="cls-7" d="M26.928,14.925a.323.323,0,0,1,.013-.645l1.746.08a.323.323,0,0,1-.015.645Z"/><path class="cls-8" d="M26.942,14.172l.01.216,1.73.079a.218.218,0,0,1,.149.07.213.213,0,0,1,.056.155.216.216,0,0,1-.224.205h0l-1.73-.079a.218.218,0,0,1-.149-.07.222.222,0,0,1-.056-.155.216.216,0,0,1,.215-.206v-.215m0,0a.431.431,0,0,0-.02.861l1.73.079h.02a.431.431,0,0,0,.02-.861l-1.73-.079Z"/><path class="cls-7" d="M18.578,12.033a.346.346,0,0,1-.089-.012l-1.665-.477a.324.324,0,0,1-.042-.606.33.33,0,0,1,.131-.027l1.754.489a.323.323,0,0,1-.089.633Z"/><path class="cls-8" d="M16.913,11.018a.208.208,0,0,1,.06.009l1.664.476a.215.215,0,0,1-.059.422.2.2,0,0,1-.059-.008l-1.665-.476a.215.215,0,0,1-.028-.4.22.22,0,0,1,.087-.019m0-.215a.431.431,0,0,0-.118.845l1.665.476a.437.437,0,0,0,.118.017A.431.431,0,0,0,18.7,11.3l-1.664-.476a.45.45,0,0,0-.119-.017Z"/><path class="cls-7" d="M20.5,21.6a.342.342,0,0,1-.089-.013l-1.665-.476a.317.317,0,0,1-.192-.154.322.322,0,0,1,.15-.452.33.33,0,0,1,.131-.027l1.754.488a.323.323,0,0,1-.089.634Z"/><path class="cls-8" d="M18.838,20.584a.208.208,0,0,1,.06.009l1.664.476a.215.215,0,0,1-.059.422.233.233,0,0,1-.059-.008l-1.665-.477a.212.212,0,0,1-.129-.1.214.214,0,0,1,.1-.3.2.2,0,0,1,.087-.019m0-.215a.43.43,0,0,0-.414.312.43.43,0,0,0,.3.532l1.665.477a.436.436,0,0,0,.118.016.43.43,0,0,0,.118-.844l-1.664-.476a.412.412,0,0,0-.119-.017Z"/><path class="cls-7" d="M27.246,21.222a.323.323,0,0,1-.279-.485l.864-1.5a.325.325,0,0,1,.28-.162.323.323,0,0,1,.28.484l-.865,1.5A.326.326,0,0,1,27.246,21.222Z"/><path class="cls-8" d="M28.111,19.184a.209.209,0,0,1,.108.029.214.214,0,0,1,.078.294l-.864,1.5a.217.217,0,0,1-.187.107.211.211,0,0,1-.107-.028.215.215,0,0,1-.105-.15.209.209,0,0,1,.026-.144l.865-1.5a.215.215,0,0,1,.186-.107m0-.215a.431.431,0,0,0-.373.215l-.865,1.5a.431.431,0,1,0,.746.43l.865-1.5a.43.43,0,0,0-.158-.588.42.42,0,0,0-.215-.057Z"/><path class="cls-15" d="M23.968,13.683a.323.323,0,0,1-.052-.642l1.721-.276a.33.33,0,0,1,.359.268.324.324,0,0,1-.075.262.316.316,0,0,1-.192.108l-1.71.275Z"/><path class="cls-16" d="M25.678,12.869a.215.215,0,0,1,.162.356.22.22,0,0,1-.129.072l-1.744.278a.214.214,0,0,1-.212-.181.219.219,0,0,1,.038-.161.217.217,0,0,1,.141-.086l1.709-.275a.207.207,0,0,1,.035,0m0-.215a.4.4,0,0,0-.069.005l-1.71.276a.43.43,0,0,0,.068.855.4.4,0,0,0,.069-.006l1.71-.275a.43.43,0,0,0-.068-.855Z"/><path class="cls-11" d="M23.758,17.226a.322.322,0,0,1-.162-.6l1.5-.868a.329.329,0,0,1,.161-.043.323.323,0,0,1,.3.433.313.313,0,0,1-.142.168l-1.5.868A.323.323,0,0,1,23.758,17.226Z"/><path class="cls-12" d="M25.256,15.82a.216.216,0,0,1,.2.29.217.217,0,0,1-.095.112l-1.5.867a.212.212,0,0,1-.107.029.216.216,0,0,1-.108-.4l1.5-.867a.223.223,0,0,1,.107-.029m0-.215a.431.431,0,0,0-.215.058l-1.5.867a.43.43,0,0,0,.216.8.421.421,0,0,0,.215-.058l1.5-.867a.423.423,0,0,0,.189-.225.431.431,0,0,0-.405-.578Z"/><path class="cls-15" d="M18.362,15.36a.322.322,0,0,1-.31-.335l.066-1.731a.322.322,0,0,1,.322-.31.327.327,0,0,1,.324.336L18.7,15.05a.321.321,0,0,1-.322.31Z"/><path class="cls-16" d="M18.44,12.877l.009.215a.215.215,0,0,1,.207.223l-.066,1.731a.216.216,0,0,1-.223.206h0a.213.213,0,0,1-.206-.223l.066-1.73a.214.214,0,0,1,.214-.207v-.215m0,0a.43.43,0,0,0-.429.414l-.066,1.73a.422.422,0,0,0,.089.28.431.431,0,0,0,.324.166h.017a.431.431,0,0,0,.43-.414l.066-1.73a.431.431,0,0,0-.414-.447Z"/><path class="cls-15" d="M23.643,24.408a.327.327,0,0,1-.307-.221l-.542-1.644a.317.317,0,0,1,.018-.247A.32.32,0,0,1,23,22.135a.31.31,0,0,1,.1-.017.324.324,0,0,1,.306.223l.542,1.643a.314.314,0,0,1-.017.246.32.32,0,0,1-.288.178Z"/><path class="cls-16" d="M23.1,22.226a.214.214,0,0,1,.2.148l.543,1.644a.215.215,0,0,1-.137.272.225.225,0,0,1-.068.011.218.218,0,0,1-.2-.148L22.9,22.509a.22.22,0,0,1,.012-.165.217.217,0,0,1,.125-.107.225.225,0,0,1,.068-.011m0-.215a.424.424,0,0,0-.135.022.429.429,0,0,0-.274.543l.543,1.644a.432.432,0,0,0,.408.3.419.419,0,0,0,.135-.022.429.429,0,0,0,.274-.543l-.543-1.645a.428.428,0,0,0-.408-.3Z"/><path class="cls-11" d="M20.165,9.719a.313.313,0,0,1-.19-.111L18.87,8.274a.314.314,0,0,1-.073-.235.321.321,0,0,1,.321-.293.319.319,0,0,1,.248.116L20.472,9.2a.325.325,0,0,1-.042.455.333.333,0,0,1-.206.074Z"/><path class="cls-12" d="M19.118,7.853a.217.217,0,0,1,.166.078l1.105,1.334a.212.212,0,0,1-.176.349h-.029a.219.219,0,0,1-.127-.075l-1.1-1.333a.216.216,0,0,1,.165-.353m0-.215a.431.431,0,0,0-.331.705l1.105,1.334a.423.423,0,0,0,.253.148.411.411,0,0,0,.078.007.431.431,0,0,0,.332-.7L19.45,7.794a.429.429,0,0,0-.332-.156Z"/><path class="cls-13" d="M14.557,14.379a.322.322,0,0,1-.287-.354l.176-1.723a.32.32,0,0,1,.32-.289.336.336,0,0,1,.268.141.319.319,0,0,1,.053.214l-.177,1.723a.32.32,0,0,1-.32.29Z"/><path class="cls-14" d="M14.766,11.905l.023.216a.217.217,0,0,1,.156.094.214.214,0,0,1,.036.142L14.8,14.08a.219.219,0,0,1-.233.192h0a.215.215,0,0,1-.192-.236l.177-1.723a.214.214,0,0,1,.213-.193v-.215m0,0a.431.431,0,0,0-.428.386l-.176,1.723a.429.429,0,0,0,.384.472.331.331,0,0,0,.044,0,.431.431,0,0,0,.428-.386l.177-1.723a.431.431,0,0,0-.384-.472l-.045,0Z"/><path class="cls-9" d="M24.012,11.579a.318.318,0,0,1-.188-.115L22.745,10.11A.324.324,0,0,1,23,9.585a.324.324,0,0,1,.253.122l1.078,1.355a.322.322,0,0,1-.252.523Z"/><path class="cls-10" d="M23,9.693a.215.215,0,0,1,.168.081l1.079,1.355a.212.212,0,0,1-.177.346h-.035a.212.212,0,0,1-.125-.077L22.83,10.042a.214.214,0,0,1-.046-.158.216.216,0,0,1,.08-.144A.209.209,0,0,1,23,9.693m0-.215a.431.431,0,0,0-.337.7l1.079,1.354a.432.432,0,0,0,.25.154.512.512,0,0,0,.087.008.429.429,0,0,0,.336-.7L23.335,9.64A.432.432,0,0,0,23,9.478Z"/><path class="cls-13" d="M26.931,11.011a.322.322,0,0,1-.3-.432.307.307,0,0,1,.141-.17l1.5-.873a.322.322,0,0,1,.441.116.319.319,0,0,1,.033.245.313.313,0,0,1-.149.2l-1.5.873A.321.321,0,0,1,26.931,11.011Z"/><path class="cls-14" d="M28.426,9.6a.216.216,0,0,1,.209.27.213.213,0,0,1-.1.131l-1.5.873a.215.215,0,0,1-.217-.372l1.5-.873a.216.216,0,0,1,.108-.029m0-.215a.439.439,0,0,0-.217.058l-1.5.873a.43.43,0,0,0,.217.8.436.436,0,0,0,.217-.058l1.5-.873a.43.43,0,0,0-.217-.8Z"/><path class="cls-13" d="M23.389,20.113a.323.323,0,0,1-.245-.533.315.315,0,0,1,.192-.109l1.72-.285a.329.329,0,0,1,.359.265.325.325,0,0,1-.265.372l-1.708.285Z"/><path class="cls-14" d="M25.1,19.289a.213.213,0,0,1,.212.179.219.219,0,0,1-.037.161.21.21,0,0,1-.14.087l-1.744.289a.216.216,0,0,1-.163-.355.221.221,0,0,1,.128-.073l1.708-.285a.219.219,0,0,1,.036,0m0-.216a.434.434,0,0,0-.071.006l-1.708.286a.421.421,0,0,0-.256.145.43.43,0,0,0,.326.71.437.437,0,0,0,.072-.006l1.708-.285a.431.431,0,0,0-.071-.856Z"/><path class="cls-9" d="M15.241,24.1a.325.325,0,0,1-.279-.161.324.324,0,0,1,.116-.441l1.5-.873a.321.321,0,0,1,.162-.044.326.326,0,0,1,.28.161.32.32,0,0,1,.033.244.325.325,0,0,1-.15.2l-1.5.872A.318.318,0,0,1,15.241,24.1Z"/><path class="cls-10" d="M16.736,22.692a.215.215,0,0,1,.109.4l-1.5.873a.213.213,0,0,1-.108.029.217.217,0,0,1-.186-.107.213.213,0,0,1-.016-.181.208.208,0,0,1,.094-.113l1.5-.873a.216.216,0,0,1,.108-.029m0-.215a.432.432,0,0,0-.216.058l-1.5.873a.43.43,0,0,0,.217.8.436.436,0,0,0,.217-.058l1.495-.873a.43.43,0,0,0-.217-.8Z"/><path class="cls-11" d="M16.71,18.938a.337.337,0,0,1-.117-.022l-1.614-.629a.326.326,0,0,1-.178-.172.325.325,0,0,1,.193-.435.3.3,0,0,1,.1-.017.317.317,0,0,1,.118.022l1.613.629a.318.318,0,0,1,.178.171.314.314,0,0,1,0,.246A.319.319,0,0,1,16.71,18.938Z"/><path class="cls-12" d="M15.1,17.77a.208.208,0,0,1,.078.015l1.614.629a.216.216,0,0,1,.118.114.21.21,0,0,1,0,.165.215.215,0,0,1-.2.137.212.212,0,0,1-.078-.015l-1.613-.629a.212.212,0,0,1-.119-.114.215.215,0,0,1,.129-.29.2.2,0,0,1,.068-.012m0-.215a.424.424,0,0,0-.137.023.43.43,0,0,0-.019.809l1.613.629a.43.43,0,0,0,.313-.8l-1.613-.629a.437.437,0,0,0-.157-.03Z"/></svg>