<svg id="Buddy" xmlns="http://www.w3.org/2000/svg" viewBox="0 0 42 42"><defs><style>.cls-1{fill:#a7641a;}.cls-2{fill:#003b71;}.cls-3{fill:#0069a7;}.cls-4{fill:#fff;}.cls-5{fill:none;}.cls-6{fill:#153e35;}.cls-7{fill:#e04403;}</style></defs><title>Football-Buddy</title><circle class="cls-1" cx="22.342" cy="17.66" r="9.536"/><path class="cls-2" d="M24.746,8.227a10.191,10.191,0,0,0-2.409-.341,10.312,10.312,0,0,0-2.429.256c-.242.055-.481.122-.718.2a4.489,4.489,0,0,0-1.35,2.974l.121-.023.29-.05.289-.05.291-.044c.193-.031.387.98.582.956s.812.426,1.007.4c.779-.077,1.139.663,1.922.663s1.237-.787,2.017-.71c.195.021.719-.385.913-.358s.389-.987.582-.956l.29.044.29.05.289.05.121.023a4.5,4.5,0,0,0-1.161-2.778A9.585,9.585,0,0,0,24.746,8.227Z"/><path class="cls-3" d="M30.517,14.531h0a3.465,3.465,0,0,0-2.835-2.86l-.838-.156a24.6,24.6,0,0,0-9,0L17,11.671a3.465,3.465,0,0,0-2.836,2.86h0v8.516c0,.324-.587-.981-.587-1.621h0a9.536,9.536,0,1,1,17.525,0l.214.4c-.325,0-.8.913-.8.588Z"/><path class="cls-1" d="M4.437,17.66a17.905,17.905,0,1,0,35.81,0V15.434A2.139,2.139,0,0,0,40.914,12c-.715-.449-1.049.007-1.049.007s-.228-1.233-1.356-1.233-1.1.944-1.1.944A1.639,1.639,0,0,0,36,10.6c-1.036,0-1.807,1.761-1.807,1.761A1.711,1.711,0,0,0,32.9,13.811c-.173,1.226.651,1.557,1,2.22a3.174,3.174,0,0,1,.328,1.629,11.89,11.89,0,1,1-23.779,0,3.031,3.031,0,0,1,.313-1.629c.352-.663,1.175-.994,1-2.22S10.1,12.257,10.1,12.257s.414-5.218-1.432-5.218c-1.111,0-1.055,1.268-1.107,2.467a16.717,16.717,0,0,1-.177,1.857S6.14,8.327,5.053,8.628c-1.41.392-.249,3.381-.249,3.381a.87.87,0,0,0-1.142-.289c-1.021.439,0,1.09.423,1.975a5.139,5.139,0,0,1,.352,1.85Z"/><path class="cls-3" d="M30.749,26.068a11.89,11.89,0,0,1-16.814,0,11.946,11.946,0,0,1-2.029-2.7L6.875,26.685a17.913,17.913,0,0,0,30.934,0l-5.03-3.319A11.951,11.951,0,0,1,30.749,26.068Z"/><path class="cls-2" d="M15.058,17.66a7.284,7.284,0,0,0,14.568,0Z"/><path class="cls-4" d="M19.738,17.66h1.328a0,0,0,0,1,0,0v1.093a.235.235,0,0,1-.235.235h-.858a.235.235,0,0,1-.235-.235V17.66A0,0,0,0,1,19.738,17.66Z"/><path class="cls-4" d="M18.41,17.66h1.328a0,0,0,0,1,0,0v1.093a.235.235,0,0,1-.235.235h-.858a.235.235,0,0,1-.235-.235V17.66A0,0,0,0,1,18.41,17.66Z"/><path class="cls-4" d="M17.083,17.66H18.41a0,0,0,0,1,0,0V18.4a.2.2,0,0,1-.2.2h-.932a.2.2,0,0,1-.2-.2V17.66A0,0,0,0,1,17.083,17.66Z"/><path class="cls-4" d="M23,17.66h1.328a0,0,0,0,1,0,0v1.093a.235.235,0,0,1-.235.235H23.24A.235.235,0,0,1,23,18.753V17.66A0,0,0,0,1,23,17.66Z"/><path class="cls-4" d="M24.332,17.66H25.66a0,0,0,0,1,0,0v1.093a.235.235,0,0,1-.235.235h-.858a.235.235,0,0,1-.235-.235V17.66A0,0,0,0,1,24.332,17.66Z"/><path class="cls-4" d="M25.66,17.66h1.328a0,0,0,0,1,0,0v1.093a.235.235,0,0,1-.235.235H25.9a.235.235,0,0,1-.235-.235V17.66A0,0,0,0,1,25.66,17.66Z"/><path class="cls-4" d="M26.988,17.66h1.328a0,0,0,0,1,0,0V18.4a.2.2,0,0,1-.2.2h-.932a.2.2,0,0,1-.2-.2V17.66A0,0,0,0,1,26.988,17.66Z"/><path class="cls-5" d="M23.033,21.528l-.019,0,.01.005Z"/><path class="cls-5" d="M21.671,21.526l-.02,0,.009,0Z"/><path class="cls-2" d="M35.439,14.916a.47.47,0,0,1-.11-.927c.3-.073.969-.331,1.123-.658a.347.347,0,0,0-.026-.323c-.368-.759-2.063-.209-2.078-.2a.47.47,0,1,1-.309-.888c.925-.32,2.645-.537,3.232.682a1.266,1.266,0,0,1,.03,1.134A2.817,2.817,0,0,1,35.549,14.9.454.454,0,0,1,35.439,14.916Z"/><path class="cls-2" d="M38.268,15.427a1.685,1.685,0,0,1-.288-.026,1.98,1.98,0,0,1-1.594-.908,1.022,1.022,0,0,1,.023-.915.511.511,0,0,1,.092-.115,2.03,2.03,0,0,0,.4-1.795.47.47,0,0,1,.385-.541.475.475,0,0,1,.542.385,3.024,3.024,0,0,1-.592,2.543c.081.163.355.322.914.421a.535.535,0,0,0,.467-.116c.6-.489.77-2.085.784-2.6a.484.484,0,0,1,.481-.458.469.469,0,0,1,.458.481c-.006.25-.092,2.462-1.128,3.31A1.461,1.461,0,0,1,38.268,15.427Z"/><path class="cls-2" d="M40.028,15.857a2.551,2.551,0,0,1-.812-.144c-.411-.213-.766-.439-.736-.821a.556.556,0,0,1,.344-.444.472.472,0,0,1,.6.289l.008.026c.037.024.089.054.157.091.644.208.869-.079.879-.09a.46.46,0,0,1,.639-.149.479.479,0,0,1,.152.655A1.423,1.423,0,0,1,40.028,15.857Z"/><path class="cls-4" d="M17.375,14.718c0-.523.691-.571,1.555-.519s1.526-.054,1.48.7c-.052.864-.722.957-1.586.905S17.375,15.45,17.375,14.718Z"/><path class="cls-2" d="M19.177,16.129c-.141,0-.269-.007-.371-.014-1.438-.087-1.74-.808-1.74-1.4a.726.726,0,0,1,.227-.542,2.266,2.266,0,0,1,1.655-.285c.123.007.242.011.356.016a1.641,1.641,0,0,1,1.214.327.906.906,0,0,1,.2.686C20.653,15.982,19.792,16.129,19.177,16.129Zm-.72-1.637a1.263,1.263,0,0,0-.741.134.106.106,0,0,0-.032.092c0,.2,0,.71,1.159.781,1.042.061,1.231-.149,1.259-.616a.371.371,0,0,0-.041-.234c-.093-.1-.442-.113-.779-.125-.118,0-.242-.009-.371-.017C18.743,14.5,18.592,14.492,18.457,14.492Z"/><circle class="cls-2" cx="18.928" cy="14.715" r="0.736"/><path class="cls-4" d="M27.133,14.718c0-.523-.69-.571-1.554-.519s-1.526-.054-1.481.7c.053.864.723.957,1.587.905S27.133,15.45,27.133,14.718Z"/><path class="cls-2" d="M25.337,16.128a2.182,2.182,0,0,1-.875-.148,1.134,1.134,0,0,1-.672-1.06.9.9,0,0,1,.2-.686,1.641,1.641,0,0,1,1.214-.327c.113-.005.233-.009.356-.016a2.27,2.27,0,0,1,1.654.285.724.724,0,0,1,.226.542c0,.589-.3,1.31-1.738,1.4C25.585,16.123,25.462,16.128,25.337,16.128Zm.715-1.636c-.135,0-.286,0-.454.015-.129.008-.253.013-.371.017-.337.012-.686.024-.779.125a.364.364,0,0,0-.041.234c.022.36.166.471.3.533a2.3,2.3,0,0,0,.954.083c1.158-.071,1.158-.586,1.158-.781a.106.106,0,0,0-.032-.092A1.259,1.259,0,0,0,26.052,14.492Z"/><circle class="cls-2" cx="25.581" cy="14.715" r="0.736"/><path class="cls-6" d="M22.232,13.014a.259.259,0,0,1-.258-.258V11.72a.259.259,0,1,1,.517,0v1.036A.259.259,0,0,1,22.232,13.014Z"/><path class="cls-2" d="M37.856,26.99a.346.346,0,0,1-.194-.058l-5.03-3.32a.353.353,0,1,1,.389-.588l5.03,3.32a.352.352,0,0,1-.2.646Z"/><path class="cls-2" d="M22.342,8.206a9.455,9.455,0,1,1-9.455,9.454,9.465,9.465,0,0,1,9.455-9.454m0-.94A10.395,10.395,0,1,0,32.736,17.66,10.394,10.394,0,0,0,22.342,7.266Z"/><path class="cls-2" d="M22.477,25.862a22.469,22.469,0,0,1-3.284-.242l-1.607-.238a4.362,4.362,0,0,1-3.7-4.29V15a3.754,3.754,0,0,1,3.07-3.137l.833-.156a24.812,24.812,0,0,1,9.108,0l.837.156A3.744,3.744,0,0,1,30.8,14.957l0,6.164a4.315,4.315,0,0,1-3.665,4.284l-1.2.188A22.416,22.416,0,0,1,22.477,25.862Zm-.135-14.011a24.274,24.274,0,0,0-4.45.412l-.837.156a3.183,3.183,0,0,0-2.61,2.628l0,6.045a3.793,3.793,0,0,0,3.219,3.731l1.607.239a21.742,21.742,0,0,0,6.572-.026l1.2-.187a3.755,3.755,0,0,0,3.188-3.728V15a3.176,3.176,0,0,0-2.6-2.582l-.842-.156A24.282,24.282,0,0,0,22.342,11.851Z"/><path class="cls-2" d="M22.342,21.191a48.353,48.353,0,0,1-8.235-.707l.12-.694a47.606,47.606,0,0,0,16.23,0l.119.694A48.315,48.315,0,0,1,22.342,21.191Z"/><path class="cls-4" d="M17.925,11.836l-.17-.924q.453-.084.907-.151l.137.929C18.508,11.733,18.217,11.783,17.925,11.836Z"/><path class="cls-4" d="M22.342,20.58a48.455,48.455,0,0,1-8.235-.707l.12-.7a47.606,47.606,0,0,0,16.23,0l.119.7A48.417,48.417,0,0,1,22.342,20.58Z"/><polygon class="cls-4" points="32.494 23.879 37.447 27.294 36.342 28.815 31.561 25.164 32.494 23.879"/><polygon class="cls-7" points="32.319 24.119 37.24 27.579 36.549 28.53 31.736 24.923 32.319 24.119"/><polygon class="cls-4" points="31.28 25.429 36.032 29.147 34.838 30.599 30.271 26.655 31.28 25.429"/><polygon class="cls-7" points="31.091 25.659 35.808 29.419 35.062 30.327 30.46 26.425 31.091 25.659"/><path class="cls-7" d="M21.075,31.978H19.132V30.9h3.032v1l-1.353,3.974c.162.014.323.024.486.031l1.337-3.927V30.433H18.662v2.015H20.41l-1.133,3.2c.154.033.31.064.466.091Z"/><path class="cls-7" d="M23.2,34.193a.6.6,0,0,1,.6-.66h1a.1.1,0,0,0,.094-.113V32.072a.1.1,0,0,0-.094-.113H23.292V30.9h2.061a.661.661,0,0,1,.6.735V33.9a.657.657,0,0,1-.6.726h-1a.093.093,0,0,0-.094.1v.941c.157-.032.314-.067.47-.106V35.1h.627a1.128,1.128,0,0,0,1.073-1.2V31.638a1.119,1.119,0,0,0-1.073-1.205H22.822v2h1.606v.634H23.8a1.066,1.066,0,0,0-1.073,1.13v1.693c.157-.012.314-.028.47-.045Z"/><path class="cls-4" d="M22.164,30.9H19.132v1.075h1.943l-1.332,3.76c.352.062.709.108,1.068.138L22.164,31.9Z"/><path class="cls-4" d="M24.35,34.626h1a.657.657,0,0,0,.6-.726V31.638a.661.661,0,0,0-.6-.735H23.292v1.056H24.8a.1.1,0,0,1,.094.113V33.42a.1.1,0,0,1-.094.113h-1a.6.6,0,0,0-.6.66v1.648q.534-.062,1.058-.17V34.73A.093.093,0,0,1,24.35,34.626Z"/><rect class="cls-2" x="20.651" y="8.028" width="3.383" height="3.072"/><path class="cls-4" d="M20.568,9.8h0a6.91,6.91,0,0,1,3.549,0h0v1.3H20.568Z"/><polygon class="cls-4" points="4.83 22.413 10.519 20.581 10.519 16.796 4.437 17.66 4.83 22.413"/><polygon class="cls-4" points="33.956 20.226 39.701 22.066 40.132 17.125 34.193 16.679 33.956 20.226"/><path class="cls-5" d="M31.105,20.693v0Z"/><rect class="cls-2" x="17.188" y="16.64" width="10.337" height="0.658" rx="0.329" ry="0.329"/><path class="cls-2" d="M22.767,17.054H21.745l-.081,0a1.394,1.394,0,0,1-1.082-.612,1.449,1.449,0,0,1-.186-1.281l.26-.494A.268.268,0,0,0,20.6,14.5a.231.231,0,0,0-.19-.1H16.566a.258.258,0,1,1,0-.516h3.848a.753.753,0,0,1,.716.985l-.261.494a.941.941,0,0,0,.139.786.885.885,0,0,0,.687.389l1.072,0a.908.908,0,0,0,.736-.391.938.938,0,0,0,.12-.828l-.223-.41a.759.759,0,0,1,.088-.717.746.746,0,0,1,.609-.31h3.751a.258.258,0,0,1,0,.516H24.1a.235.235,0,0,0-.223.309l.223.41a1.461,1.461,0,0,1-.168,1.323,1.4,1.4,0,0,1-1.087.612Z"/><rect class="cls-4" x="21.989" y="11.1" width="0.705" height="13.844"/><path class="cls-4" d="M26.739,11.836c-.291-.053-.582-.1-.874-.146L26,10.761q.456.067.907.151Z"/><path class="cls-2" d="M28.987,15.059h-.638a.235.235,0,1,1,0-.47h.638a.235.235,0,1,1,0,.47Z"/><path class="cls-2" d="M16.247,15.059h-.639a.235.235,0,0,1,0-.47h.639a.235.235,0,0,1,0,.47Z"/><path class="cls-4" d="M22.477,25.251a22.469,22.469,0,0,1-3.284-.242l-1.607-.238a4.363,4.363,0,0,1-3.7-4.29V14.39a3.756,3.756,0,0,1,3.07-3.138l.833-.155a24.812,24.812,0,0,1,9.108,0l.837.156A3.743,3.743,0,0,1,30.8,14.345l0,6.165a4.316,4.316,0,0,1-3.665,4.284l-1.2.187A22.294,22.294,0,0,1,22.477,25.251Zm-.135-14.012a24.274,24.274,0,0,0-4.45.412l-.837.157a3.183,3.183,0,0,0-2.61,2.628l0,6.045a3.794,3.794,0,0,0,3.219,3.731l1.607.238a21.774,21.774,0,0,0,6.572-.025l1.2-.188a3.754,3.754,0,0,0,3.188-3.727V14.39a3.175,3.175,0,0,0-2.6-2.582l-.842-.157A24.274,24.274,0,0,0,22.342,11.239Z"/><path class="cls-2" d="M27.377,13.552H24.191a.353.353,0,0,1,0-.7h3.186a.353.353,0,0,1,0,.705Z"/><path class="cls-2" d="M20.223,13.552H17.036a.353.353,0,0,1,0-.7h3.187a.353.353,0,0,1,0,.705Z"/><path class="cls-2" d="M6.828,26.99a.352.352,0,0,1-.194-.646l5.03-3.32a.353.353,0,0,1,.389.588l-5.031,3.32A.342.342,0,0,1,6.828,26.99Z"/><polygon class="cls-4" points="13.123 25.164 8.342 28.815 7.238 27.294 12.19 23.879 13.123 25.164"/><polygon class="cls-7" points="12.948 24.923 8.135 28.53 7.445 27.579 12.365 24.119 12.948 24.923"/><polygon class="cls-4" points="14.413 26.655 9.846 30.599 8.652 29.147 13.404 25.429 14.413 26.655"/><polygon class="cls-7" points="14.224 26.425 9.622 30.327 8.876 29.419 13.594 25.659 14.224 26.425"/><path class="cls-2" d="M22.342,36.035A18.361,18.361,0,0,1,3.968,17.66V15.545a4.286,4.286,0,0,0-.117-1.25,3.885,3.885,0,0,0-.465-.824c-.337-.505-.686-1.027-.532-1.546a1.015,1.015,0,0,1,.623-.637,1.606,1.606,0,0,1,.717-.133c-.071-.247-.147-.519-.22-.79-.41-1.518-.137-1.874,1.012-2.31a1.266,1.266,0,0,1,1.068.068A2.838,2.838,0,0,1,7.1,9.3l0-.111C7.143,8.085,7.2,6.569,8.67,6.569A1.383,1.383,0,0,1,9.7,7.037c1.151,1.245.9,4.85.867,5.257a.464.464,0,0,1-.506.431.469.469,0,0,1-.431-.5c.109-1.38.037-3.834-.621-4.546a.435.435,0,0,0-.341-.165c-.456,0-.578.337-.627,1.717l-.011.3a17.558,17.558,0,0,1-.183,1.914.472.472,0,0,1-.447.392.459.459,0,0,1-.473-.357c-.2-.814-.737-2.218-1.313-2.52a.33.33,0,0,0-.3-.021c-.688.261-.688.261-.438,1.186.234.871.5,1.75.5,1.752a.47.47,0,0,1-.817.43.61.61,0,0,0-.719-.151.336.336,0,0,0-.1.06,3.242,3.242,0,0,0,.422.739,4.481,4.481,0,0,1,.577,1.055,5.158,5.158,0,0,1,.162,1.563V17.66A17.454,17.454,0,0,0,15.556,33.725a17.575,17.575,0,0,0,13.573,0A17.425,17.425,0,0,0,39.777,17.66V15.435a.469.469,0,0,1,.3-.439,1.667,1.667,0,0,0,.779-.755,1.715,1.715,0,0,0-.194-1.842c-.24-.15-.386-.144-.436-.092a.453.453,0,0,1-.476.17.474.474,0,0,1-.349-.383c-.016-.084-.189-.848-.893-.848a.686.686,0,0,0-.5.154.509.509,0,0,0-.123.3.47.47,0,0,1-.915.166c-.011-.031-.288-.8-.968-.8-.551,0-1.165,1-1.376,1.48a.471.471,0,0,1-.339.273,1.222,1.222,0,0,0-.918,1.053,1.4,1.4,0,0,0,.487,1.306,3.32,3.32,0,0,1,.465.629A3.64,3.64,0,0,1,34.7,17.68a12.36,12.36,0,0,1-24.719-.02,3.367,3.367,0,0,1,.4-1.9.469.469,0,1,1,.765.544h0a2.917,2.917,0,0,0-.227,1.357,11.42,11.42,0,0,0,22.84,0,2.814,2.814,0,0,0-.264-1.393,2.594,2.594,0,0,0-.352-.466,2.335,2.335,0,0,1-.71-2.056,2.148,2.148,0,0,1,1.421-1.771c.267-.531,1.039-1.843,2.143-1.843a1.789,1.789,0,0,1,1.346.6,1.58,1.58,0,0,1,1.164-.425,1.775,1.775,0,0,1,1.618,1.045,1.447,1.447,0,0,1,1.036.253,2.543,2.543,0,0,1,.54,3.046,2.588,2.588,0,0,1-.987,1.069V17.66A18.361,18.361,0,0,1,22.342,36.035Z"/><path class="cls-1" d="M.549,11.66c.056-.211.123-.391.19-.573s.14-.345.214-.507A8.728,8.728,0,0,1,1.431,9.7a8.027,8.027,0,0,1,1.095-1.4A7.3,7.3,0,0,1,5.131,6.577a7.075,7.075,0,0,1,1.477-.4,7.174,7.174,0,0,1,1.6-.07,7.9,7.9,0,0,1,1.752.326,8.456,8.456,0,0,1,.948.351,6.961,6.961,0,0,1,1.023.549A1.527,1.527,0,0,1,12.567,9a7.06,7.06,0,0,1-.4,1.09,8.644,8.644,0,0,1-.475.892A7.938,7.938,0,0,1,10.6,12.393a7.252,7.252,0,0,1-1.244,1.012,7.112,7.112,0,0,1-1.369.683,7.315,7.315,0,0,1-3.086.447,7.97,7.97,0,0,1-1.751-.322,8.466,8.466,0,0,1-.945-.345c-.163-.071-.328-.148-.5-.236a5.572,5.572,0,0,1-.522-.3A1.541,1.541,0,0,1,.549,11.66Z"/><path class="cls-4" d="M4.668,14.669l-1.336-.448c1.084-3.233-1.449-4.37-1.741-4.489l.52-1.31A4.741,4.741,0,0,1,4.668,14.669Z"/><path class="cls-4" d="M11.237,12.055l-1.008-.1a3.791,3.791,0,0,0,.105-3.7A4.311,4.311,0,0,0,9.325,6.977a1.923,1.923,0,0,0-.806-.466l.141-.288a3.992,3.992,0,0,1,2.89,1.805A4.353,4.353,0,0,1,11.237,12.055Z"/><path class="cls-2" d="M5.411,15.022c-.181,0-.362-.005-.545-.018a8.5,8.5,0,0,1-1.852-.34,9.042,9.042,0,0,1-1-.364c-.176-.077-.35-.158-.529-.251-.207-.111-.381-.205-.566-.328A2.01,2.01,0,0,1,.1,11.542a5.986,5.986,0,0,1,.2-.606c.077-.2.153-.38.231-.552a9.589,9.589,0,0,1,.506-.936,8.574,8.574,0,0,1,1.16-1.486A7.835,7.835,0,0,1,4.962,6.139a7.565,7.565,0,0,1,1.574-.425,7.679,7.679,0,0,1,1.706-.073,8.373,8.373,0,0,1,1.856.344,9.075,9.075,0,0,1,1,.37,7.487,7.487,0,0,1,1.092.587,1.993,1.993,0,0,1,.83,2.184,7.473,7.473,0,0,1-.426,1.162,8.592,8.592,0,0,1-.5.944,8.364,8.364,0,0,1-1.159,1.49A7.658,7.658,0,0,1,9.606,13.8a7.569,7.569,0,0,1-1.457.728A7.807,7.807,0,0,1,5.411,15.022ZM7.716,6.563a6.538,6.538,0,0,0-1.034.08,6.665,6.665,0,0,0-1.38.372A6.808,6.808,0,0,0,2.861,8.621,7.594,7.594,0,0,0,1.83,9.943a8.489,8.489,0,0,0-.452.837c-.067.148-.136.305-.2.473A5.126,5.126,0,0,0,1,11.778H1a1.069,1.069,0,0,0,.439,1.16c.159.105.308.185.456.264.182.1.338.168.493.235a8.181,8.181,0,0,0,.889.325,7.559,7.559,0,0,0,1.648.3,6.8,6.8,0,0,0,2.891-.419,6.664,6.664,0,0,0,2.442-1.584,7.437,7.437,0,0,0,1.028-1.323A7.99,7.99,0,0,0,11.74,9.9a6.618,6.618,0,0,0,.374-1.017,1.054,1.054,0,0,0-.439-1.153,6.636,6.636,0,0,0-.957-.514,8.435,8.435,0,0,0-.893-.33A7.488,7.488,0,0,0,8.18,6.578C8.024,6.568,7.869,6.563,7.716,6.563ZM.55,11.66h0Z"/><path class="cls-4" d="M4.8,9.822a.258.258,0,0,1-.153-.466A9.539,9.539,0,0,1,9.43,7.819h.008a.259.259,0,0,1,.007.517A9.168,9.168,0,0,0,4.952,9.772.255.255,0,0,1,4.8,9.822Z"/><path class="cls-4" d="M5.332,10.085a.258.258,0,0,1-.207-.1l-.634-.849a.259.259,0,0,1,.414-.31l.634.849a.258.258,0,0,1-.053.362A.252.252,0,0,1,5.332,10.085Z"/><path class="cls-4" d="M6.012,9.66a.257.257,0,0,1-.207-.1l-.634-.849a.259.259,0,0,1,.414-.31l.634.849a.259.259,0,0,1-.053.362A.254.254,0,0,1,6.012,9.66Z"/><path class="cls-4" d="M6.745,9.308a.259.259,0,0,1-.217-.117l-.586-.9a.259.259,0,0,1,.434-.283l.586.9a.259.259,0,0,1-.075.358A.264.264,0,0,1,6.745,9.308Z"/><path class="cls-4" d="M7.609,9.04a.254.254,0,0,1-.215-.117l-.587-.9a.258.258,0,1,1,.431-.283l.587.9A.258.258,0,0,1,7.751,9,.264.264,0,0,1,7.609,9.04Z"/><path class="cls-4" d="M8.52,8.863A.258.258,0,0,1,8.3,8.747l-.587-.9a.258.258,0,1,1,.431-.284l.587.9a.259.259,0,0,1-.074.358A.255.255,0,0,1,8.52,8.863Z"/><path class="cls-4" d="M9.468,8.808a.259.259,0,0,1-.217-.117l-.586-.9A.259.259,0,0,1,9.1,7.512l.586.9a.259.259,0,0,1-.217.4Z"/><path class="cls-1" d="M10.453,17.66a3.031,3.031,0,0,1,.313-1.629s.188-.285.409-.675a5.426,5.426,0,0,0,.7-3.109c-.065-.789-.434-1.4-1.245-1.275-1.009.161-1.147,1.313-1.151,2.142a2.047,2.047,0,0,1-1.056.794"/><path class="cls-2" d="M10.452,18.13a.469.469,0,0,1-.47-.47,3.367,3.367,0,0,1,.4-1.9h0s.177-.268.384-.634a4.92,4.92,0,0,0,.639-2.838,1.121,1.121,0,0,0-.295-.778.485.485,0,0,0-.407-.072c-.321.051-.75.281-.755,1.679a.465.465,0,0,1-.058.225,2.491,2.491,0,0,1-1.3,1.007.47.47,0,1,1-.336-.878,1.81,1.81,0,0,0,.757-.508c.038-1.471.556-2.3,1.544-2.453a1.4,1.4,0,0,1,1.136.261,1.969,1.969,0,0,1,.652,1.439,5.869,5.869,0,0,1-.759,3.378c-.23.407-.427.7-.427.7a2.85,2.85,0,0,0-.235,1.369A.469.469,0,0,1,10.452,18.13Z"/></svg>