<svg id="Buddy" xmlns="http://www.w3.org/2000/svg" viewBox="0 0 42 42">
    <defs>
        <style>.cls-1 {
            fill: #8dd4bd;
        }

        .cls-2 {
            fill: #002169;
        }

        .cls-3 {
            fill: #afe2e3;
        }

        .cls-4 {
            fill: #f44c7f;
        }

        .cls-5 {
            fill: #fff;
        }

        .cls-6 {
            fill: none;
        }

        .cls-7 {
            fill: #00416b;
        }

        .cls-8 {
            fill: #b0b3b2;
        }</style>
    </defs>
    <title>Franken-Buddy</title>
    <path class="cls-1"
          d="M8.123,15.553a3.363,3.363,0,0,0-.349,1.812,13.228,13.228,0,1,0,26.455,0,3.518,3.518,0,0,0-.364-1.812c-.392-.738-1.308-1.106-1.116-2.471a1.905,1.905,0,0,1,1.437-1.612V7.455l1.178-1.177L36.729,7.7,38.1,7.4l1.037.879.176,1.366,1.367-.376L41.5,10.89l-.578,4v2.476A19.924,19.924,0,0,1,2.649,25.12a19.792,19.792,0,0,1-1.567-7.755V15.012l0-.123-.578-4,.823-1.619,1.367.376.176-1.366,1.037-2,1.4.728,1.335.318,1.178.131V11.47a1.905,1.905,0,0,1,1.437,1.612c.192,1.365-.724,1.733-1.116,2.471Z"/>
    <path class="cls-2"
          d="M4.162,9.468a.523.523,0,0,1,0-1.046.775.775,0,0,0,.775-.774.522.522,0,1,1,1.044,0A1.822,1.822,0,0,1,4.162,9.468Z"/>
    <path class="cls-2"
          d="M1.739,12.082A1.651,1.651,0,0,1,.09,10.432V10.3a.523.523,0,1,1,1.045,0v.128a.6.6,0,0,0,1.209,0V10.3a.523.523,0,1,1,1.045,0v.128A1.652,1.652,0,0,1,1.739,12.082Z"/>
    <path class="cls-2"
          d="M6.584,14.259a.529.529,0,0,1-.23-.053,4.724,4.724,0,0,1-1.508-1.167,1.3,1.3,0,0,0-.153-.12.963.963,0,0,1-.462-1.237c.655-1.356,2.669-1.082,3.753-.706a.522.522,0,1,1-.34.988c-.41-.14-1.936-.509-2.4.061.022.017.044.034.064.047a1.7,1.7,0,0,1,.372.336,3.689,3.689,0,0,0,1.132.858.523.523,0,0,1-.228.993Z"/>
    <path class="cls-2"
          d="M18.553,4.715h4.9a8.008,8.008,0,0,1,8.008,8.008v0a0,0,0,0,1,0,0H10.545a0,0,0,0,1,0,0v0A8.008,8.008,0,0,1,18.553,4.715Z"/>
    <rect class="cls-3" x="28.147" y="24.727" width="1.645" height="1.645" rx="0.309" ry="0.309"
          transform="translate(-9.581 27.968) rotate(-45)"/>
    <path class="cls-2"
          d="M28.97,26.872a.594.594,0,0,1-.422-.175l-.726-.725a.6.6,0,0,1,0-.844l.726-.726a.6.6,0,0,1,.844,0l.725.726a.6.6,0,0,1,0,.844l-.725.725A.6.6,0,0,1,28.97,26.872Zm.015-2.063-.756.725a.025.025,0,0,0,0,.031l.725.726.757-.726Z"/>
    <rect class="cls-3" x="12.219" y="24.727" width="1.645" height="1.645" rx="0.309" ry="0.309"
          transform="translate(4.197 52.838) rotate(-135)"/>
    <path class="cls-2"
          d="M13.042,26.872a.585.585,0,0,1-.423-.176l-.725-.724a.6.6,0,0,1,0-.843l.727-.727a.608.608,0,0,1,.844,0l.726.726a.6.6,0,0,1,0,.842l-.727.726A.583.583,0,0,1,13.042,26.872Zm.015-2.063-.757.725.726.757.96-.96-.2.2Z"/>
    <path class="cls-3"
          d="M7.774,17.365a5.993,5.993,0,0,1,.051-.813H1.082v.813a19.96,19.96,0,0,0,.412,4.052H8.4A13.266,13.266,0,0,1,7.774,17.365Z"/>
    <path class="cls-2"
          d="M37.191,24.87,36.466,23.4l-1.3.959-.732-1.481-1.552.836-.37.176a13.316,13.316,0,0,1-2.161,2.831,13.229,13.229,0,0,1-18.707,0A13.3,13.3,0,0,1,9.384,23.7l-1.529-.824-.732,1.481-1.3-.959L5.1,24.87l-1.237-.984-.735,1.688-.233.1a19.93,19.93,0,0,0,36.264-.113l-.732-1.68Z"/>
    <polygon class="cls-3"
             points="33.95 21.081 40.049 21.788 40.677 19.198 40.677 16.827 34.49 16.933 34.35 18.902 33.95 21.081"/>
    <circle class="cls-1" cx="21.002" cy="17.365" r="10.609"/>
    <rect class="cls-4" x="13.592" y="13.082" width="14.82" height="1.166"/>
    <path class="cls-4"
          d="M27.624,14.808c0-1.322-.837-1.869-2.128-1.869a2.188,2.188,0,0,0-2.455,2.04c0,1.321,1.164,1.848,2.455,1.848A1.9,1.9,0,0,0,27.624,14.808Z"/>
    <path class="cls-5" d="M27.1,14.742a1.725,1.725,0,1,0-3.45,0c0,.953.772,1.347,1.725,1.347S27.1,15.7,27.1,14.742Z"/>
    <path class="cls-2"
          d="M25.37,16.428c-1.274,0-2.065-.646-2.065-1.686a2.065,2.065,0,1,1,4.13,0C27.435,15.782,26.644,16.428,25.37,16.428Zm0-3.071a1.387,1.387,0,0,0-1.386,1.385c0,.832.754,1.007,1.386,1.007s1.385-.175,1.385-1.007A1.387,1.387,0,0,0,25.37,13.357Z"/>
    <path class="cls-1" d="M23.706,14.285a1.726,1.726,0,0,1,3.379.269l-.879-.131a11.7,11.7,0,0,0-1.63-.129Z"/>
    <path class="cls-2"
          d="M27.085,14.894a.421.421,0,0,1-.05,0l-.879-.132a11.888,11.888,0,0,0-1.583-.125l-.871-.008a.341.341,0,0,1-.324-.43,2.066,2.066,0,0,1,4.045.322.341.341,0,0,1-.338.377Zm-2.852-.944.347,0a12.3,12.3,0,0,1,1.676.132l.363.055a1.387,1.387,0,0,0-2.386-.191Z"/>
    <path class="cls-4"
          d="M14.463,14.808c0-1.322.838-1.869,2.129-1.869a2.188,2.188,0,0,1,2.455,2.04c0,1.321-1.164,1.848-2.455,1.848A1.9,1.9,0,0,1,14.463,14.808Z"/>
    <path class="cls-5"
          d="M14.992,14.742a1.726,1.726,0,1,1,3.451,0c0,.953-.773,1.347-1.725,1.347S14.992,15.7,14.992,14.742Z"/>
    <path class="cls-2"
          d="M16.718,16.428c-1.275,0-2.066-.646-2.066-1.686a2.066,2.066,0,1,1,4.131,0C18.783,15.782,17.992,16.428,16.718,16.428Zm0-3.071a1.388,1.388,0,0,0-1.386,1.385c0,.832.754,1.007,1.386,1.007s1.386-.175,1.386-1.007a1.387,1.387,0,0,0-1.386-1.385Z"/>
    <path class="cls-1" d="M15.068,14.234a1.726,1.726,0,0,1,3.314.051Z"/>
    <path class="cls-2"
          d="M18.382,14.625h-.005l-3.314-.051a.334.334,0,0,1-.269-.14.338.338,0,0,1-.051-.3,2.067,2.067,0,0,1,3.967.061.341.341,0,0,1-.328.43ZM15.613,13.9l2.233.034a1.389,1.389,0,0,0-2.233-.034Z"/>
    <path class="cls-2" d="M12.9,17.365a8.1,8.1,0,0,0,16.208,0Z"/>
    <path class="cls-5"
          d="M19.748,17.365H21a0,0,0,0,1,0,0V18.49a.129.129,0,0,1-.129.129h-1a.129.129,0,0,1-.129-.129V17.365A0,0,0,0,1,19.748,17.365Z"/>
    <path class="cls-5"
          d="M18.493,17.365h1.254a0,0,0,0,1,0,0V18.49a.129.129,0,0,1-.129.129h-1a.129.129,0,0,1-.129-.129V17.365A0,0,0,0,1,18.493,17.365Z"/>
    <path class="cls-5"
          d="M17.239,17.365h1.254a0,0,0,0,1,0,0V18.49a.129.129,0,0,1-.129.129h-1a.129.129,0,0,1-.129-.129V17.365A0,0,0,0,1,17.239,17.365Z"/>
    <path class="cls-5"
          d="M15.985,17.365h1.254a0,0,0,0,1,0,0v.761a.129.129,0,0,1-.129.129h-1a.129.129,0,0,1-.129-.129v-.761a0,0,0,0,1,0,0Z"/>
    <path class="cls-5"
          d="M21,17.365h1.254a0,0,0,0,1,0,0V18.49a.129.129,0,0,1-.129.129h-1A.129.129,0,0,1,21,18.49V17.365A0,0,0,0,1,21,17.365Z"/>
    <path class="cls-5"
          d="M22.256,17.365H23.51a0,0,0,0,1,0,0V18.49a.129.129,0,0,1-.129.129h-1a.129.129,0,0,1-.129-.129V17.365A0,0,0,0,1,22.256,17.365Z"/>
    <path class="cls-5"
          d="M23.51,17.365h1.254a0,0,0,0,1,0,0V18.49a.129.129,0,0,1-.129.129h-1a.129.129,0,0,1-.129-.129V17.365A0,0,0,0,1,23.51,17.365Z"/>
    <path class="cls-5"
          d="M24.764,17.365h1.254a0,0,0,0,1,0,0v.761a.129.129,0,0,1-.129.129h-1a.129.129,0,0,1-.129-.129v-.761a0,0,0,0,1,0,0Z"/>
    <path class="cls-6" d="M21.77,21.668l-.021,0,.011.006Z"/>
    <path class="cls-6" d="M20.255,21.665l-.022,0,.01,0Z"/>
    <path class="cls-4"
          d="M15.663,12.314A.288.288,0,0,1,15.4,11.9l.321-.658-.162-.649.353-.942a.288.288,0,1,1,.539.2l-.29.775.169.679-.412.846A.287.287,0,0,1,15.663,12.314Z"/>
    <path class="cls-2"
          d="M21,6.847A10.519,10.519,0,1,1,10.483,17.365,10.529,10.529,0,0,1,21,6.847M21,5.8A11.564,11.564,0,1,0,32.566,17.365,11.564,11.564,0,0,0,21,5.8Z"/>
    <polygon class="cls-2" points="23.781 6.38 18.004 6.38 14.396 8.838 28.303 8.838 23.781 6.38"/>
    <polygon class="cls-2" points="24.212 8.838 23.41 7.702 22.607 8.838 23.41 9.502 24.212 8.838"/>
    <polygon class="cls-2" points="21.002 8.838 20.199 7.702 19.396 8.838 20.199 9.502 21.002 8.838"/>
    <polygon class="cls-2" points="19.396 8.838 18.594 7.702 17.791 8.838 18.594 9.502 19.396 8.838"/>
    <polygon class="cls-2" points="17.791 8.838 16.989 7.702 16.186 8.838 16.989 9.502 17.791 8.838"/>
    <polygon class="cls-2" points="16.186 8.838 15.383 7.702 14.581 8.838 15.383 9.502 16.186 8.838"/>
    <polygon class="cls-2" points="27.423 8.838 26.62 7.702 25.818 8.838 26.62 9.502 27.423 8.838"/>
    <polygon class="cls-2" points="25.818 8.838 25.015 7.702 24.212 8.838 25.015 9.502 25.818 8.838"/>
    <polygon class="cls-2" points="22.607 8.838 21.804 7.702 21.002 8.838 21.804 9.502 22.607 8.838"/>
    <path class="cls-2" d="M28.334,13.5H13.669a.419.419,0,0,1,0-.837H28.334a.419.419,0,0,1,0,.837Z"/>
    <path class="cls-7" d="M16.326,14.528a.392.392,0,0,0,.784,0Z"/>
    <path class="cls-2"
          d="M16.718,15.1a.575.575,0,0,1-.574-.575.181.181,0,0,1,.181-.182h.784a.181.181,0,0,1,.182.182A.575.575,0,0,1,16.718,15.1Zm-.107-.393a.224.224,0,0,0,.212,0Z"/>
    <path class="cls-7" d="M25,14.528a.392.392,0,0,0,.784,0Z"/>
    <path class="cls-2"
          d="M25.392,15.1a.575.575,0,0,1-.574-.575A.181.181,0,0,1,25,14.346h.784a.181.181,0,0,1,.182.182A.576.576,0,0,1,25.392,15.1Zm-.106-.393a.224.224,0,0,0,.212,0Z"/>
    <path class="cls-2"
          d="M21,15.559a.418.418,0,0,1-.418-.418V13.2a.418.418,0,0,1,.836,0v1.941A.418.418,0,0,1,21,15.559Z"/>
    <path class="cls-2"
          d="M21.316,16.97h-.628a1.359,1.359,0,0,1-1.358-1.358.418.418,0,1,1,.836,0,.522.522,0,0,0,.522.521h.628a.522.522,0,0,0,.522-.521.418.418,0,1,1,.836,0A1.359,1.359,0,0,1,21.316,16.97Z"/>
    <path class="cls-4"
          d="M29.105,21.958a.272.272,0,0,1-.074-.009.288.288,0,0,1-.2-.353l1.063-3.954a.287.287,0,1,1,.554.15l-1.062,3.954A.287.287,0,0,1,29.105,21.958Z"/>
    <path class="cls-4"
          d="M12.949,22.325a.287.287,0,0,1-.275-.206l-1.29-4.32a.287.287,0,1,1,.551-.164l1.29,4.32a.285.285,0,0,1-.194.357A.256.256,0,0,1,12.949,22.325Z"/>
    <line class="cls-8" x1="33.6" y1="21.417" x2="40.341" y2="22.16"/>
    <path class="cls-2"
          d="M40.342,22.683a.583.583,0,0,1-.059,0l-6.741-.743a.523.523,0,0,1-.462-.577.528.528,0,0,1,.577-.463l6.741.744a.523.523,0,0,1-.056,1.042Z"/>
    <line class="cls-8" x1="40.922" y1="16.918" x2="34.183" y2="16.552"/>
    <path class="cls-2"
          d="M40.922,17.44h-.028l-6.74-.365a.524.524,0,0,1-.494-.551.512.512,0,0,1,.551-.493l6.739.366a.522.522,0,0,1-.028,1.044Z"/>
    <path class="cls-2"
          d="M1.082,17.336a.523.523,0,0,1-.02-1.045l6.743-.262a.516.516,0,0,1,.543.5.523.523,0,0,1-.5.542L1.1,17.335Z"/>
    <path class="cls-2"
          d="M1.6,22.357a.523.523,0,0,1-.032-1.044L8.372,20.9a.538.538,0,0,1,.554.49.523.523,0,0,1-.489.554l-6.806.417Z"/>
    <path class="cls-2"
          d="M35.364,9.311a.523.523,0,0,1,0-1.046.656.656,0,0,0,.655-.655V7.2a.522.522,0,1,1,1.044,0V7.61A1.7,1.7,0,0,1,35.364,9.311Z"/>
    <path class="cls-2"
          d="M37.838,10.827a1.821,1.821,0,0,1-1.819-1.819V8.719a.522.522,0,1,1,1.044,0v.289a.774.774,0,0,0,1.548,0V8.719a.523.523,0,1,1,1.045,0v.289A1.82,1.82,0,0,1,37.838,10.827Z"/>
    <path class="cls-2"
          d="M40.261,12.866a1.652,1.652,0,0,1-1.65-1.65v-.128a.523.523,0,1,1,1.045,0v.128a.6.6,0,0,0,1.209,0v-.128a.523.523,0,1,1,1.045,0v.128A1.651,1.651,0,0,1,40.261,12.866Z"/>
    <path class="cls-2"
          d="M35.573,14.311a.523.523,0,0,1-.291-.958,5.031,5.031,0,0,0,1.038-.945,1.688,1.688,0,0,1,.289-.287l.013-.011c-.5-.717-2.246-.152-2.265-.146a.523.523,0,1,1-.341-.988c1.024-.356,2.941-.6,3.595.759a.919.919,0,0,1-.334,1.19,1.048,1.048,0,0,0-.123.113,6.008,6.008,0,0,1-1.293,1.186A.519.519,0,0,1,35.573,14.311Z"/>
    <path class="cls-2"
          d="M40.261,11.562h0a.42.42,0,0,1-.419-.419v-.094a.16.16,0,0,1,.16-.16h.517a.16.16,0,0,1,.16.16v.094A.419.419,0,0,1,40.261,11.562Z"/>
    <path class="cls-2"
          d="M37.257,8.592v.13a.563.563,0,0,0,.164.4l.224-.4v.538a.556.556,0,0,0,.174.028.562.562,0,0,0,.562-.563v-.13Z"/>
    <path class="cls-2"
          d="M6.636,10.615a1.7,1.7,0,0,1-1.7-1.7V8.762a.522.522,0,1,1,1.044,0v.153a.655.655,0,0,0,1.31,0V8.762a.523.523,0,1,1,1.045,0v.153A1.7,1.7,0,0,1,6.636,10.615Z"/>
    <path class="cls-2"
          d="M21,37.808A20.425,20.425,0,0,1,.56,17.365l0-2.448h0s-.017-.069-.043-.17A13.058,13.058,0,0,1,.09,11.417V10.252A1.649,1.649,0,0,1,2.344,8.717V7.627a1.819,1.819,0,0,1,3.521-.641A1.7,1.7,0,0,1,8.336,8.5v2.6A2.372,2.372,0,0,1,9.769,13.01a2.584,2.584,0,0,1-.8,2.284,2.814,2.814,0,0,0-.386.5l-.027.046A3.2,3.2,0,0,0,8.3,17.365a12.705,12.705,0,1,0,25.41,0,3.13,3.13,0,0,0-.3-1.55,2.906,2.906,0,0,0-.391-.519,2.6,2.6,0,0,1-.79-2.287,2.372,2.372,0,0,1,1.433-1.91V7.456a1.7,1.7,0,0,1,3.351-.406,1.818,1.818,0,0,1,2.641,1.622v.045a1.649,1.649,0,0,1,2.254,1.535v1.165a13.072,13.072,0,0,1-.423,3.332c-.033.126-.046.2-.048.215l.005,2.4A20.427,20.427,0,0,1,21,37.808ZM1.739,9.648a.6.6,0,0,0-.6.6v1.165a12.021,12.021,0,0,0,.389,3.065,3.148,3.148,0,0,1,.072.334L1.6,15v2.37A19.414,19.414,0,0,0,13.451,35.237a19.542,19.542,0,0,0,15.1,0A19.386,19.386,0,0,0,40.4,17.365V14.889a2.221,2.221,0,0,1,.077-.406,12.034,12.034,0,0,0,.389-3.066V10.252a.6.6,0,0,0-1.209,0v1.024a.523.523,0,1,1-1.045,0v-2.6a.774.774,0,0,0-1.548,0v1.734a.522.522,0,1,1-1.044,0V7.456a.655.655,0,0,0-1.31,0V11.47a.522.522,0,0,1-.421.513,1.359,1.359,0,0,0-1.021,1.172,1.561,1.561,0,0,0,.541,1.452,3.639,3.639,0,0,1,.518.7,4.053,4.053,0,0,1,.426,2.079,13.75,13.75,0,0,1-27.5-.022,3.935,3.935,0,0,1,.422-2.08,3.694,3.694,0,0,1,.513-.683,1.554,1.554,0,0,0,.546-1.446,1.372,1.372,0,0,0-1.021-1.173.522.522,0,0,1-.421-.513V8.5a.655.655,0,0,0-1.31,0v1.7a.522.522,0,1,1-1.044,0V7.627a.774.774,0,0,0-1.548,0v3.649a.523.523,0,1,1-1.045,0V10.252A.606.606,0,0,0,1.739,9.648Zm6.384,5.905h0Z"/>
    <path class="cls-2"
          d="M4.082,35.725a2.174,2.174,0,0,1-2.171-2.171V31.233A2.163,2.163,0,0,1,2.46,29.8a2.164,2.164,0,0,1-.549-1.438v-2.32A2.164,2.164,0,0,1,2.46,24.6a2.164,2.164,0,0,1-.549-1.438v-2.32A2.185,2.185,0,0,1,3.2,18.861a1.307,1.307,0,0,1,2.6,0,2.183,2.183,0,0,1,1.285,1.981v2.32A2.164,2.164,0,0,1,6.536,24.6a2.164,2.164,0,0,1,.549,1.438v2.32A2.164,2.164,0,0,1,6.536,29.8a2.163,2.163,0,0,1,.549,1.437v2.321a1.309,1.309,0,0,1-1.748,1.231A1.31,1.31,0,0,1,4.082,35.725Z"/>
    <path class="cls-3"
          d="M6.17,31.234a1.261,1.261,0,0,0-1.159-1.252l-.121-.009v-.354l.121-.009A1.261,1.261,0,0,0,6.17,28.358v-2.32a1.261,1.261,0,0,0-1.159-1.252l-.121-.009v-.354l.121-.009A1.261,1.261,0,0,0,6.17,23.162v-2.32A1.261,1.261,0,0,0,5.011,19.59l-.121-.01v-.6a.392.392,0,1,0-.784,0v.6l-.121.01a1.261,1.261,0,0,0-1.159,1.252v2.32a1.261,1.261,0,0,0,1.159,1.252l.121.009v.354l-.121.009a1.261,1.261,0,0,0-1.159,1.252v2.32A1.261,1.261,0,0,0,3.985,29.61l.121.009v.354l-.121.009a1.261,1.261,0,0,0-1.159,1.252v2.32A1.258,1.258,0,0,0,4.082,34.81a.392.392,0,1,0,0-.784.472.472,0,0,1-.471-.472v-2.32a.471.471,0,0,1,.323-.448l.172-.057v.3a.392.392,0,1,0,.784,0v-.3l.172.057a.471.471,0,0,1,.323.448v2.32a.393.393,0,0,0,.785,0ZM3.934,23.61a.473.473,0,0,1-.323-.448v-2.32a.471.471,0,0,1,.323-.448l.172-.057v.642a.392.392,0,0,0,.784,0v-.642l.172.057a.471.471,0,0,1,.323.448v2.32a.471.471,0,0,1-.323.447l-.172.058V22.659a.392.392,0,0,0-.784,0v1.008ZM4.5,27.383a.392.392,0,0,0-.392.392v1.088l-.172-.057a.473.473,0,0,1-.323-.448v-2.32a.471.471,0,0,1,.323-.448l.172-.057v.383a.392.392,0,0,0,.784,0v-.383l.172.057a.471.471,0,0,1,.323.448v2.32a.473.473,0,0,1-.323.448l-.172.057V27.775A.392.392,0,0,0,4.5,27.383Z"/>
    <path class="cls-2"
          d="M2.694,14.466a.523.523,0,0,1-.065-1.042A4.484,4.484,0,0,0,4.9,12.347a.523.523,0,0,1,.728.751,5.479,5.479,0,0,1-2.865,1.363A.519.519,0,0,1,2.694,14.466Z"/>
    <path class="cls-2"
          d="M39.12,14.154a4.952,4.952,0,0,1-2.239-1.011.523.523,0,1,1,.623-.84,4.2,4.2,0,0,0,1.624.8.546.546,0,0,1,.554.49.523.523,0,0,1-.49.554C39.169,14.154,39.145,14.154,39.12,14.154Z"/>
    <path class="cls-2"
          d="M6.636,9.18h0a.418.418,0,0,1-.418-.418v-.1a.159.159,0,0,1,.159-.159H6.9a.159.159,0,0,1,.159.159v.1A.418.418,0,0,1,6.636,9.18Z"/>
</svg>