<svg id="Buddy" xmlns="http://www.w3.org/2000/svg" viewBox="0 0 42 42"><defs><style>.cls-1{fill:#da8e75;}.cls-2{fill:#402020;}.cls-3{fill:#fff;}.cls-4{fill:#502c1e;}.cls-5{fill:#ffe8f2;}.cls-6{fill:none;}.cls-7{fill:#e20b5c;}.cls-8{fill:#c60655;}.cls-9{fill:#efa511;}.cls-10{fill:#222;}.cls-11{fill:#f2dab2;}</style></defs><title>French-Buddy</title><path class="cls-1" d="M5.323,16.562v3.161a17.477,17.477,0,1,0,34.954,0V17.55a2.088,2.088,0,0,0,.651-3.35c-.7-.438-1.024.007-1.024.007S39.682,13,38.581,13s-1.07.922-1.07.922a1.6,1.6,0,0,0-1.379-1.093c-1.012,0-1.764,1.719-1.764,1.719a1.672,1.672,0,0,0-1.261,1.415c-.169,1.2.635,1.519.979,2.167a3.1,3.1,0,0,1,.32,1.59,11.606,11.606,0,0,1-23.211,0,2.953,2.953,0,0,1,.306-1.59c.343-.648,1.055-.97.887-2.167a13.168,13.168,0,0,0-1.648-3.484"/><path class="cls-2" d="M2.271,18.312A2.226,2.226,0,0,1,.838,14.38a12.72,12.72,0,0,1,1.092-.818.794.794,0,0,1,.807.014l.017-.049a1.03,1.03,0,0,1,.47-.7,7,7,0,0,1,1.041-.388l.692-.194.994.22.644-.681,1.448-.407L9,11.692l.773-.8,1.421-.4.855.183.846-.661,1.58-.444a.8.8,0,0,1,1.016.833l-.012.164.537.871-.109.681.249.546-.058.4.208.288a.782.782,0,0,1-.416,1.219L2.869,18.229A2.2,2.2,0,0,1,2.271,18.312Zm.06-3.914c-.306.208-.609.439-.9.686a1.308,1.308,0,0,0,1.2,2.262L15.459,13.74l-.318-.441.072-.5-.251-.552.1-.617-.515-.835.022-.3-1.325.372-.942.8-1.073-.23-.964.271-1,1.033-1.243-.4-.936.264-.825.875-1.28-.284-.469.132a6.019,6.019,0,0,0-.822.3c-.021.053-.047.134-.066.188a1.076,1.076,0,0,1-.417.662.876.876,0,0,1-.821-.051C2.367,14.416,2.349,14.406,2.331,14.4Zm.107-.073h0Zm13.332-.2h0Zm-.2-.235,0,.006Z"/><path class="cls-2" d="M15.163,13.5v-.7a1.537,1.537,0,0,0-.538-1.169,2.454,2.454,0,0,1-1.03-1.8A3.183,3.183,0,0,1,14.728,7.84c.841-.812,3.341-2.674,8.309-2.5a9.341,9.341,0,0,1,7,3.129A14.914,14.914,0,0,0,31.9,10.2c.814.667,1.351,1.108,1.175,1.711-.165.564-.755,1.2-2.626,1.015v.5l-.576.028-1.677-.148a62.17,62.17,0,0,0-11.134.02Zm7.574-1.351c1.85,0,3.7.081,5.536.243l1.308.115a1,1,0,0,1,.194-.243.99.99,0,0,1,.759-.252c.917.087,1.567-.053,1.657-.359-.052-.069-.509-.444-.876-.745a15.684,15.684,0,0,1-1.969-1.84A8.352,8.352,0,0,0,23,6.252c-4.615-.17-6.882,1.518-7.64,2.248a2.465,2.465,0,0,0-.851,1.331,1.678,1.678,0,0,0,.709,1.1,2.456,2.456,0,0,1,.84,1.561l.913-.084C18.887,12.236,20.812,12.148,22.737,12.148Z"/><path class="cls-3" d="M14.594,27.944a11.576,11.576,0,0,1-2.566-3.875L6.7,26.556A17.532,17.532,0,0,0,15.242,35.5V28.546Q14.909,28.258,14.594,27.944Z"/><rect class="cls-2" x="12.117" y="31.583" width="5.779" height="0.825" transform="translate(-19.882 26.367) rotate(-55.708)"/><rect class="cls-2" x="10.709" y="30.898" width="5.779" height="0.825" transform="translate(-19.931 24.904) rotate(-55.708)"/><rect class="cls-2" x="9.611" y="29.699" width="5.693" height="0.825" transform="translate(-18.48 19.879) rotate(-49.222)"/><rect class="cls-2" x="8.86" y="28.437" width="5.499" height="0.826" transform="translate(-15.977 14.494) rotate(-40.587)"/><rect class="cls-2" x="7.973" y="27.226" width="5.459" height="0.827" transform="translate(-13.545 10.594) rotate(-33.728)"/><rect class="cls-2" x="7.152" y="26.106" width="5.504" height="0.826" transform="translate(-11.612 8.123) rotate(-28.989)"/><path class="cls-3" d="M31.006,27.944q-.313.315-.647.6V35.5A17.536,17.536,0,0,0,38.9,26.542c.015-.034.029-.069.043-.1L33.62,23.952A11.571,11.571,0,0,1,31.006,27.944Z"/><rect class="cls-2" x="30.363" y="28.831" width="0.825" height="5.778" transform="translate(-12.523 22.857) rotate(-34.297)"/><circle class="cls-1" cx="22.8" cy="19.723" r="9.308"/><path class="cls-4" d="M29.438,12.877v3.355a1.962,1.962,0,0,0,.989,1.7h0a1.958,1.958,0,0,1,.884,1.07l.8,2.339.405-1.8-.146-1.779-1.031-2.857L29.91,13Z"/><path class="cls-2" d="M32.166,22.453l-1.14-3.35a1.653,1.653,0,0,0-.749-.907,2.268,2.268,0,0,1-1.14-1.965V12.49l.951.24,1.531,2.077,1.049,2.935.149,1.824ZM29.74,13.272v2.959a1.666,1.666,0,0,0,.836,1.442A2.26,2.26,0,0,1,31.6,18.908l.452,1.328.161-.713-.14-1.692-1-2.777Z"/><path class="cls-2" d="M29.7,12.79A3.836,3.836,0,0,0,31,16.055a.07.07,0,0,1,.007.1.071.071,0,0,1-.091.012,4.123,4.123,0,0,1-1.3-1.448,4.2,4.2,0,0,1-.368-.932,4.7,4.7,0,0,1-.144-1v-.011a.3.3,0,0,1,.6-.03A.281.281,0,0,1,29.7,12.79Z"/><path class="cls-2" d="M31.587,18.026c-.129-.15-.213-.323-.328-.448a2.381,2.381,0,0,0-.417-.328,1.812,1.812,0,0,1-.716-.939.061.061,0,0,1,.038-.078.065.065,0,0,1,.071.025,2.316,2.316,0,0,0,.751.776,1.2,1.2,0,0,1,.452.4,1.639,1.639,0,0,1,.236.545.05.05,0,0,1-.035.061A.053.053,0,0,1,31.587,18.026Z"/><path class="cls-4" d="M14.241,19.329l-.686,2.015-.406-1.8.147-1.779,1.031-2.857L15.752,13l.472-.119-.459,2.8a2.29,2.29,0,0,1-.432,1.009l-.509.672a2.288,2.288,0,0,0-.462,1.308h0A2.283,2.283,0,0,1,14.241,19.329Z"/><path class="cls-2" d="M13.5,22.453l-.649-2.888.167-1.9,1.073-2.935,1.489-2,1.022-.258-.534,3.25a2.608,2.608,0,0,1-.49,1.142l-.509.673a1.985,1.985,0,0,0-.4,1.135,2.56,2.56,0,0,1-.137.755Zm-.042-2.93.161.713.342-1a1.966,1.966,0,0,0,.105-.578,2.578,2.578,0,0,1,.523-1.481l.509-.672a2,2,0,0,0,.375-.877l.367-2.233L14.6,15.054l-1,2.777Z"/><path class="cls-2" d="M17.1,10.112a4.785,4.785,0,0,1,.264.97,4.254,4.254,0,0,1,.034,1,4.132,4.132,0,0,1-.62,1.848.068.068,0,0,1-.1.021.07.07,0,0,1-.026-.088,3.836,3.836,0,0,0-.11-3.512.3.3,0,1,1,.532-.288.283.283,0,0,1,.016.036Z"/><path class="cls-5" d="M24.235,16.285c0,.552.829,1.085,1.85,1.085s1.851-.395,1.851-.994c0-.678-.737-1.177-1.851-1.177C25.064,15.2,24.235,15.8,24.235,16.285Z"/><path class="cls-2" d="M26.085,17.623c-1.14,0-2.1-.613-2.1-1.338,0-.688,1.022-1.339,2.1-1.339,1.238,0,2.1.589,2.1,1.43C28.188,17.11,27.323,17.623,26.085,17.623Zm0-2.172c-.939,0-1.6.541-1.6.834,0,.385.7.833,1.6.833s1.6-.326,1.6-.742C27.684,15.832,27.026,15.451,26.085,15.451Z"/><circle class="cls-2" cx="26.121" cy="16.11" r="0.719"/><path class="cls-5" d="M21.039,16.285c0,.552-.828,1.085-1.85,1.085s-1.85-.395-1.85-.994c0-.678.737-1.177,1.85-1.177C20.211,15.2,21.039,15.8,21.039,16.285Z"/><path class="cls-2" d="M19.189,17.623c-1.238,0-2.1-.513-2.1-1.247,0-.841.864-1.43,2.1-1.43,1.081,0,2.1.651,2.1,1.339C21.291,17.01,20.329,17.623,19.189,17.623Zm0-2.172c-.941,0-1.6.381-1.6.925,0,.416.7.742,1.6.742s1.6-.448,1.6-.833C20.787,15.992,20.128,15.451,19.189,15.451Z"/><circle class="cls-2" cx="19.154" cy="16.11" r="0.719"/><path class="cls-2" d="M24.139,13.883l1.137-.048c.378-.011.755-.046,1.157-.029a5.228,5.228,0,0,1,1.162.187,7.844,7.844,0,0,1,1.078.416.114.114,0,0,1-.081.212,7.557,7.557,0,0,0-1.071-.316,4.888,4.888,0,0,0-1.091-.084c-.357.013-.734.078-1.111.121l-1.129.142a.3.3,0,0,1-.075-.6Z"/><path class="cls-2" d="M21.085,14.484l-1.129-.142c-.378-.043-.755-.108-1.112-.121a4.874,4.874,0,0,0-1.09.084,7.519,7.519,0,0,0-1.071.316.114.114,0,0,1-.144-.071.115.115,0,0,1,.062-.141,7.857,7.857,0,0,1,1.079-.416,5.219,5.219,0,0,1,1.162-.187c.4-.017.778.018,1.156.029l1.137.048a.3.3,0,1,1-.026.6Z"/><path class="cls-2" d="M27.508,12.79a3.836,3.836,0,0,0,1.3,3.265.069.069,0,0,1,.006.1.07.07,0,0,1-.091.012,4.133,4.133,0,0,1-1.3-1.448,4.247,4.247,0,0,1-.368-.932,4.76,4.76,0,0,1-.144-1v-.011a.3.3,0,0,1,.6-.03C27.509,12.762,27.509,12.777,27.508,12.79Z"/><path class="cls-2" d="M15.69,19.723a7.11,7.11,0,0,0,14.22,0Z"/><path class="cls-3" d="M21.7,19.723h1.1a0,0,0,0,1,0,0v.871a.229.229,0,0,1-.229.229h-.642a.229.229,0,0,1-.229-.229v-.871A0,0,0,0,1,21.7,19.723Z"/><path class="cls-3" d="M20.6,19.723h1.1a0,0,0,0,1,0,0v.871a.229.229,0,0,1-.229.229h-.642a.229.229,0,0,1-.229-.229v-.871A0,0,0,0,1,20.6,19.723Z"/><path class="cls-3" d="M19.5,19.723h1.1a0,0,0,0,1,0,0v.871a.229.229,0,0,1-.229.229h-.642a.229.229,0,0,1-.229-.229v-.871A0,0,0,0,1,19.5,19.723Z"/><path class="cls-3" d="M18.4,19.723h1.1a0,0,0,0,1,0,0v.587a.193.193,0,0,1-.193.193h-.714a.193.193,0,0,1-.193-.193v-.587A0,0,0,0,1,18.4,19.723Z"/><path class="cls-3" d="M22.8,19.723h1.1a0,0,0,0,1,0,0v.871a.229.229,0,0,1-.229.229h-.642a.229.229,0,0,1-.229-.229v-.871A0,0,0,0,1,22.8,19.723Z"/><path class="cls-3" d="M23.9,19.723H25a0,0,0,0,1,0,0v.871a.229.229,0,0,1-.229.229H24.13a.229.229,0,0,1-.229-.229v-.871A0,0,0,0,1,23.9,19.723Z"/><path class="cls-3" d="M25,19.723h1.1a0,0,0,0,1,0,0v.871a.229.229,0,0,1-.229.229H25.23A.229.229,0,0,1,25,20.594v-.871A0,0,0,0,1,25,19.723Z"/><path class="cls-3" d="M26.1,19.723h1.1a0,0,0,0,1,0,0v.587a.193.193,0,0,1-.193.193h-.714a.193.193,0,0,1-.193-.193v-.587A0,0,0,0,1,26.1,19.723Z"/><path class="cls-6" d="M23.474,23.5l-.018,0,.01.005Z"/><path class="cls-6" d="M22.145,23.5l-.019,0,.009,0Z"/><path class="cls-2" d="M35.584,17.044a.459.459,0,0,1-.108-.905c.293-.072.946-.323,1.1-.642a.333.333,0,0,0-.025-.315c-.3-.626-1.6-.345-2.029-.2a.459.459,0,0,1-.3-.867c.9-.313,2.58-.524,3.155.665a1.239,1.239,0,0,1,.028,1.108,2.753,2.753,0,0,1-1.71,1.14A.441.441,0,0,1,35.584,17.044Z"/><path class="cls-2" d="M38.345,17.543a1.6,1.6,0,0,1-.281-.025,1.929,1.929,0,0,1-1.556-.887,1,1,0,0,1,.023-.892.444.444,0,0,1,.09-.112,1.985,1.985,0,0,0,.386-1.752.458.458,0,1,1,.9-.153,2.959,2.959,0,0,1-.577,2.483c.078.158.346.314.891.41a.534.534,0,0,0,.456-.113,4.187,4.187,0,0,0,.764-2.544.459.459,0,0,1,.918.024c-.007.244-.09,2.4-1.1,3.23A1.426,1.426,0,0,1,38.345,17.543Z"/><path class="cls-2" d="M40.062,17.963a2.521,2.521,0,0,1-.791-.14c-.4-.209-.749-.429-.718-.8a.54.54,0,0,1,.334-.434.459.459,0,0,1,.584.282l.008.026c.037.023.087.053.155.089.629.2.847-.076.856-.088a.45.45,0,0,1,.625-.146.468.468,0,0,1,.148.639A1.388,1.388,0,0,1,40.062,17.963Z"/><path class="cls-2" d="M22.8,10.5a9.228,9.228,0,1,1-9.228,9.228A9.239,9.239,0,0,1,22.8,10.5m0-.918A10.146,10.146,0,1,0,32.946,19.723,10.147,10.147,0,0,0,22.8,9.577Z"/><path class="cls-2" d="M22.8,18.957a1.021,1.021,0,0,1,0-2.041.252.252,0,1,1,0,.5.516.516,0,0,0,0,1.032.253.253,0,0,1,0,.5Z"/><path class="cls-2" d="M22.624,17.329a.252.252,0,0,1-.252-.253V15.7a.252.252,0,1,1,.5,0v1.378A.252.252,0,0,1,22.624,17.329Z"/><path class="cls-7" d="M29.91,13l-1.677-.148a62.63,62.63,0,0,0-11.217.02L15.622,13v-.2a2,2,0,0,0-.7-1.517,2.123,2.123,0,0,1-.869-1.451c0-1.068,2.566-4.266,8.966-4.037a8.807,8.807,0,0,1,6.671,2.972c1.477,1.689,3.107,2.446,2.94,3.015-.219.749-1.409.757-2.141.686a.53.53,0,0,0-.58.529Z"/><path class="cls-2" d="M15.6,13.021V12.8a1.971,1.971,0,0,0-.692-1.5,2.157,2.157,0,0,1-.877-1.468,2.776,2.776,0,0,1,1-1.677,7.9,7.9,0,0,1,2.908-1.708,13.441,13.441,0,0,1,4.435-.687c.213,0,.43,0,.648.012A8.809,8.809,0,0,1,29.709,8.75a15.126,15.126,0,0,0,1.912,1.785c.68.557,1.128.925,1.033,1.252-.226.772-1.454.773-2.166.7l-.048,0a.509.509,0,0,0-.507.508v.025l-.025,0-1.677-.148a62.667,62.667,0,0,0-11.212.02Zm7.137-.437c1.837,0,3.674.081,5.5.241l1.653.146a.551.551,0,0,1,.552-.529l.052,0c.7.067,1.9.069,2.117-.67.087-.3-.352-.658-1.017-1.2a15.327,15.327,0,0,1-1.918-1.789A8.759,8.759,0,0,0,23.02,5.817a13.852,13.852,0,0,0-5.067.672,7.836,7.836,0,0,0-2.891,1.7,2.743,2.743,0,0,0-.986,1.644,2.117,2.117,0,0,0,.862,1.433,2.016,2.016,0,0,1,.707,1.535v.172l1.37-.126C18.913,12.671,20.825,12.584,22.737,12.584Z"/><path class="cls-8" d="M14.054,9.831l2.774-.526a7.105,7.105,0,0,1,2.968.07l.622.149a7.067,7.067,0,0,0,2.588.132l.2-.027a7.062,7.062,0,0,1,3.475.407l.141.053a7.075,7.075,0,0,0,1.756.427h0a7.086,7.086,0,0,1,2.844.954l1.032.615-1.073.4H30.305L29.91,13s-1.35-.148-1.677-.148-5.213-.241-5.213-.241l-4.971.175L15.622,13l-.1-.918-.6-.8-.72-.866Z"/><line class="cls-8" x1="31.427" y1="11.47" x2="32.459" y2="12.085"/><line class="cls-8" x1="14.054" y1="9.831" x2="15.242" y2="9.606"/><path class="cls-8" d="M16.828,9.305a7.105,7.105,0,0,1,2.968.07l.622.149"/><path class="cls-2" d="M23.691,5.951l-.417-.285.016-.021a.568.568,0,0,0-.012-.7.253.253,0,0,1,.393-.318A1.074,1.074,0,0,1,23.691,5.951Z"/><path class="cls-8" d="M22.8,8.238l.233-1.38a.4.4,0,0,0-.571-.421L20.6,7.371a.8.8,0,0,0-.437.761l.008.13a.814.814,0,0,0,.7.755l.451.065a1.229,1.229,0,0,0,.468-.022l.314-.076A.927.927,0,0,0,22.8,8.238Z"/><path class="cls-8" d="M26.844,8.142l-.167.622a.764.764,0,0,0,.431.9l.068.03a.882.882,0,0,0,1.078-.3h0a.777.777,0,0,0-.072-.984l-.464-.489a.517.517,0,0,0-.375-.161h0A.517.517,0,0,0,26.844,8.142Z"/><path class="cls-2" d="M15.37,13.272V12.8a1.742,1.742,0,0,0-.611-1.325A2.3,2.3,0,0,1,13.8,9.831,3.039,3.039,0,0,1,14.87,7.988c.823-.794,3.271-2.627,8.159-2.446A9.14,9.14,0,0,1,29.882,8.6a14.984,14.984,0,0,0,1.885,1.757c.75.616,1.245,1.022,1.107,1.5-.206.7-1.035,1-2.408.866a.289.289,0,0,0-.212.071.277.277,0,0,0-.092.207v.275L28.211,13.1a62.4,62.4,0,0,0-11.171.02Zm7.367-.918c1.844,0,3.688.082,5.519.243l1.45.128a.782.782,0,0,1,.809-.509c.5.051,1.7.1,1.875-.506.044-.152-.5-.6-.944-.962A15.528,15.528,0,0,1,29.5,8.932a8.541,8.541,0,0,0-6.489-2.886C18.312,5.885,16,7.6,15.221,8.352a2.6,2.6,0,0,0-.915,1.479,1.907,1.907,0,0,0,.781,1.259,2.247,2.247,0,0,1,.786,1.63l1.12-.1C18.9,12.442,20.818,12.354,22.737,12.354Z"/><path class="cls-8" d="M25.248,9.275l-.9-.508a.407.407,0,0,1-.2-.4l.133-1.158a.408.408,0,0,1,.69-.245l.632.62a.405.405,0,0,1,.119.238l.137,1.047A.407.407,0,0,1,25.248,9.275Z"/><path class="cls-2" d="M16.822,14.9c.122.36.423.633.717.6a.258.258,0,0,1,.065.511.3.3,0,0,1-.079,0L17.489,16a1.024,1.024,0,0,1-.646-.41,1.383,1.383,0,0,1-.238-.651.11.11,0,0,1,.214-.047Z"/><path class="cls-2" d="M17.189,14.629c.122.36.423.633.717.6a.258.258,0,1,1,.065.511.3.3,0,0,1-.079,0l-.036-.007a1.032,1.032,0,0,1-.646-.41,1.387,1.387,0,0,1-.238-.651.112.112,0,0,1,.1-.122.11.11,0,0,1,.117.074Z"/><path class="cls-2" d="M28.356,14.666a1.375,1.375,0,0,1-.237.651,1.035,1.035,0,0,1-.646.41l-.036.006a.257.257,0,1,1-.094-.506.269.269,0,0,1,.08,0c.294.037.6-.236.716-.6l0-.01a.11.11,0,0,1,.214.047Z"/><path class="cls-2" d="M28.677,14.941a1.362,1.362,0,0,1-.238.651,1.022,1.022,0,0,1-.646.41l-.035.007a.258.258,0,0,1-.094-.507.269.269,0,0,1,.08,0c.294.037.595-.236.716-.6l0-.01a.11.11,0,0,1,.14-.069A.109.109,0,0,1,28.677,14.941Z"/><path class="cls-3" d="M27,30.562a4.408,4.408,0,0,1-8.405,0,11.546,11.546,0,0,1-3.356-2.016V35.5c.248.119.5.233.755.34a17.519,17.519,0,0,0,13.607,0c.255-.107.506-.221.755-.34V28.546A11.559,11.559,0,0,1,27,30.562Z"/><path class="cls-2" d="M22.8,34.1a4.849,4.849,0,0,1-4.64-3.4l.875-.275a3.949,3.949,0,0,0,7.53,0l.875.275A4.847,4.847,0,0,1,22.8,34.1Z"/><path class="cls-2" d="M22.8,37.659A17.925,17.925,0,0,1,4.864,19.723V16.741a.459.459,0,0,1,.918,0v2.982A17.031,17.031,0,0,0,16.176,35.4a17.121,17.121,0,0,0,13.249,0A17.008,17.008,0,0,0,39.818,19.723V17.55a.459.459,0,0,1,.3-.428,1.618,1.618,0,0,0,.76-.737,1.673,1.673,0,0,0-.189-1.8c-.233-.146-.375-.14-.426-.09a.439.439,0,0,1-.464.166.461.461,0,0,1-.341-.374c-.016-.082-.184-.829-.872-.829a.666.666,0,0,0-.491.151.494.494,0,0,0-.121.3.459.459,0,0,1-.893.161c-.011-.028-.281-.779-.944-.779-.534,0-1.136.973-1.344,1.445a.458.458,0,0,1-.33.265,1.193,1.193,0,0,0-.9,1.029,1.372,1.372,0,0,0,.474,1.274,3.2,3.2,0,0,1,.455.614,3.554,3.554,0,0,1,.372,1.824,12.064,12.064,0,0,1-24.127-.019,3.3,3.3,0,0,1,.391-1.855c.027-.059.093-.173.161-.291a2.934,2.934,0,0,0,.554-2.006,4.65,4.65,0,0,0-.627-1.789.464.464,0,0,1-.051-.1c0-.009-.346-.893-.853-.758-.719.323-.106,2.1-.1,2.115a.459.459,0,1,1-.861.317c-.354-.96-.616-2.735.654-3.295a1.757,1.757,0,0,1,2,1.255,5.685,5.685,0,0,1,.743,2.126,3.825,3.825,0,0,1-.668,2.594c-.062.108-.123.211-.176.311a2.7,2.7,0,0,0-.252,1.375,11.146,11.146,0,1,0,22.292,0,2.733,2.733,0,0,0-.257-1.359,2.475,2.475,0,0,0-.343-.456,2.278,2.278,0,0,1-.693-2.006,2.1,2.1,0,0,1,1.387-1.73c.261-.518,1.014-1.8,2.092-1.8a1.749,1.749,0,0,1,1.313.585,1.542,1.542,0,0,1,1.136-.415,1.733,1.733,0,0,1,1.58,1.02,1.428,1.428,0,0,1,1.01.247,2.537,2.537,0,0,1-.435,4.017v1.895A17.925,17.925,0,0,1,22.8,37.659Z"/><rect class="cls-2" x="36.009" y="22.301" width="0.504" height="5.876" transform="translate(-2.313 46.779) rotate(-64.018)"/><polygon class="cls-2" points="6.804 26.756 6.593 26.297 11.922 23.84 12.133 24.299 6.804 26.756"/><rect class="cls-2" x="15.242" y="34.119" width="15.117" height="0.824"/><path class="cls-2" d="M19.706,32.554H15.242v.824h5.624A4.43,4.43,0,0,1,19.706,32.554Z"/><path class="cls-2" d="M24.734,33.378h5.625v-.824H25.894A4.43,4.43,0,0,1,24.734,33.378Z"/><path class="cls-2" d="M26.5,31.812h3.86v-.823H26.917A4.39,4.39,0,0,1,26.5,31.812Z"/><path class="cls-2" d="M18.683,30.989H15.242v.823H19.1A4.451,4.451,0,0,1,18.683,30.989Z"/><path class="cls-2" d="M30.359,30.247v-.823h-.89a11.547,11.547,0,0,1-1.358.823Z"/><path class="cls-2" d="M16.132,29.424h-.89v.823h2.247A11.618,11.618,0,0,1,16.132,29.424Z"/><path class="cls-2" d="M16,36.025q.631.267,1.28.483H28.324q.646-.216,1.28-.483c.255-.108.506-.221.755-.341H15.242C15.49,35.8,15.742,35.917,16,36.025Z"/><rect class="cls-2" x="31.771" y="28.146" width="0.825" height="5.778" transform="translate(-11.892 23.531) rotate(-34.297)"/><rect class="cls-2" x="32.911" y="26.989" width="0.825" height="5.694" transform="translate(-11.397 28.964) rotate(-40.723)"/><rect class="cls-2" x="33.76" y="25.825" width="0.826" height="5.5" transform="translate(-9.765 35.908) rotate(-49.378)"/><rect class="cls-2" x="34.666" y="24.634" width="0.827" height="5.459" transform="translate(-7.154 41.354) rotate(-56.284)"/><rect class="cls-2" x="35.464" y="23.493" width="0.826" height="5.503" transform="translate(-4.452 44.94) rotate(-61.056)"/><rect class="cls-2" x="30.304" y="28.648" width="0.504" height="7.036"/><rect class="cls-2" x="14.99" y="28.648" width="0.504" height="7.036"/><path class="cls-9" d="M15.79,14.181,2.767,17.839A1.767,1.767,0,0,1,.622,16.726h0a1.766,1.766,0,0,1,.531-1.942A12.32,12.32,0,0,1,2.2,14c.206-.137.573.258.8.131.188-.106.234-.736.434-.828a6.62,6.62,0,0,1,.973-.364l.58-.163,1.138.252.734-.778,1.193-.335,1.1.358.886-.916,1.192-.335.963.206.848-.715,1.58-.444a.343.343,0,0,1,.435.356l-.024.314.525.853-.1.648.249.55-.065.447.316.438A.324.324,0,0,1,15.79,14.181Z"/><path class="cls-10" d="M2.292,18.157a2.019,2.019,0,0,1-1.3-3.567,12.332,12.332,0,0,1,1.073-.8.638.638,0,0,1,.636.042.655.655,0,0,0,.2.072,1.431,1.431,0,0,1,.073-.258c.077-.236.157-.479.358-.573a7.09,7.09,0,0,1,1.012-.377l.641-.18,1.06.235.684-.725,1.333-.375,1.024.333.824-.852,1.319-.37.9.194.848-.685,1.58-.444a.6.6,0,0,1,.538.112.6.6,0,0,1,.217.5l-.018.232.531.863-.106.666.248.548-.06.419.256.355a.576.576,0,0,1-.3.9L2.835,18.082A2,2,0,0,1,2.292,18.157Zm.016-3.938c-.308.216-.654.475-.993.759A1.515,1.515,0,0,0,2.7,17.6l13.024-3.659a.07.07,0,0,0,.037-.112l-.381-.528.069-.475-.25-.552.1-.63-.52-.844.03-.4a.088.088,0,0,0-.034-.077.1.1,0,0,0-.081-.017l-1.527.429-.9.76-1.024-.219-1.066.3-.949.98L8.05,12.175,7,12.47l-.785.831L5,13.032l-.518.146a6.479,6.479,0,0,0-.937.349c-.009.021-.06.178-.091.272a.9.9,0,0,1-.324.548.692.692,0,0,1-.635-.059A.784.784,0,0,0,2.308,14.219Z"/><polygon class="cls-11" points="14.67 13.411 14.484 12.748 14.765 12.247 14.593 11.634 14.391 10.916 14.868 10.087 15.241 11.069 15.561 11.588 15.458 12.236 15.707 12.786 15.642 13.233 16.024 13.905 15.79 14.181 15.261 14.329 14.67 13.411"/><polygon class="cls-11" points="11.693 14.009 11.234 11.018 12.197 11.224 13.045 10.509 12.615 12.437 11.693 14.009"/><polygon class="cls-11" points="8.911 14.79 8.276 11.849 9.239 12.055 10.086 11.341 9.833 13.219 8.911 14.79"/><polygon class="cls-11" points="5.731 15.683 5.096 12.742 6.059 12.948 6.906 12.234 6.653 14.112 5.731 15.683"/><polygon class="cls-11" points="2.56 16.098 2.204 13.996 3.003 14.127 3.437 13.299 3.694 14.943 2.56 16.098"/><path class="cls-2" d="M2.292,18.157a2.019,2.019,0,0,1-1.3-3.567,12.332,12.332,0,0,1,1.073-.8.638.638,0,0,1,.636.042.655.655,0,0,0,.2.072,1.431,1.431,0,0,1,.073-.258c.077-.236.157-.479.358-.573a7.09,7.09,0,0,1,1.012-.377l.641-.18,1.06.235.684-.725,1.333-.375,1.024.333.824-.852,1.319-.37.9.194.848-.685,1.58-.444a.6.6,0,0,1,.538.112.6.6,0,0,1,.217.5l-.018.232.531.863-.106.666.248.548-.06.419.256.355a.576.576,0,0,1-.3.9L2.835,18.082A2,2,0,0,1,2.292,18.157Zm.016-3.938c-.308.216-.654.475-.993.759A1.515,1.515,0,0,0,2.7,17.6l13.024-3.659a.07.07,0,0,0,.037-.112l-.381-.528.069-.475-.25-.552.1-.63-.52-.844.03-.4a.088.088,0,0,0-.034-.077.1.1,0,0,0-.081-.017l-1.527.429-.9.76-1.024-.219-1.066.3-.949.98L8.05,12.175,7,12.47l-.785.831L5,13.032l-.518.146a6.479,6.479,0,0,0-.937.349c-.009.021-.06.178-.091.272a.9.9,0,0,1-.324.548.692.692,0,0,1-.635-.059A.784.784,0,0,0,2.308,14.219Z"/><polygon class="cls-1" points="9.537 16.829 9.622 15.698 11.029 15.11 11.686 15.58 11.365 17.168 9.811 17.766 9.537 16.829"/><path class="cls-1" d="M9.965,16.116s-.8-2.365.408-2.9c.933-.256,1.589,1.366,1.589,1.366a2.427,2.427,0,0,1,.361,1.246"/><path class="cls-2" d="M9.965,16.575a.46.46,0,0,1-.435-.311c-.095-.283-.894-2.783.658-3.468,1.35-.382,2.117,1.41,2.2,1.614a2.693,2.693,0,0,1,.392,1.455.458.458,0,0,1-.914-.073,1.929,1.929,0,0,0-.293-.966c-.2-.461-.668-1.284-1.079-1.167-.624.28-.236,1.894-.1,2.309a.458.458,0,0,1-.287.582A.445.445,0,0,1,9.965,16.575Z"/><rect class="cls-1" x="8.005" y="10.381" width="2.171" height="2.194" rx="1.086" ry="1.086" transform="translate(-1.517 1.385) rotate(-8.043)"/><path class="cls-2" d="M9.089,13.033a1.546,1.546,0,0,1-1.527-1.328,1.552,1.552,0,0,1,.292-1.167,1.533,1.533,0,0,1,1.018-.6,1.555,1.555,0,0,1,.436,3.08A1.634,1.634,0,0,1,9.089,13.033Zm0-2.194A.652.652,0,0,0,9,10.846a.627.627,0,0,0-.533.708.626.626,0,0,0,.712.555h0a.619.619,0,0,0,.412-.243.629.629,0,0,0,.12-.465A.637.637,0,0,0,9.089,10.839Z"/><path class="cls-1" d="M5.9,14.442h0a1.086,1.086,0,0,1-1.336-.77l-.244-.926a1.086,1.086,0,0,1,.763-1.324h0a1.086,1.086,0,0,1,1.336.77l.245.926A1.086,1.086,0,0,1,5.9,14.442Z"/><path class="cls-2" d="M5.606,14.94a1.548,1.548,0,0,1-1.49-1.151l-.244-.926a1.544,1.544,0,0,1,2.265-1.731,1.53,1.53,0,0,1,.72.944L7.1,13a1.548,1.548,0,0,1-1.085,1.883h0A1.565,1.565,0,0,1,5.606,14.94Zm-.24-3.1a.64.64,0,0,0-.167.023.627.627,0,0,0-.44.764L5,13.555a.621.621,0,0,0,.293.383A.615.615,0,0,0,5.774,14h0a.63.63,0,0,0,.441-.765l-.244-.925a.628.628,0,0,0-.605-.468Z"/><rect class="cls-1" x="6.11" y="10.264" width="2.171" height="3.517" rx="1.086" ry="1.086" transform="translate(-3.577 3.064) rotate(-19.353)"/><path class="cls-2" d="M7.42,14.2a1.549,1.549,0,0,1-1.459-1.032L5.516,11.9A1.542,1.542,0,0,1,6.46,9.931a1.548,1.548,0,0,1,1.97.944l.445,1.271a1.543,1.543,0,0,1-.944,1.968h0A1.546,1.546,0,0,1,7.42,14.2Zm.358-.52h0Zm-.806-2.92a.626.626,0,0,0-.591.834l.445,1.27a.63.63,0,0,0,.8.384h0a.629.629,0,0,0,.384-.8l-.446-1.27A.628.628,0,0,0,6.972,10.761Z"/></svg>