<svg id="Buddy" xmlns="http://www.w3.org/2000/svg" viewBox="0 0 42 42"><defs><style>.cls-1{fill:#f0b97a;}.cls-2{fill:#f2dab2;}.cls-3{fill:#cda176;}.cls-4{fill:#502c1e;}.cls-5{fill:#fff7ec;}.cls-6{fill:none;}.cls-7{fill:#be782c;}.cls-8{fill:#9f5f21;}.cls-9{fill:#592e2c;}.cls-10{fill:#f7c834;}.cls-11{fill:#c99f49;}</style></defs><title>Indy-Buddy</title><path class="cls-1" d="M3.107,19.167a18.551,18.551,0,0,0,35.636,7.221A18.437,18.437,0,0,0,40.2,19.167V16.862a2.217,2.217,0,0,0,.691-3.556c-.741-.465-1.086.007-1.086.007s-.237-1.277-1.405-1.277-1.136.977-1.136.977A1.7,1.7,0,0,0,35.8,11.854c-1.074,0-1.872,1.825-1.872,1.825a1.772,1.772,0,0,0-1.338,1.5c-.179,1.27.674,1.613,1.038,2.3a3.277,3.277,0,0,1,.34,1.687,12.317,12.317,0,1,1-24.633,0,3.134,3.134,0,0,1,.325-1.687c.364-.687,1.217-1.03,1.038-2.3s-1.728-1.61-1.728-1.61S9.4,8.165,7.491,8.165c-1.151,0-1.094,1.313-1.147,2.556a17.273,17.273,0,0,1-.184,1.922S4.871,9.5,3.745,9.811c-1.461.406-.258,3.5-.258,3.5a.9.9,0,0,0-1.183-.3c-1.058.455-.663,2.105-.22,3.021a1.806,1.806,0,0,0,1.023.942Z"/><path class="cls-2" d="M30.364,27.876a12.316,12.316,0,0,1-17.419,0,12.374,12.374,0,0,1-2.1-2.8L5.632,28.516a18.556,18.556,0,0,0,32.045,0l-5.211-3.438A12.374,12.374,0,0,1,30.364,27.876Z"/><path class="cls-1" d="M26.433,30.51l-.491.192a12.082,12.082,0,0,1-8.8,0l-.491-.192,2.734,2.734.52,4.04,3.276.486V33.764h0Z"/><circle class="cls-1" cx="21.654" cy="19.167" r="9.878"/><polygon class="cls-3" points="29.259 12.156 14.109 11.891 12.093 15.25 31.487 15.64 29.259 12.156"/><path class="cls-4" d="M14.109,19.167a7.546,7.546,0,1,0,15.091,0Z"/><path class="cls-5" d="M20.486,19.167h1.168a0,0,0,0,1,0,0v.924a.243.243,0,0,1-.243.243H20.73a.243.243,0,0,1-.243-.243v-.924A0,0,0,0,1,20.486,19.167Z"/><path class="cls-5" d="M19.319,19.167h1.168a0,0,0,0,1,0,0v.924a.243.243,0,0,1-.243.243h-.681a.243.243,0,0,1-.243-.243v-.924A0,0,0,0,1,19.319,19.167Z"/><path class="cls-5" d="M18.151,19.167h1.168a0,0,0,0,1,0,0v.924a.243.243,0,0,1-.243.243h-.681a.243.243,0,0,1-.243-.243v-.924A0,0,0,0,1,18.151,19.167Z"/><path class="cls-5" d="M16.983,19.167h1.168a0,0,0,0,1,0,0v.623a.205.205,0,0,1-.205.205h-.758a.205.205,0,0,1-.205-.205v-.623A0,0,0,0,1,16.983,19.167Z"/><path class="cls-5" d="M21.654,19.167h1.168a0,0,0,0,1,0,0v.924a.243.243,0,0,1-.243.243H21.9a.243.243,0,0,1-.243-.243v-.924A0,0,0,0,1,21.654,19.167Z"/><path class="cls-5" d="M22.822,19.167H23.99a0,0,0,0,1,0,0v.924a.243.243,0,0,1-.243.243h-.681a.243.243,0,0,1-.243-.243v-.924A0,0,0,0,1,22.822,19.167Z"/><path class="cls-5" d="M23.99,19.167h1.168a0,0,0,0,1,0,0v.924a.243.243,0,0,1-.243.243h-.681a.243.243,0,0,1-.243-.243v-.924A0,0,0,0,1,23.99,19.167Z"/><path class="cls-5" d="M25.157,19.167h1.168a0,0,0,0,1,0,0v.623A.205.205,0,0,1,26.12,20h-.758a.205.205,0,0,1-.205-.205v-.623A0,0,0,0,1,25.157,19.167Z"/><path class="cls-6" d="M22.37,23.174l-.02,0,.011,0Z"/><path class="cls-6" d="M20.959,23.171l-.02,0,.009,0Z"/><path class="cls-4" d="M35.222,16.324a.487.487,0,0,1-.115-.96c.311-.076,1-.343,1.164-.681a.358.358,0,0,0-.028-.335c-.321-.666-1.7-.366-2.153-.209a.487.487,0,0,1-.319-.92c.956-.332,2.739-.558,3.349.705a1.315,1.315,0,0,1,.029,1.176,2.918,2.918,0,0,1-1.814,1.21A.492.492,0,0,1,35.222,16.324Z"/><path class="cls-4" d="M38.151,16.854a1.7,1.7,0,0,1-.3-.027,2.055,2.055,0,0,1-1.652-.94,1.055,1.055,0,0,1,.025-.948.494.494,0,0,1,.094-.119,2.1,2.1,0,0,0,.409-1.86.487.487,0,0,1,.961-.162,3.139,3.139,0,0,1-.613,2.635c.084.168.367.333.945.435a.549.549,0,0,0,.486-.119,4.449,4.449,0,0,0,.811-2.7.455.455,0,0,1,.5-.473.486.486,0,0,1,.474.5c-.006.259-.095,2.551-1.168,3.428A1.515,1.515,0,0,1,38.151,16.854Z"/><path class="cls-4" d="M39.976,17.3a2.674,2.674,0,0,1-.843-.15c-.425-.221-.792-.455-.761-.85a.573.573,0,0,1,.356-.46.488.488,0,0,1,.62.3l.007.027c.04.024.092.056.164.094.666.213.9-.081.91-.093a.476.476,0,0,1,.663-.154.5.5,0,0,1,.157.678A1.475,1.475,0,0,1,39.976,17.3Z"/><path class="cls-3" d="M25.156,17.371a2.521,2.521,0,0,1-1.353-.32,1.614,1.614,0,0,1-.762-1.419,1.211,1.211,0,0,1,.317-.912,1.927,1.927,0,0,1,1.476-.38c.117,0,.238,0,.361,0s.241-.009.356-.014a1.935,1.935,0,0,1,1.5.311,1.208,1.208,0,0,1,.359.894h0c.012.538-.171,1.794-2.141,1.84Zm-.9-1.791V15.6c.005.228.013.572.979.55s.958-.367.953-.595h0v-.022a4.032,4.032,0,0,0-.579,0c-.123.005-.25.012-.387.015s-.267,0-.392,0A4.282,4.282,0,0,0,24.258,15.58Z"/><path class="cls-5" d="M26.806,15.49c-.021-.782-.694-.616-1.591-.592s-1.578-.108-1.557.677c.024.9.71,1.162,1.606,1.138S26.831,16.386,26.806,15.49Z"/><path class="cls-4" d="M25.153,17.034a2.229,2.229,0,0,1-1.185-.272,1.332,1.332,0,0,1-.629-1.178.931.931,0,0,1,.231-.7c.351-.361.932-.284,1.636-.3.126,0,.248-.01.364-.016a1.714,1.714,0,0,1,1.286.229.932.932,0,0,1,.27.689h0a1.335,1.335,0,0,1-.564,1.211,2.342,2.342,0,0,1-1.289.341Zm.86-1.847c-.127,0-.27.007-.409.015-.122.006-.249.013-.38.016-.518.013-1.061-.03-1.2.108a.372.372,0,0,0-.051.24.7.7,0,0,0,.324.651,1.788,1.788,0,0,0,.954.176,1.768,1.768,0,0,0,.943-.228.7.7,0,0,0,.288-.666h0a.38.38,0,0,0-.064-.237A.712.712,0,0,0,26.013,15.187Z"/><circle class="cls-4" cx="25.197" cy="15.433" r="0.763"/><path class="cls-3" d="M18.156,17.42l-.119,0a2.616,2.616,0,0,1-1.446-.391,1.615,1.615,0,0,1-.689-1.456,1.211,1.211,0,0,1,.361-.893,1.929,1.929,0,0,1,1.5-.306c.115.005.235.012.356.015s.244,0,.361,0a1.929,1.929,0,0,1,1.475.384,1.213,1.213,0,0,1,.314.913C20.253,16.214,20.017,17.42,18.156,17.42Zm-1.037-1.839V15.6h0c-.007.228-.016.573.95.6s.975-.318.981-.546a.192.192,0,0,0,0-.024,4.437,4.437,0,0,0-.573-.024c-.125,0-.254,0-.392,0s-.264-.01-.387-.016A4.217,4.217,0,0,0,17.119,15.581Zm-.609.006h0Z"/><path class="cls-5" d="M16.509,15.438c.048-.781.715-.592,1.61-.538s1.581-.056,1.534.728c-.054.895-.748,1.138-1.643,1.084S16.455,16.333,16.509,15.438Z"/><path class="cls-4" d="M18.229,17.038c-.077,0-.156,0-.239-.007a2.346,2.346,0,0,1-1.277-.384,1.338,1.338,0,0,1-.523-1.229h0a.935.935,0,0,1,.292-.679,1.71,1.71,0,0,1,1.293-.186c.116.009.238.02.364.028s.249.011.366.016a1.7,1.7,0,0,1,1.259.339.939.939,0,0,1,.209.711C19.94,16.179,19.665,17.038,18.229,17.038Zm-1-1.878a.559.559,0,0,0-.325.063.381.381,0,0,0-.071.234h0a.7.7,0,0,0,.265.676,1.774,1.774,0,0,0,.935.259c1.1.066,1.281-.384,1.3-.784a.368.368,0,0,0-.044-.242c-.1-.105-.457-.118-.808-.13-.122-.005-.25-.009-.382-.017s-.258-.018-.379-.029C17.548,15.175,17.371,15.16,17.225,15.16Zm-.715.278h0Z"/><circle class="cls-4" cx="18.118" cy="15.434" r="0.763"/><path class="cls-3" d="M31.678,18.546l-.371-.371a.1.1,0,0,0-.075-.031h-.045a.106.106,0,0,0-.075.031l-.37.371-.371-.371a.1.1,0,0,0-.074-.031h-.046a.106.106,0,0,0-.075.031l-.37.371-.371-.371a.1.1,0,0,0-.074-.031h-.046a.1.1,0,0,0-.074.031l-.371.371-.37-.371a.106.106,0,0,0-.075-.031h-.046a.1.1,0,0,0-.074.031l-.371.371-.37-.371a.106.106,0,0,0-.075-.031h-.045a.1.1,0,0,0-.075.031L27,18.546l-.37-.371a.106.106,0,0,0-.075-.031h-.045a.106.106,0,0,0-.075.031l-.371.371-.37-.371a.106.106,0,0,0-.075-.031h-.045a.106.106,0,0,0-.075.031l-.371.371-.37-.371a.106.106,0,0,0-.075-.031h-.045a.106.106,0,0,0-.075.031l-.371.371-.37-.371a.106.106,0,0,0-.075-.031H23.7a.106.106,0,0,0-.075.031l-.371.371-.37-.371a.106.106,0,0,0-.075-.031h-.045a.106.106,0,0,0-.075.031l-.37.371-.371-.371a.106.106,0,0,0-.075-.031h-.045a.106.106,0,0,0-.075.031l-.37.371-.4-.4h-.133l-.4.4-.371-.371A.106.106,0,0,0,20,18.144h-.045a.106.106,0,0,0-.075.031l-.37.371-.371-.371a.106.106,0,0,0-.075-.031H19.02a.106.106,0,0,0-.075.031l-.37.371-.371-.371a.1.1,0,0,0-.074-.031h-.046a.106.106,0,0,0-.075.031l-.37.371-.371-.371a.1.1,0,0,0-.074-.031h-.046a.1.1,0,0,0-.074.031l-.371.371-.371-.371a.1.1,0,0,0-.074-.031h-.046a.1.1,0,0,0-.074.031l-.371.371-.37-.371a.106.106,0,0,0-.075-.031h-.046a.1.1,0,0,0-.074.031l-.371.371-.37-.371a.106.106,0,0,0-.075-.031h-.045a.106.106,0,0,0-.075.031l-.371.371-.37-.371a.106.106,0,0,0-.075-.031h-.045a.106.106,0,0,0-.075.031l-.371.371-.37-.371a.106.106,0,0,0-.075-.031h-.045a.106.106,0,0,0-.075.031l-.371.371-.37-.371a.106.106,0,0,0-.075-.031h0a.106.106,0,0,0-.106.1q-.04.459-.041.927a10.223,10.223,0,1,0,20.446,0c0-.186,0-.372-.015-.556a.106.106,0,0,0-.181-.069ZM21.654,26.713a7.545,7.545,0,0,1-7.545-7.546H29.2A7.545,7.545,0,0,1,21.654,26.713Z"/><path class="cls-1" d="M30,23.312a.267.267,0,0,1-.189-.078l-.264-.263a.268.268,0,0,1,.379-.379l.263.263a.268.268,0,0,1-.189.457Z"/><path class="cls-1" d="M28.933,24.98a.27.27,0,0,1-.19-.078l-.264-.263a.268.268,0,0,1,.379-.379l.264.263a.268.268,0,0,1-.189.457Z"/><path class="cls-1" d="M27.342,26.57a.265.265,0,0,1-.19-.078l-.263-.263a.268.268,0,1,1,.379-.378l.263.262a.268.268,0,0,1-.189.457Z"/><path class="cls-1" d="M25.188,27.825A.269.269,0,0,1,25,27.747l-.264-.264a.268.268,0,0,1,.379-.379l.264.264a.268.268,0,0,1-.19.457Z"/><path class="cls-1" d="M23.884,27.825a.268.268,0,0,1-.19-.078l-.262-.264a.268.268,0,0,1,.379-.379l.262.264a.267.267,0,0,1,0,.379A.263.263,0,0,1,23.884,27.825Z"/><path class="cls-1" d="M22.886,28.55a.269.269,0,0,1-.252-.176l-.127-.35a.268.268,0,0,1,.5-.183l.127.349a.27.27,0,0,1-.16.344A.274.274,0,0,1,22.886,28.55Z"/><path class="cls-1" d="M26.091,26.61a.268.268,0,0,1-.19-.078l-.262-.263a.268.268,0,1,1,.379-.379l.262.263a.267.267,0,0,1,0,.379A.263.263,0,0,1,26.091,26.61Z"/><path class="cls-1" d="M27.726,25.288a.265.265,0,0,1-.19-.078l-.264-.263a.268.268,0,0,1,.379-.379l.264.263a.268.268,0,0,1-.189.457Z"/><path class="cls-1" d="M28.967,23.734a.27.27,0,0,1-.19-.078l-.263-.263a.268.268,0,1,1,.379-.379l.263.263a.268.268,0,0,1-.189.457Z"/><path class="cls-1" d="M30.636,21.264a.27.27,0,0,1-.19-.078l-.263-.264a.268.268,0,0,1,.379-.379l.263.264a.268.268,0,0,1-.189.457Z"/><path class="cls-1" d="M30.131,19.981a.27.27,0,0,1-.19-.078l-.263-.263a.268.268,0,1,1,.379-.379l.263.263a.266.266,0,0,1,0,.378A.263.263,0,0,1,30.131,19.981Z"/><path class="cls-1" d="M29.853,22.047a.265.265,0,0,1-.19-.079l-.263-.263a.268.268,0,1,1,.379-.378l.263.263a.268.268,0,0,1-.189.457Z"/><path class="cls-1" d="M13.318,23.312a.268.268,0,0,1-.189-.457l.263-.263a.268.268,0,0,1,.379.379l-.263.263A.268.268,0,0,1,13.318,23.312Z"/><path class="cls-1" d="M14.385,24.98a.265.265,0,0,1-.19-.078.269.269,0,0,1,0-.379l.263-.263a.268.268,0,1,1,.379.379l-.263.263A.267.267,0,0,1,14.385,24.98Z"/><path class="cls-1" d="M15.975,26.57a.268.268,0,0,1-.19-.457l.264-.262a.268.268,0,1,1,.379.378l-.264.263A.265.265,0,0,1,15.975,26.57Z"/><path class="cls-1" d="M18.128,27.825a.268.268,0,0,1-.19-.457L18.2,27.1a.271.271,0,0,1,.379,0,.267.267,0,0,1,0,.379l-.264.264A.267.267,0,0,1,18.128,27.825Z"/><path class="cls-1" d="M19.433,27.825a.268.268,0,0,1-.19-.457l.264-.264a.268.268,0,0,1,.379.379l-.264.264A.269.269,0,0,1,19.433,27.825Z"/><path class="cls-1" d="M20.431,28.55a.246.246,0,0,1-.092-.017.266.266,0,0,1-.159-.343l.128-.349a.262.262,0,0,1,.342-.159.266.266,0,0,1,.16.342l-.128.35A.268.268,0,0,1,20.431,28.55Z"/><path class="cls-1" d="M17.226,26.61a.268.268,0,0,1-.19-.457l.264-.263a.268.268,0,0,1,.379.379l-.264.263A.269.269,0,0,1,17.226,26.61Z"/><path class="cls-1" d="M15.592,25.288a.268.268,0,0,1-.19-.457l.264-.263a.268.268,0,0,1,.379.379l-.264.263A.263.263,0,0,1,15.592,25.288Z"/><path class="cls-1" d="M14.35,23.734a.268.268,0,0,1-.19-.457l.264-.263a.268.268,0,1,1,.379.379l-.264.263A.269.269,0,0,1,14.35,23.734Z"/><path class="cls-1" d="M12.682,21.264a.267.267,0,0,1-.19-.456l.263-.264a.268.268,0,1,1,.379.378l-.263.264A.267.267,0,0,1,12.682,21.264Z"/><path class="cls-1" d="M13.187,19.981a.268.268,0,0,1-.19-.457l.263-.263a.268.268,0,1,1,.379.378l-.263.263A.264.264,0,0,1,13.187,19.981Z"/><path class="cls-1" d="M13.464,22.047a.269.269,0,0,1-.19-.458l.264-.263a.268.268,0,0,1,.379.379l-.264.263A.264.264,0,0,1,13.464,22.047Z"/><path class="cls-4" d="M21.654,9.374a9.794,9.794,0,1,1-9.794,9.793,9.8,9.8,0,0,1,9.794-9.793m0-.974A10.768,10.768,0,1,0,32.421,19.167,10.767,10.767,0,0,0,21.654,8.4Z"/><path class="cls-1" d="M22.308,27.706a.271.271,0,0,1-.079-.012,3.024,3.024,0,0,0-.886-.132H20.8a.268.268,0,1,1,0-.535h.545a3.549,3.549,0,0,1,1.043.157.267.267,0,0,1-.078.523Z"/><path class="cls-7" d="M25.223,4.742h0q-1.293.177-2.594.241A20.263,20.263,0,0,1,18.1,4.746l-.059-.008A2.679,2.679,0,0,0,15,7.392l-.487,4.84H28.753l-.487-3.087V7.4A2.678,2.678,0,0,0,25.223,4.742Z"/><path class="cls-8" d="M25.223,4.742h0q-1.293.177-2.594.241c0,.031,0,.061,0,.092A4.07,4.07,0,0,0,26.7,9.145h1.571V7.4A2.678,2.678,0,0,0,25.223,4.742Z"/><path class="cls-4" d="M26.7,9.412a4.342,4.342,0,0,1-4.337-4.337.268.268,0,0,1,.536,0,3.806,3.806,0,0,0,3.8,3.8.268.268,0,1,1,0,.535Z"/><path class="cls-8" d="M18.046,4.255h0q1.291.177,2.594.241c0,.031,0,.061,0,.092a4.07,4.07,0,0,1-4.069,4.07H15V6.909A2.678,2.678,0,0,1,18.046,4.255Z"/><path class="cls-4" d="M16.573,8.925a.268.268,0,0,1,0-.535,3.806,3.806,0,0,0,3.8-3.8.268.268,0,0,1,.535,0A4.341,4.341,0,0,1,16.573,8.925Z"/><path class="cls-4" d="M28.752,12.378a.486.486,0,0,1-.483-.438L27.781,7.1a2.228,2.228,0,0,0-.754-1.7,2.18,2.18,0,0,0-1.738-.52,23.484,23.484,0,0,1-7.252,0,2.228,2.228,0,0,0-1.8.512,2.194,2.194,0,0,0-.751,1.651L15,11.8a.5.5,0,0,1-.534.434.487.487,0,0,1-.435-.534L14.519,7A3.128,3.128,0,0,1,15.6,4.667a3.172,3.172,0,0,1,2.508-.752,22.727,22.727,0,0,0,7.048,0,3.165,3.165,0,0,1,3.6,3.137l.485,4.787a.485.485,0,0,1-.435.533A.419.419,0,0,1,28.752,12.378Z"/><path class="cls-4" d="M16.658,7.7a.268.268,0,0,1-.189-.457l1.283-1.284a.268.268,0,0,1,.379.379L16.848,7.625A.27.27,0,0,1,16.658,7.7Z"/><path class="cls-4" d="M17.765,7.836a.268.268,0,0,1-.19-.457l.8-.8a.268.268,0,1,1,.379.379l-.8.8A.269.269,0,0,1,17.765,7.836Z"/><path class="cls-9" d="M21.885,18.682a.227.227,0,0,1-.063-.008l-.829-.2a.9.9,0,0,1-.652-1.144l.924-2.5a.268.268,0,1,1,.5.185L20.848,17.5a.357.357,0,0,0,.037.277.367.367,0,0,0,.233.176l.829.2a.268.268,0,0,1-.062.528Z"/><path class="cls-4" d="M27.494,14.888h-.017l-4.835-.325a.27.27,0,0,1-.187-.094.265.265,0,0,1-.062-.2l.059-.632a.262.262,0,0,1,.292-.242.268.268,0,0,1,.241.292l-.034.358,4.561.307a.268.268,0,0,1-.018.535Z"/><path class="cls-4" d="M15.74,15.129a.268.268,0,0,1-.031-.534l4.521-.538-.1-.587a.267.267,0,0,1,.527-.091l.149.865a.267.267,0,0,1-.233.311l-4.8.572Z"/><path class="cls-4" d="M21.54,14.354a.268.268,0,0,1-.268-.267V13.014a.268.268,0,0,1,.536,0v1.073A.267.267,0,0,1,21.54,14.354Z"/><path class="cls-4" d="M15.435,13.55a7.44,7.44,0,0,0,.51-.668,4.664,4.664,0,0,0,.6-1.4c.069-.255.084-.524.147-.832a1.706,1.706,0,0,1,.3.862,1.968,1.968,0,0,1-.723,1.674A1.569,1.569,0,0,1,15.435,13.55Z"/><path class="cls-4" d="M17.291,13.268a7.41,7.41,0,0,0,.361-.759,4.728,4.728,0,0,0,.212-.735,4.788,4.788,0,0,0,.09-.759c.015-.264-.026-.53-.028-.844a1.7,1.7,0,0,1,.472.781,1.945,1.945,0,0,1,.038.938,1.966,1.966,0,0,1-.4.849A1.574,1.574,0,0,1,17.291,13.268Z"/><path class="cls-4" d="M31.353,12.573h-.01l-19.625-.39a.486.486,0,0,1-.477-.5.511.511,0,0,1,.5-.478l19.625.39a.487.487,0,0,1-.009.974Z"/><path class="cls-4" d="M21.654,38.2A19.025,19.025,0,0,1,2.619,19.167V16.976a4.433,4.433,0,0,0-.12-1.295,4.048,4.048,0,0,0-.481-.853c-.35-.523-.71-1.064-.551-1.6a1.053,1.053,0,0,1,.644-.661,1.594,1.594,0,0,1,.743-.138c-.073-.256-.152-.537-.227-.818C2.2,10.038,2.484,9.668,3.676,9.217a1.318,1.318,0,0,1,1.1.071A2.937,2.937,0,0,1,5.864,10.51l0-.117c.041-1.146.1-2.715,1.622-2.715a1.433,1.433,0,0,1,1.07.484c1.014,1.1.976,3.972.922,5.06a2.49,2.49,0,0,1,1.7,1.89,2.416,2.416,0,0,1-.737,2.129,2.722,2.722,0,0,0-.355.467,2.854,2.854,0,0,0-.268,1.459,11.83,11.83,0,1,0,23.659,0,2.889,2.889,0,0,0-.273-1.442,2.666,2.666,0,0,0-.364-.484,2.417,2.417,0,0,1-.736-2.13,2.222,2.222,0,0,1,1.473-1.834c.276-.55,1.075-1.909,2.22-1.909a1.852,1.852,0,0,1,1.393.621,1.637,1.637,0,0,1,1.206-.44,1.84,1.84,0,0,1,1.677,1.082,1.5,1.5,0,0,1,1.072.263,2.632,2.632,0,0,1,.561,3.155,2.676,2.676,0,0,1-1.023,1.107v2.011A19.025,19.025,0,0,1,21.654,38.2ZM2.773,13.4a.693.693,0,0,0-.277.061.291.291,0,0,0-.1.062,3.376,3.376,0,0,0,.436.765,4.617,4.617,0,0,1,.6,1.092A5.3,5.3,0,0,1,3.593,17v2.167A18.078,18.078,0,0,0,14.623,35.808a18.2,18.2,0,0,0,14.063,0,18.052,18.052,0,0,0,11.03-16.641V16.861a.486.486,0,0,1,.312-.454,1.721,1.721,0,0,0,.807-.782,1.774,1.774,0,0,0-.2-1.907c-.249-.157-.4-.149-.452-.1a.477.477,0,0,1-.493.176.491.491,0,0,1-.361-.4c-.017-.087-.2-.879-.926-.879-.535,0-.648.264-.65.484a.488.488,0,0,1-.948.162c-.011-.031-.3-.827-1-.827-.571,0-1.207,1.033-1.426,1.533a.488.488,0,0,1-.352.282,1.267,1.267,0,0,0-.95,1.092,1.453,1.453,0,0,0,.5,1.351,3.424,3.424,0,0,1,.483.653,3.778,3.778,0,0,1,.4,1.936,12.8,12.8,0,0,1-25.6-.021A3.5,3.5,0,0,1,9.265,17.2a3.138,3.138,0,0,1,.45-.6,1.458,1.458,0,0,0,.5-1.352c-.128-.915-1.339-1.2-1.351-1.2a.489.489,0,0,1-.38-.513C8.6,12.1,8.526,9.56,7.845,8.823a.453.453,0,0,0-.354-.172c-.47,0-.6.349-.649,1.776l-.012.315a18.2,18.2,0,0,1-.189,1.982.488.488,0,0,1-.462.406.493.493,0,0,1-.491-.37c-.209-.843-.763-2.3-1.36-2.611a.348.348,0,0,0-.307-.022c-.713.27-.713.27-.455,1.229.245.9.522,1.815.522,1.815a.487.487,0,0,1-.846.446A.639.639,0,0,0,2.773,13.4Z"/><path class="cls-4" d="M37.677,28.783a.261.261,0,0,1-.148-.044L32.318,25.3a.269.269,0,0,1-.076-.371.266.266,0,0,1,.371-.076l5.211,3.438a.269.269,0,0,1,.076.371A.265.265,0,0,1,37.677,28.783Z"/><path class="cls-4" d="M35.788,31.447a.27.27,0,0,1-.164-.055l-4.86-3.771a.268.268,0,1,1,.328-.424l4.86,3.771a.267.267,0,0,1-.164.479Z"/><path class="cls-4" d="M7.654,31.447a.267.267,0,0,1-.164-.479L12.351,27.2a.268.268,0,0,1,.328.424L7.818,31.392A.268.268,0,0,1,7.654,31.447Z"/><path class="cls-4" d="M5.632,28.783a.268.268,0,0,1-.148-.491L10.7,24.854a.268.268,0,1,1,.295.447L5.779,28.739A.256.256,0,0,1,5.632,28.783Z"/><path class="cls-4" d="M33.688,28.375a.269.269,0,0,1-.155-.049l-2.054-1.448a.268.268,0,0,1,.309-.438l2.054,1.449a.268.268,0,0,1-.154.486Z"/><path class="cls-4" d="M10.085,28.119a.267.267,0,0,1-.158-.483l1.857-1.359a.268.268,0,0,1,.317.432l-1.858,1.358A.26.26,0,0,1,10.085,28.119Z"/><path class="cls-4" d="M8.607,28.049a.268.268,0,0,1-.153-.487l2.637-1.846a.268.268,0,1,1,.306.439L8.761,28A.272.272,0,0,1,8.607,28.049Z"/><path class="cls-4" d="M25.5,34.865a.289.289,0,0,1-.091-.015l-2.323-.833a.268.268,0,0,1-.1-.442l3.254-3.255a.271.271,0,0,1,.379,0,.267.267,0,0,1,0,.379l-2.955,2.956,1.719.616,1.191-1.986a.268.268,0,1,1,.459.276l-1.3,2.174A.265.265,0,0,1,25.5,34.865Z"/><path class="cls-4" d="M18.015,34.865h-.027a.271.271,0,0,1-.2-.116L17.287,34a.268.268,0,1,1,.443-.3l.326.48L19,33.243,16.458,30.7a.268.268,0,0,1,.379-.379l2.735,2.735a.269.269,0,0,1,.078.19.266.266,0,0,1-.079.19L18.2,34.788A.267.267,0,0,1,18.015,34.865Z"/><path class="cls-4" d="M23.179,38.038a.268.268,0,0,1-.268-.267V33.765a.268.268,0,1,1,.535,0v4.006A.268.268,0,0,1,23.179,38.038Z"/><path class="cls-4" d="M19.9,37.551a.268.268,0,0,1-.265-.234l-.52-4.039a.268.268,0,0,1,.232-.3.262.262,0,0,1,.3.231l.52,4.039a.268.268,0,0,1-.231.3Z"/><polygon class="cls-4" points="16.291 36.824 14.516 36.242 15.003 29.538 16.648 30.51 16.291 36.824"/><path class="cls-4" d="M4.521,17.574a2.19,2.19,0,0,1-1.4-.505l-2.3-1.9a2.211,2.211,0,0,1-.3-3.108l1.408-1.71a2.979,2.979,0,0,1,4.19-.406h0l1.116.92a2.975,2.975,0,0,1,.406,4.189l-1.408,1.71a2.2,2.2,0,0,1-1.492.794C4.665,17.57,4.593,17.574,4.521,17.574Zm-.294-7.33c-.066,0-.131,0-.2.009a1.991,1.991,0,0,0-1.353.721l-1.408,1.71a1.236,1.236,0,0,0,.168,1.738l2.3,1.9a1.235,1.235,0,0,0,1.738-.168l1.407-1.71a2,2,0,0,0-.273-2.819L5.5,10.7A1.989,1.989,0,0,0,4.227,10.244Z"/><path class="cls-4" d="M7.785,13.541A4.48,4.48,0,0,1,4.336,6.214h0a4.479,4.479,0,1,1,3.889,7.305A4.336,4.336,0,0,1,7.785,13.541ZM7.8,5.558A3.5,3.5,0,0,0,5.088,6.833h0A3.508,3.508,0,1,0,7.8,5.558Zm-3.084.966h0Z"/><path class="cls-10" d="M3.059,10.065a2.485,2.485,0,0,0-.724.6L.927,12.374A1.72,1.72,0,0,0,1.161,14.8l2.3,1.9a1.722,1.722,0,0,0,2.423-.235L7.3,14.749a2.491,2.491,0,0,0,.419-.732,4.548,4.548,0,0,1-4.655-3.952Z"/><path class="cls-11" d="M6.956,11.245l-1.117-.92a2.489,2.489,0,0,0-2.78-.26,4.548,4.548,0,0,0,4.655,3.952A2.491,2.491,0,0,0,6.956,11.245Z"/><path class="cls-4" d="M6.007,16.533a.22.22,0,0,1-.14-.051l-.421-.346a.941.941,0,0,1-.127-1.322l.849-1.031a.219.219,0,1,1,.338.278l-.849,1.031a.5.5,0,0,0,.069.706l.42.347a.219.219,0,0,1-.139.388Z"/><path class="cls-4" d="M1.925,12.958a.937.937,0,0,1-.6-.213L.907,12.4a.219.219,0,1,1,.28-.337l.42.346a.5.5,0,0,0,.7-.068l.85-1.031a.219.219,0,1,1,.338.278l-.85,1.032A.936.936,0,0,1,1.925,12.958Z"/><path class="cls-8" d="M2.788,13.79h0A1.807,1.807,0,0,0,4.141,14.9h0L3.027,16.257,1.674,15.142Z"/><path class="cls-4" d="M4.555,17.354A1.967,1.967,0,0,1,3.3,16.9L.991,15A1.992,1.992,0,0,1,.72,12.2l1.408-1.71a2.755,2.755,0,0,1,3.881-.375l1.117.92A2.756,2.756,0,0,1,7.5,14.92L6.094,16.63a1.976,1.976,0,0,1-1.343.715A1.836,1.836,0,0,1,4.555,17.354Zm-.294-7.329a1.989,1.989,0,0,0-.218.011,2.2,2.2,0,0,0-1.5.8l-1.408,1.71a1.455,1.455,0,0,0,.2,2.046l2.3,1.9a1.453,1.453,0,0,0,2.045-.2l1.408-1.711a2.221,2.221,0,0,0-.3-3.127l-1.117-.92h0A2.2,2.2,0,0,0,4.261,10.025Z"/><circle class="cls-10" cx="7.827" cy="9.061" r="3.992"/><path class="cls-4" d="M7.82,13.078a4.016,4.016,0,0,1-3.092-6.57l.018.016-.018-.016a4.016,4.016,0,1,1,3.487,6.551C8.082,13.072,7.951,13.078,7.82,13.078ZM7.831,5.1A3.959,3.959,0,0,0,4.765,6.54h0A3.967,3.967,0,0,0,7.82,13.029q.194,0,.39-.018A3.967,3.967,0,0,0,7.831,5.1Z"/><path class="cls-4" d="M7.819,13.321a4.259,4.259,0,0,1-3.28-6.967h0a4.26,4.26,0,1,1,3.7,6.947C8.1,13.315,7.958,13.321,7.819,13.321Zm.015-7.984c-.121,0-.243.006-.365.017a3.7,3.7,0,0,0-2.516,1.34h0A3.723,3.723,0,1,0,7.834,5.337ZM4.746,6.524h0Z"/><path class="cls-8" d="M5.648,7.267a2.823,2.823,0,0,0,4.358,3.589Z"/><path class="cls-10" d="M6.589,8.638h.52a0,0,0,0,1,0,0V8.9a.26.26,0,0,1-.26.26h0a.26.26,0,0,1-.26-.26v-.26A0,0,0,0,1,6.589,8.638Z" transform="translate(7.218 -2.325) rotate(39.471)"/><path class="cls-10" d="M7.286,9.212h.52a0,0,0,0,1,0,0v.26a.26.26,0,0,1-.26.26h0a.26.26,0,0,1-.26-.26v-.26A0,0,0,0,1,7.286,9.212Z" transform="translate(7.742 -2.637) rotate(39.471)"/><path class="cls-10" d="M7.982,9.786H8.5a0,0,0,0,1,0,0v.26a.26.26,0,0,1-.26.26h0a.26.26,0,0,1-.26-.26v-.26a0,0,0,0,1,0,0Z" transform="translate(8.266 -2.949) rotate(39.471)"/><path class="cls-10" d="M8.679,10.359H9.2a0,0,0,0,1,0,0v.26a.26.26,0,0,1-.26.26h0a.26.26,0,0,1-.26-.26v-.26A0,0,0,0,1,8.679,10.359Z" transform="translate(8.789 -3.261) rotate(39.472)"/><path class="cls-10" d="M5.825,8.009h.52a0,0,0,0,1,0,0v.26a.26.26,0,0,1-.26.26h0a.26.26,0,0,1-.26-.26v-.26A0,0,0,0,1,5.825,8.009Z" transform="translate(6.644 -1.982) rotate(39.472)"/><path class="cls-5" d="M10.171,6.8a.1.1,0,0,1-.07-.03A3.147,3.147,0,0,0,7.88,5.8H7.815a3.148,3.148,0,0,0-2.193.884.1.1,0,0,1-.138,0,.1.1,0,0,1,0-.137,3.364,3.364,0,0,1,4.754.094.1.1,0,0,1,0,.138A.1.1,0,0,1,10.171,6.8Z"/><path class="cls-5" d="M1.849,12.19a.093.093,0,0,1-.063-.023.1.1,0,0,1-.012-.137l.779-.919a.1.1,0,0,1,.136-.011.1.1,0,0,1,.012.137l-.778.919A.1.1,0,0,1,1.849,12.19Z"/><path class="cls-5" d="M1.3,14.117a.1.1,0,0,1-.089-.058,1.316,1.316,0,0,1-.018-1,.1.1,0,0,1,.182.072,1.118,1.118,0,0,0,.014.854.1.1,0,0,1-.05.129A.109.109,0,0,1,1.3,14.117Z"/><path class="cls-1" d="M9.209,13.619s-2.118-.8-2.7.412,1.565,1.806,1.565,1.806"/><path class="cls-4" d="M8.072,16.324a.485.485,0,0,1-.13-.018,3.21,3.21,0,0,1-1.906-1.333,1.327,1.327,0,0,1,.032-1.154c.615-1.268,2.37-1.01,3.312-.656a.487.487,0,0,1-.342.912c-.016-.007-1.722-.6-2.093.168a.355.355,0,0,0-.022.328c.171.378.936.7,1.28.8a.487.487,0,0,1-.131.956Z"/><polygon class="cls-4" points="28.266 9.799 15.003 9.799 14.516 12.232 28.753 12.232 28.266 9.799"/></svg>