<svg xmlns="http://www.w3.org/2000/svg" viewBox="0 0 42 42"><defs><style>.cls-1{isolation:isolate;}.cls-2{fill:#6a3f24;}.cls-3{fill:#502c1e;}.cls-4{fill:#c47c5a;}.cls-5{mix-blend-mode:multiply;}.cls-6{fill:#fff;}.cls-7{fill:none;}.cls-8{fill:#009ade;}.cls-9{fill:#ffb71b;}.cls-10{fill:#fcdc3e;}.cls-11{fill:#fed925;}</style></defs><title>Mr-Buddy</title><g class="cls-1"><g id="Buddy"><polygon class="cls-2" points="17.691 4.163 18.158 4.324 18.548 4.124 18.938 4.324 19.328 4.124 19.716 4.324 20.106 4.124 20.497 4.324 20.886 4.124 21.273 4.324 21.661 4.124 22.051 4.324 22.444 4.124 22.835 4.324 23.229 4.124 23.623 4.324 24.019 4.124 24.336 4.287 24.455 4.655 24.198 5.046 24.338 5.494 24.081 5.885 24.22 6.331 23.963 6.722 24.103 7.171 23.846 7.561 23.986 8.005 23.729 8.394 23.868 8.842 23.611 9.236 23.75 9.685 23.493 10.08 23.631 10.532 23.374 10.93 23.492 11.43 23.142 11.269 22.87 11.469 22.597 11.269 22.325 11.469 22.058 11.269 21.788 11.469 21.514 11.269 21.242 11.469 20.971 11.269 20.7 11.469 20.426 11.269 20.151 11.469 19.88 11.269 19.608 11.469 19.33 11.269 19.05 11.469 18.849 11.306 18.614 10.966 18.753 10.519 18.496 10.127 18.636 9.68 18.379 9.29 18.519 8.843 18.261 8.45 18.401 8.004 18.144 7.616 18.284 7.171 18.027 6.779 18.166 6.33 17.909 5.936 18.048 5.485 17.79 5.089 17.928 4.628 17.691 4.163"/><path class="cls-3" d="M20.7,12.22a.745.745,0,0,1-.274-.052.746.746,0,0,1-.546,0,.751.751,0,0,1-.55,0,.75.75,0,0,1-.751-.114l-.2-.163a.766.766,0,0,1-.145-.156L18,11.394a.751.751,0,0,1-.1-.652l.035-.108-.063-.1a.753.753,0,0,1-.089-.636l.033-.107-.06-.093a.751.751,0,0,1-.09-.637l.034-.108-.063-.1a.757.757,0,0,1-.088-.635l.033-.105-.06-.091a.753.753,0,0,1-.09-.639l.033-.105L17.4,7.191a.749.749,0,0,1-.089-.633l.035-.113-.065-.1a.751.751,0,0,1-.089-.631l.036-.115-.067-.1a.757.757,0,0,1-.09-.625l.052-.172-.1-.2a.751.751,0,0,1,.914-1.051l.165.057.1-.054a.754.754,0,0,1,.686,0l.047.024.045-.023a.75.75,0,0,1,.687,0l.047.024.045-.023a.746.746,0,0,1,.685,0l.049.024.046-.023a.746.746,0,0,1,.688,0l.043.022.043-.022a.752.752,0,0,1,.688,0l.048.024.051-.025a.746.746,0,0,1,.682,0l.051.025.054-.026a.748.748,0,0,1,.68,0l.054.027.056-.028a.747.747,0,0,1,.681,0l.319.163a.756.756,0,0,1,.372.439l.118.368a.752.752,0,0,1-.087.641l-.062.095.034.109a.751.751,0,0,1-.09.637L24.9,6l.034.105a.751.751,0,0,1-.089.639l-.063.094.034.109a.742.742,0,0,1-.09.636l-.06.093.032.1a.748.748,0,0,1-.089.639l-.06.092.033.108a.755.755,0,0,1-.088.634l-.064.1.035.112a.752.752,0,0,1-.089.631l-.066.1.037.116a.754.754,0,0,1-.088.63l-.083.128.044.189a.75.75,0,0,1-1,.873.746.746,0,0,1-.626.038.743.743,0,0,1-.541,0,.743.743,0,0,1-.541,0,.754.754,0,0,1-.545,0A.75.75,0,0,1,20.7,12.22Zm-1.2-1.681a.685.685,0,0,1,.1.032.744.744,0,0,1,.549,0,.754.754,0,0,1,.545,0,.754.754,0,0,1,.545,0,.748.748,0,0,1,.543,0,.748.748,0,0,1,.541,0,.759.759,0,0,1,.41-.037l.007-.01.067-.1-.037-.116a.752.752,0,0,1,.089-.631l.066-.1-.035-.112a.75.75,0,0,1,.088-.632l.064-.1-.034-.11a.75.75,0,0,1,.09-.638l.06-.09-.032-.1a.752.752,0,0,1,.089-.639l.061-.093-.034-.11a.749.749,0,0,1,.09-.636l.061-.093-.033-.106a.752.752,0,0,1,.089-.639l.062-.093-.034-.108a.766.766,0,0,1-.034-.216.745.745,0,0,1-.165-.06l-.053-.028-.054.028a.755.755,0,0,1-.682,0l-.05-.026-.051.026a.747.747,0,0,1-.684,0l-.046-.023-.044.022a.743.743,0,0,1-.689,0l-.043-.022-.045.023a.748.748,0,0,1-.686,0l-.049-.025-.045.024a.75.75,0,0,1-.687,0l-.047-.024-.045.024a.747.747,0,0,1-.646.019l.042.065a.753.753,0,0,1,.088.63l-.036.114.065.1a.754.754,0,0,1,.089.632l-.035.112.063.1A.749.749,0,0,1,19,7.4l-.033.1.06.09a.752.752,0,0,1,.09.639l-.034.107.063.1a.748.748,0,0,1,.088.634l-.033.107.061.093a.752.752,0,0,1,.09.637l-.035.108.063.095A.751.751,0,0,1,19.5,10.539Z"/><circle class="cls-4" cx="21.092" cy="18.703" r="10.158"/><path class="cls-3" d="M30.485,14.792l-1.775.273a8.44,8.44,0,1,1-15.236,0L11.7,14.792c-.806,1.456-.764,2.129-.764,3.911a10.158,10.158,0,1,0,20.315,0C31.25,16.921,31.291,16.248,30.485,14.792Z"/><path class="cls-3" d="M31.21,17.8H10.975c-.026.3-.04.6-.04.9a10.158,10.158,0,1,0,20.315,0C31.25,18.4,31.236,18.1,31.21,17.8ZM21.092,27.143a8.44,8.44,0,0,1-8.44-8.44c0-.123,0-.246.008-.368H29.524c.006.122.009.245.009.368A8.441,8.441,0,0,1,21.092,27.143Z"/><path class="cls-4" d="M2.019,18.7a19.077,19.077,0,0,0,36.646,7.425,18.95,18.95,0,0,0,1.5-7.425V16.332a2.279,2.279,0,0,0,.711-3.657c-.762-.478-1.117.007-1.117.007s-.243-1.313-1.445-1.313-1.168,1.005-1.168,1.005a1.744,1.744,0,0,0-1.505-1.191c-1.1,0-1.924,1.875-1.924,1.875A1.826,1.826,0,0,0,32.34,14.6c-.184,1.307.693,1.659,1.068,2.365a3.376,3.376,0,0,1,.35,1.736,12.666,12.666,0,0,1-25.331,0,3.227,3.227,0,0,1,.334-1.736c.375-.706,1.252-1.058,1.068-2.365s-1.777-1.655-1.777-1.655.442-5.559-1.525-5.559c-1.183,0-1.124,1.351-1.179,2.629a17.734,17.734,0,0,1-.189,1.977s-.1-.625-1.3-.625S2.41,12.682,2.41,12.682a.928.928,0,0,0-1.217-.308c-1.087.468-.681,2.165-.225,3.107a1.852,1.852,0,0,0,1.051.968Z"/><path class="cls-3" d="M21.092,8.632A10.071,10.071,0,1,1,11.021,18.7,10.082,10.082,0,0,1,21.092,8.632m0-1A11.073,11.073,0,1,0,32.165,18.7,11.073,11.073,0,0,0,21.092,7.63Z"/><path class="cls-3" d="M21.092,17.617a1.353,1.353,0,0,1-1.352-1.351V15.8a.4.4,0,0,1,.8,0v.463a.551.551,0,0,0,1.1,0V15.8a.4.4,0,1,1,.8,0v.463A1.352,1.352,0,0,1,21.092,17.617Z"/><path class="cls-3" d="M21.992,15h-1.8a.4.4,0,0,1,0-.8h1.8a.4.4,0,1,1,0,.8Z"/><path class="cls-3" d="M21.092,14.077a.4.4,0,0,1-.4-.4V12.424a.4.4,0,0,1,.8,0v1.252A.4.4,0,0,1,21.092,14.077Z"/><path class="cls-3" d="M22.573,13.476a.275.275,0,0,1-.062-.543l3.529-.827a.276.276,0,1,1,.125.537l-3.529.826A.27.27,0,0,1,22.573,13.476Z"/><path class="cls-3" d="M19.232,13.476a.262.262,0,0,1-.062-.007l-3.529-.826a.276.276,0,1,1,.125-.537l3.529.827a.275.275,0,0,1-.063.543Z"/><g class="cls-5"><path class="cls-4" d="M14.594,15.8a1.968,1.968,0,0,1,2.038-2.127,2.265,2.265,0,0,1,2.238,2.291c0,1.265-1,1.319-2.238,1.319S14.594,17.069,14.594,15.8Z"/></g><path class="cls-6" d="M15.291,15.628a1.652,1.652,0,1,1,3.3,0c0,.913-.74.951-1.652.951S15.291,16.541,15.291,15.628Z"/><path class="cls-3" d="M16.943,16.9c-.787,0-1.977,0-1.977-1.276a1.977,1.977,0,0,1,3.954,0C18.92,16.9,17.73,16.9,16.943,16.9Zm0-2.6a1.329,1.329,0,0,0-1.327,1.327c0,.515.236.626,1.327.626s1.327-.111,1.327-.626A1.329,1.329,0,0,0,16.943,14.3Z"/><path class="cls-3" d="M18.87,15.178a.563.563,0,0,1-.146-.019l-.279-.074a15.536,15.536,0,0,0-4.174-.505.608.608,0,0,1-.583-.567.575.575,0,0,1,.566-.585,16.807,16.807,0,0,1,4.484.544l.279.073a.576.576,0,0,1-.147,1.133Z"/><circle class="cls-3" cx="16.993" cy="15.378" r="0.776"/><g class="cls-5"><path class="cls-4" d="M27.624,15.8a1.968,1.968,0,0,0-2.038-2.127,2.265,2.265,0,0,0-2.239,2.291c0,1.265,1,1.319,2.239,1.319S27.624,17.069,27.624,15.8Z"/></g><path class="cls-6" d="M26.927,15.628a1.652,1.652,0,0,0-3.3,0c0,.913.739.951,1.652.951S26.927,16.541,26.927,15.628Z"/><path class="cls-3" d="M25.274,16.9c-.787,0-1.976,0-1.976-1.276a1.977,1.977,0,1,1,3.954,0C27.252,16.9,26.062,16.9,25.274,16.9Zm0-2.6a1.329,1.329,0,0,0-1.326,1.327c0,.515.236.626,1.326.626s1.328-.111,1.328-.626A1.33,1.33,0,0,0,25.274,14.3Z"/><path class="cls-3" d="M23.348,15.178a.576.576,0,0,1-.147-1.133l.278-.073a16.849,16.849,0,0,1,4.485-.544.575.575,0,0,1,.566.585.6.6,0,0,1-.584.567,15.509,15.509,0,0,0-4.174.505l-.278.074A.568.568,0,0,1,23.348,15.178Z"/><circle class="cls-3" cx="25.225" cy="15.378" r="0.776"/><path class="cls-3" d="M13.333,18.7a7.76,7.76,0,0,0,15.519,0Z"/><path class="cls-6" d="M19.891,18.7h1.2a0,0,0,0,1,0,0V19.78a.124.124,0,0,1-.124.124h-.953a.124.124,0,0,1-.124-.124V18.7a0,0,0,0,1,0,0Z"/><path class="cls-6" d="M18.691,18.7h1.2a0,0,0,0,1,0,0V19.78a.124.124,0,0,1-.124.124h-.953a.124.124,0,0,1-.124-.124V18.7A0,0,0,0,1,18.691,18.7Z"/><path class="cls-6" d="M17.49,18.7h1.2a0,0,0,0,1,0,0V19.78a.124.124,0,0,1-.124.124h-.953a.124.124,0,0,1-.124-.124V18.7a0,0,0,0,1,0,0Z"/><path class="cls-6" d="M16.289,18.7h1.2a0,0,0,0,1,0,0v.728a.124.124,0,0,1-.124.124h-.953a.124.124,0,0,1-.124-.124V18.7A0,0,0,0,1,16.289,18.7Z"/><path class="cls-6" d="M21.092,18.7h1.2a0,0,0,0,1,0,0V19.78a.124.124,0,0,1-.124.124h-.953a.124.124,0,0,1-.124-.124V18.7A0,0,0,0,1,21.092,18.7Z"/><path class="cls-6" d="M22.293,18.7h1.2a0,0,0,0,1,0,0V19.78a.124.124,0,0,1-.124.124h-.953a.124.124,0,0,1-.124-.124V18.7a0,0,0,0,1,0,0Z"/><path class="cls-6" d="M23.494,18.7h1.2a0,0,0,0,1,0,0V19.78a.124.124,0,0,1-.124.124h-.953a.124.124,0,0,1-.124-.124V18.7A0,0,0,0,1,23.494,18.7Z"/><path class="cls-6" d="M24.695,18.7h1.2a0,0,0,0,1,0,0v.728a.124.124,0,0,1-.124.124h-.953a.124.124,0,0,1-.124-.124V18.7A0,0,0,0,1,24.695,18.7Z"/><path class="cls-7" d="M21.828,22.823l-.02,0,.011,0Z"/><path class="cls-7" d="M20.377,22.82l-.021,0,.01,0Z"/><path class="cls-8" d="M16.5,31.513v.4a1.866,1.866,0,0,1,.112.308h.516A5.846,5.846,0,0,1,16.5,31.513Z"/><path class="cls-8" d="M17.817,32.219h.568A4.919,4.919,0,0,1,16.9,30.66c-.134-.046-.267-.095-.4-.146V30.7A5.354,5.354,0,0,0,17.817,32.219Z"/><path class="cls-8" d="M23.593,31.122a12.811,12.811,0,0,1-5,0,3.867,3.867,0,0,0,5,0Z"/><path class="cls-8" d="M25.936,31.57v-.424a5.762,5.762,0,0,1-.882,1.073h.516a1.433,1.433,0,0,1,.217-.485A1.183,1.183,0,0,1,25.936,31.57Z"/><path class="cls-8" d="M23.8,32.219h.569a5.341,5.341,0,0,0,1.442-1.757q-.261.105-.527.2A4.912,4.912,0,0,1,23.8,32.219Z"/><path class="cls-8" d="M25.936,31.146v.424a2.086,2.086,0,0,1,.269-.2l.06-.039c0-.024,0-.051,0-.072a1.27,1.27,0,0,1,.407-.993l.048-.053c0-.023-.01-.048-.015-.068l-.017-.077c-.088.044-.177.086-.267.128A5.667,5.667,0,0,1,25.936,31.146Z"/><path class="cls-8" d="M16.5,30.514l-.128-.051c.041.08.084.158.128.236Z"/><path class="cls-8" d="M21.092,33.04a4.858,4.858,0,0,1-2.707-.821h-.568a5.283,5.283,0,0,0,6.551,0H23.8A4.856,4.856,0,0,1,21.092,33.04Z"/><path class="cls-8" d="M21.092,33.807a5.725,5.725,0,0,1-3.961-1.588h-.516l.006.022.021.072.068.025a1.517,1.517,0,0,1,.5.26,1.482,1.482,0,0,1,.332.447l.037.067.073.009a1.261,1.261,0,0,1,.964.518l.051.059.074-.006a1.516,1.516,0,0,1,.565.037,1.472,1.472,0,0,1,.487.277l.063.048.071-.02a1.682,1.682,0,0,1,.463-.079c.033,0,.066,0,.1,0a1.485,1.485,0,0,1,.533.179l.072.035.073-.035a1.471,1.471,0,0,1,.533-.179,1.491,1.491,0,0,1,.563.075l.072.02.062-.048a1.493,1.493,0,0,1,.487-.277,1.517,1.517,0,0,1,.565-.037l.074.006.051-.059a1.482,1.482,0,0,1,.421-.368,1.5,1.5,0,0,1,.543-.15l.073-.009c.013-.022.026-.047.037-.067a1.487,1.487,0,0,1,.333-.447,1.5,1.5,0,0,1,.5-.26l.068-.025c.008-.024.015-.05.021-.072l.007-.022h-.516A5.728,5.728,0,0,1,21.092,33.807Z"/><path class="cls-8" d="M15.76,30.2c-.089-.041-.178-.084-.267-.128l-.017.077-.015.068.048.053a1.5,1.5,0,0,1,.314.45,1.526,1.526,0,0,1,.094.543c0,.021,0,.048,0,.072l.06.039a1.5,1.5,0,0,1,.419.363,1.1,1.1,0,0,1,.105.177v-.4A5.752,5.752,0,0,1,15.76,30.2Z"/><path class="cls-8" d="M28.256,32.219l-.333-1.591a1.476,1.476,0,0,1-.328.488c-.022.023-.052.056-.071.079,0,.029,0,.074-.005.106a1.168,1.168,0,0,1-.633,1.12c-.027.018-.064.042-.088.06s-.022.07-.03.1a1.177,1.177,0,0,1-.873.936c-.03.01-.072.025-.1.037s-.036.062-.051.09a1.174,1.174,0,0,1-1.051.719c-.032,0-.075.009-.105.015-.02.021-.047.053-.067.076A1.377,1.377,0,0,1,24,34.87a1.351,1.351,0,0,1-.654.07c-.032,0-.075-.006-.105-.007-.024.017-.057.043-.081.062a1.372,1.372,0,0,1-.59.3,1.35,1.35,0,0,1-.652-.06l-.1-.027c-.027.012-.064.031-.091.044a1.186,1.186,0,0,1-1.272,0l-.09-.044-.1.027a1.179,1.179,0,0,1-1.242-.243c-.025-.019-.057-.045-.081-.062l-.106.007a1.177,1.177,0,0,1-1.172-.485c-.02-.024-.048-.056-.068-.077-.03-.006-.073-.011-.105-.015a1.174,1.174,0,0,1-1.05-.719c-.015-.028-.036-.065-.051-.09s-.069-.027-.1-.038a1.171,1.171,0,0,1-.872-.935c-.009-.031-.021-.073-.03-.1-.024-.017-.062-.041-.089-.059a1.17,1.17,0,0,1-.632-1.12c0-.032,0-.077-.005-.106-.019-.023-.049-.056-.071-.079-.044-.047-.093-.1-.141-.162l-.266,1.265-.81,3.928c.1.043.2.087.294.129a19.127,19.127,0,0,0,14.85,0c.178-.075.353-.154.528-.234l-.788-3.823Z"/><path class="cls-9" d="M14.1,29.267l-.04-.027c.008.033.016.065.026.1Z"/><path class="cls-10" d="M27.707,29.6l.025-.048c.015-.028.03-.058.046-.089-.03.018-.059.038-.088.056Z"/><path class="cls-10" d="M25.936,32.219v-.255a1.207,1.207,0,0,0-.105.255Z"/><path class="cls-10" d="M14.531,29.727a.837.837,0,0,1-.031.2,1.117,1.117,0,0,0-.024.552.781.781,0,0,0,.046.126l.2-.948c-.105-.061-.209-.124-.313-.189l.044.087A.823.823,0,0,1,14.531,29.727Z"/><path class="cls-10" d="M26.923,29.951c.009.05.02.1.029.139a.817.817,0,0,1,.031.192.8.8,0,0,1-.124.155,1.024,1.024,0,0,0-.341.831.863.863,0,0,1-.019.2.825.825,0,0,1-.158.117,1.306,1.306,0,0,0-.353.3.857.857,0,0,0-.052.081v.255h-.105q-.015.047-.027.09a.83.83,0,0,1-.066.187.842.842,0,0,1-.18.078,1.018,1.018,0,0,0-.692.591.794.794,0,0,1-.107.167.816.816,0,0,1-.191.038,1.023,1.023,0,0,0-.806.432.781.781,0,0,1-.14.142.791.791,0,0,1-.194,0,1.015,1.015,0,0,0-.879.262.8.8,0,0,1-.166.111.777.777,0,0,1-.19-.04,1.266,1.266,0,0,0-.471-.066,1.242,1.242,0,0,0-.444.152.829.829,0,0,1-.186.078.825.825,0,0,1-.185-.078,1.242,1.242,0,0,0-.444-.152.674.674,0,0,0-.077,0,1.408,1.408,0,0,0-.394.07.787.787,0,0,1-.19.04.754.754,0,0,1-.166-.111,1.017,1.017,0,0,0-.879-.262.855.855,0,0,1-.194,0,.794.794,0,0,1-.14-.143,1.023,1.023,0,0,0-.806-.432.868.868,0,0,1-.191-.037.793.793,0,0,1-.107-.168,1.023,1.023,0,0,0-.693-.591.853.853,0,0,1-.179-.078.823.823,0,0,1-.067-.187,1.021,1.021,0,0,0-.537-.728.822.822,0,0,1-.157-.117.853.853,0,0,1-.02-.2,1.028,1.028,0,0,0-.341-.832.835.835,0,0,1-.124-.153.872.872,0,0,1,.031-.193c.01-.043.02-.089.029-.138q-.273-.143-.54-.3l-.2.948a1.38,1.38,0,0,0,.252.344.343.343,0,0,1,.142.347.928.928,0,0,0,.519.918.822.822,0,0,1,.158.118.9.9,0,0,1,.065.184.932.932,0,0,0,.716.768.833.833,0,0,1,.182.079.844.844,0,0,1,.1.164.937.937,0,0,0,.863.591.8.8,0,0,1,.2.038.806.806,0,0,1,.136.138.936.936,0,0,0,.963.4.841.841,0,0,1,.2,0,.811.811,0,0,1,.16.109,1.15,1.15,0,0,0,.484.256A1.127,1.127,0,0,0,20.2,35a.825.825,0,0,1,.2-.041.807.807,0,0,1,.177.076.946.946,0,0,0,1.047,0,.788.788,0,0,1,.177-.076.845.845,0,0,1,.2.041.933.933,0,0,0,1.02-.2.841.841,0,0,1,.16-.109.85.85,0,0,1,.2,0,.936.936,0,0,0,.963-.4.807.807,0,0,1,.135-.138.8.8,0,0,1,.2-.038.934.934,0,0,0,.863-.591.84.84,0,0,1,.1-.164.791.791,0,0,1,.182-.079.932.932,0,0,0,.716-.768.8.8,0,0,1,.065-.184.832.832,0,0,1,.158-.118.928.928,0,0,0,.519-.918.806.806,0,0,1,.019-.2.822.822,0,0,1,.123-.152,1.133,1.133,0,0,0,.3-.47,1.117,1.117,0,0,0-.024-.552.8.8,0,0,1-.032-.2.6.6,0,0,1,.054-.127l-.017-.081Q27.313,29.749,26.923,29.951Z"/><path class="cls-11" d="M16.5,30.7v.814a5.846,5.846,0,0,0,.628.706h.686A5.354,5.354,0,0,1,16.5,30.7Z"/><path class="cls-11" d="M25.81,30.462a5.341,5.341,0,0,1-1.442,1.757h.686a5.762,5.762,0,0,0,.882-1.073v-.734Z"/><path class="cls-11" d="M21.092,33.357a5.27,5.27,0,0,1-3.275-1.138h-.686a5.735,5.735,0,0,0,7.923,0h-.686A5.271,5.271,0,0,1,21.092,33.357Z"/><path class="cls-11" d="M16.375,30.463q-.311-.125-.615-.266a5.752,5.752,0,0,0,.743,1.316V30.7C16.459,30.621,16.416,30.543,16.375,30.463Z"/><path class="cls-11" d="M25.936,30.412v.734a5.667,5.667,0,0,0,.488-.949Q26.183,30.31,25.936,30.412Z"/><path class="cls-11" d="M18.385,32.219H23.8a4.912,4.912,0,0,0,1.484-1.559,12.627,12.627,0,0,1-1.69.462,3.867,3.867,0,0,1-5,0A12.356,12.356,0,0,1,16.9,30.66,4.919,4.919,0,0,0,18.385,32.219Z"/><path class="cls-11" d="M23.8,32.219H18.385a4.873,4.873,0,0,0,5.414,0Z"/><path class="cls-3" d="M7.125,15.778a.524.524,0,0,1-.117-.013A3.008,3.008,0,0,1,5.142,14.52a1.354,1.354,0,0,1,.03-1.208c.628-1.3,2.461-1.067,3.444-.727a.5.5,0,0,1-.327.947c-.47-.162-1.885-.468-2.216.215a.369.369,0,0,0-.027.344c.165.348.891.627,1.2.7a.5.5,0,0,1-.117.987Z"/><path class="cls-3" d="M4.113,16.323a1.556,1.556,0,0,1-1-.361c-1.1-.9-1.2-3.259-1.2-3.525a.5.5,0,0,1,.487-.513.488.488,0,0,1,.513.487c.023.828.269,2.314.836,2.777a.572.572,0,0,0,.5.122c.61-.107.9-.283.964-.4a4.516,4.516,0,0,1-.542-3,.5.5,0,1,1,.987.166,3.111,3.111,0,0,0,.4,2.223,1.1,1.1,0,0,1,.06,1.029,2.11,2.11,0,0,1-1.7.967A1.781,1.781,0,0,1,4.113,16.323Z"/><path class="cls-3" d="M35.044,15.778a.5.5,0,0,1-.118-.986c.32-.079,1.033-.353,1.2-.7a.365.365,0,0,0-.028-.343c-.331-.684-1.746-.377-2.215-.215a.5.5,0,0,1-.327-.947c.984-.339,2.816-.573,3.443.727a1.352,1.352,0,0,1,.031,1.208,3.008,3.008,0,0,1-1.866,1.245A.524.524,0,0,1,35.044,15.778Z"/><path class="cls-3" d="M38.056,16.323a1.772,1.772,0,0,1-.3-.027,2.11,2.11,0,0,1-1.7-.967,1.094,1.094,0,0,1,.024-.975.53.53,0,0,1,.1-.122A2.165,2.165,0,0,0,36.6,12.32a.5.5,0,1,1,.987-.166,3.225,3.225,0,0,1-.63,2.709c.086.173.377.343.972.447a.575.575,0,0,0,.5-.123c.637-.521.82-2.221.835-2.775a.534.534,0,0,1,.512-.488.5.5,0,0,1,.488.513c-.006.266-.1,2.622-1.2,3.525A1.556,1.556,0,0,1,38.056,16.323Z"/><path class="cls-3" d="M39.933,16.782a2.749,2.749,0,0,1-.867-.153c-.437-.228-.815-.468-.783-.875a.59.59,0,0,1,.365-.473.5.5,0,0,1,.638.307l.009.028c.04.026.095.058.168.1.687.221.927-.083.935-.1a.5.5,0,0,1,.683-.158.51.51,0,0,1,.161.7A1.512,1.512,0,0,1,39.933,16.782Z"/><path class="cls-10" d="M40.165,19.555h0a8.416,8.416,0,0,0-6.393-.856l-.014,0c.25,5.156-2.508,7.568-2.508,7.568l.606-.04a6.089,6.089,0,0,1,2.107.236c.061-.1.127-.207.194-.324.048-.082.1-.166.149-.255l.155-.276c.108-.19.213-.394.326-.6l.163-.323c.056-.109.113-.219.165-.332.107-.225.219-.453.319-.686l.155-.347.143-.349c.047-.115.1-.23.14-.344L36,22.289c.041-.111.084-.22.122-.328l.105-.318.1-.3c.033-.1.057-.193.084-.284l.143-.5.093-.388.082-.338.005-.021a.425.425,0,0,1,.834.162l-.055.363-.063.417-.1.536c-.021.1-.038.2-.063.306l-.078.324-.082.344c-.03.116-.064.234-.1.355l-.1.366c-.036.124-.076.247-.115.373l-.119.378-.13.377c-.084.253-.18.5-.272.747-.045.123-.094.244-.142.363L36,25.576c-.1.229-.191.453-.287.661l-.138.305c-.045.1-.091.192-.134.283-.033.071-.066.14-.1.206a10.627,10.627,0,0,1,2.125,1.509l.2-.3A12.583,12.583,0,0,0,40.165,19.555Z"/><path class="cls-10" d="M8.427,18.7l.3,2.752h0a9.383,9.383,0,0,0-5.3,1.657c-.435.3-.784.449-.838.219-.156-.668-.548-3.776-.548-3.776h0a12.742,12.742,0,0,1,6.19-.874Z"/><polygon class="cls-3" points="17.691 4.163 18.158 4.324 18.548 4.124 18.938 4.324 19.328 4.124 19.716 4.324 20.106 4.124 20.497 4.324 20.886 4.124 21.273 4.324 21.661 4.124 22.051 4.324 22.444 4.124 22.835 4.324 23.229 4.124 23.623 4.324 24.019 4.124 24.336 4.287 24.455 4.655 24.198 5.046 24.338 5.494 24.081 5.885 24.22 6.331 23.963 6.722 24.103 7.171 23.846 7.561 23.986 8.005 23.729 8.394 23.868 8.842 23.611 9.236 23.75 9.685 23.493 10.08 23.631 10.532 23.374 10.93 23.492 11.43 23.142 11.269 22.87 11.469 22.597 11.269 22.325 11.469 22.058 11.269 21.788 11.469 21.514 11.269 21.242 11.469 20.971 11.269 20.7 11.469 20.426 11.269 20.151 11.469 19.88 11.269 19.608 11.469 19.33 11.269 19.05 11.469 18.849 11.306 18.614 10.966 18.753 10.519 18.496 10.127 18.636 9.68 18.379 9.29 18.519 8.843 18.261 8.45 18.401 8.004 18.144 7.616 18.284 7.171 18.027 6.779 18.166 6.33 17.909 5.936 18.048 5.485 17.79 5.089 17.928 4.628 17.691 4.163"/><path class="cls-3" d="M19.05,11.5l-.221-.18-.243-.35,0-.012.136-.435-.257-.392,0-.011.135-.436-.256-.39,0-.011.136-.436-.257-.393,0-.011.136-.435-.257-.388,0-.012.136-.433L18,6.783l0-.011.135-.439-.257-.393,0-.011.135-.44-.258-.4,0-.011L17.9,4.63l-.261-.511.516.178.392-.2.012.006.378.194.389-.2.012.006.378.194.388-.2.012.006.38.194.389-.2L20.9,4.1l.376.194.388-.2.012.006.378.194.392-.2.012.006.38.194.394-.2.012.006.382.194.4-.2.011.006.327.168,0,.009.122.38-.006.01-.25.381.139.448-.007.01-.251.381.141.446-.007.01-.251.381.14.448-.007.01-.25.381.14.444-.007.01-.25.379.14.448-.007.009-.25.385.138.448-.006.01-.251.386.139.452-.006.01-.253.389.128.54-.382-.177-.276.2-.015-.011L22.6,11.3l-.272.2-.014-.011-.253-.189-.27.2-.015-.011-.258-.189-.273.2-.014-.011-.257-.189-.272.2-.014-.011-.259-.189-.275.2-.014-.011-.256-.189-.274.2-.014-.01-.264-.19Zm.279-.262.015.011.263.189.274-.2.015.011.255.189.275-.2.273.2.272-.2.014.011.257.189.273-.2.014.011.259.189.27-.2.014.011.253.189.272-.2.014.011.259.189.27-.2.013.006.3.14-.108-.461.005-.009.251-.388-.139-.451.007-.01.251-.386-.139-.449.007-.01.25-.384L23.7,8.39l.007-.01L23.958,8l-.14-.444.007-.01.25-.38-.139-.449.006-.01.251-.381-.14-.446.007-.01.251-.381-.14-.448.007-.009.25-.382-.112-.346-.3-.153-.4.2-.012,0-.382-.2-.394.2-.012-.006-.38-.2-.392.2-.012-.006-.378-.2-.388.2-.011-.006-.376-.2-.389.2-.012-.006-.38-.2-.388.2L19.7,4.347l-.378-.2-.389.2-.011-.006-.379-.2-.388.2-.01,0-.409-.141.213.418,0,.01-.135.449.258.4,0,.011-.134.44.256.394,0,.011-.134.438.257.392,0,.012-.136.433L18.429,8l0,.012-.136.434.257.393,0,.012-.136.435.257.39,0,.012-.136.435.257.392,0,.011-.135.435.227.328.184.149Z"/><path class="cls-3" d="M28.309,29.114l-.183.124q-.173.116-.348.225c-.016.031-.031.061-.046.089l-.025.048a.6.6,0,0,0-.054.127.8.8,0,0,0,.032.2.925.925,0,0,1-.274,1.022.822.822,0,0,0-.123.152.806.806,0,0,0-.019.2.928.928,0,0,1-.519.918.832.832,0,0,0-.158.118.8.8,0,0,0-.065.184.932.932,0,0,1-.716.768.791.791,0,0,0-.182.079.84.84,0,0,0-.1.164.934.934,0,0,1-.863.591.8.8,0,0,0-.2.038.819.819,0,0,0-.135.139,1.143,1.143,0,0,1-.424.347,1.121,1.121,0,0,1-.539.051.9.9,0,0,0-.2,0,.841.841,0,0,0-.16.109.932.932,0,0,1-1.02.2.845.845,0,0,0-.2-.041.788.788,0,0,0-.177.076.946.946,0,0,1-1.047,0,.807.807,0,0,0-.177-.076.825.825,0,0,0-.2.041.934.934,0,0,1-1.021-.2.811.811,0,0,0-.16-.109.888.888,0,0,0-.2,0,1.12,1.12,0,0,1-.539-.051,1.135,1.135,0,0,1-.424-.347.782.782,0,0,0-.136-.139.8.8,0,0,0-.2-.038.937.937,0,0,1-.863-.591.844.844,0,0,0-.1-.164.833.833,0,0,0-.182-.079.932.932,0,0,1-.716-.768.9.9,0,0,0-.065-.184.856.856,0,0,0-.158-.118.928.928,0,0,1-.519-.918.764.764,0,0,0-.02-.2.808.808,0,0,0-.122-.151,1.38,1.38,0,0,1-.252-.344.781.781,0,0,1-.046-.126,1.117,1.117,0,0,1,.024-.552.837.837,0,0,0,.031-.2.823.823,0,0,0-.079-.175l-.044-.087q-.156-.1-.309-.2l-.014.07-1.344,6.517c.209.1.419.2.632.293l.81-3.928.266-1.265c.048.061.1.115.141.162.022.023.052.056.071.079,0,.029,0,.074.005.106a1.17,1.17,0,0,0,.632,1.12c.027.018.065.042.089.059.009.028.021.07.03.1a1.171,1.171,0,0,0,.872.935c.031.011.072.026.1.038s.036.062.051.09a1.174,1.174,0,0,0,1.05.719c.032,0,.075.009.105.015.02.021.048.053.068.077a1.177,1.177,0,0,0,1.172.485l.106-.007c.024.017.056.043.081.062a1.179,1.179,0,0,0,1.242.243l.1-.027.09.044a1.186,1.186,0,0,0,1.272,0c.027-.013.064-.032.091-.044l.1.027a1.35,1.35,0,0,0,.652.06,1.372,1.372,0,0,0,.59-.3c.024-.019.057-.045.081-.062.03,0,.073.005.105.007A1.363,1.363,0,0,0,24,34.87a1.377,1.377,0,0,0,.519-.416c.02-.023.047-.055.067-.076.03-.006.073-.011.105-.015a1.174,1.174,0,0,0,1.051-.719c.015-.028.035-.065.051-.09s.069-.027.1-.037a1.177,1.177,0,0,0,.873-.936c.008-.03.02-.072.03-.1s.061-.042.088-.06a1.168,1.168,0,0,0,.633-1.12c0-.032,0-.077.005-.106.019-.023.049-.056.071-.079a1.476,1.476,0,0,0,.328-.488l.333,1.591h0l.788,3.823q.318-.145.63-.3Z"/><path class="cls-3" d="M15.591,30.812a1.26,1.26,0,0,1,.075.456.853.853,0,0,0,.02.2.822.822,0,0,0,.157.117,1.021,1.021,0,0,1,.537.728.823.823,0,0,0,.067.187.853.853,0,0,0,.179.078,1.023,1.023,0,0,1,.693.591.793.793,0,0,0,.107.168.868.868,0,0,0,.191.037,1.023,1.023,0,0,1,.806.432.794.794,0,0,0,.14.143.855.855,0,0,0,.194,0,1.017,1.017,0,0,1,.879.262.819.819,0,0,0,.166.111.787.787,0,0,0,.19-.04,1.408,1.408,0,0,1,.394-.07.674.674,0,0,1,.077,0,1.242,1.242,0,0,1,.444.152.825.825,0,0,0,.185.078.829.829,0,0,0,.186-.078,1.242,1.242,0,0,1,.444-.152,1.266,1.266,0,0,1,.471.066.777.777,0,0,0,.19.04.847.847,0,0,0,.166-.111,1.015,1.015,0,0,1,.879-.262.791.791,0,0,0,.194,0,.781.781,0,0,0,.14-.142,1.023,1.023,0,0,1,.806-.432.816.816,0,0,0,.191-.038.794.794,0,0,0,.107-.167,1.257,1.257,0,0,1,.275-.376,1.278,1.278,0,0,1,.417-.215.842.842,0,0,0,.18-.078.83.83,0,0,0,.066-.187q.012-.043.027-.09a1.207,1.207,0,0,1,.105-.255.857.857,0,0,1,.052-.081,1.306,1.306,0,0,1,.353-.3.825.825,0,0,0,.158-.117.809.809,0,0,0,.019-.2,1.024,1.024,0,0,1,.341-.831.8.8,0,0,0,.124-.155.817.817,0,0,0-.031-.192c-.009-.043-.02-.089-.029-.139-.077.04-.154.08-.232.118l.017.077c.005.02.011.045.015.068l-.048.053a1.27,1.27,0,0,0-.407.993c0,.021,0,.048,0,.072l-.06.039a2.086,2.086,0,0,0-.269.2,1.183,1.183,0,0,0-.149.164,1.433,1.433,0,0,0-.217.485l-.007.022c-.006.022-.013.048-.021.072l-.068.025a1.5,1.5,0,0,0-.5.26,1.487,1.487,0,0,0-.333.447c-.011.02-.024.045-.037.067l-.073.009a1.5,1.5,0,0,0-.543.15,1.482,1.482,0,0,0-.421.368l-.051.059-.074-.006a1.517,1.517,0,0,0-.565.037,1.493,1.493,0,0,0-.487.277l-.062.048-.072-.02a1.491,1.491,0,0,0-.563-.075,1.471,1.471,0,0,0-.533.179l-.073.035-.072-.035a1.485,1.485,0,0,0-.533-.179c-.035,0-.068,0-.1,0a1.682,1.682,0,0,0-.463.079l-.071.02-.063-.048a1.472,1.472,0,0,0-.487-.277,1.516,1.516,0,0,0-.565-.037l-.074.006-.051-.059a1.261,1.261,0,0,0-.964-.518l-.073-.009c-.012-.022-.026-.047-.036-.067a1.258,1.258,0,0,0-.829-.707l-.068-.025-.021-.072-.006-.022a1.866,1.866,0,0,0-.112-.308,1.055,1.055,0,0,0-.105-.177,1.5,1.5,0,0,0-.419-.363l-.06-.039c0-.024,0-.051,0-.072a1.526,1.526,0,0,0-.094-.543,1.5,1.5,0,0,0-.314-.45l-.048-.053.015-.068.017-.077c-.078-.038-.155-.077-.232-.117-.009.049-.019.095-.029.138a.872.872,0,0,0-.031.193.835.835,0,0,0,.124.153A1.277,1.277,0,0,1,15.591,30.812Z"/><path class="cls-3" d="M21.092,38.277A19.562,19.562,0,0,1,1.519,18.7v-1.93a2.414,2.414,0,0,1-1-1.074,4.017,4.017,0,0,1-.384-2.87A1.562,1.562,0,0,1,1,11.915a1.477,1.477,0,0,1,1.193-.042,1.871,1.871,0,0,1,1.666-1,2.68,2.68,0,0,1,.923.143c.029-.291.055-.637.072-1.017l.011-.31c.041-1.18.1-2.8,1.667-2.8a1.476,1.476,0,0,1,1.1.5c1.044,1.131,1,4.084.949,5.2a2.565,2.565,0,0,1,1.749,1.944,2.488,2.488,0,0,1-.757,2.19,2.723,2.723,0,0,0-.365.48,2.942,2.942,0,0,0-.275,1.5,12.165,12.165,0,0,0,24.329,0,3,3,0,0,0-.281-1.484,2.76,2.76,0,0,0-.375-.5,2.485,2.485,0,0,1-.756-2.19,2.288,2.288,0,0,1,1.513-1.887c.286-.565,1.107-1.963,2.284-1.963a1.906,1.906,0,0,1,1.433.639,1.682,1.682,0,0,1,1.239-.452,1.892,1.892,0,0,1,1.725,1.112,1.567,1.567,0,0,1,1.1.269,2.711,2.711,0,0,1,.575,3.246,2.745,2.745,0,0,1-1.051,1.139V18.7A19.564,19.564,0,0,1,21.092,38.277ZM1.661,12.771a.691.691,0,0,0-.269.063.563.563,0,0,0-.32.344,3.174,3.174,0,0,0,.346,2.085,1.4,1.4,0,0,0,.738.705.5.5,0,0,1,.365.481V18.7A18.581,18.581,0,0,0,13.862,35.814,18.586,18.586,0,0,0,38.2,25.933a18.467,18.467,0,0,0,1.46-7.23V16.332a.5.5,0,0,1,.322-.468,1.76,1.76,0,0,0,.829-.8,1.822,1.822,0,0,0-.2-1.961c-.255-.16-.41-.154-.465-.1a.477.477,0,0,1-.506.181.5.5,0,0,1-.372-.408c-.018-.089-.2-.9-.953-.9-.549,0-.667.27-.667.5a.507.507,0,0,1-.42.5.5.5,0,0,1-.555-.33c-.011-.032-.307-.851-1.03-.851-.583,0-1.241,1.063-1.467,1.577a.5.5,0,0,1-.361.29,1.3,1.3,0,0,0-.977,1.122,1.494,1.494,0,0,0,.517,1.39,3.576,3.576,0,0,1,.5.67,3.905,3.905,0,0,1,.407,1.991A13.166,13.166,0,0,1,7.926,18.7a3.584,3.584,0,0,1,.427-2.025,3.262,3.262,0,0,1,.461-.616,1.5,1.5,0,0,0,.519-1.39c-.133-.941-1.378-1.234-1.391-1.236a.5.5,0,0,1-.389-.529c.116-1.469.039-4.083-.661-4.842a.466.466,0,0,0-.365-.176c-.484,0-.615.36-.667,1.831l-.011.318a18.349,18.349,0,0,1-.2,2.039.5.5,0,0,1-.494.418h0a.5.5,0,0,1-.493-.42c-.018-.027-.22-.205-.811-.205-.775,0-.945.866-.952.9a.5.5,0,0,1-.923.163A.367.367,0,0,0,1.661,12.771Z"/></g></g></svg>