<svg xmlns="http://www.w3.org/2000/svg" viewBox="0 0 42 42"><defs><style>.cls-1{isolation:isolate;}.cls-2{fill:#e8dead;}.cls-3{fill:#6aaae4;}.cls-4{opacity:0.4;mix-blend-mode:multiply;}.cls-5{fill:#c47c5a;}.cls-6{fill:#fff;}.cls-7{fill:#000b8c;}.cls-8{fill:#4b45da;}.cls-9{fill:none;}.cls-10{fill:#cbcecd;}.cls-11{fill:#a9a5a9;}</style></defs><title>Ninja-Buddy</title><g class="cls-1"><g id="Buddy"><circle class="cls-2" cx="21" cy="18.131" r="10.924"/><path class="cls-3" d="M21,7.474A10.657,10.657,0,1,0,31.657,18.131,10.657,10.657,0,0,0,21,7.474Zm5.572,9.909a2.593,2.593,0,0,1-.61,0l-.111-.014c-.073-.008-.18-.022-.316-.035s-.3-.028-.489-.044-.4-.03-.635-.044-.485-.028-.752-.04-.547-.021-.838-.028c-.146-.005-.294-.006-.443-.009s-.3,0-.454-.006c-.306,0-.616,0-.926,0s-.621.006-.926.013c-.153,0-.3.008-.454.012s-.3.009-.443.015c-.582.022-1.125.053-1.59.087s-.853.071-1.125.1c-.136.015-.242.03-.315.038l-.111.015a2.535,2.535,0,1,1-.675-5.025,2.585,2.585,0,0,1,.675,0l.111.015c.073.008.179.023.315.037.272.03.659.068,1.125.1s1.008.065,1.59.087c.145.006.293.01.443.015s.3.009.454.012c.3.007.616.01.926.013s.62,0,.926,0c.152,0,.3,0,.454-.006s.3-.005.443-.009c.291-.007.572-.018.838-.029s.519-.025.752-.039.446-.029.635-.045.354-.03.489-.044.243-.026.316-.034l.111-.014a2.471,2.471,0,0,1,.61,4.9Z"/><g class="cls-4"><path class="cls-5" d="M26.811,15.4a2.12,2.12,0,0,0-2.2-2.292A2.441,2.441,0,0,0,22.2,15.578c0,1.363,1.08,1.421,2.412,1.421S26.811,16.765,26.811,15.4Z"/></g><path class="cls-6" d="M26.137,15.213a1.78,1.78,0,0,0-3.56,0c0,.983.8,1.025,1.78,1.025S26.137,16.2,26.137,15.213Z"/><path class="cls-7" d="M24.357,16.588c-.848,0-2.13,0-2.13-1.375a2.131,2.131,0,1,1,4.261,0C26.488,16.588,25.206,16.588,24.357,16.588Zm0-2.805a1.431,1.431,0,0,0-1.429,1.43c0,.555.254.674,1.429.674s1.43-.119,1.43-.674A1.432,1.432,0,0,0,24.357,13.783Z"/><circle class="cls-7" cx="24.303" cy="14.943" r="0.836"/><g class="cls-4"><path class="cls-5" d="M15.214,15.4a2.121,2.121,0,0,1,2.2-2.292,2.44,2.44,0,0,1,2.411,2.469c0,1.363-1.079,1.421-2.411,1.421S15.214,16.765,15.214,15.4Z"/></g><path class="cls-6" d="M15.888,15.213a1.78,1.78,0,0,1,3.56,0c0,.983-.8,1.025-1.78,1.025S15.888,16.2,15.888,15.213Z"/><path class="cls-7" d="M17.668,16.588c-.849,0-2.131,0-2.131-1.375a2.131,2.131,0,0,1,4.262,0C19.8,16.588,18.517,16.588,17.668,16.588Zm0-2.805a1.432,1.432,0,0,0-1.43,1.43c0,.555.254.674,1.43.674s1.43-.119,1.43-.674A1.432,1.432,0,0,0,17.668,13.783Z"/><circle class="cls-7" cx="17.722" cy="14.943" r="0.836"/><path class="cls-8" d="M12.78,18.131a8.22,8.22,0,0,0,16.44,0Z"/><g class="cls-4"><path class="cls-5" d="M20.553,15.054a.679.679,0,0,1,.565-.379.67.67,0,0,1,.565.379.611.611,0,0,1-1.13,0Z"/></g><path class="cls-8" d="M21,29.038A11.1,11.1,0,0,1,10.026,18.131c0-5.232,5.9-9.29,10.974-9.29s10.974,4.058,10.974,9.29C31.974,23.384,28.54,29.038,21,29.038Zm0-19.7c-4.744,0-10.474,3.921-10.474,8.789A10.589,10.589,0,0,0,21,28.538c5.044,0,10.474-3.257,10.474-10.407C31.474,13.263,25.744,9.342,21,9.342Z"/><path class="cls-2" d="M8.288,18.282a12.712,12.712,0,0,0,25.424,0,3.123,3.123,0,0,0-.368-1.247c-.378-.712-1.263-1.067-1.077-2.384A1.838,1.838,0,0,1,33.654,13.1S34.482,11.2,35.6,11.2a1.758,1.758,0,0,1,1.516,1.2s-.033-1.013,1.178-1.013,1.456,1.323,1.456,1.323.358-.489,1.126-.007a2.3,2.3,0,0,1-.716,3.686l-.012,1.888A19.148,19.148,0,0,1,3.362,25.734a20.728,20.728,0,0,1-1.5-7.794l-.012-1.546a2.3,2.3,0,0,1-.716-3.686c.768-.482,1.126.007,1.126.007s.245-1.323,1.456-1.323,1.178,1.013,1.178,1.013a1.758,1.758,0,0,1,1.516-1.2c1.113,0,1.941,1.891,1.941,1.891a1.838,1.838,0,0,1,1.387,1.556c.186,1.317-.7,1.672-1.077,2.384A2.615,2.615,0,0,0,8.288,18.282Z"/><path class="cls-3" d="M33.641,19.632a12.713,12.713,0,0,1-25.282,0l-6.2,2.324a17.009,17.009,0,0,0,1.2,3.778,19.147,19.147,0,0,0,36.475-4.02Z"/><path class="cls-8" d="M19.78,34.6a.1.1,0,0,1-.075-.032l-.352-.362a.105.105,0,1,1,.15-.147l.352.363a.1.1,0,0,1,0,.148A.1.1,0,0,1,19.78,34.6Zm-.705-.724A.106.106,0,0,1,19,33.849l-.353-.362a.105.105,0,0,1,.151-.146l.352.361a.1.1,0,0,1,0,.149A.1.1,0,0,1,19.075,33.881Zm-.7-.724a.1.1,0,0,1-.075-.032l-.352-.362a.1.1,0,0,1,0-.149.1.1,0,0,1,.149,0l.351.363a.105.105,0,0,1-.075.178Zm-.7-.723a.1.1,0,0,1-.075-.033l-.353-.362a.105.105,0,0,1,.151-.146l.352.362a.1.1,0,0,1,0,.148A.1.1,0,0,1,17.666,32.434Zm-.705-.725a.1.1,0,0,1-.075-.032l-.353-.362a.105.105,0,0,1,.151-.146l.352.361a.106.106,0,0,1-.075.179Zm-.7-.724a.1.1,0,0,1-.075-.032l-.353-.362a.105.105,0,0,1,.151-.147l.352.363a.1.1,0,0,1,0,.148A.1.1,0,0,1,16.256,30.985Zm-.7-.723a.1.1,0,0,1-.075-.033l-.353-.362a.1.1,0,0,1,.15-.146l.353.362a.1.1,0,0,1,0,.148A.1.1,0,0,1,15.551,30.262Z"/><path class="cls-8" d="M20.725,34.359a.107.107,0,0,1-.077-.032l-.132-.138a.105.105,0,0,1,.152-.146l.133.138a.106.106,0,0,1,0,.149A.1.1,0,0,1,20.725,34.359Zm-.484-.5a.106.106,0,0,1-.076-.032l-.351-.363a.106.106,0,0,1,.153-.147l.35.364a.106.106,0,0,1,0,.149A.1.1,0,0,1,20.241,33.858Zm-.7-.727a.1.1,0,0,1-.075-.032l-.352-.364a.105.105,0,0,1,.151-.146l.351.363a.106.106,0,0,1-.075.179Zm-.7-.727a.1.1,0,0,1-.076-.032l-.351-.364a.107.107,0,0,1,0-.15.106.106,0,0,1,.149,0l.351.365a.106.106,0,0,1,0,.149A.1.1,0,0,1,18.838,32.4Zm-.7-.727a.1.1,0,0,1-.075-.032l-.352-.364a.1.1,0,1,1,.15-.146l.352.363a.1.1,0,0,1,0,.148A.1.1,0,0,1,18.137,31.677Zm-.7-.728a.111.111,0,0,1-.077-.032l-.35-.363a.106.106,0,1,1,.152-.147l.351.364a.106.106,0,0,1,0,.149A.109.109,0,0,1,17.435,30.949Z"/><polygon class="cls-2" points="21 30.951 23.916 30.768 21 33.684 18.084 30.768 21 30.951"/><path class="cls-8" d="M21,33.934a.25.25,0,0,1-.177-.074l-3.148-3.148a.25.25,0,0,1,.353-.354l3.149,3.149a.251.251,0,0,1-.177.427Z"/><path class="cls-8" d="M19.562,35.372a.247.247,0,0,1-.177-.073L12.2,28.112a.25.25,0,1,1,.354-.353l7.186,7.186a.25.25,0,0,1,0,.354A.247.247,0,0,1,19.562,35.372Z"/><rect class="cls-8" x="35.862" y="19.911" width="0.501" height="6.393" transform="translate(0.727 47.313) rotate(-66.988)"/><path class="cls-8" d="M17.983,37.258a.254.254,0,0,1-.176-.072.251.251,0,0,1,0-.355l6.506-6.545a.251.251,0,0,1,.356.354l-6.507,6.545A.254.254,0,0,1,17.983,37.258Z"/><path class="cls-8" d="M21,37.675a.244.244,0,0,1-.166-.064.248.248,0,0,1-.021-.352l8.133-9.134a.25.25,0,1,1,.373.332l-8.132,9.134A.252.252,0,0,1,21,37.675Z"/><path class="cls-8" d="M20.125,37.53a.107.107,0,0,1-.071-.027.106.106,0,0,1-.007-.149l.17-.187a.1.1,0,0,1,.149-.007.107.107,0,0,1,.007.15l-.17.186A.105.105,0,0,1,20.125,37.53Z"/><path class="cls-8" d="M20.635,36.972a.106.106,0,0,1-.072-.028.107.107,0,0,1-.006-.149l.339-.372a.105.105,0,0,1,.156.142l-.339.373A.111.111,0,0,1,20.635,36.972Zm.678-.744a.106.106,0,0,1-.078-.177l.339-.372a.106.106,0,0,1,.15-.007.1.1,0,0,1,.006.149l-.338.372A.109.109,0,0,1,21.313,36.228Zm.679-.746a.1.1,0,0,1-.071-.027.106.106,0,0,1-.007-.149l.339-.372a.105.105,0,0,1,.156.142l-.339.372A.1.1,0,0,1,21.992,35.482Zm.679-.744a.107.107,0,0,1-.071-.027.106.106,0,0,1-.007-.149l.339-.373a.106.106,0,0,1,.156.143l-.339.372A.105.105,0,0,1,22.671,34.738Zm.679-.744a.109.109,0,0,1-.072-.027.107.107,0,0,1-.007-.15l.339-.372a.106.106,0,1,1,.157.143l-.339.372A.111.111,0,0,1,23.35,33.994Zm.677-.744a.114.114,0,0,1-.071-.027.107.107,0,0,1-.007-.15l.34-.372a.106.106,0,1,1,.156.143l-.34.372A.108.108,0,0,1,24.027,33.25Zm.679-.745a.112.112,0,0,1-.071-.027.107.107,0,0,1-.007-.15l.34-.372a.106.106,0,1,1,.156.143l-.34.372A.109.109,0,0,1,24.706,32.505Zm.679-.744a.11.11,0,0,1-.072-.028.107.107,0,0,1-.006-.149l.339-.372a.109.109,0,0,1,.15-.007.106.106,0,0,1,.007.149l-.34.373A.111.111,0,0,1,25.385,31.761Zm.678-.744a.106.106,0,0,1-.078-.177l.339-.372a.105.105,0,1,1,.156.142l-.338.372A.109.109,0,0,1,26.063,31.017Zm.679-.745a.1.1,0,0,1-.07-.027.1.1,0,0,1-.008-.148L27,29.724a.1.1,0,0,1,.148-.008.1.1,0,0,1,.008.148l-.339.373A.1.1,0,0,1,26.742,30.272Z"/><path class="cls-8" d="M27.421,29.527a.1.1,0,0,1-.071-.027.106.106,0,0,1-.007-.149l.17-.187a.1.1,0,0,1,.149-.007.107.107,0,0,1,.007.15l-.17.186A.105.105,0,0,1,27.421,29.527Z"/><path class="cls-8" d="M18.748,37.306a.1.1,0,0,1-.072-.03.1.1,0,0,1,0-.148l.174-.184a.1.1,0,0,1,.148,0,.106.106,0,0,1,0,.149l-.174.183A.1.1,0,0,1,18.748,37.306Z"/><path class="cls-8" d="M19.286,36.736a.1.1,0,0,1-.072-.029.1.1,0,0,1,0-.148l.364-.386a.106.106,0,0,1,.149,0,.1.1,0,0,1,0,.148l-.365.386A.1.1,0,0,1,19.286,36.736Zm.729-.771a.107.107,0,0,1-.073-.029.106.106,0,0,1,0-.149L20.3,35.4a.1.1,0,0,1,.148,0,.106.106,0,0,1,0,.149l-.365.386A.108.108,0,0,1,20.015,35.965Zm.729-.771a.1.1,0,0,1-.072-.029.1.1,0,0,1,0-.148l.364-.386a.106.106,0,0,1,.149,0,.1.1,0,0,1,0,.148l-.365.386A.1.1,0,0,1,20.744,35.194Zm.729-.771a.107.107,0,0,1-.073-.029.106.106,0,0,1,0-.149l.365-.386a.1.1,0,0,1,.148,0,.106.106,0,0,1,0,.149l-.364.386A.108.108,0,0,1,21.473,34.423Zm.728-.772a.1.1,0,0,1-.072-.029.1.1,0,0,1,0-.148l.365-.386a.106.106,0,0,1,.149,0,.1.1,0,0,1,0,.148l-.366.386A.1.1,0,0,1,22.2,33.651Zm.73-.771a.107.107,0,0,1-.073-.029.106.106,0,0,1,0-.149l.365-.385a.105.105,0,1,1,.152.145l-.364.385A.108.108,0,0,1,22.931,32.88Zm.728-.771a.1.1,0,0,1-.072-.029.1.1,0,0,1,0-.148l.364-.386a.105.105,0,0,1,.153.144l-.365.386A.1.1,0,0,1,23.659,32.109Zm.73-.771a.107.107,0,0,1-.073-.029.106.106,0,0,1,0-.149l.365-.386a.105.105,0,0,1,.152.145l-.364.386A.108.108,0,0,1,24.389,31.338Z"/><path class="cls-8" d="M25.117,30.566a.1.1,0,0,1-.072-.029.1.1,0,0,1,0-.148l.173-.184a.1.1,0,0,1,.148,0,.106.106,0,0,1,0,.149l-.173.183A.1.1,0,0,1,25.117,30.566Z"/><rect class="cls-8" x="2.657" y="22.857" width="6.393" height="0.501" transform="translate(-8.551 4.115) rotate(-22.964)"/><path class="cls-7" d="M21,37.926a19.667,19.667,0,0,1-18.1-12,21.288,21.288,0,0,1-1.546-7.99L1.348,16.7A2.766,2.766,0,0,1,.284,15.55a2.728,2.728,0,0,1,.579-3.266,1.549,1.549,0,0,1,1.112-.27,1.9,1.9,0,0,1,1.736-1.123,1.691,1.691,0,0,1,1.25.458A1.916,1.916,0,0,1,6.405,10.7c1.186,0,2.013,1.41,2.3,1.978a2.3,2.3,0,0,1,1.525,1.9,2.5,2.5,0,0,1-.761,2.2,2.7,2.7,0,0,0-.369.485,2.153,2.153,0,0,0-.31,1.012,12.211,12.211,0,1,0,24.422,0,2.58,2.58,0,0,0-.306-1.006,2.736,2.736,0,0,0-.373-.491,2.5,2.5,0,0,1-.761-2.2,2.3,2.3,0,0,1,1.525-1.9c.286-.568,1.113-1.978,2.3-1.978a1.916,1.916,0,0,1,1.444.646,1.691,1.691,0,0,1,1.25-.458,1.9,1.9,0,0,1,1.736,1.123,1.566,1.566,0,0,1,1.112.27,2.726,2.726,0,0,1,.578,3.266A2.754,2.754,0,0,1,40.653,16.7l-.008,1.587A19.635,19.635,0,0,1,21,37.926ZM1.772,12.991a.765.765,0,0,0-.377.141,1.843,1.843,0,0,0-.209,1.982,1.78,1.78,0,0,0,.842.814.509.509,0,0,1,.319.463l.01,1.546a20.26,20.26,0,0,0,1.466,7.6,18.643,18.643,0,0,0,35.82-7.257l.01-1.891a.5.5,0,0,1,.323-.465,1.771,1.771,0,0,0,.837-.812,1.841,1.841,0,0,0-.208-1.982c-.259-.161-.417-.155-.473-.1a.481.481,0,0,1-.507.181.5.5,0,0,1-.372-.407c-.019-.091-.2-.915-.964-.915-.558,0-.676.275-.677.505a.508.508,0,0,1-.422.5.5.5,0,0,1-.553-.331c-.012-.032-.31-.86-1.042-.86-.594,0-1.255,1.072-1.482,1.591a.5.5,0,0,1-.361.29,1.321,1.321,0,0,0-.989,1.136,1.508,1.508,0,0,0,.523,1.4,3.486,3.486,0,0,1,.5.676,3.536,3.536,0,0,1,.427,1.481,13.213,13.213,0,0,1-26.426,0,3.071,3.071,0,0,1,.447-1.516,3.4,3.4,0,0,1,.48-.641,1.508,1.508,0,0,0,.523-1.4,1.321,1.321,0,0,0-.994-1.137.506.506,0,0,1-.355-.288C7.658,12.776,7,11.7,6.405,11.7c-.732,0-1.03.828-1.043.863A.5.5,0,0,1,4.8,12.9a.5.5,0,0,1-.408-.507c0-.222-.12-.5-.678-.5-.785,0-.957.877-.964.915a.5.5,0,0,1-.9.2A.126.126,0,0,0,1.772,12.991Z"/><path class="cls-7" d="M34.992,15.833a.5.5,0,0,1-.118-.987c.323-.079,1.043-.356,1.209-.709a.373.373,0,0,0-.028-.35c-.333-.691-1.763-.382-2.238-.219a.5.5,0,0,1-.327-.946c.991-.343,2.835-.576,3.467.73a1.357,1.357,0,0,1,.03,1.214,3.025,3.025,0,0,1-1.878,1.253A.526.526,0,0,1,34.992,15.833Z"/><path class="cls-7" d="M38.028,16.382a1.691,1.691,0,0,1-.306-.028,2.122,2.122,0,0,1-1.71-.973,1.094,1.094,0,0,1,.024-.978.486.486,0,0,1,.1-.122,2.191,2.191,0,0,0,.426-1.931.5.5,0,1,1,.986-.167,3.245,3.245,0,0,1-.635,2.73c.047.11.223.321.984.455a.57.57,0,0,0,.505-.124c.573-.468.822-1.966.844-2.8a.5.5,0,1,1,1,.026c-.007.268-.1,2.642-1.21,3.551A1.565,1.565,0,0,1,38.028,16.382Z"/><path class="cls-7" d="M39.919,16.844a2.78,2.78,0,0,1-.871-.154c-.439-.229-.819-.47-.786-.878a.588.588,0,0,1,.365-.473.5.5,0,0,1,.638.307l.008.029c.041.026.1.059.171.1.7.227.94-.084.949-.1a.514.514,0,0,1,.689-.124.488.488,0,0,1,.154.663A1.521,1.521,0,0,1,39.919,16.844Z"/><path class="cls-7" d="M3.972,16.382a1.565,1.565,0,0,1-1.007-.363c-1.112-.909-1.2-3.283-1.21-3.551a.5.5,0,1,1,1-.026c.022.836.271,2.334.844,2.8a.574.574,0,0,0,.5.124c.832-.146.965-.386.978-.412l.027-.019a3.232,3.232,0,0,1-.656-2.754.505.505,0,0,1,.576-.41.5.5,0,0,1,.41.577,2.189,2.189,0,0,0,.431,1.936.589.589,0,0,1,.094.117,1.094,1.094,0,0,1,.024.978,2.122,2.122,0,0,1-1.71.973A1.691,1.691,0,0,1,3.972,16.382Z"/><path class="cls-7" d="M2.08,16.828a1.506,1.506,0,0,1-1.316-.613.5.5,0,0,1,.844-.537c.026.03.281.311,1.028.062.035-.021.064-.04.089-.057,0-.013.006-.025.01-.037a.5.5,0,0,1,.638-.307.588.588,0,0,1,.365.473c.033.408-.347.649-.706.843A2.986,2.986,0,0,1,2.08,16.828Z"/><path class="cls-7" d="M19.337,14.183a8.813,8.813,0,0,0-2.1-.735,2.9,2.9,0,0,0-1.068-.016,3.855,3.855,0,0,0-1.013.241l-.069.033a.22.22,0,0,1-.206-.389,3.657,3.657,0,0,1,1.206-.394,3.37,3.37,0,0,1,1.24-.039,9.394,9.394,0,0,1,2.3.691.337.337,0,0,1-.262.621l-.013-.006Z"/><path class="cls-7" d="M22.588,13.575a9.394,9.394,0,0,1,2.3-.691,3.37,3.37,0,0,1,1.24.039,3.657,3.657,0,0,1,1.206.394.221.221,0,0,1-.205.39l-.07-.034a3.855,3.855,0,0,0-1.013-.241,2.9,2.9,0,0,0-1.068.016,8.813,8.813,0,0,0-2.1.735l-.013.006a.337.337,0,1,1-.29-.608Z"/><path class="cls-7" d="M21,8.06A10.071,10.071,0,1,1,10.929,18.131,10.083,10.083,0,0,1,21,8.06m0-1A11.073,11.073,0,1,0,32.072,18.131,11.073,11.073,0,0,0,21,7.058Z"/><path class="cls-9" d="M4.472,11.239a.565.565,0,1,1,.709.586l.649,2.816L6.865,11.95a.565.565,0,1,1,.767-.487.575.575,0,0,1-.023.125l2.757.845L8.553,10.19a.566.566,0,1,1,.058-.825L10.721,7.4l-2.867.452a.558.558,0,0,1,0,.123.565.565,0,1,1-.672-.594l-.647-2.8L5.509,7.253a.565.565,0,1,1-.717.5.59.59,0,0,1,.02-.114L2,6.784,3.789,8.993a.565.565,0,1,1-.062.888L1.648,11.817l2.83-.446A.523.523,0,0,1,4.472,11.239ZM5.621,9.568a.565.565,0,1,1,.524.6A.565.565,0,0,1,5.621,9.568Z"/><path class="cls-10" d="M4.472,11.239a.565.565,0,1,1,.709.586l.649,2.816L6.865,11.95a.565.565,0,1,1,.767-.487.575.575,0,0,1-.023.125l2.757.845L8.553,10.19a.566.566,0,1,1,.058-.825L10.721,7.4l-2.867.452a.558.558,0,0,1,0,.123.565.565,0,1,1-.672-.594l-.647-2.8L5.509,7.253a.565.565,0,1,1-.717.5.59.59,0,0,1,.02-.114L2,6.784,3.789,8.993a.565.565,0,1,1-.062.888L1.648,11.817l2.83-.446A.523.523,0,0,1,4.472,11.239ZM5.621,9.568a.565.565,0,1,1,.524.6A.565.565,0,0,1,5.621,9.568Z"/><path class="cls-11" d="M6.48,5.436l.411,1.788A.817.817,0,0,0,7.237,8.75l.05,0H7.3A.82.82,0,0,0,8.1,8.068l1.843-.291L8.6,9.035a.83.83,0,0,0-.339-.1l-.049,0H8.2a.818.818,0,0,0-.057,1.634l.049,0H8.2a.81.81,0,0,0,.293-.054l1.16,1.435-1.765-.54a.8.8,0,0,0-.2-.522.811.811,0,0,0-.56-.28l-.049,0H7.068a.818.818,0,0,0-.515,1.454L5.89,13.78l-.417-1.81a.818.818,0,0,0-.38-1.507l-.049,0H5.035a.821.821,0,0,0-.808.694l-1.8.284L3.754,10.2a.8.8,0,0,0,.293.077l.05,0h.009a.818.818,0,0,0,.057-1.634l-.049,0H4.105a.827.827,0,0,0-.243.037L2.719,7.267l1.819.557a.819.819,0,0,0,.76.789l.05,0h.009a.818.818,0,0,0,.471-1.486L6.48,5.436m-.3,4.99h.009a.818.818,0,0,0,.057-1.634l-.05,0H6.184a.818.818,0,0,0-.057,1.634l.05,0M6.54,4.575,5.509,7.253a.566.566,0,0,1-.152,1.11l-.041,0a.565.565,0,0,1-.524-.6.59.59,0,0,1,.02-.114L2,6.784,3.789,8.993a.567.567,0,0,1,.316-.1h.04a.566.566,0,0,1-.039,1.13l-.041,0a.562.562,0,0,1-.338-.144L1.648,11.817l2.83-.446a.523.523,0,0,1-.006-.132.565.565,0,0,1,.563-.525h.04a.565.565,0,0,1,.106,1.11l.649,2.816L6.865,11.95a.565.565,0,0,1,.2-1.093l.04,0a.565.565,0,0,1,.524.6.575.575,0,0,1-.023.125l2.757.845L8.553,10.19a.561.561,0,0,1-.355.126l-.04,0A.565.565,0,0,1,8.2,9.185h.04a.563.563,0,0,1,.373.179L10.721,7.4l-2.867.452a.558.558,0,0,1,0,.123A.565.565,0,0,1,7.3,8.5l-.041,0A.565.565,0,0,1,7.187,7.38l-.647-2.8Zm-.354,5.6-.041,0a.565.565,0,0,1,.039-1.129h.041a.566.566,0,0,1-.039,1.13Z"/><path class="cls-7" d="M6.54,4.575,7.187,7.38A.565.565,0,0,0,7.255,8.5l.041,0a.565.565,0,0,0,.563-.526.558.558,0,0,0,0-.123L10.721,7.4,8.611,9.365a.563.563,0,0,0-.373-.179H8.2a.565.565,0,0,0-.04,1.129l.04,0a.561.561,0,0,0,.355-.126l1.813,2.243-2.757-.845a.575.575,0,0,0,.023-.125.565.565,0,0,0-.524-.6l-.04,0a.565.565,0,0,0-.2,1.093L5.83,14.641l-.649-2.816a.565.565,0,0,0-.106-1.11h-.04a.565.565,0,0,0-.563.525.523.523,0,0,0,.006.132l-2.83.446L3.727,9.881a.562.562,0,0,0,.338.144l.041,0A.566.566,0,0,0,4.145,8.9h-.04a.567.567,0,0,0-.316.1L2,6.784l2.808.86a.59.59,0,0,0-.02.114.565.565,0,0,0,.524.6l.041,0a.566.566,0,0,0,.152-1.11L6.54,4.575m-.354,5.6a.566.566,0,0,0,.039-1.13H6.184a.565.565,0,0,0-.039,1.129l.041,0M6.54,3.733a.841.841,0,0,0-.785.54L4.8,6.759,2.25,5.979a.842.842,0,0,0-.9,1.334L3.023,9.385,1.074,11.2a.842.842,0,0,0,.574,1.458.826.826,0,0,0,.131-.01l2.632-.414.6,2.6a.842.842,0,0,0,.761.651c.02,0,.04,0,.06,0a.84.84,0,0,0,.785-.539l.957-2.486,2.548.78a.834.834,0,0,0,.246.037.842.842,0,0,0,.655-1.372L9.346,9.831,11.3,8.016a.843.843,0,0,0-.574-1.459.817.817,0,0,0-.131.011l-2.632.414-.6-2.6A.842.842,0,0,0,6.6,3.735l-.06,0Z"/><path class="cls-2" d="M8.19,13.286c-.139-.06-1.2-.28-1.2-.28l-1.008.28-.395.582.314.691.53.422.456.178H8.11l.379-.984Z"/><path class="cls-7" d="M7.008,15.833a.526.526,0,0,1-.117-.014,3.025,3.025,0,0,1-1.878-1.253,1.357,1.357,0,0,1,.03-1.214c.632-1.306,2.477-1.073,3.467-.73a.5.5,0,0,1-.327.946c-.474-.162-1.9-.471-2.238.219a.373.373,0,0,0-.028.35c.166.353.886.63,1.209.709a.5.5,0,0,1-.118.987Z"/></g></g></svg>