<svg xmlns="http://www.w3.org/2000/svg" viewBox="0 0 42 42"><defs><style>.cls-1{isolation:isolate;}.cls-2{fill:#79242f;}.cls-3{fill:#f2dab2;}.cls-4{mix-blend-mode:multiply;}.cls-5{fill:#ff671d;}.cls-6{fill:#fff;}.cls-7{fill:#eaeaea;}.cls-8{fill:#ab0033;}.cls-9{fill:#a5e5d9;}.cls-10{opacity:0.5;}.cls-11{fill:#eb0045;}</style></defs><title>Pirate-Buddy</title><g class="cls-1"><g id="Buddy"><path class="cls-2" d="M4.6,16.668H4.519a1.836,1.836,0,0,1-1.758-1.756c-.023-.5-.032-1.009-.035-1.512A4.763,4.763,0,0,1,.865,11.835a4.5,4.5,0,0,1-.639-1.318A4.319,4.319,0,0,1,.051,9.022,4.236,4.236,0,0,1,.406,7.56a4.448,4.448,0,0,1,.8-1.211,4.522,4.522,0,0,1,1.12-.88,4.327,4.327,0,0,1,.648-.292,4.225,4.225,0,0,1,.694-.183,4.1,4.1,0,0,1,1.437,0,4.2,4.2,0,0,1,1.311.465A4.3,4.3,0,0,1,7.477,6.3a4.409,4.409,0,0,1,.407.524,4.2,4.2,0,0,1,.318.583h0A1.371,1.371,0,0,1,5.855,8.79a1.838,1.838,0,0,0-.171-.2,1.757,1.757,0,0,0-.179-.161,1.411,1.411,0,0,0-.373-.208,1.126,1.126,0,0,0-.374-.079,1.081,1.081,0,0,0-.341.042,1.145,1.145,0,0,0-.325.16,1.183,1.183,0,0,0-.252.241,1.012,1.012,0,0,0-.157.285.743.743,0,0,0-.046.269.758.758,0,0,0,.05.255.938.938,0,0,0,.146.264,1.148,1.148,0,0,0,.535.382l.2.056a2.5,2.5,0,0,1,.381.136,2.6,2.6,0,0,1,1.467,1.8,2.529,2.529,0,0,1,.056.405c0,.018.005.149.005.168v.5c0,.6-.01,1.207-.037,1.809A1.841,1.841,0,0,1,4.6,16.668Zm.148-4.133a.643.643,0,0,1,.02.1l.75-.08Zm1.7-4.349Z"/><circle class="cls-3" cx="20.417" cy="16.768" r="10.381"/><path class="cls-2" d="M12.6,16.838a7.816,7.816,0,1,0,15.632,0Z"/><g class="cls-4"><path class="cls-5" d="M26.319,13.544a1.88,1.88,0,0,0-1.948-2.033A2.164,2.164,0,0,0,22.232,13.7c0,1.209.957,1.261,2.139,1.261S26.319,14.753,26.319,13.544Z"/></g><g class="cls-4"><path class="cls-5" d="M18.534,13.544a1.88,1.88,0,0,0-1.948-2.033A2.165,2.165,0,0,0,14.447,13.7c0,1.209.958,1.261,2.139,1.261S18.534,14.753,18.534,13.544Z"/></g><path class="cls-6" d="M25.721,13.376a1.579,1.579,0,0,0-3.157,0c0,.872.707.909,1.578.909S25.721,14.248,25.721,13.376Z"/><path class="cls-2" d="M24.143,14.6c-.753,0-1.89,0-1.89-1.22a1.889,1.889,0,1,1,3.778,0C26.031,14.6,24.9,14.6,24.143,14.6Zm0-2.488a1.27,1.27,0,0,0-1.269,1.268c0,.492.226.6,1.269.6s1.267-.106,1.267-.6A1.269,1.269,0,0,0,24.143,12.108Z"/><path class="cls-2" d="M22.216,11.8a16.345,16.345,0,0,1,2.239-.325q.564-.04,1.128-.041l.562.01.28.013.14.009.07,0,.035,0H26.7c0,.034,0-.077,0,.077a.625.625,0,1,1,0,.078h-.034l-.034,0-.07,0-.138.007-.277.019-.55.054q-.549.065-1.09.167a15.664,15.664,0,0,0-2.123.564.336.336,0,1,1-.215-.636.224.224,0,0,1,.037-.01Z"/><circle class="cls-2" cx="24.095" cy="13.137" r="0.741"/><path class="cls-5" d="M20.542,15.627a.407.407,0,0,1,0-.814.59.59,0,0,0,.434-.433c0-.063-.2-.158-.434-.158a.406.406,0,0,1-.406-.407V12.537a.406.406,0,1,1,.812,0v.921a.978.978,0,0,1,.84.922A1.35,1.35,0,0,1,20.542,15.627Z"/><path class="cls-2" d="M14.045,12.678c0-1.729,5.358-1.738,5.358-.408a3.07,3.07,0,0,1-3,2.767A2.121,2.121,0,0,1,14.045,12.678Z"/><path class="cls-7" d="M15.519,13c-.114-.537,0-.763,1.249-.914.961-.116.812.879.771,1.188-.016.124,0,.183-.153.175-.079,0-.174-.056-.275-.024-.065.021.116.255-.187.315-.062.012-.038-.244-.108-.231-.05.009,0,.227-.048.247-.215.084-.148-.174-.239-.16-.075.013.06.188-.06.22-.225.06-.135-.179-.183-.184a1.421,1.421,0,0,0-.271.1C15.759,13.827,15.608,13.418,15.519,13Z"/><path class="cls-2" d="M16.113,12.515a.3.3,0,0,0-.191.51.529.529,0,0,0,.53-.073A.3.3,0,0,0,16.113,12.515Z"/><path class="cls-2" d="M16.9,12.37a.341.341,0,0,0-.176.572.57.57,0,0,0,.584-.123A.341.341,0,0,0,16.9,12.37Z"/><path class="cls-8" d="M16.489,13.3c-.1,0,.019-.3.12-.323s.279.224.211.272-.1-.02-.176,0S16.588,13.3,16.489,13.3Z"/><path class="cls-7" d="M17.327,12.31c.025-.012.408-.353.408-.353s-.192-.156,0-.215.167.185.167.185.18-.167.216.012-.287.139-.287.139l-.413.321Z"/><path class="cls-7" d="M17.424,13.231l.544.221s.066-.221.227-.111-.143.237-.143.237.221.157.012.2-.114-.215-.114-.215l-.526-.2Z"/><path class="cls-7" d="M15.708,12.5l-.521-.32s.263-.221.042-.251-.125.221-.125.221-.341-.107-.234.144.275-.006.275-.006l.515.335Z"/><path class="cls-7" d="M15.779,13.47l-.532.448s-.1-.3-.233-.059.191.221.191.221-.188.209.073.209.065-.287.065-.287l.489-.412Z"/><path class="cls-2" d="M18.82,12.241l-.351-.625c.129-.073,3.227-1.776,9.762-1.808l0,.717C21.908,10.557,18.851,12.224,18.82,12.241Z"/><rect class="cls-2" x="11.142" y="12.29" width="3.215" height="0.718"/><path class="cls-6" d="M18.708,16.838H20.2a0,0,0,0,1,0,0v1.179a.31.31,0,0,1-.31.31h-.868a.31.31,0,0,1-.31-.31V16.838A0,0,0,0,1,18.708,16.838Z"/><path class="cls-6" d="M17.219,16.838h1.489a0,0,0,0,1,0,0v1.179a.31.31,0,0,1-.31.31H17.53a.31.31,0,0,1-.31-.31V16.838A0,0,0,0,1,17.219,16.838Z"/><path class="cls-6" d="M15.73,16.838h1.489a0,0,0,0,1,0,0v1.179a.31.31,0,0,1-.31.31h-.868a.31.31,0,0,1-.31-.31V16.838a0,0,0,0,1,0,0Z"/><path class="cls-6" d="M14.241,16.838H15.73a0,0,0,0,1,0,0v.8a.261.261,0,0,1-.261.261H14.5a.261.261,0,0,1-.261-.261v-.8A0,0,0,0,1,14.241,16.838Z"/><path class="cls-6" d="M20.886,16.838h1.489a0,0,0,0,1,0,0v1.179a.31.31,0,0,1-.31.31H21.2a.31.31,0,0,1-.31-.31V16.838A0,0,0,0,1,20.886,16.838Z"/><path class="cls-6" d="M22.375,16.838h1.489a0,0,0,0,1,0,0v1.179a.31.31,0,0,1-.31.31h-.868a.31.31,0,0,1-.31-.31V16.838A0,0,0,0,1,22.375,16.838Z"/><path class="cls-6" d="M23.864,16.838h1.489a0,0,0,0,1,0,0v1.179a.31.31,0,0,1-.31.31h-.868a.31.31,0,0,1-.31-.31V16.838A0,0,0,0,1,23.864,16.838Z"/><path class="cls-6" d="M25.353,16.838h1.489a0,0,0,0,1,0,0v.8a.261.261,0,0,1-.261.261h-.966a.261.261,0,0,1-.261-.261v-.8A0,0,0,0,1,25.353,16.838Z"/><path class="cls-3" d="M39.648,17.148v-2.4a2.308,2.308,0,0,0,.72-3.7c-.772-.484-1.132.008-1.132.008s-.246-1.331-1.463-1.331-1.183,1.019-1.183,1.019a1.768,1.768,0,0,0-1.524-1.207c-1.118,0-1.95,1.9-1.95,1.9a1.847,1.847,0,0,0-1.394,1.563c-.186,1.323.7,1.68,1.082,2.4a3.414,3.414,0,0,1,.354,1.758"/><path class="cls-2" d="M34.461,14.186a.507.507,0,0,1-.119-1c.323-.079,1.045-.357,1.211-.71a.37.37,0,0,0-.029-.348c-.334-.692-1.765-.381-2.243-.218a.507.507,0,0,1-.331-.958c.995-.347,2.853-.581,3.488.735a1.373,1.373,0,0,1,.032,1.224,3.051,3.051,0,0,1-1.891,1.261A.528.528,0,0,1,34.461,14.186Z"/><path class="cls-2" d="M37.512,14.738a1.724,1.724,0,0,1-.309-.028,2.14,2.14,0,0,1-1.722-.98,1.1,1.1,0,0,1,.027-.987.488.488,0,0,1,.1-.123,2.192,2.192,0,0,0,.426-1.937.507.507,0,0,1,1-.169,3.27,3.27,0,0,1-.637,2.744c.086.175.381.347.984.453a.579.579,0,0,0,.505-.124c.645-.528.831-2.25.845-2.811a.507.507,0,0,1,1.014.025c-.007.269-.1,2.656-1.217,3.571A1.576,1.576,0,0,1,37.512,14.738Z"/><path class="cls-2" d="M39.412,15.2a2.794,2.794,0,0,1-.877-.156c-.443-.231-.826-.474-.793-.886a.6.6,0,0,1,.37-.48.509.509,0,0,1,.646.312.152.152,0,0,1,.009.028c.041.026.095.059.17.1.7.223.938-.085.948-.1a.5.5,0,0,1,.691-.16.517.517,0,0,1,.162.707A1.534,1.534,0,0,1,39.412,15.2Z"/><path class="cls-3" d="M20.417,36.05A19.2,19.2,0,0,1,1.2,16.838H7.659a12.758,12.758,0,0,0,25.516,0H39.63A19.2,19.2,0,0,1,20.417,36.05Z"/><path class="cls-9" d="M1.2,16.7a3.228,3.228,0,0,1,6.456,0H1.2"/><path class="cls-5" d="M10.19,20.257c.429.047,1-1.857,1.2-3.014a8.5,8.5,0,0,0-.048-3.062,2.083,2.083,0,0,1,.813,1.1,3.828,3.828,0,0,1-.047,1.292,3.318,3.318,0,0,0,1.052-2.105c.247-1.532-.538-2.208-.143-3.445a3.106,3.106,0,0,1,.956-1.387,2.522,2.522,0,0,0-.43,1.435c.006.314.649.719.717.909a4.421,4.421,0,0,1,.909-1.387A5.953,5.953,0,0,1,17.414,9.3,13.873,13.873,0,0,0,19.9,7.292a1.315,1.315,0,0,1,.143,1c-.185.584-.83.652-1.244,1.34a2.119,2.119,0,0,0-.287,1.005,3.768,3.768,0,0,1,1.292-1.053c.59-.286.922-.241,1.387-.526a2.72,2.72,0,0,0,1.1-1.483,1.487,1.487,0,0,1,.143.957,1.506,1.506,0,0,1-.574.909A2.326,2.326,0,0,0,23.3,8.727a2.165,2.165,0,0,0,.431-.718,3.588,3.588,0,0,0,.478,2.2c.372.586.692.624,1,1.053,1.067,1.459-.456,3.994-.191,4.114.21.095,1.558-1.336,1.531-3.206a4.817,4.817,0,0,0-.575-2.631,4.274,4.274,0,0,1,1.771,1.818,5.084,5.084,0,0,1,.717,2.3c.119,1.224-.23,1.534-.1,2.487a4.344,4.344,0,0,0,1.2,2.344,4.023,4.023,0,0,1-.382-2.152,10.112,10.112,0,0,0,.287-1.723,3.825,3.825,0,0,0-.287-1.387A3.438,3.438,0,0,1,30,14.516c.3.9.022,1.414.048,2.774.019,1,.2,2.373.478,2.393.245.017.557-1.047.67-1.914a7.93,7.93,0,0,0-.335-3.253,12.184,12.184,0,0,0-2.105-4.162,11.529,11.529,0,0,0-3.588-2.967,9.97,9.97,0,0,0-3.923-1.243,10.147,10.147,0,0,0-4.927.861,10.757,10.757,0,0,0-3.445,2.153,10.588,10.588,0,0,0-2.775,4.305C9.011,16.684,9.622,20.194,10.19,20.257Z"/><path class="cls-2" d="M20.417,6.692A10.146,10.146,0,1,1,10.272,16.838,10.157,10.157,0,0,1,20.417,6.692m0-1.008A11.154,11.154,0,1,0,31.571,16.838,11.154,11.154,0,0,0,20.417,5.684Z"/><g class="cls-10"><path class="cls-11" d="M6.433,29.633a18.894,18.894,0,0,1-3.672-5.887L8.2,21.617a13.078,13.078,0,0,0,2.541,4.074Z"/></g><g class="cls-10"><path class="cls-11" d="M6.433,29.633a18.894,18.894,0,0,1-3.672-5.887L8.2,21.617a13.078,13.078,0,0,0,2.541,4.074Z"/></g><g class="cls-10"><path class="cls-11" d="M34.4,29.633l-4.3-3.942a13.078,13.078,0,0,0,2.541-4.074l5.435,2.129A18.894,18.894,0,0,1,34.4,29.633Z"/></g><path class="cls-11" d="M6.433,29.633a18.941,18.941,0,0,0,27.968,0h0a18.88,18.88,0,0,0,3.672-5.888l-5.435-2.127a13.113,13.113,0,0,1-21.9,4.074h0A13.067,13.067,0,0,1,8.2,21.618L2.761,23.745a18.88,18.88,0,0,0,3.672,5.888"/><path class="cls-6" d="M33.324,19.05c.583.025.531.485,1.105.592s.643-.271,1.217-.165.5.483,1.078.589.644-.27,1.218-.164.5.359,1.041.578l-.91,3.265-5.435-2.127Z"/><path class="cls-6" d="M1.851,20.48c.541-.219.467-.472,1.041-.578s.644.27,1.217.164.5-.482,1.079-.588.643.27,1.217.164.522-.567,1.1-.592L8.2,21.618,2.523,23.846Z"/><polygon class="cls-2" points="33.441 30.759 28.993 26.675 29.478 26.146 33.926 30.229 33.441 30.759"/><path class="cls-2" d="M33.189,26.9a.349.349,0,0,1-.216-.074.357.357,0,0,1-.069-.5,15.662,15.662,0,0,0,2.117-3.768.359.359,0,0,1,.668.261,16.327,16.327,0,0,1-2.214,3.941A.358.358,0,0,1,33.189,26.9Z"/><path class="cls-9" d="M34.129,27.6a.359.359,0,0,1-.286-.576l.166-.222a.359.359,0,1,1,.582.42l-.176.236A.358.358,0,0,1,34.129,27.6Z"/><path class="cls-9" d="M34.968,26.387a.369.369,0,0,1-.191-.054.36.36,0,0,1-.114-.495c.1-.164.2-.331.3-.5a.359.359,0,1,1,.623.355q-.151.265-.314.526A.36.36,0,0,1,34.968,26.387Z"/><path class="cls-9" d="M35.832,24.814a.349.349,0,0,1-.153-.035.358.358,0,0,1-.171-.477l.12-.257a.358.358,0,1,1,.652.3l-.124.266A.356.356,0,0,1,35.832,24.814Z"/><rect class="cls-2" x="34.997" y="19.763" width="0.717" height="5.837" transform="translate(1.348 47.338) rotate(-68.625)"/><polygon class="cls-2" points="7.393 30.759 6.908 30.229 11.356 26.146 11.841 26.675 7.393 30.759"/><path class="cls-2" d="M7.645,26.9a.358.358,0,0,1-.286-.142,16.327,16.327,0,0,1-2.214-3.941.358.358,0,0,1,.667-.261A15.7,15.7,0,0,0,7.93,26.319a.357.357,0,0,1-.069.5A.349.349,0,0,1,7.645,26.9Z"/><rect class="cls-2" x="2.56" y="22.323" width="5.837" height="0.717" transform="translate(-7.897 3.562) rotate(-21.396)"/><path class="cls-9" d="M6.729,27.6a.359.359,0,0,1-.286-.142l-.173-.234a.358.358,0,1,1,.578-.424l.168.224a.36.36,0,0,1-.287.576Z"/><path class="cls-9" d="M5.891,26.387a.36.36,0,0,1-.3-.168c-.107-.174-.213-.349-.314-.526a.359.359,0,0,1,.624-.355q.144.254.3.5a.359.359,0,0,1-.114.495A.368.368,0,0,1,5.891,26.387Z"/><path class="cls-9" d="M5.027,24.813a.36.36,0,0,1-.323-.2l-.126-.269a.358.358,0,0,1,.178-.475.354.354,0,0,1,.474.178l.121.254a.359.359,0,0,1-.167.479A.352.352,0,0,1,5.027,24.813Z"/><path class="cls-6" d="M22.566,31.075c-.717,0-.717.957-1.433.957s-.716-.957-1.432-.957-.717.957-1.433.957-.716-.957-1.432-.957v4.667l3.581.574L24,35.742v-3.71C23.282,32.032,23.282,31.075,22.566,31.075Z"/><path class="cls-3" d="M20.417,29.728l-3.581-.718v2.065c.716,0,.716.957,1.432.957s.716-.957,1.433-.957.716.957,1.432.957.716-.957,1.433-.957.716.957,1.432.957V29.01Z"/><path class="cls-2" d="M20.417,36.529A19.678,19.678,0,0,1,.726,16.837a3.76,3.76,0,0,1,3.881-3.846h.066a3.352,3.352,0,0,1,2.552,1.023,4.146,4.146,0,0,1,.911,2.862,12.28,12.28,0,0,0,24.56-.039,3.644,3.644,0,0,0-.326-1.246,2.92,2.92,0,0,0-.363-.47,2.464,2.464,0,0,1-.758-2.194,2.288,2.288,0,0,1,1.525-1.892c.281-.562,1.108-1.983,2.292-1.983a1.913,1.913,0,0,1,1.451.66l0,0a1.667,1.667,0,0,1,1.251-.466A1.893,1.893,0,0,1,39.5,10.372a1.528,1.528,0,0,1,1.117.265,2.712,2.712,0,0,1,.573,3.25,2.759,2.759,0,0,1-1.07,1.152l-.016,1.8a19.681,19.681,0,0,1-19.691,19.69ZM4.609,13.948a2.853,2.853,0,0,0-2.926,2.9A18.749,18.749,0,0,0,13.124,34.1a18.87,18.87,0,0,0,14.586,0A18.72,18.72,0,0,0,39.151,16.837v0l.019-2.091a.48.48,0,0,1,.308-.443,1.825,1.825,0,0,0,.855-.829,1.847,1.847,0,0,0-.22-2.023c-.273-.171-.444-.159-.506-.095a.461.461,0,0,1-.485.174.484.484,0,0,1-.356-.389c-.019-.094-.209-.939-.993-.939-.612,0-.705.333-.705.532a.485.485,0,0,1-.4.476.47.47,0,0,1-.529-.316c-.012-.034-.317-.881-1.071-.881-.609,0-1.281,1.087-1.511,1.614a.481.481,0,0,1-.345.277A1.347,1.347,0,0,0,32.2,13.061a1.557,1.557,0,0,0,.532,1.43,3.555,3.555,0,0,1,.5.676,4.586,4.586,0,0,1,.426,1.67,13.236,13.236,0,1,1-26.472,0,3.237,3.237,0,0,0-.668-2.183,2.441,2.441,0,0,0-1.852-.706Z"/><rect class="cls-2" x="16.478" y="29.01" width="0.717" height="6.732"/><rect class="cls-2" x="23.64" y="29.01" width="0.717" height="6.732"/><path class="cls-9" d="M7.328,7.8a3.16,3.16,0,0,0-.244-.445,3.487,3.487,0,0,0-.315-.407,3.372,3.372,0,0,0-.82-.652,3.265,3.265,0,0,0-1.016-.36,3.168,3.168,0,0,0-1.1,0,3.23,3.23,0,0,0-.538.142,3.4,3.4,0,0,0-.508.229A3.537,3.537,0,0,0,1.907,7a3.448,3.448,0,0,0-.625.95,3.312,3.312,0,0,0-.276,1.133,3.412,3.412,0,0,0,.136,1.165,3.6,3.6,0,0,0,.507,1.042,3.78,3.78,0,0,0,1.809,1.381c.045.017.092.031.138.046l.084.026V13.1c0,.589.01,1.179.037,1.768a.886.886,0,0,0,1.77,0c.026-.589.033-1.179.036-1.768V12.55l0-.063a1.535,1.535,0,0,0-.035-.25,1.643,1.643,0,0,0-.184-.468,1.623,1.623,0,0,0-.737-.665,1.591,1.591,0,0,0-.236-.086l-.117-.031a.621.621,0,0,1-.074-.02c-.024-.007-.049-.014-.072-.023a2.088,2.088,0,0,1-.985-.7,1.9,1.9,0,0,1-.293-.527,1.7,1.7,0,0,1-.009-1.163,1.928,1.928,0,0,1,.3-.55,2.124,2.124,0,0,1,1.053-.738,1.961,1.961,0,0,1,.654-.085,2.068,2.068,0,0,1,.673.135,2.408,2.408,0,0,1,.63.348,2.5,2.5,0,0,1,.278.248,2.745,2.745,0,0,1,.247.289l.009.012A.414.414,0,0,0,7.328,7.8Zm-3.5,4.984-.013,0,.02.005ZM3.68,12.59h0v0Z"/><path class="cls-6" d="M6.871,8.056a2.6,2.6,0,0,0-3.288-1.04,2.33,2.33,0,0,0-1.194,2.995,2.665,2.665,0,0,0,1.168,1.258,2.813,2.813,0,0,0,.4.178l.228.07a1.1,1.1,0,0,1,.772.819,3.331,3.331,0,0,1,.026.6L5,13.949l0,.127,0,.068a.554.554,0,0,1-.05.23.664.664,0,0,1-.232.255l-.088.066a2.876,2.876,0,0,0-.315.3,2.1,2.1,0,0,0-.526,1.56.622.622,0,1,1-1.239.114.609.609,0,0,1,.007-.171l.009-.043a3.827,3.827,0,0,1,1.126-2.071,3.679,3.679,0,0,1,.457-.361c.067-.024.236-.189.074.007a.26.26,0,0,0-.022.107l0-.06,0-.127.012-1.017c.009-.415,0-.5-.145-.6a.3.3,0,0,0-.1-.046l-.26-.071a3.557,3.557,0,0,1-.536-.217,3.145,3.145,0,0,1-1.51-1.7,2.894,2.894,0,0,1,.1-2.257,3.1,3.1,0,0,1,1.6-1.518,2.834,2.834,0,0,1,2.163-.015A3.063,3.063,0,0,1,7.069,7.944a.114.114,0,0,1-.2.112Z"/><polygon class="cls-6" points="7.66 18.327 1.261 18.327 1.204 16.698 7.66 16.698 7.66 18.327"/><path class="cls-2" d="M7.66,18.805h-6.4a.48.48,0,0,1-.479-.462L.726,16.714a.478.478,0,0,1,.478-.495H7.66a.479.479,0,0,1,.479.479v1.629A.478.478,0,0,1,7.66,18.805Zm-5.937-.957H7.182v-.672H1.7Z"/></g></g></svg>