<svg id="Buddy" xmlns="http://www.w3.org/2000/svg" viewBox="0 0 42 42"><defs><style>.cls-1{fill:none;}.cls-2{fill:#fed925;}.cls-3{fill:#ff9015;}.cls-4{fill:#ffe888;}.cls-5{fill:#fe3b1f;}.cls-6{fill:#ffc600;}.cls-7{fill:#4c2f48;}.cls-8{fill:#653230;}.cls-9{fill:#4c9c2e;}</style></defs><title>Pizza-Buddy</title><path class="cls-1" d="M20.315,28.522a11.82,11.82,0,0,1-1.838-.251.725.725,0,0,0-.878.71h0a.725.725,0,0,0,.569.709,13.231,13.231,0,0,0,2.064.282.726.726,0,1,0,.083-1.45Z"/><path class="cls-1" d="M13.832,26.124l-.01-.008a.5.5,0,0,0-.8.395v.566a.5.5,0,0,0,.208.406l.011.007a.5.5,0,0,0,.79-.406v-.565A.494.494,0,0,0,13.832,26.124Z"/><path class="cls-1" d="M26.789,27.03q-.428.24-.876.445a.724.724,0,0,0-.424.66h0a.725.725,0,0,0,1.023.663q.508-.231.994-.5a.726.726,0,0,0-.717-1.263Z"/><path class="cls-1" d="M30.418,25.261a.325.325,0,0,0,.567.217,13.352,13.352,0,0,0,2.5-4.174,9.4,9.4,0,0,1-1.169-1.07,11.8,11.8,0,0,1-1.227,2.677A4.456,4.456,0,0,0,30.418,25.261Z"/><path class="cls-2" d="M33.485,21.3a13.352,13.352,0,0,1-2.5,4.174.325.325,0,0,1-.567-.217,4.456,4.456,0,0,1,.671-2.35,11.8,11.8,0,0,0,1.227-2.677A9.359,9.359,0,0,1,30.733,9.89,11.863,11.863,0,0,0,10.627,22.426a2.392,2.392,0,0,1,.306,1.162v.034a.591.591,0,0,1-1.084.326,13.238,13.238,0,0,1-2.163-7.212,3.65,3.65,0,0,0-3.6-3.649A3.6,3.6,0,0,0,.5,16.681a20.5,20.5,0,0,0,39.95,6.482,9.478,9.478,0,0,1-1.257.084A9.316,9.316,0,0,1,33.485,21.3Zm-19.458,5.78a.5.5,0,0,1-.79.406l-.011-.007a.5.5,0,0,1-.208-.406v-.566a.5.5,0,0,1,.8-.395l.01.008a.494.494,0,0,1,.195.395Zm6.205,2.888a13.231,13.231,0,0,1-2.064-.282.725.725,0,0,1-.569-.709h0a.725.725,0,0,1,.878-.71,11.82,11.82,0,0,0,1.838.251.726.726,0,1,1-.083,1.45Zm7.274-1.679q-.485.273-.994.5a.725.725,0,0,1-1.023-.663h0a.724.724,0,0,1,.424-.66q.448-.206.876-.445a.726.726,0,0,1,.717,1.263Z"/><path class="cls-3" d="M21,6.6h0c2.441,0,3.087,3.684,6.124,3.2A1.966,1.966,0,0,1,29,10.533c1.332,1.728.177,1.8.2,4.024.015,1.9,2.157,4.866.382,7.414a6.242,6.242,0,0,0-.939,3.29v0a.208.208,0,0,1-.3.185,2.5,2.5,0,0,0-1.186-.3h0a2.513,2.513,0,0,0-1.228.322c-.242.136-.492.263-.745.378a2.511,2.511,0,0,0,1.042,4.793,2.485,2.485,0,0,0,1.038-.226c.382-.174.762-.367,1.128-.573a2.509,2.509,0,0,0,1.275-2.185v-.007a.388.388,0,0,1,.5-.37,2.1,2.1,0,0,0,2.168-.628,18.237,18.237,0,0,0,2.346-2.935,1.06,1.06,0,0,1,1.274-.5h0a1.71,1.71,0,0,0,1.679.595l.037-.008a.547.547,0,0,1,.318.748,18.817,18.817,0,0,1-11.258,9.943c-1.172.377-2,.111-3.257.25-.678.075-1.764.643-2.461.643-1.613,0-2.227-.916-3.222-2.1s-2.4-1.4-3.723-2.123c-1.63-.887-5.084-.053-6.377-1.364-2.01-2.039-4.242-3.993-3.263-5.924,1.382-2.728.975-3.159,1.21-5.428,0-1-.511-1.258-.507-2.438l-.031-.752a.19.19,0,0,1,.342-.123A2.811,2.811,0,0,1,5.9,16.743a15.029,15.029,0,0,0,2.453,8.181A2.358,2.358,0,0,0,10.334,26a2.306,2.306,0,0,0,.3-.019.531.531,0,0,1,.6.525v.574a2.29,2.29,0,0,0,.949,1.852l0,0,.008.005a2.26,2.26,0,0,0,1.41.429,2.312,2.312,0,0,0,2.2-2.326v-.521a2.292,2.292,0,0,0-.9-1.813l-.005,0,0,0,0,0a2.262,2.262,0,0,0-1.383-.469c-.057,0-.112,0-.167.006a.587.587,0,0,1-.636-.592v-.055a4.2,4.2,0,0,0-.531-2.029A10.073,10.073,0,0,1,20.984,6.6H21m-.726,25.154a2.509,2.509,0,0,0,.143-5.014,10.091,10.091,0,0,1-1.56-.213,2.541,2.541,0,0,0-.535-.058,2.509,2.509,0,0,0-.533,4.961,15.1,15.1,0,0,0,2.341.32c.048,0,.1,0,.144,0M21,4.82h-.021A11.856,11.856,0,0,0,10.627,22.426a2.392,2.392,0,0,1,.306,1.162v.034a.59.59,0,0,1-.6.593.572.572,0,0,1-.485-.267,13.238,13.238,0,0,1-2.163-7.212,3.65,3.65,0,0,0-3.593-3.649h0A3.6,3.6,0,0,0,.5,16.681a20.5,20.5,0,0,0,41,0,3.6,3.6,0,0,0-3.589-3.594h0A3.64,3.64,0,0,0,34.314,16.7a13.261,13.261,0,0,1-3.329,8.779.316.316,0,0,1-.239.109.326.326,0,0,1-.328-.326,4.456,4.456,0,0,1,.671-2.35A11.855,11.855,0,0,0,21,4.82ZM13.525,27.585a.489.489,0,0,1-.288-.1l-.011-.007a.5.5,0,0,1-.208-.406v-.566a.5.5,0,0,1,.8-.395l.01.008a.494.494,0,0,1,.195.395v.565a.5.5,0,0,1-.5.5Zm12.689,1.279a.729.729,0,0,1-.725-.729h0a.724.724,0,0,1,.424-.66q.448-.206.876-.445a.726.726,0,0,1,.717,1.263q-.485.273-.994.5a.711.711,0,0,1-.3.066Zm-5.94,1.109h-.042a13.231,13.231,0,0,1-2.064-.282.725.725,0,0,1-.569-.709h0a.727.727,0,0,1,.723-.727.688.688,0,0,1,.155.017,11.82,11.82,0,0,0,1.838.251.726.726,0,0,1-.041,1.451Z"/><path class="cls-4" d="M22.145,34.357a6.039,6.039,0,0,1,1.238-.337,10.592,10.592,0,0,1,1.406-.044A4.872,4.872,0,0,0,26.5,33.8,18.113,18.113,0,0,0,37.19,24.534a2.4,2.4,0,0,1-1.611-.687.348.348,0,0,0-.29.183,14.848,14.848,0,0,1-2.031,2.606l-.405.458a2.812,2.812,0,0,1-2.107.952,2.921,2.921,0,0,1-.407-.029,3.212,3.212,0,0,1-1.612,2.415c-.384.216-.781.418-1.181.6a3.21,3.21,0,0,1-4.1-1.291,3.222,3.222,0,0,1-3.173,2.69c-.061,0-.123,0-.184-.005a15.8,15.8,0,0,1-2.452-.335c-.044-.009-.088-.02-.132-.031a4.6,4.6,0,0,1,.812.754l.248.3c.831,1,1.289,1.548,2.434,1.548A4.676,4.676,0,0,0,22.145,34.357Z"/><path class="cls-4" d="M8.182,29.287c.523.531,1.779.592,2.994.652a7.805,7.805,0,0,1,3.217.588,12.944,12.944,0,0,0,1.214.555c.175.073.351.146.527.223a3.2,3.2,0,0,1-.969-1.758,2.925,2.925,0,0,1-1.535.5,2.959,2.959,0,0,1-1.848-.562l-.012-.008a3,3,0,0,1-1.242-2.427v-.377c-.065,0-.129.006-.194.006A3.062,3.062,0,0,1,7.765,25.28a15.749,15.749,0,0,1-1.736-3.566,11.531,11.531,0,0,1-.983,2.467c-.615,1.213.631,2.6,2.6,4.57C7.826,28.929,8.005,29.108,8.182,29.287Z"/><path class="cls-4" d="M28.926,11.838a2.18,2.18,0,0,0-.49-.9,1.258,1.258,0,0,0-1.2-.47,4.1,4.1,0,0,1-.656.054A4.824,4.824,0,0,1,23.1,8.61C22.409,7.9,21.81,7.279,21,7.279h-.014A9.367,9.367,0,0,0,12.8,21.184a4.9,4.9,0,0,1,.62,2.308,2.959,2.959,0,0,1,1.907.611l.01.008a3,3,0,0,1,1.171,2.182,3.2,3.2,0,0,1,2.5-.487,9.412,9.412,0,0,0,1.451.2,3.219,3.219,0,0,1,2.584,1.574,3.225,3.225,0,0,1,1.836-2.4c.235-.107.468-.226.693-.352a3.21,3.21,0,0,1,2.393-.307,6.959,6.959,0,0,1,1.008-2.952l.021-.032c1.006-1.444.493-3.091,0-4.683a8.485,8.485,0,0,1-.506-2.321A6.2,6.2,0,0,1,28.8,12.51,1.654,1.654,0,0,0,28.926,11.838Z"/><path class="cls-5" d="M21,4.82V5.868a10.806,10.806,0,0,1,9.2,16.49,5.5,5.5,0,0,0-.828,2.9,1.372,1.372,0,0,0,2.4.91,14.339,14.339,0,0,0,3.591-9.47,2.592,2.592,0,0,1,2.548-2.565,2.548,2.548,0,0,1,2.541,2.545,19.451,19.451,0,0,1-38.9,0,2.549,2.549,0,0,1,2.544-2.545,2.618,2.618,0,0,1,2.545,2.6,14.284,14.284,0,0,0,2.334,7.782,1.624,1.624,0,0,0,1.362.741,1.654,1.654,0,0,0,1.648-1.675,3.454,3.454,0,0,0-.439-1.672,10.808,10.808,0,0,1,9.44-16.048L21,4.82M13.525,28.633a1.551,1.551,0,0,0,1.55-1.549v-.565a1.556,1.556,0,0,0-.618-1.237,1.532,1.532,0,0,0-.938-.319,1.551,1.551,0,0,0-1.55,1.548v.566a1.559,1.559,0,0,0,.655,1.264,1.536,1.536,0,0,0,.9.292m12.689,1.279a1.742,1.742,0,0,0,.733-.16c.364-.166.725-.349,1.073-.545a1.775,1.775,0,0,0-.875-3.32h0a1.787,1.787,0,0,0-.869.228c-.259.146-.528.282-.8.406a1.776,1.776,0,0,0,.737,3.391m-5.94,1.11a1.775,1.775,0,0,0,.1-3.547,10.727,10.727,0,0,1-1.675-.229,1.775,1.775,0,0,0-.755,3.469,14.37,14.37,0,0,0,2.227.3l.1,0M21,4.82h-.021A11.856,11.856,0,0,0,10.627,22.426a2.392,2.392,0,0,1,.306,1.162v.034a.59.59,0,0,1-.6.593.572.572,0,0,1-.485-.267,13.238,13.238,0,0,1-2.163-7.212,3.65,3.65,0,0,0-3.593-3.649h0A3.6,3.6,0,0,0,.5,16.681a20.5,20.5,0,0,0,41,0,3.6,3.6,0,0,0-3.589-3.594h0A3.64,3.64,0,0,0,34.314,16.7a13.261,13.261,0,0,1-3.329,8.779.316.316,0,0,1-.239.109.326.326,0,0,1-.328-.326h0a4.456,4.456,0,0,1,.671-2.35A11.855,11.855,0,0,0,21,4.82ZM13.525,27.585a.489.489,0,0,1-.288-.1l-.011-.007a.5.5,0,0,1-.208-.406v-.566a.5.5,0,0,1,.8-.395l.01.008a.494.494,0,0,1,.195.395v.565a.5.5,0,0,1-.5.5Zm12.689,1.279a.729.729,0,0,1-.725-.729h0a.724.724,0,0,1,.424-.66q.448-.206.876-.445a.726.726,0,0,1,.717,1.263q-.485.273-.994.5a.711.711,0,0,1-.3.066Zm-5.94,1.109h-.042a13.231,13.231,0,0,1-2.064-.282.725.725,0,0,1-.569-.709h0a.727.727,0,0,1,.723-.727.688.688,0,0,1,.155.017,11.82,11.82,0,0,0,1.838.251.726.726,0,0,1-.041,1.451Z"/><path class="cls-6" d="M13.018,16.68s-.48.063-.483.7c-.022,4.229,4.9,8.366,8.881,7.828,4.408-.6,7.252-3.238,7.252-8.529Z"/><path class="cls-7" d="M25.069,13.909a.947.947,0,0,1-.415.023,1.056,1.056,0,0,1-.906-1.02,1.019,1.019,0,0,1,1.179-1.035c.715,0,.8.59.838,1.034a.248.248,0,0,0,.219.222l1.187.148a.243.243,0,0,0,.273-.236,2.632,2.632,0,0,0-5.222-.571,2.651,2.651,0,0,0,2.207,3.18,2.854,2.854,0,0,0,1.346-.215A.243.243,0,0,0,25.9,15.1l-.552-1.07A.238.238,0,0,0,25.069,13.909Z"/><path class="cls-7" d="M19.088,12.631a1.058,1.058,0,0,1-.03.479,1.2,1.2,0,0,1-1.318.9,1.364,1.364,0,0,1-.924-1.469,1.275,1.275,0,0,1,1.259-.813.262.262,0,0,0,.272-.193l.343-1.344a.258.258,0,0,0-.209-.32,2.991,2.991,0,0,0-3.42,2.262,3.079,3.079,0,0,0,2.112,3.526,2.974,2.974,0,0,0,3.726-3.6.26.26,0,0,0-.34-.176l-1.3.475A.257.257,0,0,0,19.088,12.631Z"/><path class="cls-8" d="M13.018,16.68a7.982,7.982,0,1,0,15.964,0Z"/><path class="cls-5" d="M8.374,32.34a7.987,7.987,0,0,1,10.951,4.277l-4.676-.9-3.775-1.642Z"/><path class="cls-5" d="M13.018,16.68c0,.148,0,.294.012.439a7.982,7.982,0,0,0,15.94,0c.008-.145.012-.291.012-.439Z"/><path class="cls-9" d="M7.821,28.32A15.682,15.682,0,0,1,4.234,27.9L4.6,26.363a13.426,13.426,0,0,0,5.7.145l.3,1.543A14.429,14.429,0,0,1,7.821,28.32Z"/><path class="cls-9" d="M35.148,28.026l-1.32-.853a11.049,11.049,0,0,0,1.639-3.926l1.556.226A12.488,12.488,0,0,1,35.148,28.026Z"/><path class="cls-9" d="M25.288,34.675a11.06,11.06,0,0,0-3.157-2.854l.732-1.392a12.522,12.522,0,0,1,3.669,3.285Z"/><path class="cls-9" d="M14.429,10.734,13.3,9.64a12.525,12.525,0,0,1,4.184-2.6l.573,1.466A11.015,11.015,0,0,0,14.429,10.734Z"/><path class="cls-9" d="M27.306,10.708a11.113,11.113,0,0,0-4.153-.937L23.109,8.2a12.631,12.631,0,0,1,4.81,1.061Z"/><path class="cls-5" d="M37.911,13.087a3.641,3.641,0,0,0-3.6,3.612,13.278,13.278,0,0,1-.829,4.6,9.316,9.316,0,0,0,5.708,1.943,9.478,9.478,0,0,0,1.257-.084,20.419,20.419,0,0,0,1.05-6.482A3.6,3.6,0,0,0,37.911,13.087Z"/><path class="cls-5" d="M32.316,20.234A11.881,11.881,0,0,0,30.733,9.89a9.359,9.359,0,0,0,1.583,10.344Z"/><path class="cls-1" d="M26.789,27.03q-.428.24-.876.445a.724.724,0,0,0-.424.66h0a.725.725,0,0,0,1.023.663q.508-.231.994-.5a.726.726,0,0,0-.717-1.263Z"/><path class="cls-1" d="M20.315,28.522a11.82,11.82,0,0,1-1.838-.251.725.725,0,0,0-.878.71h0a.725.725,0,0,0,.569.709,13.231,13.231,0,0,0,2.064.282.726.726,0,1,0,.083-1.45Z"/><path class="cls-1" d="M13.832,26.124l-.01-.008a.5.5,0,0,0-.8.395v.566a.5.5,0,0,0,.208.406l.011.007a.5.5,0,0,0,.79-.406v-.565A.494.494,0,0,0,13.832,26.124Z"/><path class="cls-5" d="M3.424,13.151A3.6,3.6,0,0,0,.5,16.681a20.378,20.378,0,0,0,1.908,8.633,9.613,9.613,0,0,0,2.71-6.7A9.592,9.592,0,0,0,3.424,13.151Z"/><path class="cls-7" d="M29.836,34.19a2.664,2.664,0,0,1,0-5.323,2.662,2.662,0,1,1,0,5.323Zm.21-3.986c-.542,0-1.221-.105-1.221,1.324,0,.791.783,1.089,1.326,1.089s.921-.652.879-1.193C30.973,30.678,30.589,30.2,30.046,30.2Z"/><path class="cls-7" d="M6.518,26.42a2.383,2.383,0,0,1-2.38-2.381,2.339,2.339,0,0,1,2.38-2.328A2.339,2.339,0,0,1,8.9,24.039,2.384,2.384,0,0,1,6.518,26.42Zm.354-3.364c-.485,0-1.18.158-1.136.983a.833.833,0,0,0,.892.887.969.969,0,0,0,1.1-.8A.928.928,0,0,0,6.872,23.056Z"/></svg>