<svg id="Buddy" xmlns="http://www.w3.org/2000/svg" viewBox="0 0 42 42"><defs><style>.cls-1{fill:#f7d9b5;}.cls-2{fill:#003b71;}.cls-3{fill:#00263a;}.cls-4{fill:#fff;}.cls-5{fill:none;}.cls-6{fill:#ffe8f2;}.cls-7{fill:#e7004c;}.cls-8{fill:#dae1e9;}.cls-9{fill:#38322c;}.cls-10{fill:#f5d93f;}</style></defs><title>Punk-Buddy</title><path class="cls-1" d="M2.125,16.349V18.6A19.026,19.026,0,0,0,38.673,26a18.9,18.9,0,0,0,1.5-7.405V16.231a2.273,2.273,0,0,0,.708-3.647c-.759-.476-1.114.008-1.114.008s-.242-1.31-1.44-1.31-1.165,1-1.165,1a1.742,1.742,0,0,0-1.5-1.189c-1.1,0-1.92,1.871-1.92,1.871a1.817,1.817,0,0,0-1.372,1.539c-.184,1.3.691,1.654,1.065,2.359a3.358,3.358,0,0,1,.348,1.731,12.631,12.631,0,1,1-25.262,0,3.219,3.219,0,0,1,.333-1.731c.373-.7,1.148-1.056.965-2.359A14.318,14.318,0,0,0,8.02,10.715"/><path class="cls-2" d="M38.113,20.761,35.06,25.654l.7-5.193s-1.447-.067-2.109-.092a12.666,12.666,0,0,1-7.679,9.907,2.281,2.281,0,0,1,.056.5,2.588,2.588,0,0,1-.767,1.78v4.613A19.015,19.015,0,0,0,40.026,20.943Z"/><path class="cls-2" d="M16.078,30.779a2.292,2.292,0,0,1,.073-.574A12.663,12.663,0,0,1,8.575,19.834l-2.363.278.649,4.493-3-4.246-1.639.214A19.017,19.017,0,0,0,17.554,37.28V33.15A2.92,2.92,0,0,1,16.078,30.779Z"/><circle class="cls-1" cx="21.147" cy="18.596" r="10.13"/><path class="cls-3" d="M13.408,18.6a7.739,7.739,0,0,0,15.478,0Z"/><path class="cls-4" d="M19.949,18.6h1.2a0,0,0,0,1,0,0v.948a.25.25,0,0,1-.25.25h-.7a.25.25,0,0,1-.25-.25V18.6A0,0,0,0,1,19.949,18.6Z"/><path class="cls-4" d="M18.751,18.6h1.2a0,0,0,0,1,0,0v.948a.25.25,0,0,1-.25.25H19a.25.25,0,0,1-.25-.25V18.6A0,0,0,0,1,18.751,18.6Z"/><path class="cls-4" d="M17.554,18.6h1.2a0,0,0,0,1,0,0v.948a.25.25,0,0,1-.25.25h-.7a.25.25,0,0,1-.25-.25V18.6A0,0,0,0,1,17.554,18.6Z"/><path class="cls-4" d="M16.356,18.6h1.2a0,0,0,0,1,0,0v.639a.21.21,0,0,1-.21.21h-.777a.21.21,0,0,1-.21-.21V18.6A0,0,0,0,1,16.356,18.6Z"/><path class="cls-4" d="M21.147,18.6h1.2a0,0,0,0,1,0,0v.948a.25.25,0,0,1-.25.25h-.7a.25.25,0,0,1-.25-.25V18.6A0,0,0,0,1,21.147,18.6Z"/><path class="cls-4" d="M22.344,18.6h1.2a0,0,0,0,1,0,0v.948a.25.25,0,0,1-.25.25h-.7a.25.25,0,0,1-.25-.25V18.6A0,0,0,0,1,22.344,18.6Z"/><path class="cls-4" d="M23.542,18.6h1.2a0,0,0,0,1,0,0v.948a.25.25,0,0,1-.25.25h-.7a.25.25,0,0,1-.25-.25V18.6A0,0,0,0,1,23.542,18.6Z"/><path class="cls-4" d="M24.74,18.6h1.2a0,0,0,0,1,0,0v.639a.21.21,0,0,1-.21.21H24.95a.21.21,0,0,1-.21-.21V18.6A0,0,0,0,1,24.74,18.6Z"/><path class="cls-5" d="M21.881,22.705l-.021,0,.012,0Z"/><path class="cls-5" d="M20.434,22.7l-.021,0,.009,0Z"/><path class="cls-3" d="M35.061,15.68a.5.5,0,0,1-.118-.985c.319-.078,1.031-.351,1.194-.7a.363.363,0,0,0-.028-.342c-.387-.8-2.19-.222-2.209-.216a.5.5,0,0,1-.326-.943c.979-.341,2.808-.571,3.434.725a1.343,1.343,0,0,1,.031,1.2,3,3,0,0,1-1.862,1.242A.518.518,0,0,1,35.061,15.68Z"/><path class="cls-3" d="M38.065,16.224a1.761,1.761,0,0,1-.3-.028,2.108,2.108,0,0,1-1.7-.965,1.09,1.09,0,0,1,.026-.972.475.475,0,0,1,.1-.122,2.159,2.159,0,0,0,.42-1.907.5.5,0,0,1,.985-.166,3.22,3.22,0,0,1-.629,2.7c.087.172.377.342.971.447a.565.565,0,0,0,.5-.123c.635-.519.819-2.215.833-2.768a.506.506,0,0,1,.511-.487.5.5,0,0,1,.487.512c-.007.265-.1,2.616-1.2,3.516A1.548,1.548,0,0,1,38.065,16.224Z"/><path class="cls-3" d="M39.937,16.681a2.727,2.727,0,0,1-.864-.154c-.436-.227-.813-.466-.781-.872a.593.593,0,0,1,.366-.472.5.5,0,0,1,.635.308l.009.027c.039.025.094.057.166.1.683.218.924-.085.934-.1a.49.49,0,0,1,.68-.158.508.508,0,0,1,.161.7A1.508,1.508,0,0,1,39.937,16.681Z"/><path class="cls-6" d="M19.382,14.853c0,.6-.9.982-2.014.982s-2.014-.219-2.014-.982c0-1.117.8-1.381,2.014-1.381C18.48,13.472,19.382,14.321,19.382,14.853Z"/><path class="cls-7" d="M17.368,16.164c-1.554,0-2.342-.441-2.342-1.31,0-1.71,1.641-1.71,2.342-1.71,1.239,0,2.342.956,2.342,1.71C19.71,15.637,18.769,16.164,17.368,16.164Zm0-2.364c-1.41,0-1.685.387-1.685,1.054,0,.434.567.653,1.685.653,1.008,0,1.686-.338,1.686-.653A1.744,1.744,0,0,0,17.368,13.8Z"/><path class="cls-6" d="M19.382,15.053c0,.6-.9.982-2.014.982s-2.014-.219-2.014-.982c0-1.117.8-1.381,2.014-1.381C18.48,13.672,19.382,14.521,19.382,15.053Z"/><path class="cls-3" d="M17.368,16.31c-1.518,0-2.288-.423-2.288-1.257,0-1.468,1.223-1.656,2.288-1.656,1.211,0,2.288.926,2.288,1.656C19.656,15.805,18.737,16.31,17.368,16.31Zm0-2.364c-1.448,0-1.739.424-1.739,1.107,0,.469.585.708,1.739.708.959,0,1.739-.318,1.739-.708A1.8,1.8,0,0,0,17.368,13.946Z"/><circle class="cls-3" cx="17.33" cy="14.663" r="0.782"/><path class="cls-3" d="M19.412,13.427l-2.7-.683-.672-.169a1.14,1.14,0,0,0-.588.016l-1.282.506a.136.136,0,0,1-.109-.248l1.273-.606a1.543,1.543,0,0,1,.786-.075l.69.124,2.743.493a.328.328,0,0,1-.116.646Z"/><path class="cls-3" d="M14.168,14.434a2.42,2.42,0,0,0,.606.124,2.3,2.3,0,0,0,.3,0l.147-.013.072-.01.036-.006.018,0h.018v.328c0,.656,0,.182,0,.328h-.011l-.011,0-.023,0-.045-.007-.091-.018-.177-.043a2.82,2.82,0,0,1-.945-.466.117.117,0,0,1-.023-.165A.119.119,0,0,1,14.168,14.434Z"/><path class="cls-6" d="M22.709,14.853c0,.6.9.982,2.014.982s2.013-.219,2.013-.982c0-1.117-.8-1.381-2.013-1.381C23.61,13.472,22.709,14.321,22.709,14.853Z"/><path class="cls-7" d="M24.723,16.164c-1.4,0-2.342-.527-2.342-1.31,0-.754,1.1-1.71,2.342-1.71.7,0,2.341,0,2.341,1.71C27.064,15.723,26.276,16.164,24.723,16.164Zm0-2.364a1.744,1.744,0,0,0-1.686,1.054c0,.315.678.653,1.686.653,1.118,0,1.685-.219,1.685-.653C26.408,14.187,26.133,13.8,24.723,13.8Z"/><path class="cls-6" d="M22.709,15.053c0,.6.9.982,2.014.982s2.013-.219,2.013-.982c0-1.117-.8-1.381-2.013-1.381C23.61,13.672,22.709,14.521,22.709,15.053Z"/><path class="cls-3" d="M24.723,16.31c-1.369,0-2.288-.5-2.288-1.257,0-.73,1.077-1.656,2.288-1.656,1.065,0,2.288.188,2.288,1.656C27.011,15.887,26.241,16.31,24.723,16.31Zm0-2.364a1.8,1.8,0,0,0-1.74,1.107c0,.39.781.708,1.74.708,1.154,0,1.739-.239,1.739-.708C26.462,14.37,26.171,13.946,24.723,13.946Z"/><circle class="cls-3" cx="24.761" cy="14.663" r="0.782"/><path class="cls-3" d="M22.54,12.785l2.743-.493.69-.124a1.543,1.543,0,0,1,.786.075l1.272.606a.134.134,0,0,1,.064.18.137.137,0,0,1-.173.068l-1.281-.506a1.14,1.14,0,0,0-.588-.016l-.672.169-2.7.683a.328.328,0,0,1-.16-.637Z"/><path class="cls-3" d="M28.031,14.64a2.82,2.82,0,0,1-.945.466l-.178.043-.09.018-.045.007-.023,0-.012,0h-.011v-.656h.018l.018,0,.036.006.072.01.147.013a2.3,2.3,0,0,0,.3,0,2.42,2.42,0,0,0,.606-.124.119.119,0,0,1,.149.074A.12.12,0,0,1,28.031,14.64Z"/><path class="cls-3" d="M21.147,8.552A10.044,10.044,0,1,1,11.1,18.6,10.056,10.056,0,0,1,21.147,8.552m0-1A11.043,11.043,0,1,0,32.189,18.6,11.043,11.043,0,0,0,21.147,7.553Z"/><path class="cls-7" d="M28.886,18.6a7.739,7.739,0,0,1-15.478,0H28.886m.349-.349H13.059V18.6a8.088,8.088,0,0,0,16.176,0v-.349Z"/><path class="cls-3" d="M22.161,17.308a.274.274,0,0,1-.274-.274.832.832,0,1,0-1.663,0,.275.275,0,0,1-.549,0,1.381,1.381,0,1,1,2.761,0A.275.275,0,0,1,22.161,17.308Z"/><path class="cls-3" d="M21.055,15.1a.275.275,0,0,1-.275-.275v-.614a.275.275,0,0,1,.549,0v.614A.275.275,0,0,1,21.055,15.1Z"/><path class="cls-7" d="M18.535,8.113l-.27.255a3.471,3.471,0,0,0-1.021,3.223l.086.417,1.011-1.465.366,3.129.377-.827a4.639,4.639,0,0,1,1.464-1.8h0l1.2,2.283.44-1.534a3.422,3.422,0,0,1,.493-1.03h0a3.424,3.424,0,0,1,.89-.87l1.539-.982L23.13,7.848Z"/><path class="cls-3" d="M18.707,13.989a.4.4,0,0,1-.049,0,.316.316,0,0,1-.265-.277l-.269-2.293-.534.773a.317.317,0,0,1-.571-.117l-.085-.417a3.766,3.766,0,0,1,1.113-3.517l.271-.255a.318.318,0,0,1,.2-.085l4.594-.266a.4.4,0,0,1,.168.037L25.257,8.63a.317.317,0,0,1,.167.267.312.312,0,0,1-.147.279l-1.539.982a3.115,3.115,0,0,0-1.248,1.72l-.44,1.535a.317.317,0,0,1-.273.227.309.309,0,0,1-.312-.168l-1.019-1.941a4.325,4.325,0,0,0-1.074,1.446L19,13.8A.317.317,0,0,1,18.707,13.989Zm-.366-3.763a.329.329,0,0,1,.076.009.317.317,0,0,1,.238.271l.236,2.012a4.953,4.953,0,0,1,1.468-1.73.322.322,0,0,1,.26-.054.311.311,0,0,1,.209.162l.83,1.582.223-.774a3.747,3.747,0,0,1,1.511-2.077l1.089-.694-1.422-.764-4.391.254-.187.176a3.13,3.13,0,0,0-.976,2.6l.575-.833A.318.318,0,0,1,18.341,10.226Z"/><path class="cls-7" d="M18.751,9.115l-.521-.141C17,8.639,16.6,7.889,15.347,8.125l-.235.044.616-.691c.942-1.057,1.485-.82,2.866-.507l.386.087L16.674,4.381l.918.123a7,7,0,0,1,4.289,2.272h0l.348-2.128.929.794a4.121,4.121,0,0,1,1.422,2.7l.023.877"/><path class="cls-3" d="M18.751,9.432a.3.3,0,0,1-.083-.011l-.522-.142a5.342,5.342,0,0,1-1.185-.5,2.072,2.072,0,0,0-1.556-.341l-.234.044a.317.317,0,0,1-.295-.522l.615-.69a2.2,2.2,0,0,1,2.619-.734L16.434,4.588A.316.316,0,0,1,16.4,4.23a.32.32,0,0,1,.32-.163l.918.123a7.3,7.3,0,0,1,4.035,1.916L21.916,4.6a.317.317,0,0,1,.519-.19l.929.794A4.425,4.425,0,0,1,24.9,8.109l.023.9a.316.316,0,0,1-.309.325.31.31,0,0,1-.324-.308l-.022-.877a3.778,3.778,0,0,0-1.312-2.468l-.5-.429-.257,1.573a.315.315,0,0,1-.223.253.32.32,0,0,1-.325-.093A6.678,6.678,0,0,0,17.55,4.818l-.092-.012,1.763,2.045a.318.318,0,0,1,.031.37.313.313,0,0,1-.342.146l-.7-.16c-1.121-.263-1.5-.35-2.242.482l-.068.075a3,3,0,0,1,1.363.454,4.851,4.851,0,0,0,1.053.45l.522.142a.316.316,0,0,1-.083.622Z"/><path class="cls-3" d="M19.2,6.834l1.5,1.633a.226.226,0,0,1-.319.319l-1.633-1.5a.317.317,0,1,1,.43-.466Z"/><circle class="cls-3" cx="24.444" cy="10.61" r="0.278"/><circle class="cls-3" cx="23.542" cy="11.014" r="0.278"/><circle class="cls-3" cx="25.265" cy="10.053" r="0.278"/><circle class="cls-3" cx="25.543" cy="10.888" r="0.278"/><circle class="cls-3" cx="26.449" cy="10.481" r="0.278"/><circle class="cls-3" cx="26.736" cy="11.293" r="0.278"/><circle class="cls-3" cx="16.356" cy="11.014" r="0.278"/><circle class="cls-3" cx="16.356" cy="10.203" r="0.278"/><circle class="cls-3" cx="15.364" cy="11.014" r="0.278"/><path class="cls-4" d="M19.149,5.728,20.805,6.9a.377.377,0,0,1-.435.615.385.385,0,0,1-.06-.053L18.937,5.969a.161.161,0,0,1,.212-.241Z"/><path class="cls-4" d="M23,6.283c.053.068.107.142.157.218a2.338,2.338,0,0,1,.136.239,2.392,2.392,0,0,1,.2.533,2.276,2.276,0,0,1,.066.575,2.113,2.113,0,0,1-.078.559.377.377,0,0,1-.739-.115V8.283c0-.157.017-.306.022-.453a4.305,4.305,0,0,0,0-.44c-.008-.148-.026-.3-.049-.455s-.053-.315-.081-.489a.209.209,0,0,1,.371-.164Z"/><path class="cls-4" d="M22.18,9.378l-.109.2.011-.024a2.726,2.726,0,0,0-.285.752,2.79,2.79,0,0,0-.057.41c0,.034,0,.069-.006.1l0,.111,0,.225a.175.175,0,0,1-.346.031l-.044-.22-.021-.112c-.007-.039-.015-.079-.02-.118a3.245,3.245,0,0,1-.035-.484,3.371,3.371,0,0,1,.146-.976l.011-.025.09-.2a.375.375,0,0,1,.686.3A.318.318,0,0,1,22.18,9.378Z"/><path class="cls-3" d="M35.06,25.927a.247.247,0,0,1-.093-.017.276.276,0,0,1-.18-.3l.664-4.9c-.667-.036-1.621-.085-1.8-.086l0-.549c.268,0,2.044.1,2.119.1a.275.275,0,0,1,.258.312L35.5,24.423l2.376-3.809a.287.287,0,0,1,.262-.127l1.91.2-.057.546-1.74-.183L35.293,25.8A.277.277,0,0,1,35.06,25.927Z"/><path class="cls-8" d="M35.691,26.3l-.464-.293.212-.338.465.293Zm.426-.676-.465-.293.213-.338.465.293Zm.425-.677-.465-.293.213-.338.465.293Zm.426-.675-.465-.293.213-.338.465.293Zm.426-.676-.465-.293.213-.338.464.293Zm.425-.676-.465-.293.213-.339.465.293Zm.425-.677-.465-.293.213-.338.465.293Z"/><path class="cls-3" d="M6.761,25.078a.275.275,0,0,1-.231-.125l-2.8-4.3L2.27,20.87l-.081-.543,1.636-.24a.275.275,0,0,1,.271.121l2.257,3.465-.414-3.53a.276.276,0,0,1,.239-.3l2.5-.317.068.545-2.233.283.516,4.422a.273.273,0,0,1-.272.307Z"/><path class="cls-4" d="M21.055,34.116a6.4,6.4,0,0,1-3.5-.966v4.13a19.2,19.2,0,0,0,7.711-.108V32.559A5.844,5.844,0,0,1,21.055,34.116Z"/><path class="cls-3" d="M21.055,34.39A6.663,6.663,0,0,1,17.4,33.379l.3-.457a6.113,6.113,0,0,0,3.35.919,5.564,5.564,0,0,0,4.009-1.47l.4.377A6.118,6.118,0,0,1,21.055,34.39Z"/><path class="cls-2" d="M24.444,30.8l-.278,6.586,2.292-.515,2.428-4.224-3.064-.2a31.783,31.783,0,0,0,2.155-3.216C27.765,29.329,24.444,30.8,24.444,30.8Z"/><path class="cls-3" d="M24.166,37.655a.279.279,0,0,1-.176-.063.276.276,0,0,1-.1-.223l.278-6.586a.274.274,0,0,1,.163-.239c1.147-.507,3.36-1.485,3.524-1.565a.307.307,0,0,1,.35.072c.16.191.219.261-1.87,3.15l2.566.167a.28.28,0,0,1,.225.145.274.274,0,0,1,0,.266L26.7,37a.277.277,0,0,1-.177.131l-2.292.514A.254.254,0,0,1,24.166,37.655Zm.546-6.677-.257,6.056,1.825-.409,2.148-3.737-2.623-.171a.278.278,0,0,1-.232-.158.273.273,0,0,1,.028-.278c.641-.885,1.319-1.843,1.735-2.466C26.481,30.2,25.166,30.776,24.712,30.978Z"/><polygon class="cls-8" points="27.495 36.604 27.019 36.33 27.118 36.157 27.595 36.431 27.495 36.604"/><path class="cls-8" d="M27.794,36.084l-.477-.273.2-.348.476.273Zm.4-.694-.476-.274.2-.347.477.273Zm.4-.7-.477-.273.2-.348.477.274Zm.4-.694-.476-.273.2-.348.476.273Zm.4-.694-.477-.274.037-.064A.345.345,0,0,0,29,32.8l.549,0a.9.9,0,0,1-.119.447Zm-.464-.72a.334.334,0,0,0-.18-.123l.145-.529a.872.872,0,0,1,.472.32Zm-.523-.151-.4-.027.037-.549.4.027Zm-.8-.053-.4-.026.035-.548.4.025Z"/><polygon class="cls-8" points="26.802 32.331 26.603 32.317 26.64 31.769 26.839 31.782 26.802 32.331"/><path class="cls-2" d="M17.923,30.9l.279,6.586-2.292-.515-1.188-2.349a.76.76,0,0,1,.334-1.019l1.49-.756a33.617,33.617,0,0,1-2.155-3.515C14.6,29.429,17.923,30.9,17.923,30.9Z"/><path class="cls-3" d="M18.2,37.755a.238.238,0,0,1-.059-.007l-2.292-.514a.271.271,0,0,1-.186-.143L14.478,34.74a1.031,1.031,0,0,1,.454-1.387l1.214-.617c-2.212-3.325-2.143-3.4-1.982-3.59a.3.3,0,0,1,.346-.066c.165.078,2.378,1.057,3.525,1.564a.273.273,0,0,1,.163.239l.279,6.586a.276.276,0,0,1-.275.286ZM16.1,36.728l1.816.406-.257-6.057c-.465-.206-1.836-.811-2.686-1.189.408.673,1.125,1.782,1.8,2.8a.274.274,0,0,1-.1.4l-1.49.756a.481.481,0,0,0-.212.649Z"/><path class="cls-3" d="M21.147,38.117A19.507,19.507,0,0,1,1.626,18.6v-3a.5.5,0,0,1,1,0v3A18.544,18.544,0,0,0,13.937,35.662a18.64,18.64,0,0,0,14.42,0A18.509,18.509,0,0,0,39.67,18.6V16.231a.5.5,0,0,1,.32-.466,1.754,1.754,0,0,0,.828-.8,1.822,1.822,0,0,0-.206-1.955c-.257-.159-.409-.152-.463-.1a.479.479,0,0,1-.505.182.506.506,0,0,1-.372-.407c-.017-.09-.2-.9-.949-.9a.727.727,0,0,0-.535.164.536.536,0,0,0-.131.323.5.5,0,0,1-.972.176c-.011-.032-.3-.849-1.028-.849-.586,0-1.238,1.059-1.463,1.572a.5.5,0,0,1-.359.29,1.3,1.3,0,0,0-.976,1.119,1.5,1.5,0,0,0,.517,1.387,3.553,3.553,0,0,1,.5.668,3.9,3.9,0,0,1,.406,1.986A13.13,13.13,0,0,1,8.017,18.6a3.594,3.594,0,0,1,.424-2.019c.03-.065.1-.188.176-.317a3.19,3.19,0,0,0,.6-2.183,5.154,5.154,0,0,0-.683-1.949.592.592,0,0,1-.055-.106c0-.01-.38-.975-.929-.826-.782.351-.115,2.284-.107,2.3a.5.5,0,0,1-.937.346c-.386-1.046-.67-2.978.711-3.587A1.905,1.905,0,0,1,9.4,11.624a6.153,6.153,0,0,1,.809,2.313,4.166,4.166,0,0,1-.728,2.825c-.068.116-.132.229-.19.337a2.929,2.929,0,0,0-.275,1.5,12.132,12.132,0,0,0,24.264,0A2.992,2.992,0,0,0,33,17.116a2.7,2.7,0,0,0-.373-.5,2.479,2.479,0,0,1-.754-2.184,2.282,2.282,0,0,1,1.509-1.882c.284-.564,1.1-1.958,2.277-1.958a1.9,1.9,0,0,1,1.43.637,1.678,1.678,0,0,1,1.236-.451,1.888,1.888,0,0,1,1.72,1.11,1.555,1.555,0,0,1,1.1.269,2.7,2.7,0,0,1,.574,3.235,2.742,2.742,0,0,1-1.049,1.137V18.6A19.507,19.507,0,0,1,21.147,38.117Z"/><circle class="cls-8" cx="16.031" cy="34.655" r="0.357"/><circle class="cls-8" cx="16.889" cy="35.513" r="0.357"/><circle class="cls-8" cx="16.889" cy="33.941" r="0.357"/><circle class="cls-8" cx="16.889" cy="31.611" r="0.357"/><path class="cls-8" d="M5.624,24.918,5.4,24.585l.457-.3.222.333Zm-.443-.665-.221-.332.457-.3.221.332Zm-.443-.665-.221-.332.457-.3.221.332ZM4.3,22.924l-.222-.333.457-.3.222.333Zm-.443-.666-.221-.332.457-.3.221.333Zm-.443-.664-.221-.332.457-.3.221.333Z"/><line class="cls-9" x1="29.677" y1="29.739" x2="31.375" y2="32.068"/><path class="cls-3" d="M31.375,32.343a.273.273,0,0,1-.222-.113l-1.7-2.33a.274.274,0,0,1,.443-.324l1.7,2.33a.275.275,0,0,1-.06.384A.271.271,0,0,1,31.375,32.343Z"/><line class="cls-9" x1="32.889" y1="27.817" x2="34.786" y2="29.946"/><path class="cls-3" d="M34.786,30.221a.279.279,0,0,1-.2-.092L32.684,28a.274.274,0,1,1,.41-.365l1.9,2.13a.275.275,0,0,1-.2.457Z"/><line class="cls-9" x1="33.037" y1="26.152" x2="34.403" y2="27.456"/><path class="cls-3" d="M34.4,27.73a.271.271,0,0,1-.189-.076l-1.366-1.3a.274.274,0,0,1,.379-.4l1.366,1.3a.274.274,0,0,1-.19.472Z"/><line class="cls-9" x1="36.058" y1="27.19" x2="36.626" y2="27.696"/><path class="cls-3" d="M36.626,27.97a.274.274,0,0,1-.183-.07l-.567-.5a.275.275,0,0,1,.365-.411l.568.5a.275.275,0,0,1-.183.48Z"/><line class="cls-9" x1="33.837" y1="24.152" x2="34.304" y2="24.457"/><path class="cls-3" d="M34.305,24.731a.28.28,0,0,1-.15-.043l-.467-.3a.275.275,0,0,1-.082-.38.278.278,0,0,1,.38-.081l.468.3a.274.274,0,0,1-.149.5Z"/><line class="cls-9" x1="32.339" y1="31.037" x2="33.038" y2="31.968"/><path class="cls-3" d="M33.038,32.242a.277.277,0,0,1-.22-.109l-.7-.932a.275.275,0,0,1,.44-.33l.7.932a.274.274,0,0,1-.22.439Z"/><line class="cls-9" x1="31.278" y1="28.092" x2="31.976" y2="29.023"/><path class="cls-3" d="M31.977,29.3a.275.275,0,0,1-.22-.11l-.7-.931a.275.275,0,1,1,.439-.33l.7.931a.274.274,0,0,1-.219.44Z"/><line class="cls-9" x1="13.56" y1="30.138" x2="12.461" y2="31.868"/><path class="cls-3" d="M12.461,32.143a.275.275,0,0,1-.232-.422l1.1-1.731a.274.274,0,0,1,.463.3l-1.1,1.731A.271.271,0,0,1,12.461,32.143Z"/><line class="cls-9" x1="8.95" y1="28.915" x2="7.652" y2="30.146"/><path class="cls-3" d="M7.652,30.421a.273.273,0,0,1-.2-.085.277.277,0,0,1,.01-.389l1.3-1.231a.275.275,0,0,1,.379.4l-1.3,1.232A.277.277,0,0,1,7.652,30.421Z"/><line class="cls-9" x1="9.201" y1="26.152" x2="7.835" y2="27.456"/><path class="cls-3" d="M7.835,27.73a.274.274,0,0,1-.189-.472l1.366-1.3a.274.274,0,0,1,.379.4l-1.367,1.3A.27.27,0,0,1,7.835,27.73Z"/><line class="cls-9" x1="6.28" y1="26.691" x2="5.812" y2="27.096"/><path class="cls-3" d="M5.812,27.371a.274.274,0,0,1-.179-.481l.467-.406a.274.274,0,0,1,.359.414l-.467.406A.269.269,0,0,1,5.812,27.371Z"/><line class="cls-9" x1="8.601" y1="24.751" x2="8.133" y2="25.057"/><path class="cls-3" d="M8.134,25.331a.274.274,0,0,1-.151-.5l.467-.306a.277.277,0,0,1,.38.08.273.273,0,0,1-.079.379l-.467.306A.274.274,0,0,1,8.134,25.331Z"/><line class="cls-9" x1="11.896" y1="30.438" x2="10.199" y2="32.467"/><path class="cls-3" d="M10.2,32.742a.272.272,0,0,1-.176-.063.276.276,0,0,1-.035-.387l1.7-2.03a.274.274,0,1,1,.421.351l-1.7,2.031A.276.276,0,0,1,10.2,32.742Z"/><line class="cls-9" x1="11.26" y1="28.491" x2="9.962" y2="29.922"/><path class="cls-3" d="M9.962,30.2a.274.274,0,0,1-.2-.459l1.3-1.43a.274.274,0,1,1,.406.369l-1.3,1.43A.273.273,0,0,1,9.962,30.2Z"/><polygon class="cls-7" points="8.137 11.406 5.61 9.954 2.638 14.856 5.166 16.308 8.137 11.406"/><path class="cls-3" d="M5.166,16.808a.5.5,0,0,1-.249-.067L2.39,15.29a.5.5,0,0,1-.178-.692L5.183,9.7a.5.5,0,0,1,.675-.174l2.529,1.452a.5.5,0,0,1,.177.692l-2.971,4.9A.5.5,0,0,1,5.166,16.808ZM3.33,14.678l1.662.954,2.453-4.048-1.662-.955Z"/><rect class="cls-1" x="3.186" y="8.758" width="2.363" height="2.388" rx="1.182" ry="1.182" transform="translate(-3.73 2.703) rotate(-24.471)"/><path class="cls-3" d="M4.373,11.645a1.684,1.684,0,1,1,.694-.152A1.677,1.677,0,0,1,4.373,11.645ZM4.362,9.258a.683.683,0,0,0-.621.965.7.7,0,0,0,.392.379.672.672,0,0,0,.521-.018h0a.683.683,0,0,0,.338-.9.68.68,0,0,0-.631-.421Z"/><path class="cls-10" d="M7.3,9.828,7.249,9.8c-.016-.009-.035-.018-.05-.028l-.092-.055-.08-.056c-.027-.019-.055-.037-.078-.056A2.009,2.009,0,0,1,6.7,9.383a1.362,1.362,0,0,1-.28-.445.878.878,0,0,1-.062-.446,3.067,3.067,0,0,1,.115-.445,7.65,7.65,0,0,1,.332-.89,5.237,5.237,0,0,1,.494-.89,5.237,5.237,0,0,1,.494.89,7.641,7.641,0,0,1,.331.89,3.067,3.067,0,0,1,.115.445.868.868,0,0,1-.062.446,1.358,1.358,0,0,1-.279.445,1.95,1.95,0,0,1-.246.222c-.022.019-.051.037-.077.056s-.052.037-.081.056l-.091.055c-.016.01-.034.019-.051.028S7.322,9.819,7.3,9.828Z"/><path class="cls-3" d="M7.43,10.3a.33.33,0,0,1-.141-.025c-.011-.005-.074-.037-.083-.043l-.159-.093-.094-.063-.122-.09a2.388,2.388,0,0,1-.3-.269,1.856,1.856,0,0,1-.38-.608,1.351,1.351,0,0,1-.088-.689,2.81,2.81,0,0,1,.107-.442,8.509,8.509,0,0,1,.377-1.028A5.9,5.9,0,0,1,7.1,5.979.5.5,0,0,1,7.5,5.768h0a.5.5,0,0,1,.408.212,5.812,5.812,0,0,1,.54.971,8.18,8.18,0,0,1,.354.952,3.438,3.438,0,0,1,.132.521,1.362,1.362,0,0,1-.094.7,1.826,1.826,0,0,1-.375.6A2.508,2.508,0,0,1,8.162,10l-.088.064-.1.07-.107.065A1.109,1.109,0,0,1,7.43,10.3ZM7.358,9.54l.145.288L7.358,9.54l.018-.019-.03-.075-.017.035-.05-.1.05.1-.087.191Zm.264-.077.187.177L7.642,9.4ZM7.439,9.29l.077.072L7.57,9.3l-.048-.069a1.45,1.45,0,0,0,.212-.187.839.839,0,0,0,.179-.282.394.394,0,0,0,.035-.2,1.815,1.815,0,0,0-.073-.283,7.5,7.5,0,0,0-.334-.916L7.5,7.276c-.015.03-.027.059-.041.087a7.3,7.3,0,0,0-.308.829,2.52,2.52,0,0,0-.1.366.366.366,0,0,0,.029.193.868.868,0,0,0,.184.293,1.355,1.355,0,0,0,.182.165l-.045.1Z"/><path class="cls-1" d="M2.843,15.428h0a1.182,1.182,0,0,1-1.632-.393l-.54-.891a1.182,1.182,0,0,1,.39-1.618h0a1.182,1.182,0,0,1,1.631.393l.54.891A1.182,1.182,0,0,1,2.843,15.428Z"/><path class="cls-3" d="M2.225,16.1a1.721,1.721,0,0,1-.4-.047,1.669,1.669,0,0,1-1.045-.763L.244,14.4A1.681,1.681,0,0,1,3.119,12.66l.54.892A1.681,1.681,0,0,1,2.225,16.1ZM1.68,12.849A.683.683,0,0,0,1.1,13.885l.54.891a.679.679,0,0,0,.424.31A.666.666,0,0,0,2.58,15h0a.685.685,0,0,0,.226-.934l-.54-.891a.685.685,0,0,0-.586-.329Z"/><path class="cls-1" d="M9.15,12.2s-.713-1.765-1.729-1.487c-1.32.582-.344,3.256-.344,3.256"/><path class="cls-3" d="M7.077,14.47a.5.5,0,0,1-.469-.328c-.116-.318-1.087-3.135.612-3.884,1.477-.406,2.3,1.534,2.393,1.757a.5.5,0,0,1-.925.375C8.515,11.966,8,11.075,7.553,11.2c-.6.271-.272,1.874-.007,2.605a.5.5,0,0,1-.3.639A.514.514,0,0,1,7.077,14.47Z"/><rect class="cls-1" x="2.174" y="10.288" width="2.363" height="3.828" rx="1.182" ry="1.182" transform="matrix(0.811, -0.585, 0.585, 0.811, -6.501, 4.265)"/><path class="cls-3" d="M3.787,14.477a1.685,1.685,0,0,1-1.367-.7l-.857-1.187a1.681,1.681,0,0,1,2.728-1.966l.856,1.188a1.68,1.68,0,0,1-1.36,2.664Zm-.861-3.551a.676.676,0,0,0-.4.128.683.683,0,0,0-.154.953L3.23,13.2a.682.682,0,0,0,1.107-.8L3.48,11.209A.679.679,0,0,0,2.926,10.926Z"/></svg>