<svg id="Buddy" xmlns="http://www.w3.org/2000/svg" viewBox="0 0 42 42"><defs><style>.cls-1{fill:#d2dce5;}.cls-2{fill:none;}.cls-3{fill:#aac6c9;}.cls-4{fill:#ff8672;}.cls-5{fill:#dce3eb;}.cls-6{fill:#003a70;}.cls-7{fill:#316094;}</style></defs><title>Robot-Buddy</title><rect class="cls-1" x="33.444" y="17.331" width="5.116"/><path class="cls-2" d="M34.743,15.772a1.153,1.153,0,0,0,.281.376l-.008-.006-2.923-2.653a1.18,1.18,0,0,1-.318-1.269l1.547-4.333a1.179,1.179,0,0,1,1.11-.783,1.2,1.2,0,0,1,.4.069,1.18,1.18,0,0,1,.714,1.507L34.26,12.272l1.758,1.6-.713.336A1.179,1.179,0,0,0,34.743,15.772Z"/><rect class="cls-3" x="33.444" y="17.331" width="5.116"/><path class="cls-4" d="M23.778,30.3a1.729,1.729,0,1,0,1.728,1.729A1.729,1.729,0,0,0,23.778,30.3Zm.525.259.215.1-.166.373-.215-.095Zm-.643-.086H23.9v.408H23.66Zm-.96.427.3.273-.158.176-.3-.274Zm-.366.536.389.126-.073.224-.388-.126Zm-.116.638.406-.043.025.235-.406.042Zm.271.835-.118-.2.354-.2.118.2Zm.47.448-.191-.139.24-.331.191.139Zm.078-2.7.216-.1.166.374-.216.095Zm.532,2.92-.23-.049.085-.4.23.049Zm.032-1.3a.262.262,0,0,1-.012-.429l.672-.506a.12.12,0,0,1,.171.162l-.466.7A.264.264,0,0,1,23.6,32.283Zm.385,1.3-.085-.4.23-.049.085.4Zm.611-.218-.24-.331.19-.139.241.331Zm.469-.448-.354-.2.118-.2.354.2Zm.247-.6-.407-.042.025-.235.406.043Zm-.019-.648-.389.126-.073-.224.389-.126Zm-.585-.312-.158-.175.3-.273.158.175Z"/><polygon class="cls-1" points="35.573 14.814 35.337 15.222 35.573 15.63 36.044 15.63 36.28 15.222 36.044 14.814 35.573 14.814"/><polygon class="cls-1" points="35.573 14.814 35.337 15.222 35.573 15.63 36.044 15.63 36.28 15.222 36.044 14.814 35.573 14.814"/><path class="cls-1" d="M36.6,14.4l-.583-.53-.713.336a1.179,1.179,0,0,0-.562,1.569,1.153,1.153,0,0,0,.281.376c.023.021.047.04.071.059l.013.01a.928.928,0,0,0,.083.056l.024.014.059.033.038.018.051.022.039.015c.028.011.056.02.084.028l.032.008.064.015.033.006c.024,0,.047.007.071.009l.024,0c.033,0,.065,0,.1,0h0a1.241,1.241,0,0,0,.228-.022l.015,0,.037-.009.027-.007.027-.007.038-.012.018-.006.047-.018.01,0q.027-.01.054-.024l.01,0,.016-.008a1.16,1.16,0,0,0,.346-.263A1.177,1.177,0,0,0,36.6,14.4Zm-.359,1.576h-.867l-.434-.751.434-.751h.867l.434.751Z"/><path class="cls-5" d="M37.355,15.843l2.527-1.193a1.18,1.18,0,0,0,.67-1.176l-.441-4.68a1.179,1.179,0,1,0-2.347.221l.363,3.856-1.648.778-.148.07.148-.07.439.4a1.653,1.653,0,0,1,.438,1.8"/><path class="cls-5" d="M4.644,15.845a1.654,1.654,0,0,1,.438-1.795l.438-.4h0l-1.648-.778.363-3.856A1.179,1.179,0,0,0,1.889,8.8l-.441,4.68a1.18,1.18,0,0,0,.67,1.176l2.526,1.192"/><polygon class="cls-5" points="5.858 14.889 5.736 15.344 6.07 15.677 6.525 15.555 6.647 15.1 6.314 14.767 5.858 14.889"/><path class="cls-5" d="M10.225,12.223,8.678,7.89a1.179,1.179,0,1,0-2.22.793L7.74,12.275,5.982,13.87,5.4,14.4a1.178,1.178,0,0,0-.08,1.665,1.16,1.16,0,0,0,.346.263h0a1.179,1.179,0,0,0,1.319-.182l2.923-2.653A1.18,1.18,0,0,0,10.225,12.223Zm-3.42,3.612-.838.225-.613-.614.224-.837.838-.225L7.029,15Z"/><path class="cls-5" d="M21,30.345a13,13,0,0,1-6.4-1.675l-.561,4.174c.123.055.236.1.341.149a17.045,17.045,0,0,0,13.235,0c.106-.045.218-.094.341-.149L27.4,28.67A13,13,0,0,1,21,30.345Zm2.774,3.415a1.729,1.729,0,1,1,1.728-1.728A1.729,1.729,0,0,1,23.778,33.76Z"/><polygon class="cls-5" points="4.485 19.324 4.23 20.038 4.695 20.637 4.498 21.369 5.01 21.928 4.873 22.673 5.429 23.189 5.353 23.934 5.946 24.389 5.917 25.126 6.534 25.528 6.562 26.265 7.209 26.618 7.294 27.35 7.966 27.652 8.108 28.375 8.802 28.625 8.998 29.336 9.71 29.533 9.96 30.227 10.683 30.369 10.985 31.041 11.717 31.126 12.07 31.772 12.806 31.8 13.209 32.418 13.773 32.396 14.262 28.751 14.023 28.719 13.396 27.8 12.33 27.484 11.854 26.481 10.851 26.005 10.534 24.939 9.615 24.312 9.47 23.209 8.661 22.444 8.692 21.331 8.015 20.448 8.221 19.354 7.691 18.377 7.802 18.065 4.35 18.065 4.069 18.69 4.485 19.324"/><polygon class="cls-5" points="33.786 19.354 33.992 20.447 33.315 21.331 33.346 22.444 32.537 23.209 32.392 24.312 31.473 24.939 31.156 26.005 30.153 26.481 29.677 27.484 28.612 27.8 27.985 28.719 27.745 28.751 28.235 32.396 28.798 32.418 29.201 31.8 29.937 31.772 30.29 31.126 31.022 31.041 31.324 30.369 32.047 30.227 32.297 29.533 33.009 29.336 33.205 28.625 33.899 28.375 34.041 27.652 34.713 27.35 34.798 26.618 35.445 26.265 35.473 25.528 36.09 25.126 36.061 24.389 36.654 23.934 36.578 23.189 37.134 22.673 36.997 21.928 37.509 21.369 37.312 20.637 37.777 20.038 37.522 19.324 37.938 18.69 37.657 18.065 34.205 18.065 34.316 18.377 33.786 19.354"/><path class="cls-5" d="M36.6,14.4l-.583-.53-1.758-1.6L35.542,8.68a1.179,1.179,0,1,0-2.22-.793L31.775,12.22a1.18,1.18,0,0,0,.318,1.269l2.923,2.653A1.179,1.179,0,0,0,36.6,14.4Zm-.359,1.576h-.867l-.434-.751.434-.751h.867l.434.751Z"/><path class="cls-5" d="M23.966,32.21l.466-.7a.12.12,0,0,0-.171-.162l-.672.506a.263.263,0,1,0,.377.356Z"/><path class="cls-4" d="M38.561,17.346H33.444c0,.216-.006.434-.019.665a.489.489,0,0,1,0,.054h5.123c.009-.217.016-.434.017-.653A.493.493,0,0,1,38.561,17.346Z"/><path class="cls-4" d="M3.439,17.338c0,.109,0,.218,0,.327v.042c0,.12.006.239.011.358H8.578c0-.084-.009-.174-.013-.273v-.031l0-.064,0-.1v-.013q0-.126,0-.252H3.439Z"/><path class="cls-6" d="M36.018,13.867l-1.758-1.6L35.542,8.68a1.179,1.179,0,1,0-2.22-.793L31.775,12.22a1.18,1.18,0,0,0,.318,1.269l1.47,1.334a3.567,3.567,0,0,0-.583.744l-1.521-1.38a2.117,2.117,0,0,1-.572-2.284L32.434,7.57A2.122,2.122,0,0,1,36.43,9l-1.071,3,.826.75.941-.445-.3-3.2a2.122,2.122,0,0,1,4.225-.4l.441,4.68h0A2.129,2.129,0,0,1,40.284,15.5L39.238,16a3.5,3.5,0,0,0-.477-.818l1.121-.529a1.18,1.18,0,0,0,.67-1.176l-.441-4.68a1.179,1.179,0,1,0-2.347.221l.363,3.856Z"/><path class="cls-6" d="M7.74,12.275,6.458,8.683a1.179,1.179,0,1,1,2.22-.793l1.547,4.333a1.18,1.18,0,0,1-.318,1.269l-1.47,1.334a3.51,3.51,0,0,1,.582.745l1.522-1.381a2.117,2.117,0,0,0,.572-2.284L9.566,7.573A2.121,2.121,0,0,0,5.57,9l1.071,3-.826.749L4.874,12.3l.3-3.2A2.123,2.123,0,0,0,3.262,6.8q-.1-.009-.2-.009A2.121,2.121,0,0,0,.95,8.708l-.441,4.68a2.129,2.129,0,0,0,1.207,2.118L2.763,16a3.5,3.5,0,0,1,.477-.818l-1.122-.529a1.18,1.18,0,0,1-.67-1.176L1.889,8.8A1.179,1.179,0,0,1,3.061,7.729a1.049,1.049,0,0,1,.112,0A1.179,1.179,0,0,1,4.236,9.018l-.363,3.856,2.109,1"/><path class="cls-6" d="M21,7.841a9.452,9.452,0,1,1-3.692.745A9.428,9.428,0,0,1,21,7.841M21,6.9A10.429,10.429,0,1,0,31.432,17.327,10.429,10.429,0,0,0,21,6.9Z"/><path class="cls-6" d="M9.507,17.757v-.033l0-.055,0-.09v-.013c0-.078,0-.156,0-.235a3.494,3.494,0,0,0-1.062-2.5l-.7.635a2.553,2.553,0,0,1,.819,1.87q0,.128,0,.255V17.6l0,.1,0,.064v.031c0,.11.009.209.014.3a12.448,12.448,0,0,0,24.849,0,.458.458,0,0,0,0-.083c.013-.236.019-.459.019-.68a2.552,2.552,0,0,1,.819-1.873l-.7-.635A3.493,3.493,0,0,0,32.5,17.331c0,.228-.007.459-.022.706a.531.531,0,0,0,0,.08,11.5,11.5,0,0,1-22.96-.08C9.515,17.951,9.511,17.86,9.507,17.757Z"/><path class="cls-6" d="M39.5,17.243a3.487,3.487,0,0,0-.742-2.064l-.882.416a2.549,2.549,0,0,1,.682,1.736.428.428,0,0,0,.007.081A17.568,17.568,0,0,1,4.821,24.169a17.425,17.425,0,0,1-1.377-6.462v-.042c0-.109,0-.218,0-.327v-.006A2.551,2.551,0,0,1,4.121,15.6l-.881-.416A3.487,3.487,0,0,0,2.5,17.334v.007c0,.1,0,.214,0,.342v.043a18.511,18.511,0,0,0,35.554,6.81,18.4,18.4,0,0,0,1.456-7.205A.514.514,0,0,0,39.5,17.243Z"/><path class="cls-5" d="M29.744,13.635a9.518,9.518,0,1,0,.745,3.692A9.454,9.454,0,0,0,29.744,13.635ZM24.4,11.578a2.155,2.155,0,1,1-2.155,2.155A2.157,2.157,0,0,1,24.4,11.578Zm-6.789,0a2.155,2.155,0,1,1-2.155,2.155A2.157,2.157,0,0,1,17.609,11.578ZM27.761,20.2c-.04.095-.083.189-.127.282a7.371,7.371,0,0,1-.826,1.343c-.091.117-.185.232-.283.343a7.4,7.4,0,0,1-1.342,1.2c-.093.065-.187.127-.283.187a7.31,7.31,0,0,1-1.342.662c-.094.035-.188.068-.283.1a7.279,7.279,0,0,1-1.342.3c-.094.012-.188.022-.283.03-.213.018-.429.029-.646.029-.235,0-.467-.012-.7-.034-.095-.008-.189-.019-.283-.032a7.275,7.275,0,0,1-1.342-.309c-.1-.032-.19-.066-.283-.1a7.3,7.3,0,0,1-1.342-.675c-.1-.061-.19-.125-.283-.19a7.384,7.384,0,0,1-1.342-1.222q-.147-.171-.283-.351a7.336,7.336,0,0,1-.777-1.278c-.044-.093-.087-.187-.127-.282a7.322,7.322,0,0,1-.58-2.864H28.341A7.322,7.322,0,0,1,27.761,20.2Z"/><path class="cls-4" d="M17.609,15.416a1.683,1.683,0,0,0,1.684-1.683H17.609Z"/><path class="cls-4" d="M15.925,13.733a1.684,1.684,0,0,1,1.684-1.684v1.684Z"/><path class="cls-4" d="M24.4,15.416a1.683,1.683,0,0,0,1.684-1.683H24.4Z"/><path class="cls-4" d="M22.715,13.733A1.683,1.683,0,0,1,24.4,12.049v1.684Z"/><path class="cls-4" d="M23.685,20.884v3.278a7.246,7.246,0,0,0,1.159-.579v-2.7Z"/><rect class="cls-4" x="18.793" y="17.803" width="1.159" height="2.61"/><rect class="cls-4" x="23.685" y="17.803" width="1.159" height="2.61"/><path class="cls-4" d="M26.946,20.413h.717c.034-.072.067-.145.1-.218a7.288,7.288,0,0,0,.564-2.392H26.946Z"/><rect class="cls-4" x="22.054" y="17.803" width="1.159" height="2.61"/><path class="cls-4" d="M26.946,21.635a7.4,7.4,0,0,0,.478-.751h-.478Z"/><rect class="cls-4" x="15.532" y="17.803" width="1.159" height="2.61"/><path class="cls-4" d="M25.315,20.884v2.383a7.4,7.4,0,0,0,1.16-1.048V20.884Z"/><rect class="cls-4" x="20.424" y="17.803" width="1.159" height="2.61"/><rect class="cls-4" x="25.315" y="17.803" width="1.159" height="2.61"/><path class="cls-4" d="M15.532,20.884v1.335a7.439,7.439,0,0,0,1.159,1.048V20.884Z"/><path class="cls-4" d="M13.682,17.8a7.288,7.288,0,0,0,.564,2.392c.031.073.064.146.1.218h.717V17.8Z"/><path class="cls-4" d="M17.163,20.884v2.7a7.246,7.246,0,0,0,1.159.579V20.884Z"/><path class="cls-4" d="M14.584,20.884a7.1,7.1,0,0,0,.477.75v-.75Z"/><path class="cls-4" d="M22.054,20.884v3.709a7.28,7.28,0,0,0,1.159-.264V20.884Z"/><rect class="cls-4" x="17.163" y="17.803" width="1.159" height="2.61"/><path class="cls-4" d="M20.424,20.884v3.761q.286.023.58.023t.579-.023V20.884Z"/><path class="cls-4" d="M18.793,20.884v3.445a7.33,7.33,0,0,0,1.159.264V20.884Z"/><rect class="cls-7" x="23.66" y="30.476" width="0.236" height="0.409"/><rect class="cls-7" x="23.11" y="30.593" width="0.236" height="0.409" transform="matrix(0.914, -0.407, 0.407, 0.914, -10.515, 12.105)"/><rect class="cls-7" x="22.655" y="30.923" width="0.236" height="0.409" transform="translate(-15.597 27.224) rotate(-48.001)"/><rect class="cls-7" x="22.374" y="31.41" width="0.236" height="0.409" transform="translate(-14.524 43.239) rotate(-72.004)"/><rect class="cls-7" x="22.229" y="32.055" width="0.409" height="0.236" transform="translate(-3.241 2.522) rotate(-6.002)"/><rect class="cls-7" x="22.403" y="32.59" width="0.409" height="0.236" transform="translate(-13.324 15.684) rotate(-29.997)"/><rect class="cls-7" x="22.779" y="33.007" width="0.409" height="0.236" transform="translate(-17.325 32.244) rotate(-53.994)"/><rect class="cls-7" x="23.292" y="33.236" width="0.409" height="0.236" transform="translate(-14.012 49.406) rotate(-78.005)"/><rect class="cls-7" x="23.941" y="33.149" width="0.236" height="0.409" transform="translate(-6.413 5.735) rotate(-12.008)"/><rect class="cls-7" x="24.454" y="32.921" width="0.236" height="0.409" transform="translate(-14.777 20.767) rotate(-35.997)"/><rect class="cls-7" x="24.83" y="32.503" width="0.236" height="0.409" transform="translate(-15.851 37.964) rotate(-60.006)"/><rect class="cls-7" x="25.004" y="31.969" width="0.236" height="0.409" transform="translate(-9.502 53.793) rotate(-83.998)"/><rect class="cls-7" x="24.859" y="31.496" width="0.409" height="0.236" transform="translate(-8.543 9.292) rotate(-18)"/><rect class="cls-7" x="24.578" y="31.009" width="0.409" height="0.236" transform="translate(-14.464 24.583) rotate(-42.007)"/><rect class="cls-7" x="24.123" y="30.679" width="0.409" height="0.236" transform="translate(-13.7 40.5) rotate(-66.008)"/><path class="cls-7" d="M36.681,16.061A1.177,1.177,0,0,0,36.6,14.4l-.583-.53.461-.218.439.4a1.653,1.653,0,0,1,.438,1.8l-1.02.482A1.173,1.173,0,0,0,36.681,16.061Z"/><path class="cls-7" d="M36.242,14.471h-.867l-.434.751.434.751h.867l.434-.751Zm-.2,1.159h-.471l-.236-.408.236-.408h.471l.236.408Z"/><path class="cls-7" d="M35.016,16.142l.008.006h0c.023.021.047.04.071.059h0c.019.015.039.028.059.041l.027.019.055.032.035.019.054.025.041.018.051.019.046.016.049.014.053.012.044.009.063.008.036,0c.033,0,.067,0,.1,0h.052l.036,0h0l.027,0,.051-.006.018,0h0l.036-.006h.008l.015,0,.015,0h0l.023,0h0l.026-.007.016,0,.033-.01.016,0,.017-.006h0l.038-.014.01,0,.01,0h0l.042-.019h0l.009,0,.01,0,.016-.008,1.02-.481.524-.248a2.549,2.549,0,0,1,.682,1.736H33.444a2.552,2.552,0,0,1,.819-1.873Z"/><path class="cls-7" d="M4.121,15.6a2.551,2.551,0,0,0-.682,1.734v0H8.556v0a2.553,2.553,0,0,0-.819-1.87l-.753.684a1.179,1.179,0,0,1-1.319.182h0l-1.021-.482Z"/><path class="cls-7" d="M5.319,16.064A1.178,1.178,0,0,1,5.4,14.4l.583-.529-.461-.218-.439.4a1.652,1.652,0,0,0-.437,1.8l1.02.482A1.16,1.16,0,0,1,5.319,16.064Z"/><path class="cls-7" d="M6.416,14.384l-.838.225-.224.837.613.614.838-.225L7.029,15Zm.109,1.171-.455.122-.334-.333.122-.455.456-.122.333.333Z"/><path class="cls-7" d="M37.657,18.065l.281.625-.416.634.255.714-.465.6.2.732L37,21.928l.137.745-.556.516.076.745-.593.455.029.737-.617.4-.028.737-.647.353-.085.732-.672.3-.142.723-.694.25-.2.711-.712.2-.25.694-.723.142-.3.672-.732.085-.353.646L29.2,31.8l-.4.618-.563-.022-.49-3.645.24-.032.627-.919,1.065-.316.476-1,1-.476.317-1.066.919-.627.145-1.1.809-.765-.031-1.113.677-.884-.206-1.093.53-.977-.111-.312h-.777v.029a12.448,12.448,0,0,1-24.849,0v-.029H7.8l-.111.312.53.977-.206,1.094.677.883-.031,1.113.809.765.145,1.1.919.627.317,1.066,1,.476.476,1L13.4,27.8l.627.919.239.032L13.773,32.4l-.564.022-.4-.618-.736-.028-.353-.646-.732-.085-.3-.672-.723-.142-.25-.694L9,29.336l-.2-.711-.694-.25-.142-.723-.672-.3-.085-.732-.647-.353-.028-.737-.617-.4.029-.737-.593-.455.076-.745-.556-.516.137-.745L4.5,21.369l.2-.732-.465-.6.255-.714-.416-.634.281-.625H3.455A17.559,17.559,0,0,0,33.423,29.751a17.5,17.5,0,0,0,5.128-11.686ZM27.621,32.993a17.045,17.045,0,0,1-13.235,0c-.1-.045-.218-.094-.341-.149l.561-4.174a13.055,13.055,0,0,0,12.8,0l.561,4.174C27.839,32.9,27.727,32.948,27.621,32.993Z"/><path class="cls-7" d="M24.4,12.049a1.684,1.684,0,1,1-1.683,1.684A1.684,1.684,0,0,1,24.4,12.049m0-.471a2.155,2.155,0,1,0,2.155,2.155A2.157,2.157,0,0,0,24.4,11.578Z"/><path class="cls-7" d="M17.609,12.049a1.684,1.684,0,1,1-1.684,1.684,1.684,1.684,0,0,1,1.684-1.684m0-.471a2.155,2.155,0,1,0,2.155,2.155,2.157,2.157,0,0,0-2.155-2.155Z"/><path class="cls-7" d="M24.4,12.049a1.684,1.684,0,0,1,1.684,1.684H24.4Z"/><path class="cls-7" d="M22.715,13.733A1.682,1.682,0,0,0,24.4,15.416V13.733Z"/><path class="cls-7" d="M17.609,12.049a1.684,1.684,0,0,1,1.684,1.684H17.609Z"/><path class="cls-7" d="M15.925,13.733a1.683,1.683,0,0,0,1.684,1.683V13.733Z"/><path class="cls-7" d="M28.325,17.8c.01-.156.016-.313.016-.472H13.666c0,.159.006.316.016.472h1.379v2.61h-.717l.029.064c.066.139.137.274.211.407h.477v.75c.029.041.059.081.089.121q.136.18.283.351c.032.038.066.075.1.113V20.884h1.159v2.383l.084.061c.093.065.187.129.283.19l.105.065v-2.7h1.159v3.278l.078.031c.093.035.187.069.283.1l.11.035V20.884h1.159v3.709l.073.01c.094.013.188.024.283.032l.116.01V20.884h1.159v3.761l.067,0c.1-.008.189-.018.283-.03l.121-.017V20.884h1.159v3.445l.062-.019c.1-.031.189-.064.283-.1l.127-.049V20.884h1.159v2.7l.056-.034c.1-.06.19-.122.283-.187.045-.031.088-.063.132-.095V20.884h1.16v1.335c.016-.019.033-.037.05-.056.1-.111.192-.226.283-.343.047-.061.093-.123.138-.185v-.751h.478c.073-.133.144-.268.21-.407l.029-.064h-.717V17.8Zm-12.793,2.61V17.8h1.159v2.61Zm1.631,0V17.8h1.159v2.61Zm1.63,0V17.8h1.159v2.61Zm1.631,0V17.8h1.159v2.61Zm1.63,0V17.8h1.159v2.61Zm1.631,0V17.8h1.159v2.61Zm2.79,0h-1.16V17.8h1.16Z"/></svg>