<svg id="Buddy" xmlns="http://www.w3.org/2000/svg" viewBox="0 0 42 42"><defs><style>.cls-1{fill:#ffb71b;}.cls-2{fill:#6a3f24;}.cls-3{fill:#f4cfb5;}.cls-4{fill:#fff;}.cls-5{fill:none;}.cls-6{fill:#c47c5a;}.cls-7{fill:#00609c;}</style></defs><title>Runner-Buddy</title><circle class="cls-1" cx="21.937" cy="8.06" r="2.931"/><path class="cls-2" d="M21.938,11.32A3.261,3.261,0,1,1,25.2,8.06,3.264,3.264,0,0,1,21.938,11.32Zm0-5.862a2.6,2.6,0,1,0,2.6,2.6A2.6,2.6,0,0,0,21.938,5.458Z"/><circle class="cls-3" cx="21" cy="17.431" r="10.158"/><path class="cls-1" d="M19.128,11.713,17.9,11.558c-.413-.046-.824-.118-1.213-.132a5.291,5.291,0,0,0-1.19.092,8.251,8.251,0,0,0-1.17.344.123.123,0,0,1-.089-.23,8.38,8.38,0,0,1,1.178-.454,5.575,5.575,0,0,1,1.268-.2c.439-.02.85.019,1.262.031l1.241.052a.329.329,0,0,1-.028.658Z"/><path class="cls-2" d="M13.241,17.431a7.759,7.759,0,0,0,15.518,0Z"/><path class="cls-4" d="M19.8,17.431H21a0,0,0,0,1,0,0v.951a.25.25,0,0,1-.25.25h-.7a.25.25,0,0,1-.25-.25v-.951A0,0,0,0,1,19.8,17.431Z"/><path class="cls-4" d="M18.6,17.431h1.2a0,0,0,0,1,0,0v.951a.25.25,0,0,1-.25.25h-.7a.25.25,0,0,1-.25-.25v-.951A0,0,0,0,1,18.6,17.431Z"/><path class="cls-4" d="M17.4,17.431h1.2a0,0,0,0,1,0,0v.951a.25.25,0,0,1-.25.25h-.7a.25.25,0,0,1-.25-.25v-.951A0,0,0,0,1,17.4,17.431Z"/><path class="cls-4" d="M16.2,17.431h1.2a0,0,0,0,1,0,0v.641a.211.211,0,0,1-.211.211h-.779a.211.211,0,0,1-.211-.211v-.641A0,0,0,0,1,16.2,17.431Z"/><path class="cls-4" d="M21,17.431h1.2a0,0,0,0,1,0,0v.951a.25.25,0,0,1-.25.25h-.7a.25.25,0,0,1-.25-.25v-.951A0,0,0,0,1,21,17.431Z"/><path class="cls-4" d="M22.2,17.431h1.2a0,0,0,0,1,0,0v.951a.25.25,0,0,1-.25.25h-.7a.25.25,0,0,1-.25-.25v-.951A0,0,0,0,1,22.2,17.431Z"/><path class="cls-4" d="M23.4,17.431h1.2a0,0,0,0,1,0,0v.951a.25.25,0,0,1-.25.25h-.7a.25.25,0,0,1-.25-.25v-.951A0,0,0,0,1,23.4,17.431Z"/><path class="cls-4" d="M24.6,17.431h1.2a0,0,0,0,1,0,0v.641a.211.211,0,0,1-.211.211h-.779a.211.211,0,0,1-.211-.211v-.641A0,0,0,0,1,24.6,17.431Z"/><path class="cls-5" d="M21.736,21.551l-.021,0,.011.005Z"/><path class="cls-5" d="M20.285,21.548l-.021,0,.01,0Z"/><path class="cls-2" d="M20.808,16.67a.276.276,0,0,1-.158-.5l.255-.177a.8.8,0,0,0,.158-1.155,1.357,1.357,0,0,1-.275-.573l-.25-1.167a.275.275,0,0,1,.212-.326.271.271,0,0,1,.327.211l.25,1.168a.789.789,0,0,0,.162.337,1.346,1.346,0,0,1-.268,1.956l-.256.179A.277.277,0,0,1,20.808,16.67Z"/><path class="cls-2" d="M14.476,12.171c.132.393.461.692.782.651a.281.281,0,0,1,.071.558.309.309,0,0,1-.086,0L15.2,13.37a1.12,1.12,0,0,1-.7-.447,1.5,1.5,0,0,1-.26-.711.121.121,0,0,1,.106-.133.123.123,0,0,1,.128.081Z"/><path class="cls-2" d="M14.877,11.871c.132.393.46.692.781.651a.281.281,0,1,1,.071.557.268.268,0,0,1-.085,0l-.04-.007a1.124,1.124,0,0,1-.7-.448,1.489,1.489,0,0,1-.259-.71.12.12,0,0,1,.106-.133.121.121,0,0,1,.127.081Z"/><path class="cls-2" d="M27.063,11.912a1.489,1.489,0,0,1-.259.71,1.124,1.124,0,0,1-.7.448l-.039.007a.281.281,0,1,1-.015-.555c.321.041.649-.258.781-.651l0-.011a.12.12,0,0,1,.233.052Z"/><path class="cls-2" d="M27.413,12.212a1.5,1.5,0,0,1-.259.711,1.123,1.123,0,0,1-.7.447l-.038.007a.281.281,0,0,1-.1-.553.318.318,0,0,1,.087,0c.321.041.649-.258.782-.651l0-.011a.121.121,0,0,1,.152-.075A.118.118,0,0,1,27.413,12.212Z"/><path class="cls-3" d="M2.019,17.447a19.077,19.077,0,0,0,36.646,7.425,18.942,18.942,0,0,0,1.5-7.425V15.076a2.279,2.279,0,0,0,.711-3.657c-.762-.477-1.117.008-1.117.008s-.243-1.313-1.445-1.313-1.168,1-1.168,1a1.745,1.745,0,0,0-1.505-1.192c-1.1,0-1.924,1.876-1.924,1.876a1.825,1.825,0,0,0-1.377,1.544c-.184,1.306.693,1.658,1.068,2.365a3.374,3.374,0,0,1,.35,1.735,12.666,12.666,0,0,1-25.331,0,3.225,3.225,0,0,1,.334-1.735c.375-.707,1.252-1.059,1.068-2.365s-1.777-1.655-1.777-1.655.442-5.559-1.525-5.559c-1.183,0-1.124,1.351-1.179,2.628a17.737,17.737,0,0,1-.189,1.978s-.1-.625-1.3-.625S2.41,11.427,2.41,11.427a.928.928,0,0,0-1.217-.308c-1.087.468-.681,2.165-.225,3.107a1.852,1.852,0,0,0,1.051.968Z"/><path class="cls-2" d="M7.125,14.523a.474.474,0,0,1-.117-.014,3,3,0,0,1-1.866-1.244,1.356,1.356,0,0,1,.03-1.209c.628-1.3,2.46-1.067,3.444-.726a.5.5,0,0,1-.327.946c-.47-.161-1.884-.467-2.216.216a.369.369,0,0,0-.027.344c.165.348.891.626,1.2.7a.5.5,0,0,1-.117.987Z"/><path class="cls-2" d="M4.113,15.068a1.556,1.556,0,0,1-1-.361c-1.1-.9-1.2-3.26-1.2-3.525a.5.5,0,0,1,.487-.514.512.512,0,0,1,.513.488c.023.828.269,2.313.836,2.776a.571.571,0,0,0,.5.123c.61-.108.9-.284.964-.4a4.518,4.518,0,0,1-.542-3,.5.5,0,1,1,.987.166,3.113,3.113,0,0,0,.4,2.223,1.1,1.1,0,0,1,.06,1.028,2.11,2.11,0,0,1-1.7.968A1.781,1.781,0,0,1,4.113,15.068Z"/><path class="cls-6" d="M1.87,15.076a1.443,1.443,0,0,0,1.093-.167c.484-.39.308-.683.308-.683"/><path class="cls-2" d="M2.246,15.618a2.195,2.195,0,0,1-.5-.056.5.5,0,0,1,.241-.972.935.935,0,0,0,.668-.078.616.616,0,0,0,.135-.14.5.5,0,0,1,.907-.4c.15.248.229.808-.423,1.332A1.677,1.677,0,0,1,2.246,15.618Zm.6-1.135h0Zm0,0Z"/><path class="cls-2" d="M35.044,14.523a.5.5,0,0,1-.118-.987c.32-.078,1.033-.352,1.2-.7a.365.365,0,0,0-.028-.343c-.33-.684-1.745-.377-2.215-.216a.5.5,0,0,1-.327-.946c.983-.34,2.816-.573,3.443.726a1.354,1.354,0,0,1,.031,1.209,3,3,0,0,1-1.866,1.244A.474.474,0,0,1,35.044,14.523Z"/><path class="cls-2" d="M38.056,15.068a1.772,1.772,0,0,1-.3-.027,2.11,2.11,0,0,1-1.7-.968,1.091,1.091,0,0,1,.024-.974.509.509,0,0,1,.1-.122,2.167,2.167,0,0,0,.421-1.913.5.5,0,0,1,.987-.166,3.224,3.224,0,0,1-.63,2.709c.086.173.377.343.972.448a.575.575,0,0,0,.5-.123c.637-.521.82-2.222.835-2.776a.541.541,0,0,1,.512-.488.5.5,0,0,1,.488.514c-.006.265-.1,2.622-1.2,3.525A1.556,1.556,0,0,1,38.056,15.068Z"/><path class="cls-2" d="M39.932,15.527a2.777,2.777,0,0,1-.866-.153c-.437-.228-.815-.469-.783-.875a.593.593,0,0,1,.365-.474.5.5,0,0,1,.638.308l.009.028c.04.025.095.057.168.1.686.219.926-.083.935-.1a.5.5,0,0,1,.683-.158.511.511,0,0,1,.161.7A1.512,1.512,0,0,1,39.932,15.527Z"/><circle class="cls-1" cx="23.314" cy="15.735" r="0.181"/><circle class="cls-1" cx="24.168" cy="16.59" r="0.181"/><circle class="cls-1" cx="24.862" cy="15.916" r="0.181"/><circle class="cls-1" cx="18.446" cy="15.735" r="0.181"/><circle class="cls-1" cx="17.591" cy="16.59" r="0.181"/><circle class="cls-1" cx="16.898" cy="15.916" r="0.181"/><path class="cls-1" d="M27.821,28.183a12.51,12.51,0,0,1-1.5.808,6.082,6.082,0,0,1-10.7-.115,12.537,12.537,0,0,1-1.449-.818,23.718,23.718,0,0,1-.566,6.935l.062.027a19.129,19.129,0,0,0,14.743.045A23.713,23.713,0,0,1,27.821,28.183Z"/><path class="cls-7" d="M21,32.622a6.567,6.567,0,0,1-5.822-3.513l.884-.466a5.583,5.583,0,0,0,9.818.105l.875.486A6.588,6.588,0,0,1,21,32.622Z"/><path class="cls-7" d="M21.092,37.021v-1a18.463,18.463,0,0,0,6.736-1.26,24.206,24.206,0,0,1-.546-5.687q-.373.2-.759.374l-.412-.912a11.981,11.981,0,0,0,1.443-.776l.825-.52-.059.974A23.268,23.268,0,0,0,28.9,34.95l.1.414-.392.163A19.464,19.464,0,0,1,21.092,37.021Z"/><path class="cls-7" d="M13.47,35.48l-.386-.165.034-.435a23.2,23.2,0,0,0,.553-6.788l-.066-1,.84.549a12.221,12.221,0,0,0,1.391.785l-.432.9c-.231-.11-.462-.229-.69-.356a24.137,24.137,0,0,1-.621,6.135L13.639,35Z"/><path class="cls-4" d="M25.7,35.96V32.955H15.913v2.854a19.235,19.235,0,0,0,9.789.151Z"/><path class="cls-7" d="M18.947,36.815V36.3h.542V34.414a1.258,1.258,0,0,1-.534.138v-.539a.818.818,0,0,0,.55-.194h.62V36.3H20.6v.514Z"/><path class="cls-7" d="M20.736,36.475l.332-.434a1.142,1.142,0,0,0,.749.308.5.5,0,0,0,.571-.53.481.481,0,0,0-.518-.543.705.705,0,0,0-.551.288l-.425-.134.121-1.611h1.818l-.032.5h-1.28l-.056.664a.867.867,0,0,1,.6-.186.914.914,0,0,1,.976,1,1.063,1.063,0,0,1-1.187,1.076A1.6,1.6,0,0,1,20.736,36.475Z"/><path class="cls-1" d="M22.461,11.057l1.241-.052c.412-.012.824-.051,1.262-.031a5.575,5.575,0,0,1,1.268.2,8.38,8.38,0,0,1,1.178.454.123.123,0,0,1-.089.23,8.251,8.251,0,0,0-1.17-.344,5.291,5.291,0,0,0-1.19-.092c-.389.014-.8.086-1.213.132l-1.232.155a.33.33,0,0,1-.082-.654Z"/><path class="cls-1" d="M19.2,7.273h0a2.589,2.589,0,0,0,2.589,2.589h6.487l-1.415-1.5-3.726-1.22-3.128-.408-.807.54"/><path class="cls-2" d="M28.274,10.191H21.787a2.922,2.922,0,0,1-2.918-2.918.329.329,0,0,1,.658,0,2.262,2.262,0,0,0,2.26,2.26h6.487a.329.329,0,1,1,0,.658Z"/><path class="cls-1" d="M19.2,7.479a2.892,2.892,0,0,1-2.486,2.828l-3.345.336,1.246-1.972,1.9-1.082,2.644-.73Z"/><path class="cls-2" d="M13,11.078a.329.329,0,0,1-.034-.656L16.938,10a2.223,2.223,0,0,0,1.931-2.525.329.329,0,1,1,.658,0c0,1.817-.916,2.975-2.513,3.179l-3.98.418Z"/><path class="cls-2" d="M18.769,7.476a2.933,2.933,0,0,1-.891,1.552,2.575,2.575,0,0,1-1.6.586.033.033,0,0,1-.035-.032.034.034,0,0,1,.026-.035,2.362,2.362,0,0,0,1.354-.774,2.435,2.435,0,0,0,.5-1.4.33.33,0,1,1,.651.1Z"/><path class="cls-2" d="M20.283,6.966a4.545,4.545,0,0,0,.54.818,4.08,4.08,0,0,0,.716.672,4.214,4.214,0,0,0,1.842.768.076.076,0,0,1-.014.151A4.511,4.511,0,0,1,21.32,8.8a4.613,4.613,0,0,1-.882-.646,5.224,5.224,0,0,1-.711-.835l0,0a.33.33,0,0,1,.54-.379Z"/><path class="cls-2" d="M21.442,6.745a4.159,4.159,0,0,0,2.739,1.739.075.075,0,0,1,.062.087.076.076,0,0,1-.077.063A4.564,4.564,0,0,1,20.93,7.158l0-.005a.33.33,0,0,1,.486-.446A.263.263,0,0,1,21.442,6.745Z"/><path class="cls-2" d="M21,7.36A10.071,10.071,0,1,1,10.928,17.431,10.083,10.083,0,0,1,21,7.36m0-1A11.072,11.072,0,1,0,32.072,17.431,11.073,11.073,0,0,0,21,6.359Z"/><path class="cls-2" d="M21.092,37.021A19.562,19.562,0,0,1,1.519,17.447V15.518a2.419,2.419,0,0,1-1-1.074,4.02,4.02,0,0,1-.384-2.871A1.568,1.568,0,0,1,1,10.659a1.481,1.481,0,0,1,1.193-.042,1.871,1.871,0,0,1,1.666-1,2.68,2.68,0,0,1,.923.143c.029-.29.055-.637.072-1.016l.011-.31c.041-1.181.1-2.8,1.667-2.8a1.476,1.476,0,0,1,1.1.5c1.044,1.131,1,4.084.949,5.2a2.564,2.564,0,0,1,1.749,1.944,2.486,2.486,0,0,1-.757,2.189,2.728,2.728,0,0,0-.365.481,2.936,2.936,0,0,0-.275,1.5,12.165,12.165,0,1,0,24.329,0,3.008,3.008,0,0,0-.281-1.484,2.8,2.8,0,0,0-.375-.5,2.483,2.483,0,0,1-.756-2.189,2.286,2.286,0,0,1,1.513-1.887c.286-.566,1.107-1.963,2.284-1.963a1.9,1.9,0,0,1,1.432.638,1.686,1.686,0,0,1,1.24-.452,1.892,1.892,0,0,1,1.725,1.113,1.557,1.557,0,0,1,1.1.269,2.71,2.71,0,0,1,.575,3.246,2.742,2.742,0,0,1-1.051,1.138v2.068A19.561,19.561,0,0,1,21.092,37.021ZM1.661,11.516a.691.691,0,0,0-.269.063.563.563,0,0,0-.32.344,3.171,3.171,0,0,0,.346,2.084,1.387,1.387,0,0,0,.738.705.5.5,0,0,1,.365.482v2.253A18.593,18.593,0,0,0,13.862,34.56a18.717,18.717,0,0,0,14.46,0A18.559,18.559,0,0,0,39.664,17.447V15.076a.5.5,0,0,1,.322-.468,1.749,1.749,0,0,0,.829-.8,1.826,1.826,0,0,0-.2-1.961c-.256-.16-.41-.154-.465-.1a.479.479,0,0,1-.506.181.5.5,0,0,1-.372-.408c-.018-.09-.2-.9-.953-.9a.727.727,0,0,0-.536.164.543.543,0,0,0-.132.324.5.5,0,0,1-.974.176c-.011-.031-.307-.85-1.03-.85-.583,0-1.241,1.062-1.467,1.576a.5.5,0,0,1-.361.29,1.3,1.3,0,0,0-.977,1.123,1.5,1.5,0,0,0,.517,1.39,3.544,3.544,0,0,1,.5.67,3.9,3.9,0,0,1,.407,1.991,13.166,13.166,0,0,1-26.332-.021,3.587,3.587,0,0,1,.427-2.025,3.289,3.289,0,0,1,.461-.615,1.5,1.5,0,0,0,.519-1.39c-.133-.941-1.378-1.234-1.391-1.237a.5.5,0,0,1-.389-.528c.116-1.47.039-4.084-.661-4.842a.465.465,0,0,0-.365-.177c-.484,0-.615.36-.667,1.831l-.011.318a18.314,18.314,0,0,1-.2,2.039.5.5,0,0,1-.494.418h0a.5.5,0,0,1-.493-.419c-.018-.028-.22-.206-.811-.206-.75,0-.934.814-.953.907a.5.5,0,0,1-.922.16A.367.367,0,0,0,1.661,11.516Z"/><path class="cls-4" d="M22.566,13.678c0,.6.9,1.185,2.019,1.185s2.019-.432,2.019-1.085c0-.74-.8-1.285-2.019-1.285C23.47,12.493,22.566,13.144,22.566,13.678Z"/><path class="cls-4" d="M19.078,13.678c0,.6-.9,1.185-2.019,1.185s-2.019-.432-2.019-1.085c0-.74.8-1.285,2.019-1.285C18.174,12.493,19.078,13.144,19.078,13.678Z"/><circle class="cls-7" cx="24.624" cy="13.488" r="0.784"/><circle class="cls-7" cx="17.02" cy="13.488" r="0.784"/><path class="cls-2" d="M24.585,15.138c-1.243,0-2.294-.668-2.294-1.46,0-.75,1.115-1.46,2.294-1.46,1.352,0,2.295.642,2.295,1.56C26.88,14.579,25.937,15.138,24.585,15.138Zm0-2.369c-1.024,0-1.743.59-1.743.909,0,.421.762.909,1.743.909s1.744-.355,1.744-.809C26.329,13.184,25.612,12.769,24.585,12.769Z"/><path class="cls-2" d="M17.059,15.138c-1.351,0-2.294-.559-2.294-1.36,0-.918.943-1.56,2.294-1.56,1.179,0,2.295.71,2.295,1.46C19.354,14.47,18.3,15.138,17.059,15.138Zm0-2.369c-1.027,0-1.744.415-1.744,1.009,0,.454.766.809,1.744.809S18.8,14.1,18.8,13.678C18.8,13.359,18.084,12.769,17.059,12.769Z"/></svg>