<svg id="Buddy" xmlns="http://www.w3.org/2000/svg" viewBox="0 0 42 42"><defs><style>.cls-1{fill:#f7c526;}.cls-2{fill:#510c76;}.cls-3{fill:#72ddbc;}.cls-4{fill:#e81f76;}.cls-5{fill:#00bc70;}.cls-6{fill:#8f63c9;}.cls-7{fill:#fff;}.cls-8{fill:none;}.cls-9{fill:#9164cc;}.cls-10{fill:#ff5c35;}.cls-11{fill:#ea1d76;}</style></defs><title>Unicorn-Buddy</title><path class="cls-1" d="M20.909,25.054s.117,6.565,2.49,8.734,1.8-1.079,1.8-1.079-2.853-6.758-2.413-7.819S20.909,25.054,20.909,25.054Z"/><path class="cls-2" d="M24.68,34.828A2.612,2.612,0,0,1,23.2,34c-2.436-2.229-2.579-8.671-2.584-8.944a.294.294,0,0,1,.155-.264c.8-.42,1.825-.848,2.208-.493.122.109.232.319.075.7-.247.594,1.032,4.327,2.412,7.594.067.342.278,1.757-.421,2.14A.735.735,0,0,1,24.68,34.828Zm-3.473-9.6c.041,1.06.351,6.479,2.389,8.342.653.6,1.039.723,1.169.652.216-.12.25-.868.144-1.464-.466-1.084-2.858-6.864-2.395-7.983l.011-.029A4.805,4.805,0,0,0,21.207,25.23Z"/><path class="cls-3" d="M23.392,25.434s.118,6.565,2.49,8.734,1.8-1.079,1.8-1.079-2.854-6.758-2.414-7.819S23.392,25.434,23.392,25.434Z"/><path class="cls-2" d="M27.163,35.208a2.609,2.609,0,0,1-1.478-.824c-2.437-2.229-2.58-8.671-2.584-8.945a.291.291,0,0,1,.155-.263c.795-.42,1.823-.848,2.208-.493.121.109.231.319.074.7-.247.594,1.032,4.327,2.412,7.594.068.341.279,1.756-.421,2.14A.735.735,0,0,1,27.163,35.208Zm-3.473-9.6c.041,1.06.351,6.479,2.389,8.342.653.6,1.038.726,1.169.652.217-.12.25-.868.145-1.464-.466-1.084-2.859-6.865-2.4-7.983l.012-.029A4.82,4.82,0,0,0,23.69,25.61Z"/><path class="cls-4" d="M25.788,25.8s.118,6.565,2.49,8.734,1.8-1.08,1.8-1.08-2.853-6.757-2.413-7.819S25.788,25.8,25.788,25.8Z"/><path class="cls-2" d="M29.559,35.574a2.615,2.615,0,0,1-1.479-.824c-2.436-2.229-2.579-8.671-2.584-8.944a.294.294,0,0,1,.155-.264c.8-.42,1.824-.844,2.208-.493.121.109.232.32.074.7-.246.594,1.033,4.327,2.413,7.594.067.342.279,1.756-.42,2.14A.741.741,0,0,1,29.559,35.574Zm-3.473-9.6c.041,1.059.351,6.478,2.389,8.341.649.594,1.034.723,1.169.652.216-.119.25-.867.144-1.464-.466-1.084-2.858-6.864-2.395-7.983,0-.01.008-.019.011-.029A4.771,4.771,0,0,0,26.086,25.977Z"/><path class="cls-5" d="M27.866,24.78s.118,6.565,2.49,8.734,1.8-1.079,1.8-1.079-2.854-6.758-2.414-7.82S27.866,24.78,27.866,24.78Z"/><path class="cls-2" d="M31.637,34.554a2.617,2.617,0,0,1-1.479-.825c-2.436-2.228-2.579-8.67-2.584-8.944a.3.3,0,0,1,.155-.264c.8-.419,1.824-.848,2.209-.493.121.11.231.32.074.7-.247.593,1.032,4.327,2.412,7.593.067.342.279,1.756-.42,2.141A.752.752,0,0,1,31.637,34.554Zm-3.473-9.6c.041,1.06.351,6.479,2.389,8.342.649.594,1.033.723,1.169.651.216-.119.25-.867.144-1.464C31.4,31.4,29.008,25.621,29.471,24.5l.011-.029A4.738,4.738,0,0,0,28.164,24.956Z"/><path class="cls-6" d="M13.105,16.1H29.189a3.241,3.241,0,0,1,2.945,1.889,11.136,11.136,0,0,0-22.271.2q0,.38.026.752A3.242,3.242,0,0,1,13.105,16.1Z"/><circle class="cls-2" cx="27.695" cy="15.092" r="1.727"/><circle class="cls-7" cx="27.068" cy="14.464" r="0.426"/><circle class="cls-2" cx="14.305" cy="15.092" r="1.727"/><circle class="cls-7" cx="13.678" cy="14.464" r="0.426"/><path class="cls-6" d="M21,29.325A11.137,11.137,0,0,0,32.137,18.188c0-.066,0-.131,0-.2A3.241,3.241,0,0,0,29.189,16.1H13.105A3.242,3.242,0,0,0,9.889,18.94,11.137,11.137,0,0,0,21,29.325Z"/><path class="cls-5" d="M29.283,33.951a1.72,1.72,0,0,0,.761.824,6.624,6.624,0,0,1,1.872,1.258,10.923,10.923,0,0,1,1.215,1.742s.824-1.585-.84-3.56c-1.222-1.45-.89-1.826-.89-1.826s-1.527-.387-2.066.479A1.127,1.127,0,0,0,29.283,33.951Z"/><path class="cls-2" d="M33.131,38.067a.292.292,0,0,1-.259-.155,10.651,10.651,0,0,0-1.179-1.689,5.263,5.263,0,0,0-1.524-1.05L29.9,35.03a2.011,2.011,0,0,1-.889-.964h0a1.41,1.41,0,0,1,.073-1.352c.644-1.034,2.315-.623,2.387-.607a.293.293,0,0,1,.15.473h0a3.39,3.39,0,0,0,.89,1.448c1.769,2.1.913,3.812.876,3.883a.293.293,0,0,1-.259.157Zm-3.58-4.23a1.433,1.433,0,0,0,.633.681l.259.138a5.831,5.831,0,0,1,1.7,1.188,11.954,11.954,0,0,1,.89,1.2,3.447,3.447,0,0,0-.962-2.637,3.6,3.6,0,0,1-1-1.776c-.41-.057-1.187-.087-1.487.393a.837.837,0,0,0-.032.816Z"/><path class="cls-4" d="M27.8,35.978a27.476,27.476,0,0,1,3.023,1.881,7.783,7.783,0,0,1,1.609,2.414,5.616,5.616,0,0,0-1.623-5.286c-1.771-1.512-1.293-2.972-1.293-2.972s-2.078.777-2.556,1.933S27.8,35.978,27.8,35.978Z"/><path class="cls-2" d="M32.432,40.564a.291.291,0,0,1-.272-.184,7.545,7.545,0,0,0-1.54-2.311,25.53,25.53,0,0,0-2.96-1.835l-.02-.011a2.069,2.069,0,0,1-.951-2.388c.522-1.258,2.634-2.06,2.724-2.093a.293.293,0,0,1,.381.364c-.016.051-.381,1.306,1.2,2.658a5.853,5.853,0,0,1,1.718,5.578.291.291,0,0,1-.264.222Zm-4.478-4.835a25.38,25.38,0,0,1,3.073,1.92,7.471,7.471,0,0,1,1.228,1.612,5,5,0,0,0-1.636-4.052,3.56,3.56,0,0,1-1.455-2.725A4.079,4.079,0,0,0,27.23,34.06C26.865,34.939,27.853,35.659,27.954,35.729Z"/><path class="cls-1" d="M23.857,36.517a1.719,1.719,0,0,0,.554.975,6.619,6.619,0,0,1,1.536,1.652,10.87,10.87,0,0,1,.786,1.973s1.164-1.355-.006-3.657c-.86-1.691-.451-1.981-.451-1.981s-1.4-.725-2.121-.005A1.133,1.133,0,0,0,23.857,36.517Z"/><path class="cls-2" d="M26.733,41.409a.288.288,0,0,1-.065-.007.294.294,0,0,1-.218-.211,10.75,10.75,0,0,0-.762-1.914,5.3,5.3,0,0,0-1.246-1.368l-.226-.2a2.022,2.022,0,0,1-.647-1.143,1.415,1.415,0,0,1,.379-1.3c.864-.86,2.4-.081,2.463-.048a.292.292,0,0,1,.038.495,3.258,3.258,0,0,0,.538,1.613c1.245,2.448.021,3.919-.032,3.981A.293.293,0,0,1,26.733,41.409Zm-1.714-5.96a.9.9,0,0,0-.658.232.832.832,0,0,0-.215.785h0a1.415,1.415,0,0,0,.46.808l.22.194a5.747,5.747,0,0,1,1.381,1.544,11.686,11.686,0,0,1,.595,1.367,3.449,3.449,0,0,0-.336-2.786,3.6,3.6,0,0,1-.567-1.958A2.626,2.626,0,0,0,25.019,35.449Z"/><path class="cls-3" d="M24.846,35.4a2.33,2.33,0,0,0,.644.938,19.42,19.42,0,0,1,1.935,1.969,13.3,13.3,0,0,1,1.653,3.19,6.5,6.5,0,0,0-.658-5.453c-1.262-1.956-.8-2.362-.8-2.362s-1.8-.708-2.589.261A1.432,1.432,0,0,0,24.846,35.4Z"/><path class="cls-2" d="M29.078,41.792A.28.28,0,0,1,28.8,41.6a13.114,13.114,0,0,0-1.6-3.1,19.625,19.625,0,0,0-1.9-1.937,2.622,2.622,0,0,1-.724-1.056,1.7,1.7,0,0,1,.233-1.741c.915-1.121,2.841-.38,2.924-.349a.294.294,0,0,1,.18.223.289.289,0,0,1-.094.268h0c.017,0-.136.457.85,1.986a6.749,6.749,0,0,1,.686,5.715A.292.292,0,0,1,29.078,41.792ZM26.3,33.727a1.292,1.292,0,0,0-1.045.4,1.138,1.138,0,0,0-.137,1.173h0a2.051,2.051,0,0,0,.565.819,19.669,19.669,0,0,1,1.965,2,10.873,10.873,0,0,1,1.362,2.421,6.127,6.127,0,0,0-.839-4.341,4.13,4.13,0,0,1-.927-2.334A3.63,3.63,0,0,0,26.3,33.727Z"/><path class="cls-2" d="M12.762,18.188a8.239,8.239,0,1,0,16.477,0Z"/><path class="cls-8" d="M21.435,22.93l-.012,0,.007,0Z"/><path class="cls-8" d="M20.6,22.928l-.012,0h.005Z"/><path class="cls-2" d="M21,7.494A10.694,10.694,0,1,1,10.307,18.188,10.706,10.706,0,0,1,21,7.494m0-1.063A11.757,11.757,0,1,0,32.756,18.188,11.756,11.756,0,0,0,21,6.431Z"/><path class="cls-9" d="M21,38.519A20.316,20.316,0,0,1,.669,18.188a3.482,3.482,0,1,1,6.963,0,13.368,13.368,0,0,0,26.736,0,3.482,3.482,0,1,1,6.963,0A20.316,20.316,0,0,1,21,38.519Z"/><path class="cls-2" d="M21,39.05A20.844,20.844,0,0,1,.138,18.188a4.013,4.013,0,1,1,8.025,0,12.837,12.837,0,0,0,25.674,0,4.013,4.013,0,1,1,8.025,0A20.847,20.847,0,0,1,21,39.05ZM4.15,15.238a2.953,2.953,0,0,0-2.95,2.95A19.826,19.826,0,0,0,13.292,36.431a19.964,19.964,0,0,0,15.416,0A19.785,19.785,0,0,0,40.8,18.188a2.951,2.951,0,0,0-5.9,0,13.9,13.9,0,1,1-27.8,0A2.954,2.954,0,0,0,4.15,15.238Z"/><path class="cls-2" d="M34.421,18.208a3.455,3.455,0,0,1,6.91,0Z"/><path class="cls-2" d="M.669,18.208a3.455,3.455,0,0,1,6.91,0Z"/><path class="cls-10" d="M18.742,22.232a2.278,2.278,0,0,0,4.555,0Z"/><path class="cls-11" d="M19.086,22.232a.318.318,0,0,0-.315.368,2.278,2.278,0,0,0,4.5,0,.318.318,0,0,0-.314-.368Z"/><path class="cls-2" d="M21.02,24.712a2.47,2.47,0,0,1-2.449-2.079.521.521,0,0,1,.515-.605h3.867a.523.523,0,0,1,.515.605A2.471,2.471,0,0,1,21.02,24.712Zm-1.934-2.277a.114.114,0,0,0-.114.133,2.075,2.075,0,0,0,4.095,0,.109.109,0,0,0-.026-.091.113.113,0,0,0-.088-.041Z"/><path class="cls-2" d="M21.009,23.573a.2.2,0,0,1-.2-.2V22.326a.2.2,0,0,1,.406,0V23.37A.2.2,0,0,1,21.009,23.573Z"/><path class="cls-7" d="M21.019,15.067a3.353,3.353,0,0,1-.5-1.836,3.308,3.308,0,0,1,.5-1.835,3.309,3.309,0,0,1,.505,1.835A3.346,3.346,0,0,1,21.019,15.067Z"/><path class="cls-1" d="M15.841,6.12A1.814,1.814,0,0,0,15.6,7.279a7.117,7.117,0,0,1-.037,2.381,21.276,21.276,0,0,1-.644,2.113s1.868-.265,2.542-2.907a4.826,4.826,0,0,1,2-2.822A8.045,8.045,0,0,0,16.8,5.5,1.191,1.191,0,0,0,15.841,6.12Z"/><path class="cls-2" d="M14.919,12.11a.336.336,0,0,1-.315-.457,21.405,21.405,0,0,0,.631-2.075,6.519,6.519,0,0,0,.031-2.258,2.153,2.153,0,0,1,.287-1.375h0a1.515,1.515,0,0,1,1.229-.781,8.107,8.107,0,0,1,2.8.565.337.337,0,0,1,.05.6A4.531,4.531,0,0,0,17.788,8.95c-.722,2.827-2.736,3.145-2.821,3.157Zm2.062-6.278c-.053,0-.105,0-.156,0a.853.853,0,0,0-.7.459h0a1.474,1.474,0,0,0-.193.944,7.107,7.107,0,0,1-.046,2.5c-.149.59-.3,1.1-.422,1.47a3.613,3.613,0,0,0,1.666-2.43,5.217,5.217,0,0,1,1.617-2.624A6.7,6.7,0,0,0,16.981,5.832Zm-1.14.288h0Z"/><path class="cls-3" d="M17.328,6.407a2.139,2.139,0,0,0-.052,1.039,18.058,18.058,0,0,1,.314,2.507,12.19,12.19,0,0,1-.57,3.238A5.95,5.95,0,0,0,19.57,8.86c.168-2.123,3.713-3.108,3.713-3.108s-3.64-2.41-5.375-.557A2.62,2.62,0,0,0,17.328,6.407Z"/><path class="cls-2" d="M17.021,13.483a.293.293,0,0,1-.279-.381A12.008,12.008,0,0,0,17.3,9.964,17.726,17.726,0,0,0,16.989,7.5a2.439,2.439,0,0,1,.06-1.182l.055-.183A2.519,2.519,0,0,1,17.693,5c1.886-2.008,5.594.41,5.751.514a.292.292,0,0,1-.083.525c-.033.009-3.349.955-3.5,2.849a6.2,6.2,0,0,1-2.686,4.556A.3.3,0,0,1,17.021,13.483Zm.586-6.989a1.853,1.853,0,0,0-.044.9,18.16,18.16,0,0,1,.319,2.552,9.765,9.765,0,0,1-.335,2.441,5.551,5.551,0,0,0,1.732-3.547c.138-1.74,2.226-2.75,3.3-3.156-1.032-.556-3.283-1.54-4.46-.286a1.954,1.954,0,0,0-.455.9Z"/><path class="cls-7" d="M21.4,7.205,19.939,8.2a.71.71,0,0,0-.3.72h0a1.072,1.072,0,0,0,1.387.818l.986-.322a1.073,1.073,0,0,0,.637-1.478l-.212-.448A.709.709,0,0,0,21.4,7.205Z"/><path class="cls-2" d="M20.7,10.082a1.364,1.364,0,0,1-1.341-1.109,1,1,0,0,1,.42-1.016l1.461-.994h0a1,1,0,0,1,1.469.4l.211.448A1.364,1.364,0,0,1,22.1,9.692l-.985.322A1.343,1.343,0,0,1,20.7,10.082Zm.868-2.636L20.1,8.44a.415.415,0,0,0-.175.423.781.781,0,0,0,1.01.6l.985-.321a.781.781,0,0,0,.463-1.076l-.211-.448a.417.417,0,0,0-.268-.224.412.412,0,0,0-.344.057Z"/><path class="cls-7" d="M20.594,5.541l-1.062.793a.709.709,0,0,0-.27.711l.077.375a.709.709,0,0,0,1.093.443l1.159-.788a.709.709,0,0,0,.246-.88l-.173-.381A.709.709,0,0,0,20.594,5.541Z"/><path class="cls-2" d="M20.034,8.278a1,1,0,0,1-.981-.8L18.976,7.1a1,1,0,0,1,.381-1l1.063-.793a1,1,0,0,1,1.509.386l.174.38a1,1,0,0,1-.347,1.244L20.6,8.1A1,1,0,0,1,20.034,8.278Zm.984-2.586a.417.417,0,0,0-.248.082h0l-1.063.793a.42.42,0,0,0-.159.418l.077.374a.417.417,0,0,0,.643.261l1.159-.788a.416.416,0,0,0,.144-.517l-.174-.38a.411.411,0,0,0-.276-.231A.4.4,0,0,0,21.018,5.692ZM20.6,5.541h0Z"/><path class="cls-7" d="M19.8,3.894l-.688.581a.712.712,0,0,0-.237.685l.073.351a.708.708,0,0,0,1.118.425l.777-.579a.709.709,0,0,0,.22-.863L20.9,4.141A.709.709,0,0,0,19.8,3.894Z"/><path class="cls-2" d="M19.642,6.37a.977.977,0,0,1-.357-.066.994.994,0,0,1-.625-.734l-.073-.351a1,1,0,0,1,.335-.967l.687-.581a1,1,0,0,1,1.557.349l.161.353a1.007,1.007,0,0,1-.311,1.218l-.777.579A.993.993,0,0,1,19.642,6.37Zm.612-2.351a.416.416,0,0,0-.268.1h0L19.3,4.7a.42.42,0,0,0-.14.4l.073.351a.417.417,0,0,0,.658.25l.776-.58a.419.419,0,0,0,.13-.506l-.161-.353a.418.418,0,0,0-.381-.244ZM19.8,3.894h0Z"/><path class="cls-7" d="M19,2.291l-.328.33a.709.709,0,0,0-.192.643l.065.315a.709.709,0,0,0,1.152.4l.4-.34a.71.71,0,0,0,.187-.836l-.139-.3A.709.709,0,0,0,19,2.291Z"/><path class="cls-2" d="M19.245,4.438a1.032,1.032,0,0,1-.331-.056.99.99,0,0,1-.652-.744L18.2,3.323a.993.993,0,0,1,.271-.908l.328-.33h0a1,1,0,0,1,1.62.291l.139.3a1,1,0,0,1-.265,1.18l-.4.34A1,1,0,0,1,19.245,4.438ZM19.21,2.5l-.328.329a.412.412,0,0,0-.112.377l.064.316a.418.418,0,0,0,.678.234l.4-.34a.417.417,0,0,0,.111-.492l-.138-.3a.416.416,0,0,0-.307-.238.421.421,0,0,0-.368.117Z"/><path class="cls-7" d="M18.221.778h0a.707.707,0,0,0-.132.574l.051.247a.709.709,0,0,0,1.2.357l.042-.042a.712.712,0,0,0,.143-.795l-.094-.2A.708.708,0,0,0,18.221.778Z"/><path class="cls-2" d="M18.828,2.457a1,1,0,0,1-.974-.8L17.8,1.411A1,1,0,0,1,17.988.6a1,1,0,0,1,1.706.193L19.788,1a1,1,0,0,1-.2,1.121A1.068,1.068,0,0,1,18.828,2.457ZM18.78.792a.4.4,0,0,0-.327.164h0a.42.42,0,0,0-.078.338l.051.246a.408.408,0,0,0,.289.315.415.415,0,0,0,.415-.1.447.447,0,0,0,.126-.509l-.094-.206A.408.408,0,0,0,18.83.8.419.419,0,0,0,18.78.792ZM18.221.778h0Z"/><path class="cls-9" d="M12.653,11.549A2.661,2.661,0,0,1,9.715,9.073L9.567,6.782a.706.706,0,0,1,.836-.739l2.256.428a2.661,2.661,0,0,1,2.1,3.221"/><path class="cls-2" d="M12.363,11.857a2.957,2.957,0,0,1-2.94-2.765L9.275,6.8a1,1,0,0,1,1.183-1.045l2.256.429a2.952,2.952,0,0,1,2.325,3.574.292.292,0,1,1-.568-.133A2.371,2.371,0,0,0,12.6,6.758L10.349,6.33a.412.412,0,0,0-.49.433l.148,2.292a2.37,2.37,0,0,0,2.615,2.2.282.282,0,0,1,.322.259.292.292,0,0,1-.259.322A2.907,2.907,0,0,1,12.363,11.857Z"/><path class="cls-2" d="M12.526,7.207l-2.242-.426.147,2.277a1.926,1.926,0,0,0,.687,1.362,5.907,5.907,0,0,0,1.4.5,2.01,2.01,0,0,1,.089-.759c.237-.492.238-.361,1.111-.512.128-.022.208-.063.324-.076a4.505,4.505,0,0,0-.247-1.515A1.745,1.745,0,0,0,12.526,7.207Z"/><path class="cls-4" d="M21.372,7.562s.387,2.207.391,2.86a10.878,10.878,0,0,1-.332,2.6,5.169,5.169,0,0,0,2.2-4.449c-.033-.471,1.928-.539,2-.872a2.715,2.715,0,0,0-.619-1.96A2.045,2.045,0,0,0,22.562,5a2.084,2.084,0,0,0-.4.225C21.227,5.886,21.372,7.562,21.372,7.562Z"/><path class="cls-2" d="M21.431,13.312a.294.294,0,0,1-.283-.37,10.559,10.559,0,0,0,.323-2.518c0-.621-.383-2.79-.387-2.812a.206.206,0,0,1,0-.026c-.007-.075-.147-1.85.908-2.6a2.4,2.4,0,0,1,.461-.257,2.346,2.346,0,0,1,2.8.846,2.992,2.992,0,0,1,.664,2.192c-.075.327-.485.423-1.106.568a3.839,3.839,0,0,0-.888.274,5.42,5.42,0,0,1-2.334,4.659A.3.3,0,0,1,21.431,13.312Zm.231-5.788c.035.2.389,2.247.393,2.9a10.519,10.519,0,0,1-.16,1.823,4.7,4.7,0,0,0,1.442-3.651c-.034-.509.634-.665,1.342-.83a4.39,4.39,0,0,0,.681-.193,2.577,2.577,0,0,0-.587-1.663,1.725,1.725,0,0,0-2.444-.447A2.566,2.566,0,0,0,21.662,7.524Z"/><path class="cls-9" d="M28.894,11.549a2.662,2.662,0,0,0,2.939-2.476l.147-2.291a.706.706,0,0,0-.836-.739l-2.256.428a2.662,2.662,0,0,0-2.1,3.221"/><path class="cls-2" d="M29.184,11.857a2.907,2.907,0,0,1-.322-.017.292.292,0,0,1-.259-.322.282.282,0,0,1,.322-.259,2.369,2.369,0,0,0,2.616-2.2l.147-2.291a.41.41,0,0,0-.138-.337.42.42,0,0,0-.351-.1l-2.257.428a2.369,2.369,0,0,0-1.866,2.867.292.292,0,0,1-.218.352.289.289,0,0,1-.35-.219,2.952,2.952,0,0,1,2.325-3.574l2.257-.429A1,1,0,0,1,32.272,6.8l-.147,2.292a2.957,2.957,0,0,1-2.941,2.765Z"/><path class="cls-2" d="M29.022,7.207l2.241-.426-.146,2.277a1.931,1.931,0,0,1-.688,1.362,5.891,5.891,0,0,1-1.4.5,1.99,1.99,0,0,0-.089-.759c-.237-.492-.238-.361-1.111-.512-.128-.022-.208-.063-.324-.076a4.482,4.482,0,0,1,.248-1.515A1.742,1.742,0,0,1,29.022,7.207Z"/><path class="cls-2" d="M17.806,17.58a.32.32,0,0,1-.32-.319V17a.32.32,0,0,1,.639,0v.266A.32.32,0,0,1,17.806,17.58Z"/><path class="cls-2" d="M23.9,17.58a.32.32,0,0,1-.319-.319V17a.32.32,0,0,1,.639,0v.266A.32.32,0,0,1,23.9,17.58Z"/><path class="cls-2" d="M29.822,16.421H11.659a.319.319,0,1,1,0-.638H29.822a.319.319,0,1,1,0,.638Z"/><path class="cls-5" d="M23.628,6.922a2.9,2.9,0,0,0,.049,1.488A6.934,6.934,0,0,1,24,10.725a22.1,22.1,0,0,0-.09,2.285s1.571-.651,1.825-3.334c.187-1.972.922-1.893.922-1.893s.088-2.343-2.186-1.72A1.374,1.374,0,0,0,23.628,6.922Z"/><path class="cls-2" d="M23.913,13.344a.333.333,0,0,1-.333-.325,22.013,22.013,0,0,1,.091-2.324,6.327,6.327,0,0,0-.315-2.2,3.215,3.215,0,0,1-.037-1.7h0a1.666,1.666,0,0,1,1.067-1.054,2.032,2.032,0,0,1,1.876.233,2.413,2.413,0,0,1,.73,1.822.333.333,0,0,1-.368.319c.021,0-.414.114-.554,1.592-.269,2.85-1.958,3.582-2.029,3.611A.337.337,0,0,1,23.913,13.344Zm.024-6.295A2.615,2.615,0,0,0,24,8.319a6.941,6.941,0,0,1,.336,2.437c-.058.632-.08,1.21-.087,1.621a4.086,4.086,0,0,0,1.158-2.733,2.924,2.924,0,0,1,.74-2,.984.984,0,0,1,.168-.11A1.536,1.536,0,0,0,25.846,6.5a1.421,1.421,0,0,0-1.284-.11,1.055,1.055,0,0,0-.625.664Z"/></svg>