<svg id="Buddy" xmlns="http://www.w3.org/2000/svg" viewBox="0 0 42 42"><defs><style>.cls-1{fill:#fcd199;}.cls-2{fill:#011e41;}.cls-3{fill:#aa8975;}.cls-4{fill:#f0e3cb;}.cls-5{fill:#c8c3a9;}.cls-6{fill:#d19970;}.cls-7{fill:#d3884a;}.cls-8{fill:#bc982d;}.cls-9{fill:#be782c;}.cls-10{fill:#deb73d;}.cls-11{fill:#b7a596;}.cls-12{fill:#9b775c;}.cls-13{fill:#ebb57d;}.cls-14{fill:#bc862d;}.cls-15{fill:#c78d62;}.cls-16{fill:#c19677;}.cls-17{fill:#bc8e2d;}.cls-18{fill:#fff;}.cls-19{fill:none;}.cls-20{fill:#d64123;}.cls-21{fill:#0f579e;}.cls-22{fill:#e3a764;}.cls-23{fill:#ffe8f2;}</style></defs><title>Willie-Buddy</title><path class="cls-1" d="M2.019,16.663a19.077,19.077,0,0,0,36.646,7.425,18.95,18.95,0,0,0,1.5-7.425V14.291a2.278,2.278,0,0,0,.711-3.656c-.762-.478-1.117.007-1.117.007s-.243-1.313-1.445-1.313-1.168,1-1.168,1a1.745,1.745,0,0,0-1.505-1.192c-1.1,0-1.924,1.876-1.924,1.876a1.825,1.825,0,0,0-1.377,1.544c-.184,1.306.693,1.658,1.068,2.365a3.376,3.376,0,0,1,.35,1.736,12.666,12.666,0,0,1-25.331,0,3.227,3.227,0,0,1,.334-1.736c.375-.707,1.252-1.059,1.068-2.365s-1.777-1.655-1.777-1.655.442-5.559-1.525-5.559C5.344,5.348,5.4,6.7,5.348,7.976a17.737,17.737,0,0,1-.189,1.978S3.434,5.163,2.276,5.485c-1.5.417.134,5.157.134,5.157a.928.928,0,0,0-1.217-.308C.106,10.8.512,12.5.968,13.441a1.852,1.852,0,0,0,1.051.968Z"/><path class="cls-2" d="M13.667,34.371a19.061,19.061,0,0,0,20.912-4.086q.609-.609,1.156-1.265l-3.569-6.065a12.749,12.749,0,0,1-2.118,2.8,12.666,12.666,0,0,1-17.911,0,12.753,12.753,0,0,1-2.119-2.8L6.449,29.02q.548.654,1.157,1.265A19.015,19.015,0,0,0,13.667,34.371Z"/><path class="cls-2" d="M21.092,35.9a19,19,0,0,1-7.435-1.5h0A19.056,19.056,0,0,1,7.588,30.3c-.4-.4-.785-.823-1.158-1.268l-.011-.013.009-.015,3.592-6.1.02.039a12.725,12.725,0,0,0,2.114,2.793,12.641,12.641,0,0,0,17.876,0,12.761,12.761,0,0,0,2.115-2.793l.02-.039.023.038,3.578,6.08-.011.013c-.373.445-.762.872-1.158,1.268A19.041,19.041,0,0,1,21.092,35.9Zm-7.415-1.548a19.038,19.038,0,0,0,20.885-4.08c.39-.391.775-.812,1.143-1.251l-3.538-6.012a12.707,12.707,0,0,1-22.149,0L6.479,29.017c.369.439.753.86,1.144,1.251a19,19,0,0,0,6.054,4.08Z"/><path class="cls-2" d="M21.092,36.236A19.561,19.561,0,0,1,1.519,16.663v-1.93a2.414,2.414,0,0,1-1-1.074,4.02,4.02,0,0,1-.384-2.871A1.568,1.568,0,0,1,1,9.874a1.7,1.7,0,0,1,.765-.142c-.075-.263-.156-.552-.235-.841C.8,6.181,1.515,5.281,2.247,5a1.177,1.177,0,0,1,.986.072A4.762,4.762,0,0,1,4.868,7.431c.045-1.153.182-2.583,1.659-2.583a1.472,1.472,0,0,1,1.1.5c1.044,1.13,1,4.084.949,5.2a2.565,2.565,0,0,1,1.749,1.944,2.487,2.487,0,0,1-.757,2.189,2.778,2.778,0,0,0-.365.481,2.938,2.938,0,0,0-.275,1.5,12.165,12.165,0,0,0,24.329,0,3,3,0,0,0-.281-1.484,2.766,2.766,0,0,0-.375-.5,2.484,2.484,0,0,1-.756-2.189A2.289,2.289,0,0,1,33.358,10.6c.285-.565,1.106-1.962,2.284-1.962a1.909,1.909,0,0,1,1.433.638,1.682,1.682,0,0,1,1.239-.452,1.892,1.892,0,0,1,1.725,1.113,1.541,1.541,0,0,1,1.1.27,2.709,2.709,0,0,1,.575,3.245A2.745,2.745,0,0,1,40.666,14.6v2.068A19.561,19.561,0,0,1,21.092,36.236ZM1.676,10.731a.717.717,0,0,0-.285.063.562.562,0,0,0-.319.344,3.176,3.176,0,0,0,.346,2.085,1.4,1.4,0,0,0,.738.705.5.5,0,0,1,.365.481v2.254A18.581,18.581,0,0,0,13.862,33.774a18.708,18.708,0,0,0,14.46,0A18.555,18.555,0,0,0,39.664,16.663V14.292a.5.5,0,0,1,.322-.468,1.76,1.76,0,0,0,.829-.8,1.824,1.824,0,0,0-.2-1.961c-.312-.195-.446-.121-.447-.121a.507.507,0,0,1-.516.192.5.5,0,0,1-.38-.4c-.018-.089-.2-.9-.953-.9-.549,0-.667.27-.667.5a.506.506,0,0,1-.42.5.5.5,0,0,1-.555-.33c-.011-.032-.307-.85-1.03-.85-.583,0-1.241,1.062-1.467,1.576a.5.5,0,0,1-.361.29,1.3,1.3,0,0,0-.977,1.123,1.5,1.5,0,0,0,.517,1.39,3.52,3.52,0,0,1,.5.671,3.891,3.891,0,0,1,.407,1.99,13.166,13.166,0,0,1-26.332-.02,3.584,3.584,0,0,1,.427-2.025,3.263,3.263,0,0,1,.462-.617,1.5,1.5,0,0,0,.518-1.389C9.2,11.691,7.955,11.4,7.942,11.4a.5.5,0,0,1-.389-.529c.116-1.47.039-4.083-.661-4.842a.466.466,0,0,0-.365-.176c-.484,0-.615.359-.667,1.831L5.849,8a18.383,18.383,0,0,1-.2,2.039.5.5,0,0,1-.474.417.474.474,0,0,1-.506-.38c-.368-1.486-1.2-3.745-1.9-4.113-.09-.046-.133-.037-.166-.022-.468.178-.51,1.208-.111,2.691.25.928.535,1.864.536,1.867a.5.5,0,0,1-.871.458A.652.652,0,0,0,1.676,10.731Z"/><path class="cls-3" d="M27.605,21.746h3.154a0,0,0,0,1,0,0v0a1.827,1.827,0,0,1-1.827,1.827H26.854a0,0,0,0,1,0,0V22.5A.751.751,0,0,1,27.605,21.746Z" transform="translate(-7.585 27.006) rotate(-45)"/><path class="cls-2" d="M28.072,25.075l-.955-.956a1.022,1.022,0,0,1,0-1.451l2.424-2.424.194.194a2.1,2.1,0,0,1,0,2.973Zm1.452-4.036-2.018,2.018a.475.475,0,0,0-.14.338.466.466,0,0,0,.14.334l.566.567,1.275-1.274a1.554,1.554,0,0,0,.177-1.983Z"/><path class="cls-4" d="M27.706,24.358h2.83a0,0,0,0,1,0,0v0a1.676,1.676,0,0,1-1.676,1.676H26.955a0,0,0,0,1,0,0v-.925a.751.751,0,0,1,.751-.751Z" transform="translate(-9.397 27.706) rotate(-45)"/><path class="cls-2" d="M28.071,27.444l-.848-.849a1.024,1.024,0,0,1,0-1.451l2.2-2.2.194.2a1.952,1.952,0,0,1,0,2.758h0Zm1.328-3.7-1.787,1.787a.476.476,0,0,0,0,.672l.459.46,1.154-1.151A1.406,1.406,0,0,0,29.4,23.746Z"/><path class="cls-5" d="M27.759,26.744h2.659a0,0,0,0,1,0,0v0a1.6,1.6,0,0,1-1.6,1.6H27.008a0,0,0,0,1,0,0v-.845A.751.751,0,0,1,27.759,26.744Z" transform="translate(-11.065 28.37) rotate(-45)"/><path class="cls-2" d="M28.071,29.7l-.792-.793a1.026,1.026,0,0,1,0-1.45l2.075-2.076.2.2a1.871,1.871,0,0,1,0,2.646Zm1.263-3.52-1.666,1.666a.477.477,0,0,0,0,.673l.4.4,1.089-1.088a1.32,1.32,0,0,0,.174-1.653Z"/><path class="cls-6" d="M27.812,29.016H30.3a0,0,0,0,1,0,0v0a1.516,1.516,0,0,1-1.516,1.516H27.061a0,0,0,0,1,0,0v-.765A.751.751,0,0,1,27.812,29.016Z" transform="translate(-12.653 29.001) rotate(-45)"/><path class="cls-2" d="M28.071,31.845l-.735-.737a1.026,1.026,0,0,1,0-1.45L29.29,27.7l.194.194a1.79,1.79,0,0,1,0,2.535Zm1.2-3.341-1.544,1.543a.477.477,0,0,0,0,.673l.346.345L29.1,30.041a1.241,1.241,0,0,0,.173-1.537Z"/><path class="cls-7" d="M27.865,31.176h2.318a0,0,0,0,1,0,0v0a1.436,1.436,0,0,1-1.436,1.436H27.114a0,0,0,0,1,0,0v-.685A.751.751,0,0,1,27.865,31.176Z" transform="translate(-14.161 29.599) rotate(-45)"/><path class="cls-2" d="M28.071,33.876l-.678-.68a1.024,1.024,0,0,1,0-1.45l1.834-1.835.194.2a1.712,1.712,0,0,1,0,2.42ZM29.2,30.713l-1.422,1.422a.479.479,0,0,0,0,.673l.29.289.961-.959a1.162,1.162,0,0,0,.171-1.425Z"/><path class="cls-8" d="M27.918,33.222h2.148a0,0,0,0,1,0,0v0a1.356,1.356,0,0,1-1.356,1.356H27.167a0,0,0,0,1,0,0v-.606A.751.751,0,0,1,27.918,33.222Z" transform="translate(-15.59 30.164) rotate(-45)"/><path class="cls-2" d="M28.071,35.8l-.623-.624a1.025,1.025,0,0,1,0-1.45l1.713-1.714.194.2a1.634,1.634,0,0,1,0,2.307h0Zm1.066-2.983-1.3,1.3a.477.477,0,0,0,0,.673l.233.234.9-.9A1.084,1.084,0,0,0,29.137,32.812Z"/><path class="cls-9" d="M27.972,35.156h1.977a0,0,0,0,1,0,0v0a1.277,1.277,0,0,1-1.277,1.277H27.221a0,0,0,0,1,0,0v-.526A.751.751,0,0,1,27.972,35.156Z" transform="translate(-16.938 30.696) rotate(-45)"/><path class="cls-2" d="M28.071,37.6l-.565-.567a1.025,1.025,0,0,1,0-1.451L29.1,33.989l.194.2a1.551,1.551,0,0,1,0,2.2Zm1-2.8L27.9,35.971a.476.476,0,0,0,0,.674l.176.175.832-.832a1,1,0,0,0,.168-1.193Z"/><path class="cls-10" d="M29.034,37.941l-1.7,1.694h0a1.2,1.2,0,0,1,0-1.692l1.7-1.7h0A1.2,1.2,0,0,1,29.034,37.941Z"/><path class="cls-2" d="M27.339,40.025l-.2-.2a1.476,1.476,0,0,1,0-2.082l1.89-1.89.2.2a1.474,1.474,0,0,1,0,2.081ZM29,36.667l-1.471,1.47a.926.926,0,0,0-.164,1.08l1.471-1.471A.923.923,0,0,0,29,36.667Z"/><path class="cls-11" d="M24.093,20.454h2.078A1.827,1.827,0,0,1,28,22.281v0a0,0,0,0,1,0,0H24.844a.751.751,0,0,1-.751-.751V20.454A0,0,0,0,1,24.093,20.454Z" transform="translate(29.354 54.893) rotate(-135)"/><path class="cls-2" d="M26.78,23.783l-1.663-1.664a2.1,2.1,0,0,1,0-2.973l.2-.194,2.423,2.424a1.024,1.024,0,0,1,0,1.452Zm-1.452-4.036a1.556,1.556,0,0,0,.178,1.983L26.78,23l.567-.566a.476.476,0,0,0,0-.672Z"/><path class="cls-12" d="M24.423,23.174h1.905A1.676,1.676,0,0,1,28,24.849v0a0,0,0,0,1,0,0h-2.83a.751.751,0,0,1-.751-.751v-.925A0,0,0,0,1,24.423,23.174Z" transform="translate(27.77 59.526) rotate(-135)"/><path class="cls-2" d="M26.887,26.26l-1.541-1.543a1.947,1.947,0,0,1,0-2.759l.194-.194,2.2,2.2a1.024,1.024,0,0,1,0,1.45Zm-1.328-3.7a1.4,1.4,0,0,0,.175,1.765h0l1.153,1.152.46-.459a.478.478,0,0,0,0-.672Z"/><path class="cls-4" d="M24.6,25.615h1.814a1.6,1.6,0,0,1,1.6,1.6v0a0,0,0,0,1,0,0H25.347a.751.751,0,0,1-.751-.751v-.845A0,0,0,0,1,24.6,25.615Z" transform="translate(26.223 63.688) rotate(-135)"/><path class="cls-2" d="M26.943,28.571,25.466,27.1a1.871,1.871,0,0,1,0-2.646l.194-.2,2.075,2.075a1.028,1.028,0,0,1,0,1.451Zm-1.089-1.865,1.089,1.088.4-.4a.478.478,0,0,0,0-.673l-1.665-1.665a1.322,1.322,0,0,0,.173,1.653Z"/><path class="cls-13" d="M24.77,27.944h1.724A1.516,1.516,0,0,1,28.01,29.46v0a0,0,0,0,1,0,0H25.521a.751.751,0,0,1-.751-.751v-.765A0,0,0,0,1,24.77,27.944Z" transform="translate(24.755 67.658) rotate(-135)"/><path class="cls-2" d="M27,30.773l-1.415-1.414a1.8,1.8,0,0,1,0-2.533l.194-.2,1.955,1.955a1.028,1.028,0,0,1,0,1.451Zm-1.025-1.8L27,29.994l.347-.346a.478.478,0,0,0,0-.673L25.8,27.432A1.246,1.246,0,0,0,25.975,28.971Z"/><path class="cls-5" d="M24.944,30.16h1.633A1.436,1.436,0,0,1,28.013,31.6v0a0,0,0,0,1,0,0H25.695a.751.751,0,0,1-.751-.751V30.16A0,0,0,0,1,24.944,30.16Z" transform="translate(23.368 71.436) rotate(-135)"/><path class="cls-2" d="M27.056,32.86l-1.349-1.349a1.712,1.712,0,0,1,0-2.42l.194-.2,1.834,1.834a1.025,1.025,0,0,1,0,1.451ZM25.925,29.7a1.162,1.162,0,0,0,.171,1.425l.96.959.291-.29a.478.478,0,0,0,0-.672Z"/><path class="cls-14" d="M25.118,32.263H26.66a1.356,1.356,0,0,1,1.356,1.356v0a0,0,0,0,1,0,0H25.869a.751.751,0,0,1-.751-.751v-.606A0,0,0,0,1,25.118,32.263Z" transform="translate(22.06 75.02) rotate(-135)"/><path class="cls-2" d="M27.112,34.834,25.826,33.55a1.636,1.636,0,0,1,0-2.308l.2-.2,1.714,1.715a1.024,1.024,0,0,1,0,1.45Zm-.895-1.673.895.9.235-.235a.478.478,0,0,0,0-.672l-1.3-1.3a1.082,1.082,0,0,0,.17,1.309Z"/><path class="cls-10" d="M25.292,34.253h1.452A1.277,1.277,0,0,1,28.02,35.53v0a0,0,0,0,1,0,0H26.042a.751.751,0,0,1-.751-.751v-.526A0,0,0,0,1,25.292,34.253Z" transform="translate(20.832 78.412) rotate(-135)"/><path class="cls-2" d="M27.169,36.7l-1.221-1.221a1.554,1.554,0,0,1,0-2.2l.2-.2,1.592,1.594a1.024,1.024,0,0,1,0,1.45Zm-1-2.8a1,1,0,0,0,.167,1.2l.832.831.178-.177a.479.479,0,0,0,0-.673Z"/><path class="cls-9" d="M25.465,36.131h1.361a1.2,1.2,0,0,1,1.2,1.2v0a0,0,0,0,1,0,0H26.216a.751.751,0,0,1-.751-.751v-.446A0,0,0,0,1,25.465,36.131Z" transform="translate(19.684 81.612) rotate(-135)"/><path class="cls-2" d="M27.226,38.446l-1.159-1.157a1.478,1.478,0,0,1,0-2.082l.2-.2,1.472,1.473a1.025,1.025,0,0,1,0,1.451ZM26.458,36.9l.768.767.121-.12a.479.479,0,0,0,0-.673L26.293,35.82a.923.923,0,0,0,.165,1.08Z"/><path class="cls-2" d="M27.183,27.543l-1.134-1.278a.074.074,0,0,1,.006-.105.076.076,0,0,1,.1,0L27.431,27.3a.175.175,0,1,1-.233.262Z"/><path class="cls-2" d="M27.383,32.071l-1.134-1.277a.075.075,0,0,1,.105-.106l1.277,1.135a.175.175,0,1,1-.233.262Z"/><path class="cls-2" d="M27.383,35.867l-.847-.99a.074.074,0,0,1,.1-.105l.99.848a.176.176,0,0,1-.228.267Z"/><path class="cls-2" d="M27.183,22.752l-1.134-1.277a.074.074,0,0,1,.006-.105.076.076,0,0,1,.1,0l1.277,1.135a.175.175,0,1,1-.233.262Z"/><path class="cls-2" d="M27.558,26.093l1.277-1.134a.074.074,0,0,1,.105.105l-1.135,1.277a.175.175,0,1,1-.262-.233Z"/><path class="cls-2" d="M27.558,30.621l1.277-1.134a.074.074,0,0,1,.105.105l-1.135,1.277a.175.175,0,1,1-.262-.233Z"/><path class="cls-2" d="M27.357,34.218l.991-.848a.074.074,0,0,1,.105.008.076.076,0,0,1,0,.1l-.848.991a.176.176,0,0,1-.267-.229Z"/><path class="cls-3" d="M11.567,21.746h2.078a1.827,1.827,0,0,1,1.827,1.827v0a0,0,0,0,1,0,0H12.318a.751.751,0,0,1-.751-.751V21.746A0,0,0,0,1,11.567,21.746Z" transform="translate(7.057 48.242) rotate(-135)"/><path class="cls-2" d="M14.254,25.075l-1.663-1.664a2.1,2.1,0,0,1,0-2.973l.194-.194,2.425,2.424a1.027,1.027,0,0,1,0,1.451ZM12.8,21.039a1.554,1.554,0,0,0,.177,1.983L14.254,24.3l.567-.566a.477.477,0,0,0,0-.673Z"/><path class="cls-4" d="M11.791,24.358H13.7a1.676,1.676,0,0,1,1.676,1.676v0a0,0,0,0,1,0,0h-2.83a.751.751,0,0,1-.751-.751v-.925A0,0,0,0,1,11.791,24.358Z" transform="translate(5.369 52.616) rotate(-135)"/><path class="cls-2" d="M14.255,27.444,12.713,25.9a1.952,1.952,0,0,1,0-2.758l.194-.2,2.2,2.2a1.026,1.026,0,0,1,0,1.45ZM13.1,25.514l1.151,1.151.46-.459a.479.479,0,0,0,0-.673l-1.787-1.787A1.4,1.4,0,0,0,13.1,25.514Z"/><path class="cls-5" d="M11.908,26.744h1.814a1.6,1.6,0,0,1,1.6,1.6v0a0,0,0,0,1,0,0H12.659a.751.751,0,0,1-.751-.751v-.845a0,0,0,0,1,0,0Z" transform="translate(3.765 56.643) rotate(-135)"/><path class="cls-2" d="M14.255,29.7l-1.478-1.478a1.871,1.871,0,0,1,0-2.646l.2-.2,2.075,2.076a1.024,1.024,0,0,1,0,1.45Zm-1.263-3.52a1.32,1.32,0,0,0,.174,1.653l1.089,1.088.4-.4a.477.477,0,0,0,0-.673Z"/><path class="cls-15" d="M12.026,29.016h1.724a1.516,1.516,0,0,1,1.516,1.516v0a0,0,0,0,1,0,0H12.777a.751.751,0,0,1-.751-.751v-.765A0,0,0,0,1,12.026,29.016Z" transform="translate(2.241 60.476) rotate(-135)"/><path class="cls-2" d="M14.255,31.845l-1.413-1.414a1.794,1.794,0,0,1,0-2.533l.194-.2,1.954,1.955a1.024,1.024,0,0,1,0,1.45Zm-1.2-3.341a1.244,1.244,0,0,0,.172,1.538l1.025,1.023.347-.345a.479.479,0,0,0,0-.673Z"/><path class="cls-16" d="M12.143,31.176h1.633a1.436,1.436,0,0,1,1.436,1.436v0a0,0,0,0,1,0,0H12.894a.751.751,0,0,1-.751-.751v-.685a0,0,0,0,1,0,0Z" transform="translate(0.797 64.118) rotate(-135)"/><path class="cls-2" d="M14.255,33.876l-1.349-1.349a1.712,1.712,0,0,1,0-2.422l.2-.194,1.833,1.835a1.025,1.025,0,0,1,0,1.451Zm-1.132-3.163a1.163,1.163,0,0,0-.168.6,1.149,1.149,0,0,0,.34.821h0l.96.959.29-.289a.476.476,0,0,0,.14-.336.47.47,0,0,0-.14-.336Z"/><path class="cls-17" d="M12.26,33.222H13.8a1.356,1.356,0,0,1,1.356,1.356v0a0,0,0,0,1,0,0H13.011a.751.751,0,0,1-.751-.751v-.606A0,0,0,0,1,12.26,33.222Z" transform="translate(-0.567 67.566) rotate(-135)"/><path class="cls-2" d="M14.255,35.8l-1.286-1.286a1.634,1.634,0,0,1,0-2.307l.194-.2,1.714,1.714a1.024,1.024,0,0,1,0,1.45Zm-.9-1.675.9.9.234-.234a.477.477,0,0,0,0-.673l-1.3-1.3A1.084,1.084,0,0,0,13.359,34.12Z"/><path class="cls-9" d="M12.378,35.156h1.452a1.277,1.277,0,0,1,1.277,1.277v0a0,0,0,0,1,0,0H13.129a.751.751,0,0,1-.751-.751v-.526a0,0,0,0,1,0,0Z" transform="translate(-1.852 70.822) rotate(-135)"/><path class="cls-2" d="M14.255,37.6l-1.221-1.221a1.552,1.552,0,0,1,0-2.193l.195-.2,1.592,1.593a1.028,1.028,0,0,1,0,1.451Zm-1-2.8a1,1,0,0,0,.167,1.194l.832.832.178-.177a.478.478,0,0,0,0-.673Z"/><path class="cls-10" d="M13.293,37.941l1.694,1.694h0a1.2,1.2,0,0,0,0-1.692l-1.694-1.7h0A1.2,1.2,0,0,0,13.293,37.941Z"/><path class="cls-2" d="M14.987,40.025,13.1,38.135a1.469,1.469,0,0,1,0-2.081l.194-.2,1.889,1.89a1.474,1.474,0,0,1,0,2.082Zm-1.665-3.358a.924.924,0,0,0-.1.428.91.91,0,0,0,.269.65h0l1.471,1.471a.928.928,0,0,0-.165-1.08Z"/><path class="cls-11" d="M15.079,20.454h3.154a0,0,0,0,1,0,0v0a1.827,1.827,0,0,1-1.827,1.827H14.328a0,0,0,0,1,0,0V21.2A.751.751,0,0,1,15.079,20.454Z" transform="translate(-10.34 17.771) rotate(-45)"/><path class="cls-2" d="M15.546,23.783l-.955-.956a1.025,1.025,0,0,1,0-1.451l2.425-2.425.194.2a2.107,2.107,0,0,1,0,2.973h0ZM17,19.748l-2.019,2.018a.476.476,0,0,0,0,.672l.567.566,1.275-1.274A1.555,1.555,0,0,0,17,19.748Z"/><path class="cls-12" d="M15.074,23.174H17.9a0,0,0,0,1,0,0v0a1.676,1.676,0,0,1-1.676,1.676H14.323a0,0,0,0,1,0,0v-.925a.751.751,0,0,1,.751-.751Z" transform="translate(-12.259 18.427) rotate(-45)"/><path class="cls-2" d="M15.439,26.26l-.848-.85a1.025,1.025,0,0,1,0-1.45l2.195-2.2.194.194a1.949,1.949,0,0,1,0,2.759Zm1.33-3.7L14.98,24.349a.478.478,0,0,0,0,.672l.459.459,1.154-1.152a1.4,1.4,0,0,0,.176-1.766Z"/><path class="cls-4" d="M15.071,25.615H17.73a0,0,0,0,1,0,0v0a1.6,1.6,0,0,1-1.6,1.6H14.32a0,0,0,0,1,0,0v-.845A.751.751,0,0,1,15.071,25.615Z" transform="translate(-13.983 19.068) rotate(-45)"/><path class="cls-2" d="M15.384,28.572l-.792-.791a1.029,1.029,0,0,1,0-1.452l2.075-2.075.194.194a1.871,1.871,0,0,1,0,2.648Zm1.262-3.519L14.98,26.718a.48.48,0,0,0,0,.674l.4.4,1.088-1.088a1.323,1.323,0,0,0,.174-1.652Z"/><path class="cls-13" d="M15.068,27.944h2.489a0,0,0,0,1,0,0v0A1.516,1.516,0,0,1,16.04,29.46H14.317a0,0,0,0,1,0,0v-.765a.751.751,0,0,1,.751-.751Z" transform="translate(-15.628 19.675) rotate(-45)"/><path class="cls-2" d="M15.327,30.773l-.735-.736a1.028,1.028,0,0,1,0-1.451l1.955-1.955.194.2a1.8,1.8,0,0,1,0,2.533h0Zm1.2-3.341L14.98,28.975a.478.478,0,0,0,0,.673l.346.346,1.024-1.023A1.245,1.245,0,0,0,16.524,27.432Z"/><path class="cls-5" d="M15.064,30.16h2.318a0,0,0,0,1,0,0v0A1.436,1.436,0,0,1,15.946,31.6H14.313a0,0,0,0,1,0,0v-.685A.751.751,0,0,1,15.064,30.16Z" transform="translate(-17.192 20.25) rotate(-45)"/><path class="cls-2" d="M15.271,32.86l-.679-.679a1.025,1.025,0,0,1,0-1.451L16.426,28.9l.194.2a1.712,1.712,0,0,1,0,2.42ZM16.4,29.7,14.98,31.119a.479.479,0,0,0,0,.673l.291.289.96-.959A1.162,1.162,0,0,0,16.4,29.7Z"/><path class="cls-9" d="M15.061,32.263h2.148a0,0,0,0,1,0,0v0a1.356,1.356,0,0,1-1.356,1.356H14.31a0,0,0,0,1,0,0v-.606A.751.751,0,0,1,15.061,32.263Z" transform="translate(-18.677 20.792) rotate(-45)"/><path class="cls-2" d="M15.214,34.835l-.622-.623a1.024,1.024,0,0,1,0-1.45l1.713-1.715.2.2a1.636,1.636,0,0,1,0,2.308h0Zm1.065-2.983-1.3,1.3a.479.479,0,0,0,0,.673l.234.233.9-.895A1.081,1.081,0,0,0,16.279,31.852Z"/><path class="cls-9" d="M15.058,34.253h1.977a0,0,0,0,1,0,0v0a1.277,1.277,0,0,1-1.277,1.277H14.307a0,0,0,0,1,0,0V35A.751.751,0,0,1,15.058,34.253Z" transform="translate(-20.082 21.301) rotate(-45)"/><path class="cls-2" d="M15.158,36.7l-.566-.567a1.024,1.024,0,0,1,0-1.45l1.593-1.594.2.2a1.558,1.558,0,0,1,0,2.2h0Zm1-2.8L14.98,35.068a.479.479,0,0,0,0,.673l.178.177.831-.831A1,1,0,0,0,16.157,33.893Z"/><path class="cls-10" d="M15.055,36.131h1.807a0,0,0,0,1,0,0v0a1.2,1.2,0,0,1-1.2,1.2H14.3a0,0,0,0,1,0,0v-.446A.751.751,0,0,1,15.055,36.131Z" transform="translate(-21.408 21.776) rotate(-45)"/><path class="cls-2" d="M15.1,38.446l-.51-.51a1.025,1.025,0,0,1,0-1.451l1.471-1.473.2.2a1.474,1.474,0,0,1,0,2.082Zm.932-2.626L14.98,36.874a.479.479,0,0,0,0,.673l.122.12.767-.767A.925.925,0,0,0,16.034,35.82Z"/><path class="cls-2" d="M14.9,27.3l1.277-1.135a.074.074,0,0,1,.105.105l-1.135,1.278a.176.176,0,0,1-.262-.234Z"/><path class="cls-2" d="M14.7,31.823l1.277-1.135a.075.075,0,0,1,.106.106l-1.135,1.277a.176.176,0,0,1-.262-.234Z"/><path class="cls-2" d="M14.7,35.62l.991-.848a.074.074,0,0,1,.105.008.076.076,0,0,1,0,.1l-.848.99a.176.176,0,1,1-.267-.228Z"/><path class="cls-2" d="M14.9,22.505l1.277-1.135a.074.074,0,0,1,.105.105l-1.135,1.277a.175.175,0,1,1-.262-.233Z"/><path class="cls-2" d="M14.521,26.341l-1.134-1.277a.073.073,0,0,1,.006-.105.075.075,0,0,1,.1,0l1.277,1.134a.176.176,0,0,1-.233.263Z"/><path class="cls-2" d="M14.521,30.869l-1.134-1.277a.073.073,0,0,1,.006-.105.075.075,0,0,1,.1,0l1.277,1.134a.176.176,0,0,1-.233.263Z"/><path class="cls-2" d="M14.721,34.466l-.847-.991a.074.074,0,0,1,.008-.105.076.076,0,0,1,.1,0l.99.848a.176.176,0,0,1-.228.267Z"/><circle class="cls-1" cx="21.092" cy="16.662" r="10.158"/><path class="cls-18" d="M31.4,16.023l-.413-.413H30.85l-.413.413-.413-.413h-.136l-.413.413-.413-.413h-.137l-.413.413L28.1,15.61h-.136l-.413.413-.413-.413H27l-.413.413-.413-.413h-.136l-.413.413-.413-.413h-.137l-.413.413-.412-.413h-.137l-.413.413-.413-.413H23.15l-.412.413-.413-.413h-.137l-.413.413-.413-.413h-.136l-.413.413L20.4,15.61h-.137l-.413.413-.413-.413H19.3l-.413.413-.413-.413h-.137l-.413.413-.412-.413h-.137l-.413.413-.413-.413h-.137L16,16.023l-.413-.413h-.137l-.413.413-.413-.413h-.136l-.413.413-.413-.413h-.137l-.413.413L12.7,15.61h-.136l-.413.413-.413-.413H11.6l-.413.413-.413-.413h-.144c-.034.346-.052.7-.052,1.052a10.513,10.513,0,1,0,21.026,0q0-.41-.032-.813Zm-10.308,8.4a7.759,7.759,0,0,1-7.759-7.76H28.852A7.76,7.76,0,0,1,21.092,24.422Z"/><path class="cls-2" d="M13.333,16.662a7.76,7.76,0,1,0,15.519,0Z"/><path class="cls-18" d="M19.891,16.662h1.2a0,0,0,0,1,0,0v.951a.25.25,0,0,1-.25.25h-.7a.25.25,0,0,1-.25-.25v-.951A0,0,0,0,1,19.891,16.662Z"/><path class="cls-18" d="M18.69,16.662h1.2a0,0,0,0,1,0,0v.951a.25.25,0,0,1-.25.25h-.7a.25.25,0,0,1-.25-.25v-.951A0,0,0,0,1,18.69,16.662Z"/><path class="cls-18" d="M17.489,16.662h1.2a0,0,0,0,1,0,0v.951a.25.25,0,0,1-.25.25h-.7a.25.25,0,0,1-.25-.25v-.951A0,0,0,0,1,17.489,16.662Z"/><path class="cls-18" d="M16.289,16.662h1.2a0,0,0,0,1,0,0V17.3a.211.211,0,0,1-.211.211H16.5a.211.211,0,0,1-.211-.211v-.641A0,0,0,0,1,16.289,16.662Z"/><path class="cls-18" d="M21.092,16.662h1.2a0,0,0,0,1,0,0v.951a.25.25,0,0,1-.25.25h-.7a.25.25,0,0,1-.25-.25v-.951A0,0,0,0,1,21.092,16.662Z"/><path class="cls-18" d="M22.293,16.662h1.2a0,0,0,0,1,0,0v.951a.25.25,0,0,1-.25.25h-.7a.25.25,0,0,1-.25-.25v-.951A0,0,0,0,1,22.293,16.662Z"/><path class="cls-18" d="M23.494,16.662h1.2a0,0,0,0,1,0,0v.951a.25.25,0,0,1-.25.25h-.7a.25.25,0,0,1-.25-.25v-.951A0,0,0,0,1,23.494,16.662Z"/><path class="cls-18" d="M24.694,16.662h1.2a0,0,0,0,1,0,0V17.3a.211.211,0,0,1-.211.211h-.779a.211.211,0,0,1-.211-.211v-.641A0,0,0,0,1,24.694,16.662Z"/><path class="cls-19" d="M21.828,20.783l-.02,0,.011,0Z"/><path class="cls-19" d="M20.377,20.78l-.021,0,.01,0Z"/><path class="cls-2" d="M7.125,13.738a.534.534,0,0,1-.117-.014,3.006,3.006,0,0,1-1.866-1.245,1.354,1.354,0,0,1,.03-1.208c.628-1.3,2.461-1.067,3.444-.726a.5.5,0,0,1-.327.946c-.47-.16-1.884-.468-2.216.216a.369.369,0,0,0-.027.344c.165.348.891.626,1.2.7a.5.5,0,0,1-.117.988Z"/><path class="cls-2" d="M2.242,14.833a2.1,2.1,0,0,1-.494-.056.5.5,0,0,1,.241-.972.941.941,0,0,0,.668-.078.469.469,0,0,0,.04-.4l-.409-1.148a.5.5,0,0,1,.943-.336l.41,1.147a1.446,1.446,0,0,1-.085,1.181,1.18,1.18,0,0,1-.273.34A1.694,1.694,0,0,1,2.242,14.833Z"/><path class="cls-2" d="M35.044,13.738a.5.5,0,0,1-.118-.987c.32-.078,1.033-.352,1.2-.7a.365.365,0,0,0-.028-.343c-.39-.807-2.2-.223-2.214-.216a.5.5,0,1,1-.328-.946c.984-.34,2.816-.571,3.443.726a1.351,1.351,0,0,1,.031,1.208,3.006,3.006,0,0,1-1.866,1.245A.534.534,0,0,1,35.044,13.738Z"/><path class="cls-2" d="M38.056,14.283a1.772,1.772,0,0,1-.3-.027,2.11,2.11,0,0,1-1.7-.967,1.094,1.094,0,0,1,.024-.975.552.552,0,0,1,.1-.122A2.167,2.167,0,0,0,36.6,10.28a.5.5,0,0,1,.41-.577.5.5,0,0,1,.576.411,3.225,3.225,0,0,1-.63,2.709c.086.173.377.343.972.447a.569.569,0,0,0,.5-.123c.637-.521.82-2.221.835-2.775a.546.546,0,0,1,.512-.488.5.5,0,0,1,.488.513c-.006.266-.1,2.622-1.2,3.525A1.556,1.556,0,0,1,38.056,14.283Z"/><path class="cls-2" d="M39.933,14.742a2.753,2.753,0,0,1-.867-.154c-.437-.228-.816-.468-.783-.875a.593.593,0,0,1,.366-.473.5.5,0,0,1,.637.309l.009.026c.04.026.095.058.168.1.687.221.926-.083.935-.1a.5.5,0,0,1,.683-.159.511.511,0,0,1,.161.7A1.512,1.512,0,0,1,39.933,14.742Z"/><path class="cls-20" d="M27.624,9.238a4.88,4.88,0,0,1-.18-.5,10.186,10.186,0,0,0-1.8-1.154v.034a1.845,1.845,0,0,0,.175.851,3.822,3.822,0,0,1,.326,1.622c0,.086,0,.167-.007.245H27.79c.006-.072.01-.152.01-.245A1.834,1.834,0,0,0,27.624,9.238Z"/><path class="cls-20" d="M23.92,9.238A3.825,3.825,0,0,1,23.6,7.616a4.321,4.321,0,0,1,.065-.783,10.106,10.106,0,0,0-2-.312c-.032.087-.065.168-.1.244a1.848,1.848,0,0,0-.175.851,1.845,1.845,0,0,0,.175.851,3.825,3.825,0,0,1,.325,1.622c0,.086,0,.167-.006.245h2.2c.007-.072.01-.152.01-.245A1.848,1.848,0,0,0,23.92,9.238Z"/><path class="cls-18" d="M21.567,8.467a1.845,1.845,0,0,1-.175-.851,1.848,1.848,0,0,1,.175-.851c.031-.076.064-.157.1-.244-.189-.011-.379-.016-.571-.016a10.27,10.27,0,0,0-1.646.133,4.118,4.118,0,0,0-.107.978,3.822,3.822,0,0,0,.326,1.622,1.848,1.848,0,0,1,.175.851c0,.093,0,.173-.01.245h2.056c0-.078.006-.159.006-.245A3.825,3.825,0,0,0,21.567,8.467Z"/><path class="cls-18" d="M25.822,8.467a1.845,1.845,0,0,1-.175-.851V7.582a10.075,10.075,0,0,0-1.987-.749,4.321,4.321,0,0,0-.065.783,3.825,3.825,0,0,0,.325,1.622,1.848,1.848,0,0,1,.175.851c0,.093,0,.173-.01.245h2.056c0-.078.007-.159.007-.245A3.822,3.822,0,0,0,25.822,8.467Z"/><path class="cls-18" d="M27.444,8.736a4.88,4.88,0,0,0,.18.5,1.834,1.834,0,0,1,.176.851c0,.093,0,.173-.01.245h1.248A10.251,10.251,0,0,0,27.444,8.736Z"/><path class="cls-21" d="M19.84,10.089a1.848,1.848,0,0,0-.175-.851,3.822,3.822,0,0,1-.326-1.622,4.118,4.118,0,0,1,.107-.978,10.111,10.111,0,0,0-2.378.7l.527.092-.638.588.122.859-.756-.426-.78.382.156-.776a10.3,10.3,0,0,0-.988.706l.216.47.855.149-.639.588.053.367h2.136l.081-.4-.6-.623.862-.1.406-.767.362.789.854.149-.638.588.052.367H19.83C19.837,10.262,19.84,10.182,19.84,10.089Z"/><path class="cls-21" d="M13.687,9.711q-.282.3-.54.623h.673l.081-.4Z"/><polygon class="cls-18" points="19.293 9.379 18.439 9.23 18.077 8.441 17.671 9.208 16.809 9.309 17.413 9.932 17.332 10.334 18.707 10.334 18.655 9.967 19.293 9.379"/><path class="cls-18" d="M15.782,9.379l-.855-.149-.216-.47a10.35,10.35,0,0,0-1.024.951l.214.221-.081.4H15.2l-.053-.367Z"/><path class="cls-18" d="M16.323,8.448l.756.426-.122-.859.638-.588-.527-.092a10.183,10.183,0,0,0-1.369.719l-.156.776Z"/><path class="cls-2" d="M29.037,10.614H13.146a.28.28,0,0,1,0-.56H29.037a.28.28,0,0,1,0,.56Z"/><path class="cls-2" d="M26.034,9.238h-6.88a.28.28,0,0,1,0-.56h6.88a.28.28,0,0,1,0,.56Z"/><path class="cls-2" d="M24.031,7.977H21.156a.28.28,0,0,1,0-.56h2.875a.28.28,0,0,1,0,.56Z"/><path class="cls-22" d="M21.927,12.362H20.275a.276.276,0,0,1,0-.551h1.652a.276.276,0,0,1,0,.551Z"/><path class="cls-2" d="M21.1,14.339a.276.276,0,0,1-.276-.276v-.851a.276.276,0,0,1,.551,0v.851A.276.276,0,0,1,21.1,14.339Z"/><path class="cls-2" d="M21.071,16.141a.969.969,0,0,1-.967-.969.275.275,0,0,1,.55,0,.418.418,0,1,0,.835,0,.276.276,0,0,1,.551,0A.97.97,0,0,1,21.071,16.141Z"/><path class="cls-2" d="M19.91,15.784a.612.612,0,0,1-.611-.612.174.174,0,0,1,.347,0,.265.265,0,1,0,.529,0,.174.174,0,0,1,.347,0A.612.612,0,0,1,19.91,15.784Z"/><path class="cls-2" d="M22.272,15.784a.612.612,0,0,1-.611-.612.174.174,0,0,1,.348,0,.264.264,0,1,0,.527,0,.174.174,0,0,1,.348,0A.613.613,0,0,1,22.272,15.784Z"/><path class="cls-22" d="M23.307,14.316a1.835,1.835,0,0,0,.985.611,3.412,3.412,0,0,0,1.206.122,2.06,2.06,0,0,0,1.967-1.04.116.116,0,0,1,.223.06,1.539,1.539,0,0,1-.858,1.064,3.243,3.243,0,0,1-1.314.316,3.775,3.775,0,0,1-1.326-.2,1.76,1.76,0,0,1-1.067-.83.1.1,0,0,1,.18-.106Z"/><path class="cls-22" d="M25.551,14.78a4.391,4.391,0,0,1-.445-.025,2.692,2.692,0,0,1-1.45-.517,1.659,1.659,0,0,1-.59-1.548,1.238,1.238,0,0,1,.443-.887,1.981,1.981,0,0,1,1.555-.194l.734.078a1.982,1.982,0,0,1,1.485.514,1.243,1.243,0,0,1,.248.959h0a1.661,1.661,0,0,1-.9,1.391A2.344,2.344,0,0,1,25.551,14.78ZM24.321,12.8c-.031.344.069.425.123.469a1.511,1.511,0,0,0,.793.244,1.5,1.5,0,0,0,.826-.073c.067-.035.191-.1.224-.408h0l0-.023a4.257,4.257,0,0,0-.591-.071l-.4-.036c-.139-.014-.273-.032-.4-.048A3.809,3.809,0,0,0,24.321,12.8Zm2.588.3h0Z"/><path class="cls-23" d="M26.909,13.094c.084-.8-.625-.721-1.542-.817s-1.594-.324-1.679.479c-.1.917.566,1.281,1.484,1.377S26.813,14.012,26.909,13.094Z"/><path class="cls-2" d="M25.552,14.483a4.035,4.035,0,0,1-.414-.023,2.417,2.417,0,0,1-1.3-.452,1.377,1.377,0,0,1-.482-1.287.964.964,0,0,1,.331-.685,1.752,1.752,0,0,1,1.334-.132c.12.015.245.032.375.046s.254.023.373.033a1.758,1.758,0,0,1,1.281.408.953.953,0,0,1,.181.737h0a1.377,1.377,0,0,1-.738,1.158A2.06,2.06,0,0,1,25.552,14.483Zm-1.2-1.983a.438.438,0,0,0-.253.052.377.377,0,0,0-.085.238.715.715,0,0,0,.241.707,2.392,2.392,0,0,0,1.941.2.716.716,0,0,0,.384-.641.378.378,0,0,0-.033-.249c-.095-.114-.467-.144-.827-.172-.124-.011-.254-.021-.389-.035s-.268-.032-.393-.048A5.1,5.1,0,0,0,24.354,12.5Zm2.555.594h0Z"/><circle class="cls-2" cx="25.259" cy="12.819" r="0.784"/><path class="cls-22" d="M29.163,14.138a.267.267,0,0,1-.128-.032L28.7,13.93a.276.276,0,0,1,.256-.488l.336.177a.275.275,0,0,1-.128.519Z"/><path class="cls-22" d="M28.827,12.784a.275.275,0,0,1-.061-.544l.512-.118a.278.278,0,0,1,.33.207.274.274,0,0,1-.207.33l-.512.118A.327.327,0,0,1,28.827,12.784Z"/><path class="cls-18" d="M23.083,11.678c-.067-.646-.018-.179-.033-.323h.035l.037,0,.072-.006.145-.012.29-.018.581-.021q.582-.008,1.162.029a22.145,22.145,0,0,1,2.282.3.283.283,0,0,1-.086.56,21.913,21.913,0,0,0-2.231-.257q-.555-.026-1.112-.007l-.555.03-.277.023-.138.013L23.186,12l-.035,0-.017,0h-.016C23.1,11.858,23.151,12.325,23.083,11.678Z"/><path class="cls-22" d="M19.06,14.417a1.76,1.76,0,0,1-1.067.83,3.775,3.775,0,0,1-1.326.2,3.243,3.243,0,0,1-1.314-.316,1.539,1.539,0,0,1-.858-1.064.116.116,0,0,1,.094-.134.118.118,0,0,1,.129.074,2.06,2.06,0,0,0,1.967,1.04,3.412,3.412,0,0,0,1.206-.122,1.835,1.835,0,0,0,.985-.611l0-.005a.1.1,0,0,1,.18.106Z"/><path class="cls-22" d="M16.633,14.78a2.348,2.348,0,0,1-1.083-.229,1.658,1.658,0,0,1-.9-1.391h0A1.243,1.243,0,0,1,14.9,12.2a1.987,1.987,0,0,1,1.487-.514l.732-.078a1.986,1.986,0,0,1,1.556.193,1.244,1.244,0,0,1,.443.888c.058.551-.026,1.854-2.04,2.065A4.388,4.388,0,0,1,16.633,14.78ZM15.9,13.006v.023c.033.31.157.374.223.408a1.554,1.554,0,0,0,.827.074c.988-.1.951-.457.927-.69a.054.054,0,0,1,0-.023,4.473,4.473,0,0,0-.593.053c-.127.016-.26.034-.4.048l-.4.036A4.224,4.224,0,0,0,15.9,13.006Z"/><path class="cls-23" d="M15.274,13.094c-.084-.8.625-.721,1.542-.817s1.594-.324,1.679.479c.1.917-.566,1.281-1.484,1.377S15.37,14.012,15.274,13.094Z"/><path class="cls-2" d="M16.632,14.483a2.051,2.051,0,0,1-.946-.2,1.376,1.376,0,0,1-.739-1.159.958.958,0,0,1,.181-.737c.271-.328.739-.365,1.281-.408.119-.01.244-.02.373-.033s.256-.031.375-.046a1.749,1.749,0,0,1,1.333.132.956.956,0,0,1,.332.685c.06.574-.092,1.562-1.776,1.739A4.066,4.066,0,0,1,16.632,14.483Zm1.2-1.982a5.114,5.114,0,0,0-.587.055c-.124.016-.255.034-.391.048s-.265.024-.389.035c-.36.028-.733.058-.827.172a.378.378,0,0,0-.033.249h0a.715.715,0,0,0,.382.641,1.845,1.845,0,0,0,.994.1c1.136-.119,1.233-.606,1.19-1.016a.386.386,0,0,0-.085-.238A.449.449,0,0,0,17.829,12.5Z"/><circle class="cls-2" cx="16.924" cy="12.819" r="0.784"/><path class="cls-22" d="M13.021,14.138a.275.275,0,0,1-.129-.519l.335-.177a.276.276,0,0,1,.257.488l-.335.176A.27.27,0,0,1,13.021,14.138Z"/><path class="cls-22" d="M13.355,12.784a.317.317,0,0,1-.061-.007l-.512-.118a.275.275,0,0,1,.123-.537l.512.118a.275.275,0,0,1-.062.544Z"/><path class="cls-2" d="M29.673,20.925a.276.276,0,0,1-.195-.081l-.271-.271a.275.275,0,0,1,.391-.388l.27.271a.275.275,0,0,1-.2.469Z"/><path class="cls-2" d="M28.576,22.64a.278.278,0,0,1-.194-.081l-.271-.271A.275.275,0,0,1,28.5,21.9l.271.271a.276.276,0,0,1,0,.389A.28.28,0,0,1,28.576,22.64Z"/><path class="cls-2" d="M26.94,24.275a.273.273,0,0,1-.194-.081l-.27-.27a.275.275,0,0,1,.388-.389l.271.271a.275.275,0,0,1-.2.469Z"/><path class="cls-2" d="M24.727,25.565a.273.273,0,0,1-.2-.08l-.271-.27a.275.275,0,0,1,.388-.391l.272.271a.275.275,0,0,1-.194.47Z"/><path class="cls-2" d="M23.385,25.565a.274.274,0,0,1-.2-.081l-.27-.27a.275.275,0,0,1,.389-.389l.27.271a.275.275,0,0,1-.194.469Z"/><path class="cls-2" d="M22.358,26.311a.276.276,0,0,1-.258-.182l-.131-.359a.275.275,0,1,1,.517-.188l.131.359a.275.275,0,0,1-.165.353A.252.252,0,0,1,22.358,26.311Z"/><path class="cls-2" d="M20.95,25.3a.276.276,0,0,1,0-.551l.383,0h0a.276.276,0,0,1,0,.551l-.383,0Z"/><path class="cls-2" d="M25.654,24.316a.273.273,0,0,1-.194-.081l-.271-.27a.275.275,0,1,1,.389-.389l.271.271a.275.275,0,0,1-.2.469Z"/><path class="cls-2" d="M27.335,22.957a.272.272,0,0,1-.194-.081l-.271-.271a.275.275,0,0,1,.389-.388l.27.27a.276.276,0,0,1-.194.47Z"/><path class="cls-2" d="M28.611,21.359a.273.273,0,0,1-.194-.081l-.271-.27a.275.275,0,1,1,.389-.39l.271.271a.276.276,0,0,1-.2.47Z"/><path class="cls-2" d="M30.328,18.819a.273.273,0,0,1-.194-.081l-.272-.271a.275.275,0,1,1,.389-.389l.271.271a.275.275,0,0,1-.194.47Z"/><path class="cls-2" d="M29.809,17.5a.274.274,0,0,1-.2-.081l-.27-.27a.275.275,0,0,1,.388-.39l.271.271a.276.276,0,0,1-.194.47Z"/><path class="cls-2" d="M29.522,19.624a.274.274,0,0,1-.195-.082l-.27-.271a.275.275,0,0,1,.39-.388l.271.271a.276.276,0,0,1-.2.47Z"/><path class="cls-2" d="M12.52,20.925a.275.275,0,0,1-.2-.469l.271-.271a.275.275,0,1,1,.39.388l-.27.271A.277.277,0,0,1,12.52,20.925Z"/><path class="cls-2" d="M13.616,22.64a.278.278,0,0,1-.194-.081.274.274,0,0,1,0-.389l.27-.271a.275.275,0,1,1,.389.389l-.27.271A.278.278,0,0,1,13.616,22.64Z"/><path class="cls-2" d="M15.252,24.275a.275.275,0,0,1-.194-.469l.27-.271a.275.275,0,0,1,.389.389l-.271.27A.272.272,0,0,1,15.252,24.275Z"/><path class="cls-2" d="M17.467,25.565a.275.275,0,0,1-.2-.469l.271-.271a.275.275,0,0,1,.389.389l-.271.27A.273.273,0,0,1,17.467,25.565Z"/><path class="cls-2" d="M18.808,25.565a.275.275,0,0,1-.2-.469l.271-.271a.275.275,0,0,1,.388.389l-.27.27A.273.273,0,0,1,18.808,25.565Z"/><path class="cls-2" d="M19.834,26.311a.26.26,0,0,1-.094-.017.276.276,0,0,1-.165-.353l.131-.359a.276.276,0,0,1,.518.188l-.131.359A.277.277,0,0,1,19.834,26.311Z"/><path class="cls-2" d="M16.538,24.316a.275.275,0,0,1-.194-.469l.27-.271a.275.275,0,1,1,.389.389l-.271.27A.272.272,0,0,1,16.538,24.316Z"/><path class="cls-2" d="M14.857,22.957a.276.276,0,0,1-.194-.471l.272-.27a.275.275,0,0,1,.388.39l-.271.271A.273.273,0,0,1,14.857,22.957Z"/><path class="cls-2" d="M13.581,21.359a.276.276,0,0,1-.194-.47l.27-.271a.275.275,0,1,1,.389.39l-.271.27A.272.272,0,0,1,13.581,21.359Z"/><path class="cls-2" d="M11.865,18.819a.276.276,0,0,1-.2-.47l.27-.271a.276.276,0,0,1,.391.389l-.27.271A.278.278,0,0,1,11.865,18.819Z"/><path class="cls-2" d="M12.384,17.5a.275.275,0,0,1-.2-.47l.272-.271a.275.275,0,1,1,.389.39l-.272.27A.273.273,0,0,1,12.384,17.5Z"/><path class="cls-2" d="M12.67,19.624a.276.276,0,0,1-.2-.47l.27-.271a.275.275,0,0,1,.391.388l-.271.271A.273.273,0,0,1,12.67,19.624Z"/><path class="cls-2" d="M21.092,6.591A10.072,10.072,0,1,1,11.021,16.662,10.083,10.083,0,0,1,21.092,6.591m0-1A11.073,11.073,0,1,0,32.164,16.662,11.073,11.073,0,0,0,21.092,5.59Z"/><rect class="cls-2" x="33.675" y="22.469" width="0.551" height="7.037" transform="matrix(0.862, -0.507, 0.507, 0.862, -8.49, 20.812)"/><rect class="cls-2" x="4.715" y="25.712" width="7.037" height="0.551" transform="translate(-18.339 19.904) rotate(-59.524)"/><path class="cls-18" d="M19.1,11.678c-.068.647-.019.18-.035.324h-.016l-.017,0L19,12l-.07-.008-.138-.013-.277-.023-.555-.03c-.37-.012-.742-.01-1.112.007a21.945,21.945,0,0,0-2.231.257.283.283,0,0,1-.086-.56,22.182,22.182,0,0,1,2.282-.3q.581-.038,1.162-.029l.581.021.29.018.145.012.073.006.036,0h.035C19.118,11.5,19.168,11.032,19.1,11.678Z"/><path class="cls-22" d="M21.1,12.362a.276.276,0,0,1-.276-.276v-.751a.276.276,0,0,1,.551,0v.751A.276.276,0,0,1,21.1,12.362Z"/><path class="cls-18" d="M8.279,2.49a.125.125,0,0,0,0-.25.125.125,0,0,0,0,.25Z"/></svg>